<mxfile host="app.diagrams.net" agent="Mozilla/5.0 (X11; Linux x86_64) AppleWebKit/537.36 (KHTML, like Gecko) Chrome/139.0.0.0 Safari/537.36" version="28.1.1">
  <diagram name="Page-1" id="i1RiUTOWHsNKG0-3-LbF">
    <mxGraphModel dx="4097" dy="1751" grid="1" gridSize="10" guides="1" tooltips="1" connect="1" arrows="1" fold="1" page="1" pageScale="1" pageWidth="850" pageHeight="1100" math="1" shadow="0">
      <root>
        <mxCell id="0" />
        <mxCell id="1" parent="0" />
        <mxCell id="o0hQOcRbF2GJ9zcyyPmL-1" value="" style="shape=image;verticalLabelPosition=bottom;labelBackgroundColor=default;verticalAlign=top;aspect=fixed;imageAspect=0;image=data:image/png,iVBORw0KGgoAAAANSUhEUgAABRcAAALYCAYAAADmXMWqAAAABHNCSVQICAgIfAhkiAAAABl0RVh0U29mdHdhcmUAZ25vbWUtc2NyZWVuc2hvdO8Dvz4AAAAqdEVYdENyZWF0aW9uIFRpbWUARnIgMjkgQXVnIDIwMjUgMTc6NDU6MDkgQ0VTVEl9K/YAACAASURBVHic7N13eFRlwobxe9JDCAkldETpRZAqWAHBig0XAQuy9rKLXVfsdS3oKra1fO6qa8PesGMBxS5KEWnSBATpCSX1fH8ETAIBkiFhUu7fdXGtc8p7njmMm/jMe84JBUEQIEmSJEmSJEmlFBXpAJIkSZIkSZIqJ8tFSZIkSZIkSWGxXJQkSZIkSZIUFstFSZIkSZIkSWGxXJQkSZIkSZIUFstFSZIkSZIkSWGxXJQkSZIkSZIUFstFSZIkSZIkSWGxXJQkSZIkSZIUFstFSZIkSZIkSWGxXJQkSZIkSZIUFstFSZIkSZIkSWGxXJQkSZIkSZIUFstFSZIkSZIkSWGxXJQkSZIkSZIUFstFSZIkSZIkSWGxXJQkSZIkSZIUFstFSVLZCFbAPadCi7oQEwWhKDh9XKRTqaJa+wwkhmDQc5FOIoCsd6BeNPS5H/IiHUaSJEmVSUykA0iSqoIA3rwUrnweepwCp7eH2Cjo1C7SwaRqKAdu6gG3ZMCEGbB/bKQDSZIkqQqzXJQklYFseH88RPeAp/8LbaMjHUhSacTuB+MmQI0WXtciSZKkUrFclCSVgQBWr4WoTlDbZkKqdEK1odcBkU4hSZKkSsj/ApSkaiETTq8L8f1gwQp49G/QsREkJECzbnDH50U3/+MruPg42LMuJCRC085wwcPwR+GbseXBQ4dAKAShBHhhPWS+Dw2iNi8r7p6LAUx5FobsD/WTISEZ2veFuz6C7GJiZ38FbWKg0/WwZhpceSw0S4X4mrD34fDOsjDG3ggnJkLicbDgGzi7L6QlQc3GcMIt8Pt2bji3cS7ceRZ0aQ41EyFtLzjsLHhz5rbbluj8hWMTvHETHNQWkuOhRh1o1R3OvBnmFx47F+7sBdFN4Y1v4Py+UDcJUveAv1wHv2YWM3Yp/26yfoN7z4V9mkFiPNTZE467HH5at+22ayfD3w+DhslQsyEMvArmbtrFc7FZ+hS48DBoUBOSG8HRo+DHJ7Z/P8fSfLaj0+DthXDXKbBXHUhMgV6nwtdriglSXp/tLPjoIRhxGLRpCjXioFYj6HsavP1r0TE/PBeiQxCKhRt/gty5cEDc5n8fQ/n//i8q/D6z4Oz6BetDoZ3cczGAac/BCfvmf54SU6Hz4fDA55C71aY/3QCxsXDV5/DmddCtGSQmQss+8OS07R1AkiRJlZAzFyWpWsmG+wbBwzNg/4OgSwxMmwCf/Az/OBBCwJJXoe8psLghHH8K7FUD5k6E/46Ez3+FiaMhJQREwaFXw//OAHLgofPg+7Zw3xVQCyAELbsWOnYAH/8Djr8HavaAwedDShZ88zaMOgp+fgH+c0LxX3vlLYLTBsCEmnDwEZCwDiZ9AZNXwlENwhs7dz6cchwEfWH4GfDVq/D6jZDTDF7/a9Ft07+GgQPh83ToNhDObwd5K2DCOLiqPhz1z4KfqCU+f6UVwLsXweDHoWkfOPckSFoPs3+C1x+AQf+APeO32mcdXHYshPaBM0bC4k/h5dtg8hL4+v8gLVQwdmnOX/YsGHIIvJUOAwbBUU1gzQx4ZQz0+Ro++RC6JuRvmzMTBg+A8Zug/zDoXgsmPgN/SSi+dCuN3F/hpEPhnbVw4BDYPw2+fBaGJEFOMduX9u8myIK7BsGSVDhmRP75e+M5+EscTHsCUsM8f4Xt7LMdrIbRl8GUdnDgoXBcI8heAuNehePHw9NfwcnN8sfqdAY8fRAEefDadfD6Jrj2Lmi9+TYF0Q2hbuEQMXDmw9BnE+T8BBfes+PzPX0M9LkMNjSFIedCg/Xw9li46DCY9zbcc0j+/4cUnECYOAr+swqO+Qt0nw0vvgfnnAjtfoTeW39eJUmSVCkFkqRqYFMQ/LVOEITig6Bh3yD4anXBqry1QfDT3M3//EcQDE0LgpQ+QfBDeqH9c4PgtdOCIDo+CO78pfjxhyUFQfzhQbAsr/gIGeODYK+YIOhyeRCsLLRN3toguLRjEMS0CYIvs4ruk/VlELSODoL4xCDodmkQLM0uWLdhXhD8siqMsTcEweCEICA6CE4aGwS5mxdnTg2CnnFBkHhYECwt/B4yg+DqjkEQSgiCS8YXbJ9/4CD4+MuCZWGfv5LYEASnpARB3P5BMCen6Kr0hUGwonDmnCC4Y98ggCBocU6hc5IVBPf3D4JQTBBc+32ht1Ga85cbBA/1D4LohkHw+KyiOX59LAjqRgfB0f8Ngi3DvHJyEERFB8GI1wuWZc8LgoF18/Md/2yY5yMIgrdPD4KoqCAY8lzB30HO/CA4upixS/V3kxsED/YLAkJB0G5kEKzaEjwjCC5qHQSh1CB4LaNgiPL8bAcbg2DK9CDYavdg7UdB0DI6CDpcHQTZW60LsoPgxn2CILplEHyx9Y7bkTkuCOpGBcHBY7b6jG95L8uDYFBqEEQ3C4KXlxZ6718HQbeEIIjrFgTTCn0uf7w+CGIIghr7BsH367cMUvB5uGhCyXJJkiSpwvOyaEmqVgIY+RD0Si1YFKoFnVvk//Pvr8GbK+Ho86HZJlixYvOfVbDvMVA3G8ZPgCCMQ3/wH1gQB2efA3krC8ZemQUDDwfmwcdzit83pwncdxs0LDThPnFPaFs7/LGjW8CFgwpmk8W1g8NaQ9Zc+LXQtLesSfC/X6DBMLjpkK1mnyVBv94Fy8rz/JEDG7OBqPxLXwur2QzqFjcbMhb+OhLqhAq9vgBSc+HtcQWXspbm/OXOhP9MgL2GwNG1C73HFZB8KPSOg4kfwiaATfDm+xDVBkYOLJjVFrMnjNzOTL4S2wSvjoOoVnDp4IKxopvD34sZO6y/mxg480KovSV4EgzsB6H1MHNxwWbl+dkmATp1gFiAXFi3EpYtgw2tYJ9E+HUarA/n/JVSxqfw0VpoPwKOa1iwPKknjOwP2VPh7a3fYwgOOR+61ih4fejRkJAHs2aH+e+BJEmSKhovi5ak6iS6BRzaZvvrp30HmXnw7DB4djvbrFief0+2Uj0QOgd++BHyNsDf2sDfig0Hy/4A2m+7qk4f2DehbMeOaQWtCv8YjILUWhCsgg2FWo8lP8KyPDisL9Tc4Zssx/MHkATHDIDX34K+/eDkQXBAL+jVDept5/LSUA3o3KroshodoGUMzJyRf1lydCnP34afYEYObLgfGt1f/HHjV8C6AOIXw+x0iOsDbbf6laND5137LSRvCcxcA7EHQIfYnY8dzt9NqAa0aVZ0m1qpEBXA+i2NXnl+tjdb8jFcewu88SWszixaysWvh/VBmJfal8KCX/IL4727bnVuQ9BpH4h+B36ZA7QttC4K2rQueql0fAokhGDD+vz3Uc6xJUmSVP4sFyWpOolKg7QdTBdbuwaCGDj3CRjcuPhtkluGMeNs89Oko5vCff8H7Ypr1kLQrHPxu6c12EEZF+bYoViIDW2zGQRFy5v0dfmvU2vvvAgpt/MHEAUjngJugQfGwl2XQm4A0bXg+Ovh8UsLzbDb8n5qQNJWBwslQc0QZK+HTCChlOcvfXX+cXtfCbccup2odfOzBBvyi9r4mptn3hVSM3nXiqVgc6mWkAxxJRg7nL+bUCzEFfcZAYItH5Ly/GwD6Z9A/6NgXgM462Y4uD3UigWy4Z6TYUJu/t9Hebd06zMgCEFyMQ17zVoQCiBj6ymUIYjb+i8nf3HB+ZMkSVJlZ7koSdVK9I6LjJrJ+SVBrbYwoFcZHndzKRH8AXv1gQE7mam1tagdhd7FsXcmuVZ+GbJm9c5nWpXb+dsslAp/vSf/T/rC/AfKjL4FXv0HNOoOD/Qtun2wAdZv9ejfYD1kBBBTA+Kh1OcvKRmiQhBKg0MG7LgozUuCpBBkrs+fJVl4gmVG+q5dFhvaPPamjG3HXp+x7diV8rMdwFsPwswouPsjuLR1oXXr4JHinlpTTpJq5p+/9Ixt12Wsyy8ek5J2Xx5JkiRVGN5zUZJUYO9uEJcHH48vuB9fmYiBbp0hWAMffVuWA5fz2EDjLtAgCr79BIrpVYoot/NXjOQ9YOD5+eVT7QC++XrbYwYbYMpW98HbOAPm5kDLdpu/Yizl+UvqDG2iYcpHsDRvx9tGNYY2tSBrBszcqgj7eUrxT3QuqajG0DYVsqfnX6Zd2Ixixq6Un+08mL8AohpCrz2Lrtr4DfywvcdthyA6Kn//nfwVlVjztpAATPtxq3MbwNSfIDcG2rXazs6SJEmqyiwXJUkFmgyCI2rD5HvhwalbrcyCSf+Fj/8Ib+zDT4emwP9dAZPWFF2XuwrGPgrzwmx9ynPsuP1heDtYPhZuGL9VWbMRvvi2YFl5nr8gA74ppjRbvgg2BlAvrZif6tnw5AOwass0vhx4+t+wJhoGDiy4fqE05y+mI4zoDRs+gsueg6ytDrngI/jf15tfJMBxR0LeTHj4vYLZhLnz4YFXd7H4SoATBkLeHBjzRsHYeYvh369tO3al/GxHQaMGkLcUvpxXaHkG3H09/La9MaMgrS7k/QG/rg3juMWo2Q/6p8CMp+DtZQXLN/wAD42HmL1hoOWiJElSdeRl0ZKkAqFGcN/DMO2vcElvePV42H9P2LAYPv8AJq+Ee2fCIWmlH7vW4fD4SDhxDBzSEY49DlqnwLKZ8OEHsKQ5fHUm7BVG7vIcmzi46v9g4tFw35Ew4Wg4pD0EK+GLd2DNqTClZ36xV57nL1gFV+wLszvCYQdA87qw5hd46VXIaQF/O37bS7ajkiF4HXovhOO7wJLP4MWvoPkIuKh7mOcvGi54BD4+DF4cAT/+D47sBnHpMPlT+PRnGPgMDN986fHAa6H/O/DfYbDoJOieDBNfhCWpEL0yjL+PQo64Fo58G54bDss/gAPSYNILsLQJxGxVFFbKz3YIjjkHmrwP1xwCU0+C5iH46jX4viH0SoYftrNf38MhYTxc9RdYeEL+Q3+iG8PJx8KWq5cXfAafzssvZnOmQGYAy76Bp57M/yxF1YPjBuY/LCaUBrdcDxMuh5N6wdAToMFGGPcC/AyMvBP2LvVTiiRJklQFWC5KkopqPhS+bAGj74LXPoJ710ByQ2jVA24ZDH/ZzsMwdioEh/8LJu0HdzwMHz8Hb2RBWjPY+0S45hRoF+6PpfIcG0juDe9/DWP+Cc9/CA+Og8SG0KU//GNE0Z+m5XX+ourCBVfBcx/BZy/C0lWQUB96Dod/3AgD6hSzUy245yV4+wp4/D7IrQsDr4a7r4X6hZvIUp6/+I7w6jfw6B3w1Dh4/FOISoXmbeCCu2B4oQe9xLSBlz6Eq6+El56DL5Lg4L/Cy23ggLPDOxdbRLeA5z6Eay6Hsc/ApGTodxY8sxf0Ohvit3qKdmX8bNc7Dt5/Gi7/J7wyBvJSoPdf4MOb4YH22ykXgbYj4anl8M/n4dbLICsXYvvCEUcXPOTnu4fh9BeL3p9y5rNwxubHacf2hH2PhJTNpeHeF8On9eH6++DNR2BDDLTcF/51PYw82Cc/S5IkVVOhIPBxfZIkVS25cOf+cPVi+OhX6FfME3urstmjoeMouHAC3L1/pNNIkiRJVZr3XJQkSZVUAOnrt1qWDa++CnkNoH/niKSSJEmSqhMvi5YkSZXUevhrC1hxCPTrCXUDmPwGPPMNDHgIDq0Z6YCSJElSlWe5KEmSKqk4GHhC/j0fH3gbMgJo2gkufx6uGeJvOZIkSdJu4D0XJUmSJEmSJIXFey5KkiRJkiRJCovloiRJkiRJkqSwWC5KkiRJkiRJCovloiRJkiRJkqSwWC5KkiRJkiRJCovloiRJkiRJkqSwWC5KkiRJkiRJCovloiRJkiRJkqSwWC5KkiRJkiRJCovloiRJkiRJkqSwWC5KkiRJkiRJCovloiRJkiRJkqSwWC5KkiRJkiRJCovloiRJkiRJkqSwWC5KkiRJkiRJCovloiRJkiRJkqSwWC5KkiRJkiRJCovloiRJkiRJkqSwxEQ6gCSplHJzITs70ikkKbJiYyE6OtIpJEmSqj3LRUmqbJ5/HoYPj3QKSYqs//0PTj010ikkSZKqPctFSaqM2raFTz+NdApJioy+fSOdQJIkSZtZLkpSZVSvHjRsGOkUkhQZ9epFOoEkSZI284EukiRJkiRJksJiuShJkiRJkiQpLJaLkiRJkiRJksJiuShJkiRJkiQpLJaLkiRJkZQHD/eHxudDVqSzSJIkSaVkuShJkhRJIaizJ7RtDKFIZ5EkSZJKKSbSASRJkqq1EAx7AoZFOockSZIUBmcuSpIqlly4uSvsfQ2MHw377gGJSdCiD3ydDeTBh3fCEV2hfjLUqA09T4RxCwqGeG4Q7HU0DGwBKa3hoVfg+FaQ3BTu/DZ/m7xF0C8Rht4Mw7pCzURovh889mNE3rWqoDXfwpkHQ70a+Z/TDn3g/m8KbZADV3eAUCj/T3GXRWe+DrUS4Y6X4ITOmz+nfeCN34pulzUfbjgR9kiFhFTY/wz4bm05v0FJkiQJy0VJUgX1x4tw2Rcw6iX46Su4of/mFXnw0xTofgY88hK89T84dC0MORa+K9TM/DYTjn8A/hIFF50L3e+Gi1rCPf+GTRSM9cpD0O1BWLoERneCiwfB+5Yy2lWb4NoT4YNkePANGPcMnN8LFv0GwZZtYuDKj2Der3DL/jsYKwvG/BvOfBl+nQyHL4dzr4H0zauDFfC3/nDvLzDyUXjjcWg+CY4+C5bmle/blCRJkrwsWpJUIa3MgxeehX5J+a/bdCpYd/mzRbft2xrGd4W3Z0CPffKXpQ2AEQOh+Rvw/Hw45zhYNxvuexuW5UGzzfu2OxsuPSD/B+KJ/4TnXoBH3obDTvH+dwpf3mL44Xc45gkYtrkY7zdw2+1SG0NqHtRJ2MFgIRh8PQxsk//yktPgf/8HU7LhgFj4+VF4ehX8+zM4o2n+Nn0aQafD4H9z4Mo2ZfrWJEmSpCKcuShJqpDq9YcDkopft/xzOOdwaJ4GSYmQtA98nwV/rCrYJrlW/g+5pGSITobkECTVBNbD+i1Tx0LQuXvBN22hVOjaAqb8ADnl99ZUDUQ1gA514eUb4aHXYeZyCHsSYQx0al/wsl4asBrW5AEBfP4pRB0AxzUp2CahO/SMhe+8zF+SJEnlzHJRklQh1U0r/odU7kwYfBRMrANjXodvJ8Pk96FHDOQUagRDm3eOigKi8mchRkUBuZD750aQVKPQ4KH8sjJ9baFLV6Vw1ITRr8GJNeGfw6F9Q2i6H4ydG8ZYIYiLLfqavM1lZR6sWgOZ70GTREhI2PynNryYDmv9LEuSJKmceVm0JKlCCm3n668F4+CbJHjtCThyczGYmwWbwmlQ8mDV6kKvA1i1Nn/Wo5dEa1fV3hceehceyoGZH8Hl58B5o+CwsVC7rD5gUVAnFWoPgk9vgditVic18rMsSZKk8mW5KEmqVDI3QSgJUgq1KAs+hpk50CuM8b79DDYMgxrkP0H683nQqas/IFWGYqDtEXDJ0fDhT7AqKMNyMQQHHAwbnoeM5rBfYhmNK0mSJJWQ/+0kSapUWvSFZjfDg89Dx2GQPgnOGwPR4ZQ1IVg5Fs5qA2e0hw/ugK/qw+vHONtLuyZnKgz5B+w7GLq2hNw58M8XocXZsMfmWbk56bB4JQQBrNoEuemwYD7EhiC5AdTd0UNeCul4Lpz0HxhyDFx9AbSrCYtnwcdvwUFPwOlNy+1tSpIkSZaLkqTKJX4/eOFeOHcU1D8XmnSDS8dA7tAwBgvB4Bsg9jkYNAVS94H7X4MjU8s8tqqZ6PrQPRWeuxluXQqhunDwCHjihoJLl3/7D7S9GLK27DQJ2jwLRME578Gjh5bsWKH68MgncMcouPts+G0TNGwJfY6DXnXK/r1JkiRJhYWCIPA+35JUmTzzDDzyCHz+eaSTVGp5i6B/G2jzZslLHEkVxIEHwnnnwamnRjqJJElStefToiVJkiRJkiSFxXJRkiRJkiRJUli856IkqVqKagafbIx0CkmSJEmq3Jy5KEmSJEmSJCkslouSJEmSJEmSwmK5KEmSJEmSJCks3nNRkrRD06cvj3SEKq9ZsxRq1YqPdIwqbd26TBYtWhvpGFVex471Ix1BkiRJu5nloiRpu156aTqXXvoBKSkWX+UlOzuPvfdO45VXhkY6SpU2YsRrzJixgpgYL9ooL+vWZXL33YcxZEjHSEeRJEnSbmS5KEnarp9//oMzz+zKjTf2jXSUKmv69OUMHfpypGNUeb/8soLXXx9Gu3b1Ih2lyrrppk/5+ec/Ih1DkiRJu5lf30uSJEmSJEkKi+WiJEmSJEmSpLBYLkqSdsnatWtZv359pGNIu2z58uXk5eVFOoYkSZJUqVguSpJ2yfTp05k1a1akY0i7ZMOGDcycOZMVK1ZEOookSZJUqVguSpLClpGRQRAEpKenO+NLldrSpUsJgoDFixdHOookSZJUqVguSpLCtnTpUnJycgiFQvz++++RjiOF7ffffycIAjIyMsjOzo50HEmSJKnSsFyUJIVt2bJlAOTl5TnjS5XWmjVriry2KJckSZJKznJRkhSWVatWEQqF/nydmZnJpk2bIphICs+SJUvIyckB8ovyJUuWRDiRJEmSVHlYLkqSwlK4kIH8Umbp0qURTCSFZ+uHuOTk5PgEdEmSJKmELBclSWFZuXJlkddBEHg5qSqd5cuXEx0dXWRZbm6uRbkkSZJUQpaLkqRSW7Zs2TaFDOTPXly3bl0EEknhWbx4cZEZuFC9i/K///3vkY4gSZKkSsZyUZJUaosXLyY3N3eb5Tk5Oc74UqWRnZ1NRkZGsetCoRCrV6/ezYki67DDDqNRo0YMHz480lEkSZJUiVguSpJKJScnh+zsbKKjo4mOjiYqKoqoqKg/X6enp0c6olQiGRkZhEKhIp/lLf+cl5fH2rVrIx1xt3nooYdo06YN11xzDbGxsXz11VeRjiRJkqRKIibSASRJlUtMTAzdunX7c+biggULiI+Pp2HDhn+ulyqD2rVr06NHjz9f//DDD3Tq1InY2FgA4uPjIxVtt3vyySd5/PHHAWjdujVvvvkmvXv3jnAqSZIkVQbOXJQklVpsbCwJCQkkJCQQHR1d5LXloiqTLZ/bhIQEQqEQ8fHxRV5XB7/99hu///47Xbp0AWDQoEFMnTo1wqkkSZJUWVguSpIkVWMff/wxZ5xxxp+v27Vrx+eff86aNWsimEqSJEmVheWiJElSNfbBBx/Qpk2bIst69erF119/HaFEkiRJqkwsFyVJkqqxzz//nAMPPLDIMstFSZIklZTloiRJUjW1dOlS9tlnH5o3b15kec+ePZk9e3aEUkmSJKkysVyUJEmqpr777juCINhmebt27fjqq68ikEiSJEmVjeWiJElSNTV58mS6du26zfJWrVqxcOFCsrKyIpBKkiRJlYnloiRJUjX1ww8/0K1bt2LXdezYkenTp+/mRJIkSapsLBclSZKqqTlz5tClS5di1w0YMIBff/11NyeSJElSZWO5KEmSVA2lp6ezcOHCbR7mskWNGjWYNm3abk4lSZKkysZyUZIkqRqaOnUqnTp12u76Vq1aMWfOnN2YSJIkSZVRTKQDSJJUEUycOJEJEyaU6zEuvfRSEhMTy/UYUkmVpFx86KGHdmMiSZIkVUaWi5Kkau+NN97gX//6FwcddFC5HicIgnIdXyqNX3/9dbsPcwFo2bIlc+fO3Y2JJEmSVBlZLkqSqr0hQ4aQnp5OXFxcpKOoGho/fjyzZs2iTp06nHjiiURF7Z671nz77bccccQR212flpZGt27dWLduHbVq1dotmSRJklT5eM9FSVK1NmLECB5//HGLRe12zzzzDEceeSRjx45lzZo1/PTTTxx00EF8+OGHu+X4P//8Mx06dNjhNkuWLGHBggW7JY8kSZIqJ2cuSpKqrXfeeYcVK1Zw2mmnRTqKqpnzzjuPevXqMXbs2CKzAnNycvjb3/5G+/btadq0abkdf9WqVWRnZ9OgQYMdbte8eXMWLFiww3szSpIkqXpz5qIkqdoaNmwYL7zwQqRjqBpJT0+nf//+DB06lFtvvXWby41jYmJ49NFHOfPMM/nyyy/LLcesWbM4/vjjd7rdlnJRkiRJ2h5nLkqSqqVzzjmHe+65h+Tk5EhHUTWxYMEChg8fzltvvUVKSsoOt3355ZfZd999mTFjRrlkmTp1KtHR0TvdznJRkiRJO+PMRUlStfPxxx8zd+5czj777EhHUTUxZcoULrnkEiZMmLDTYhEgOTmZM844gyuvvLJc8syYMYP27dvvdDvLRUmSJO2M5aIkqdrxcmjtThMnTuS2227j1VdfLdV+V1xxBe+99x4rVqwo80y//PIL7dq12+l2LVu29GFHkiRJ2iHLRUlStTJy5Eiuv/560tLSIh1F1cC4ceN4+umnGTt2bFj7X3HFFTz00ENlnKrkMxcbNWrExx9/XObHlyRJUtXhPRclSdXGF198weTJk3nggQciHUXVwPPPP8+kSZN4/PHHwx5j+PDhxMfHM2rUqDKbQZiZmcnSpUvZc889d7pt48aN+f3338nLyyMqyu+kJUmStC1/S5QkVRteDq3d5a677mLKlCllUmRfc801PPbYY2WQKl9JL4neolmzZixatKjMji9JkqSqxXJRklQtXHHFFVx00UU0bdo00lFUxZ111lnUqlWL22+/vUzGO/nkk3n44YfLZCyAmTNn0rZt2xJvb7koSZKkHbFclCRVed9//z2ffPIJl19+eaSjbGP+/DUsWbKOs856I9JRtIvGjx/PIYccwvDhwznvvPPKbNxWrVpRp04dvvjiizIZb2czF3Nzc4u8Lmm5+MEHc7jvvq+49trxu5xRkiRJlYfloiSpyhs6dGjYD9Qob7/+upqkpHg2bMghJeV2S8ZKaNWqVVx88cWMHTuWd999lz59+pT5MUaMGMGLL75YJmOlp6fTtWvX7a6fNWsWX3/9Nb/99hs5OTl06tSJ1atX73Tcn39ewdFHwj0aVAAAIABJREFUt+G112bSsOHoCl8yjhnzFT17PsbJJ79ETk5OpONIkiRVWpaLkqQq7dprr+X000+nZcuWkY6yXdHRIZ577i9MnXoBmzblUrfunVx66fuRjqWdmDNnDtdffz3Dhw+nX79+PPbYY8THx5fLsYYOHcqTTz5ZJmONHz+e5s2bb3d9eno6mzZtYv78+Xz55ZesXbuWyZMnl2jsVq3qMH36BTz55CDefHMWbdo8wMMPf1MmuYsYNAjatAl794YN7+bii9/nu++W8Pzz00lIuI1PPplfdvkkSZKqEctFSVKVNW3aNN544w2uueaaSEcpkT32SOGZZ05g8uTzWLNmE82b38t//1uyUkflLwiCP582fvLJJ3PVVVfRsmVLxo0bx3HHHVeux65VqxYHHHAA77777i6PNWPGDNq3b7/T7XJzc8nLyyMpKYnZs2czYcIEZsyYwdq1a3e67xFHtGLKlPMZM+YInnrqJ4466lm++WbxLmf/02WXwb77hrXrqFHjWbYsAwj+XJabG3DYYU+XUThJkqTqJSbSASRJKi/Dhg2rsJdD78gee6Twn/8cx8KFaxk1ajyXX/4BAwbsRaNGtSId7U99+jRn0KCdF1QV2eLFi4tcDvvLL78wbtw4oqOj2bhxI7m5uaxbt47169ezevVqfv/9d1q2bEmbNm046aST6Ny5MwALFizYLXkHDBjA008/TYcOHcIe47fffqNevXosW7Zsu9tsfc/FtLQ0li9fThAELF++nFWrVgH592LcY489dni8I49szZFHtubdd2dz9tlvsmFDNgMHhj/jsCw8+WTxhX1OTkBOTg4xMf56LEmSVBr+9iRJqpJuvfVWBg0aRMeOHSMdJWxBEGz+3wgH2cqYMV8BVPpyMQiCP88xQF5e3p+vU1JSiI+Pp3Xr1qSkpNCoUSP23HPPbfbfnQ499FBuvPHGXXoK9ezZs2nVqlWpsqelpfHHH3+EfUzI/wwHAYRCoV0aR5IkSRWP5aIkqcqZPXs2Tz/9NLNmzYp0lLDMn7+Gm276lE8+mc8NN/Th2WdPiHSkKqlp06ZFXnfo0IHhw4cTFxcXoUQ7d8IJJ7Bw4UIOPvjgsPZfs2YNvXr12qYoLWz58uVFXterV48VK1YQCoVIS0ujcePGpKSklOh477wzmxtv/JS0tBo88cSx9OzZJKzcZSkxMZY77pi4zfKYmJCzFiVJksLgPRclSVXOsGHDeOGFFyIdo9TmzVvNySe/Qo8ej1KnTg3mz7+Y00/f/lN9Vf1069aNV155Jez9p0yZQtu2bUu0bXR0NKFQiNTUVBo3bkyLFi1o3759iYrFceNmsffeD3Hxxe9yxhn7MG7cKWVbLN5zD3wT3oNibr+9P126NAIKZlEmJcXxwQenlVE4SZKk6sWvZyVJVcro0aPp378/3bp1i3SUEsvNzWPo0Jd4//25DB3akRUr/hHpSKqgBg0axN///vew958+fTrnnXfeDrdJTk4GoEmTJjRs2JDo6GgOOeQQli1bts1sz63Nnr2S9u0fZM2aTM4/vwfXX98n7Kw79Npr0KBB2A91mTz5XD77bD5HH/08F1zQndtvH0BUlN+5S5IkhcNyUZJUZSxatIgHHniAhQsXRjpKibVsWZsNG7KpXTuRNWuuinQcVXDNmjXj119/Zdq0aey9996l3n/69Ok7vQ9p27ZttynaNm7cyPz58+nevft299t77zTeeWcOl1zSu/xKxTLUp8+epKTEM2hQB4tFSZKkXeBvUpKkKmPo0KGV7unQzZun0qhRMo88cnSko6iSOOaYY3jnnXdKvd+iRYvo27cvSUlJO9yuuKKtSZMmLF68eIf7DRjQkosu6lUpikVJkiSVHctFSVKVcP/999OzZ0/222+/SEeRytVRRx3FW2+9Ver9fvzxx7Bn6B1wwAHUqFEjrH0lSZJUtXlZtCSp0lu+fDm33XYby5Yti3QUqdwdeOCBTJ06lbVr15b4qc2Q/zCXzp07h3XMIUOGhLWfJEmSqj5nLkqSKr3K+nRoKVznnHMO48ePL9U+u1IuSpIkSdtjuShJqtQee+wxWrduTb9+/SIdRdptunTpwiuvvFKqfbKzs+nSpUs5JZIkSVJ1ZbkoSaq01q5dy5VXXsmjjz4a6SjSbjVw4EB++OGHEm+/adMm3n33Xdq0aVOOqSRJklQdWS5KkiotL4dWdZWSkkK9evX4/PPPS7T95MmT6dq1azmnkiRJUnVkuShJqpSeeuopGjRowBFHHBHpKFJEHHPMMSV+arTloiRJksqLT4uWJFU6mZmZnHvuuWzatCnSUaSIOe6447j88stLtO3333/PwQcfXM6JJEmSVB05c1GSVOl4ObQEbdu25ZdffmHOnDk73faLL76gd+/euyGVJEmSqhvLRUlSpfLCCy+QkJDA8ccfH+koUsSdeeaZfPLJJzvcZtWqVfzxxx+0bdt2N6WSJElSdWK5KEmqVE466SSef/75SMeQKoQ+ffrw3//+d4fbfPvttwwaNGg3JZIkSVJ1Y7koSao0vBy6+rnnns/5xz8+iHSMCmu//fYjISGBpUuXbnebd955h86dO+/GVJIkSapOLBclSZXC66+/TmZmJkOHDo10FO1GN900gdGjvyQ+/hZuumnHl/9WVz169OCZZ57Z7vqJEycyYMCA3ZhIkiRJ1YnloiSpUnDWYvUUFRUiCAKysnK56aYJlozFGDFiBJMmTSp23YIFC1i1ahUdOnTYzakkSZJUXVguSpIqvBEjRvDYY48RHx8f6SiKIEvG4nXs2JHff/+dr776apt1r732mvdblCRJUrmyXJQkVWjvvvsuf/zxB6eddlqko6iCsGTc1qWXXsobb7yxzfJJkyZx0kknRSCRJEmSqgvLRUlShebl0NqerUvGW275LNKRIubEE0/knXfeYdGiRX8umzp1KvPnz2ffffeNYDJJkiRVdZaLkqQK69xzz2X06NHUqlUr0lFUgW0pGW+44ZNqXTLefvvtDBky5M/XF110Eddee20EE0mSJKk6iIl0AEmSivPJJ58we/ZsHn300UhHUQTVq1eDtWszS7RtEPBnyXjrrRO49tqDue66PuWcsOI46qijqFOnDldccQWxsbFccMEFHHvssZGOJUmSpCrOclGSVCENHTqU6dOnRzqGIqxx42Tmzl1dqn2KKxmri969e7Nw4UIyMjIYPHhwpONIkiSpGrBclCRVOBdeeCHXXXcdaWlpkY6i7Rgz5iu++25JuR9n6tRlYe9buGQMhUJlmKpiK3xptCRJklTeLBclSRXKpEmT+P7777n//vsjHaVUNm7cyJw5c2jSpAl16tSJdJxyNXx4Z3r0aLxbjnXrrZ+xbl3JLosuTigUIhSCWrXiyjCVJEmSpC0sFyVJFcqwYcP44osvIh2j1FasWMHq1atZt24dQRDQoEEDGjVqRM2aNSMdrcx1796Y7t13T7n42GPfMXPmylLvt6VUHDGiM//5zyDat3+wHNJJkiRJslyUJFUYV155JSNHjqRZs2aRjhK2nJwcAJYuXcry5cuJjo6mcePGNGzYkLg4Z8+V1tSpy0u1/daloiRJkqTyZbkoSSqVTZs2kZlZcJnqhg0b+P7770lNTd2lcRcvXsyHH37Ip59+ytq1a3c15m63adOmIq+DICAnJ4ecnBwWLFjAwoULqVGjBk2aNKFBgwYRSln5BEFQou0sFSVJkqTIsFyUJJXKqlWrWL68YDbZihUruP3223f5gRm1atXikUceYd68ebsaMSIyMzO3W4Tl5eUB+UXs3LlzLRfLUCiUXyxaKkqSJEmRYbkoSSqVxo0b07hxwf325syZw7hx42jSpEkEU0XeokWLmDdv3jYFY3R0NHl5edSrV4/GjRvv8gxP5dtSKv71r1144onjIh1HkiRJqrYsFyVJKmNRUVEEQUBycjJNmjShfv36kY5UZVgqSpIkSRWL5aIkSWUgNjaWqKgo4uLi/nyAS0yMP2bLiqWiJEmSVDH5Xz2SpF1So0YN4uPjIx0j4ho2bEhKSgqJiYmRjlKlpKUlsW5dFqefXv6lYmpqKlFRUeV6DEmSJKmqsVyUJO2SwvdfrO4sFsvee+8Np2XL2rvlWO3bt98tx5EkSZKqEr+elyRJFdbuKhYlSZIkhcdyUZIkSZIkSVJYLBclSZIkSZIkhcVyUZIkSZIkSVJYLBclSZIkSZIkhcVyUZIkSZIkSVJYLBclSZIkSZIkhSUm0gEkSRXX3nvX56KL3mPs2GmRjlJl5eTk0aVLw0jHqPLat6/HMcc8R0yM36uWl/T0TO6778hIx5AkSdJuZrkoSdquv/ylAx071o90jCqvSZPkSEeo8p56ahCLF6dHOkaV165dvUhHkCRJ0m5muShJ2iHLAlUFycnxtGsXH+kYkiRJUpXjtUGSJEmSJKnay/kG2ibCHb+Uft/cGXDbrTAtu+xzSRWd5aIkSZIkSdIuyPkZbrsNpmVFOom0+1kuSpIkSZIkSQqL5aIkSZIkSap2Nv4M5x8MqTWgUTd46AcICm+QBx/eCUd0hfrJUKM29DwRxi0o2OTbURAbgoTBsHETnFQTQiEIJcAjS0o+jlSZWS5KkorI+eYftE3clzt+yY1YhtwZL3PbrWN3cs+aHKbc1IXETtfzY87uSrYTwWreOqMZMaEEjnlqddFfTiVJklRxrIerB8HzG+GuF+HRM+C/18GivELb5MFPU6D7GfDIS/DW/+DQtTDkWPhu8+XP+1wJc+bBzIchIR7u/xnmzYN5M+HUBiUfR6rMfFq0JKnCyfn5JW67LYeWlwxl79jtbRUiIa0lHVrVJyG0O9Nt36ZvR3Pt2+tJ9qs7SZKkCi39A3h6PlzyLZzTOX9Z/YVw0H2FNoqBy58tul/f1jC+K7w9A3rsA3G1oXltyKyfP2MxbQ/YM2mrg5VgHKky8z9/JEmVVDRtLniF71/7O+2iI50FyJ3DY1c9wx4jz6WTX91JkiRVaHMmQ0YaHNSuYFnXfpC61ZfWyz+Hcw6H5mmQlAhJ+8D3WfDHqtIdr6zGkSoiy0VJquY2/vw/zj+4Bak1atKo26k89ENGkct5g+X/xxGJdRjxduafy3J/uYN9E1tx2aRC1y3nTuXmronsfc37jB99MvvukUJiUl1a9PknX2cDeUv48M4zOaLrXtRPTqBG7T3peeKNjFuwZYwcvh3VjthQiITBL7Jx06ucVDNEKBQilDCAR5ZsSZXF+2fXJzqUvy52O5dF5y37hDtO2pfmqQkk1GpK1xOu552FBRvmv6/anPzgWK48vB31aiRSp81R3PzpyjAuZw5Y/up13L32DG48uTHhdp35mXuxZ+0E4pPq0XyfwzjnyZ+J3AXqkiRJVVPGOiAFUgu1IlGpRV/nzoTBR8HEOjDmdfh2Mkx+H3rEQE4pbstTVuNIFZVzKySpOlv/GVcPOovna53JXS+eQMP5z3L9dU+xKK9DmAMG/PHixVzW8VRueOk6OtZYzpevzcpflbeYn6bk0v2MmzmndRNSchYw/v7rGHJsHp99ezM94mLY58rxzDk3m8x3R7LPJTncNfnfHJMIhBKp12DL18hx9Lnje369JosZY45h0EfFxMj5hfsGH8eNSwZww6O30CNmOk9edy2Djw8x8cub6B6/JW4Gb93zHNc++R6/tFnNqxcey8izb2fA9LvZPy6XDWvWsCGn+KoxFJ1ISu2k/B+k6ydy+/WTOOTOh+kS92yx2+/81K3k5QuHcNOP/bntidvpkZLBgsnjGbfgd3LpEHZhKUmSpG3VSoHQRthQ6Fe9YEPR1wvGwTdJ8NoTcGSN/GW5WbCplN9El9U4UkVluShJ1Vj6B4/x9Pz2XPLt/ZzTOQY4mPoLvyx6r5lSyWNl3gBeePYa+iUBtKdNpz6b1/Xk8mefLLJ139bLGd/1Od6ecT099okhrnaTzfesqUEolEPaHntue88aIKFuM5rXzWFtalyxKbK//T/+/XUtTn3jaUYdWRM4nIMbLubbfo/xyCdX8fgRiZu3DNHq9Fu5vM+eRLMnp180mDsOncCEebns33IqdxzUk1umFf91cvQeIxk/5376xObw80NX8UyDy/hyYG1CS4rdfOdy5/L9j+m0HjaKC0/YJ/8HdP9jGR7mcJIkSdq+lt0heTRMWQYHNs1ftnAy/FHogS6ZmyCUBCmF7gG+4GOYmQO9th4wDuLIf2I0W/3+WqpxpErIclGSqq0c5kyeQkbaQRzUbsuPgzi69juA1DFTwxwzRL3+x3BAMYUg5LH88we59pYneP+HeazIyCY3yCUnpz49VuUVt0OYAv748UcWxfSk3wE1/1wa36Mf+9V8kB8nLyD3iHab7wsST/tOrf+cFRhVtz51Wc3K1XkQ3Yq/Pv4eB2dsZ+Zi4h7sEwN5i5/j6ntWcupLZ9EqGsJ+J9HN6dg+kXufvIrr9xjJoL692adFHeIqyMNqJEmSqpKaA2BEc7j3WjhkDNSfD1fdD4W/Vm7RF5rdDA8+Dx2HQfokOG8MRBfz+1lMW2gXwJP3QqeToGYMNGwFqdGlG0eqjLznoiRVWwEZ6zIgpc5W95op+rp0oqibVrfYHy65M8cw+KhRTKxzGmNen8i3kycz+f1R9IjJLeN7zeSRvnYdQUItUuILLY6qRWotSF+bXnBPxVAssbGFfqsLhQgRkJcHhBJp2K4LXbps50+HJtQMbeCzO25iYvdLuaBrHhkZGWSszyQXyMlcz/qN2SW/f2OoAaf8+1X+eUgmr189mN6t06iz1wBGvbc0/MJSkiRJxasBt7wKh86D3g2gzTBocw60LHQvmvj94IV7YfYoqJ8CB18Dx46BXrHbDhfdGu65GdY8Aft3hvb7wAvLSj+OVBk5c1GSqq0QtVKSCW1cv9W9ZjKKvCYqiigCirRk2Vlkb6c1C0UV9xVsHgvGvcw3ScN47YnLCt1rJqoc7jUTRXJKMqFNa1m7CdhSMOatY8068teVZJicElwWPfsaZs9azKoPzqNNrfOKbnBuM+r8+ya+/+56OpXwhonRjfpx+X/7cTlZ/DHlbf514bncffYtDJjzMP3jd76/JEmSSi6xPTz8GTxcaNk/ry30IgTdzodvzy+63983FjNYCA64En66svh1JR5HqoQsFyWp2oqhZfcuJI+ewpRleRzYNArIZeHkH4vcayaUVJvUuExWrswgIJ4QkPHLdOaX6hHGAZmbMgkl1S50r5k8Fnw8fjv3rIknjnQ2bgogqbTXi4RI69KVZjkv8MmkDE45Mv/S6E3ffcKXGXXo07U50bDzGYUluSw6tg7t/vUxHVYXnLBg+StcNOxhEq98nbsG713k2++SiyOt8wlce8HzPDDiNxZvpKAklSRJkqQKxHJRkqqxmgPOYUTzw7j32hc4ZMwJ1J//NFfd/x05dC3YKL4HB/eK5sr/u58JAy6lY/qH3HD3R2RRuxRHiqZF3740u/lVHnz+dDoOa0H6pH9x3pifiA7V2GbrmLZ70y64nSfvfYtOJ7WhZkwSDVs1IzUayFrDkqVryApyWbImiyB7DUsWzCc1OkRcaiMap8YR2/Mszuv1GNf8/TRa3X4+PWKn8eQ1j7Co42Wc2y9x23jFCdWkRe/+tNjZdh33p0Ghl3mLfiQlFKJm697s36V2yWZJAmR/xjUD72PjESfQp3Nzaq3/if/98z3ocRO9k0s6iCRJkiTtXt5zUZKqsxoHcsurj3LovGvo3aA2bYa9QZtzTik62y6qGSP+9S+OW/8IR7ZqSte/vkXbkefQoZRfT8XvdwMv3Hsgs0f1on5KEw6+Zi7Hjhm1nXvWnM09Nx/CmidOZv/OHWi/z+m8sCx/BmHO1NEc2mov9tqrFUfeN4PMmQ8wcPPrw+6Zln8T7ph2XPLS69zQcxEPn300A08bzbS2l/Ly69fRo6LOAIzag+5dovjm/0Zx+rEDOHLEaKa2uowXn72QNmHNfpQkSZKk8hcKgqDM73YlSSpHzzwDjzwCn38e6SSSFBkHHgjnnQennrpLwzRt+i9efnkIvXs3LaNgkiRJ1Y8zFyVJkiRJkiSFxXJRkiRJkiRJUlh8oIskSZIkSarwFi1axNy5c1m5ciVZWVlkZWVFOlKFULNmTZKTk2nYsCGdO3eOdBxVQ5aLkiRJkiSpwnrrzdd5+aWx1EwIUb92HHVrxVCvVgxBVm5Ec73+2UL6dW9ISs24iObYsDKaWSsyiY1P5OpR8zj+uKM565y/RTSTqhfLRUmSJEmSVOFkZKRz/dWX0rFZDLec2Zo9GiZFOlIRn3y/lEF9m1eoXOcf24Rvfp7LkUccxk03Xse+vQ+KdCRVA95zUZIkSZIkVShffzmRk4YOZnj/Opx5zJ4VqsCryJISY+jXvQGv3dWXV559mNF33BTpSKoGnLkoSZXRihXw+++RTiFJkbFiRaQTSJLK0ddfTuStFx/lrXsOiXSUSishLpo7/9aF/7w1l4fH3MEFF10V6UiqwiwXJakymjkTGjWKdApJkiSpTGVkpHPrrbdaLJaRM45pyd3PzmDcGy8x8LgTIx1HVZTloiRVNiedBIMHRzqFJEVWbGykE0iSysH1V1/Kzed0iXSMKuXyU9pz7OVPcPAhR5CcnBzpOKqCLBclqbKJjs7/I0mSJFUhb735Bh2bxdC1bZ1IR6ly7vhbV/511y3ccMtdkY6iKsgHukiSJEmSpIh7+aUXOLRnWqRjVEkd9kpl3ry5LFiwINJRVAVZLkqSJEmSpIhatGgRNROjfCp0OerXLY2vvvoy0jFUBVkuSpIkSZKkiJozZw4Nans/3fLUrH4Cs36ZFukYqoIsFyVJkiRJUkStWLGCerV8LER5qpcaz4oVKyIdQ1WQ5aIkSZIkSYqorKws6qU4c7E8pdaMJzY6FOkYqoL8WkCSJEmSJEVUZmYmeVm5kY5RpeUFAStXr410DFVBzlyUJEmSJEmSFBbLRUmSJEnS/7N3n9FRlH0Yxq/Z3fSEFDqh9xKKdAEFBUQQEFBARaRYsCAqoiLSEV9AxYYKoiBFQZqiAhZ6E2mC9N57D+nZ3Xk/bJAkJCQkIUvg/p2TI7v7zMx/ZjYme+cpIiIiGaJwUURERERERERERDJE4aKIiIiIiIiIiIhkiMJFERERERERERERyRCFiyIiIiIiIiIiIpIhChdFREREREREREQkQxQuioiIiIiIiIiISIbY3F2AiIiIiIiIiMjFy3EcPBHh7jLSLd7u5NiZKJym6e5S0uXYmSjMHFKr5CwKF0VERERERETErUzTZPGGE2zcdc7dpaTb2YuxfD5zBx62nDEoNN7uxG54u7sMuQ0pXBQRERERERERtzIMg3aNitG5RSl3l5JuXYasYFiP6hQt4OfuUtLl4IkIhny7z91lyG0oZ8TrIiIiIiIiIiIicstRuCgiIiIiIiIiIiIZonBRREREREREREREMkThooiIiIiIiIiIiGSIwkURERERERERkQyLZ9bWjdTddJIDprtrEcl+ChdFRERERERExH0cK/ny4ky6mEfw+WMNNdbvZ0akM12bxl4+zbt7jvJHdDpSPTOKkauW4bX6aEII6GT+5lXY/tzJPEcm6jednI6IYGNELDGZ2E3Czth36ghD951ld7JTOn/+EK2XrcJnwSoqrj/MyviEF5xRfLdlI0V+X07Aon948Xg08Qn72nZ4B/WWrsRr3jLqHA4nfVdV5MYoXBQRERERERERNzPwIYCRJYPxvHCEJ9cfYHU6krC48NMM33OM39OT6hk+1Av2wnk5nA0OwIzi70t2PAMDqWXNTOlevFj3XuIaFKOCkYn9AGCy99Rhhu49w67E4aLzIkM2H2ShJQ/vlcuN9cwBuu29RCwmR47u4fkjMYSVKEUv/2i+2rKHSTGujaPsUDpvCJUzc34iabC5uwAREREREREREU+8eb50WVpZoyi/4ww/XCxJveAYvv13O0NOR3HcDkG+gTxbsTxD80TTZ+kmPopyhWijVy9jtOFB91p3802e2JS3yetJtZBc+B28zNoIk0d8L7MuCioWCiQ3JhsPbKXb/kvsiXNi8/ClacmyTCiZi0BMjh7aTKltsTQr7MuekxfYb/pTyRfiLh0gZMNZLgAegSXYXP9KwJj6/rxP7iDvxvNUyRfAiXMXueibn3G1ytLWfoS7l+9nnQlwitYLToElD1OahvFYxHl+jza4J6wEvYqYeJ4+zaunz7OtvB/bT4cT7V2QfqULUetCJJP+PsX88w6eKWSjVskKTHaeo/vxMxxx362V25x6LoqIiIiIiIjILcIg1N+XIOI4GO0aqxwSWIjPat7F5nsq86LnJUbtPMF2/Hmzdk3WlA/Gy/CiS7WabLnnLoYGW1LfxgS/oECqG7GsuxhHzKXL/OP05O5gb6yAzSuYPlWqsPbeGnxfCH7ZfYBpMYm6D5oxbIwNZFTt6iy9qwj57ODhH8qqe6vSP+jaLovX3Z9p56JPKHOqFiDk8ik+ORGL4VuQ6ffUZGwBDyy23HzWoBZb7ilNKys4YmM5gZU8kQcps/QQez0NnLGxnHDGcTTWicXLZO66v2h5EvLi5ERMPJkZ6S1yI9RzUURERERERERuKSZgADgdnI04zUf79nPY7iTO4cBhi+awaSXMzw8/bysGFnL7+hEWkBDwOVLbBsK8clHPz+SLi+FstV/mnDUXDQItQDwRsZcZv+cI22LsxDqd2E0fDsQA3glFGT48WaYIrYIMwJ/8cTsxrJ5U8LdR0GqAPfEZ2FPfH4DhQYP8wVTJFU8Z4wSH4+w4Ld6UDLBS3AMMbBQL8CMsoUtYbMJmniHFWVTMZP2uU3ya+HCGN09VuYuXY0/T7lCW3w6R61LPRRERERERERG5RZgci4jiEp4U97Fy4th+eh4KJyC0PIvrV2dMfhuY5nV75V13G8OPBkEeRFy6wNTzURi5AqlrBUfEcXrtOM1On1B+uLsGy8vXoEMIAAAgAElEQVQF4YmJPcmiKhb80zl3Ydr7M7AagJEQopL4QNf2grR6eVEIB8djobgPnI41sXh7UdDiSWEvC86YWC55+1DQEcspLBT09kDTLEp2UbgoIiIiIiIiIm4XRwzj9u2h095wTL+8dAwCp2niNKyUDArkLs9Y1l92JInhPGxWvIhn24VL/Hs5imN2M41tLNQMCcAj8jSTLzgpGRJIqAGYJnYgyD+QegFWdlyMJD55gSkIj4tma0QUJxwmpjOePZcj2RYVT3wG9wcGfjYLOKP561wEWyNiuGSCLVcID/iYrDh0gE8OHmDsBZPieUOoZFhpmC8XPjGneW/PMYbuO8tJayAPhVgBJ/vOnWbq8Yvsc0JMbDj7g+NYFq4B05K10hUuTpiwkYUL997sWkREREREskVcnJ24ODvnz0e7uxQREQHAJJrLvLnvHDHBhZlaswR3WwwKFSrOgLxW5m1aQ9E1R9hvtSbp1+cVUpDXcnuwdtdmqq34h4EXzDS3CQ4OJAw7Fx026gb7YQOs/oUYXiKQ2CP/UmTJFqbH29IVmPx2eBuVl2/m3Ysm9stHeXjFOqpvPsVpv4ztDwxqFi5MS99oPl63nior9vKLA7AEMbBqcRo7ztJ35znseUswsXQgXhgUKVyGsUW82bJ/Hx9f9ubZymV4ytsAHCzbt5POm4+w3G4SfvkkK4tE8dGxuHTfFZH0MEzTNFN78bnnfmb8+I3/PbZYDBYseJIHHiiVLcWJiIiIiGS1jh1nMGvWDpxO16/BFSrkYfXqZwgK8k5jSxERuVkmTJiAx8U1dG6Rc/KGLkNWMKxHdYoW8HN3Kely8EQEQ77dx8RJ37u7FLnNpBqcL1y4l6+//ifJc06nyeOPz7rpRYmIiIiI3AwTJ25ixozt/wWLADt2nKVIkdFurEpEREQk50p1tegePX4lpU6N589HM2DAIsqVy3tTCxMRERERyWoDBixO8fmICA0RExEREcmIVMPFiIjUpxqdOXM7efLkjG6/IiIiIiJXnD0bmcorBna7HZst1V+PRURERCQFqf721LZtBcaNW3/N8xaLwfr1PfD397yphYmIiIiIZLUnnpjNtGlbrnneMFCwKCIiIpIBqc65OHZsSwoXzpXsWYOnnqqmYFFEREREcqSvvmqFr69HkucMAwYPbuSegkRERERyuOuuhH7kSG/GjGlOSIgv5cvnZenSLkyc+HB21SYiIiIikqX8/T05d+4tatcOxd/fk9DQXCxa1JWBAxu6uzQRERGRHMkwU1q1JZk2babTpElJevasnR01iYiIiIiIiMgd5JtvvuGXn2YQ6O+RduNbxImz0eQJ8sLDdt1+W7eMeLsT0+LLtB9mubsUuc1oYhkRERERERERcSvDMGhSqyCt7y3q7lLSre/nG3ilYwUK5vF1dynpcuxMFGN/PuruMuQ2pHBRRERERERERNwu0N+TogX83F1GunnYDArm8c0xNTtNE4slZ/SylJxF7yoRERERERERERHJEIWLIiIiIiIiIiIikiEKF0VERERERERERCRDFC6KiIiIiIiIiIhIhihcFBERERERERERkQxRuCgiIiIiIiIiIiIZonBRREREREREREREMkThYpaI54vqw8jd8Rj2LNibfesanuyylt3OLNiZiIiIiIiIiIjITaJwMUtYaTumHZMH5MOWBXuz79jBj3N2sScrkkoRERERERGRW5yXlxc+XlnxiVpSY7UY5A4JcncZchtSuJhJzn//oGruUZS6dyadh51O1HMxgp6hQwgsOZYSRd4nwHs4FXofvX7PRvtJelcZSYFuR4iOPEDH/CMIzv0Vgw85AQd/9/+K3D7D8PEZhk+e8QzecLVrY/igT7DmHkezMqPIHfw//AK/5tMouPjLT5TyG4qnz3vkLfshfrYx/C8CiFhBBdv7PLPPtY/wN0ZjKfYn4QAX9/BilZH4er+Lj/dw8tZdwrq4m3DxRERERERERABPT09OX9QHz5vpwuVY4u0aIilZT+FiJlmqPMDmc6/zQRUrRvIXTZPY/HXZcOQNTnyWlwPjl/D79f5faSvA6H/f4uTEIvj4leCHU325cO45Bhez4Dy0mMdGnKX6d28QHd2HyVXP8G6HJRxLfLgLF/AZ3YtzF97m8oEneNLzGD27/0tk++6ER7/Jj7UdRJtpnZGdme1mMtn3fnZE9Cc6vDvtjqzk8cGXM3J5RERERERERNKUJ08ezoZr+N7NdPZiLHny5HF3GXIbUrh4MxkGhRpXIATwrRmCf2wk+zP4/8qYPw5w3KsQPVp4Az60eqYgnscO8EdMosMFl2bQQ94AWEJ8CYnaw5rzXtz3SiG8sVG3Z3ECr0lAk7Ef5bsNccT8u4hqeUcQnH8S0y5A5IGzWTKfpIiIiIiIiEhypUuX5viZmLQbSoYdOhVD+QqV3V2G3IY0ocFNZrFe+Zcr1Uuz4+D1mKk+cPH0IsSSRpv/GBgGmAk9ou2JkkMTC2UH9Wb7W54ZLlVEREREREQkvYoUKUKM3eDQyUiKFfBzdzm3paUbzzCs/d3uLkNuQ+q5eAuyBHlii4viUKIh1N4PFKdQ3HHG/hINRPPjVyeJK1ScB7yvsyPfMtQKjmXJJ8eJwcH6Lw5x6UreaAsir0ccezc6gSimr4hMeL4wT1S3sufT+SwKB3By7Le/mbJB8zKIiIiIiIjIzdO+w+P8vvaUu8u4LW3Zd4FSpUpTtGhRd5cityGFi5niYH7nTwgJ/pA+/zq48OMk8gaP5O73Mjc/oWfDejxe+Cyv5XuPwOBxDDjkxFKsMdPfzM3Gzh/g5fUB3f7Nyzsz7yf0ejuyFebzr8PwmTGBXD4jaLnagveVYdHeFRjW1Z/1Xd6nQJHxTDh3pYuljY4/dqBH3l08lGcY3l7DKdXhb5adyVSfSxEREREREZHreqhla/acMFi/46y7S7nt9B2zkT59B7m7DLlNGaZpppkatWkznSZNStKzZ+3sqEluEuf2H8lf5Ri9L/bkbX93VyMiIiIiIiKSVFRUJO0facu8jxq7u5Q0dRmygmE9qlP0Fh/GPWrKdirXbU3zVo+4uxS5TannooiIiIiIiIjcEnx9/RgyZDDvjN3i7lJuC+Pn7iGoUJiCRbmptKBLNrNvWstLIw5x4ZopDA3KdWnJsIeuN4nitRo3nkz9+qEMHZr2X3UsFdtyRks+i4iIiIiIyC2sZu16ALR4bTBDn6tGzQq53VxRzhMZbWfQ+H8pVDyM3i+94e5y5DancDGb2arVZtz0rBtevmTJfpYs2c/Ikavp3/9eBgxomGX7FhEREREREXGHmrXrMXvOTwzs15uNe8JpWjMvJQppfq+0hEfGs277WT6avpMhgwdSo1Y9d5ckdwDNuZjDWSyDuXIHDQM8PKwKGUVEREREROS2sWD+r8ycMQ0vm5N8QZ7kCbSRL8iTmDj3Ds37celh7q9ZgEB/T7fWYVisHD0di83Tm1X/HObh1i3p/swLbq1J7iwKF3O4xOHiFQoZRURERERE5HZz7Ngx9u3bx9mzZ4mJiSEuLs7dJd0SAgICyJUrF6GhoVSsWNHd5cgdSMOib0OmCXFxDgYNWsK77y5XyCgiIiIiIiI5XmhoKKGhoe4uQ0SS0WrRt7HEIaOX1zCGDVvm7pJEREREREREROQ2onDxDqCQUUREREREREREbgaFi3cQhYwiIiIiIiIiIpKVFC7egZKHjEOGLHF3SSIiIiIiIiIikgMpXLyDXQkZhwxZrpBRRERERERERERumMJFwTRNhYwiIiIiIiIiInLDbO4uQG4diUPG995bSb9+DRg06L6bfty+fRdy9Gg4NpuybrkqOjqefv3uoWrVAu4uRURERERERERSoXBRrpHdIeOYMWsJC8tHy5Zlb9oxJOcZMGAxnTtXVbgoIiIiIiIicgtTuCipyq6QsXjxIPr3v1fhoiQxffpWd5cgIiIiIiIiImnQONQczs/P86Yf40rIOHr035Qq9Qlz5my/6ccUEREREREREZFbn3ou5nCGYWTbscLDYwgPj6Fbt5/p0+cPBg9uRO3ahTO93yNHLmVBdSIiIiIiIiIikt0ULuZwdrsj2495JWTs2vUnfH0z33MyMjJOi7mIiIiIiIiIiORAChdzOA8PK9HR9mw7ntVqYLNZeeKJynz0UTMCA72z7dgiIiJyhzk+Fkq+ALEJjz3qwvaVUNrq1rJuik1DocEEmP0vNMuV+f2ZZ+GhwrDtOdj7KXhkfpdpcmyBmjVgU3zCE17w7QnoEpwNB0/Dhneg7gfw8T54KZMjb1a/Dvd+Dp8fhB5aeO76HDCyHgyIh43rICwLvne3DIe642HGP/DQLfDeEhERzbmY08XHO7PlOBaLgYeHhQcfLMPBg68yYcLDChZFRETk5srTCub/CX/+Dt3KuLeWYwth6LuwISLr9+08DH1HQ63XoWkWBIvuYikJY3+DP/+E0W31ScPdHHtg1BCYtcPdlWStsJfgkVh4+8Orf3gQERG3Us/FHC4mJj7tRlmgVKkQFix4klKl9NdBERERySaeoXB/KOCAvwPcW8uxP2HYJ5D/Gajhn7X7/usTWOwB0ztnXSBn5IG5l8C0Zk+vRQDDD+rc7/q35y+QfVODZ6+7R0Lke+Dh5e5Krs+xB0YNhaaV4dEKbirCCn1WwKuAZxb1ODaCoGcXaPAlzHkVHs+TNfsVEZEM098T5brKlMnN3r2vsHv3ywoWRURERLLcZfhqKoS0gmZBWbtrDy/wVF+CLGfYwMtLn6TSy+oJXp5ZGzZXfwzKX4bx0yF7BnKJiMh16EeipEihooiIiNwc8fBaCfB+AGaOgNrFwMcHitSEIQsgw4MynLDsc3iyKZQuBD6eEBgKDzwHy04mbRo5HXys0OMH+OwZKJsXvP2gUktYcOxqO8cWuMsTDAPqjAJ7LDxf0PXYMMDrPjiSyWQjcinMPwcNm4Nfao1i4KeBUK80+HuBX24oWxd6ToDoZE2XvwI242qNxXpde02d+6GBFzR+BVqWBr+80HUyzOsLRQMgdyX4OtFQ2p86gSUXfDIL2lSFAG8IKQldRsPpTJ7/yRXwYnMoEgzevlCyDgz6OXPDXS9vhpebQn5/8C8IrQfA4dTeWPHwRhnwbgK7NsPrraBwEHgHQOn6MP+8q5l5Cpp5X72uhjeMO3nt7jb2Bw9PGLrl2tf2fABeHvDmmpt4DeLh5aIJ78+H4JwTpj+SqG4f+CEqY9cgajsMex7qVYS8AeDpB6Xvhn4/QPLZAmJ/hADL1eN6VoetKS1EaYcBYeDVCJbMhrbVIdAHAotB9/EQmcpp2ipBkyKweg4cU7ooIuJuChclCYWKIiIiki3ilsOLs+DFKfDPX65w43/t4K2lGdyhHaaPgA02aPs8fDIWBj0FJ2fAg41h2eVk7U348XVYXAomLYTfxoDnUuj0EpwwXU2sJWH8QliyBL54HKwe0Hu26/GSJfDnR5Avk79O/7sMLlihTo3U2yzrCx3eA+6DD76CTwdBm7Lw569w2UzaturLsGgJLJkLdTyvf+xVf0LDvvBoAZjSA3pugnfeh8qn4J0PkgWXkdD3FajwDvz9D3z7NCx6Cx4emfEg8PhsaNAUZp6BrkPgy4/goVww8hHo+kPGeqQ5D8ITTWHsNnh0IHzyDnj9CM9Puv7+nCfhuYdhZwUYPQ1++hYeKQCnEy6CEQLv/+G672M6QGojfKt0gIomzJ4NSdZcdMCPs8BZBjrUvInXwAa9Zrjq/GME5DLg/qFX37NLfof7U5k3Pa1rcG4xfPArFGkMfUbA2PehqTd8+AR0/DpprZ73wPwlsGQRPFc+7bLtW+C50dDqfVi+FN4Kg8kvwbt/p7KBB9SpDnHr4a/UEkgREckuGichgCtU1JyKIiIikn1M6D0FuibMBVf+a9i5GsYOg1fvhaI3Gtp5QL/V8HmRpH8+f7wslH8GvvwdGj6a9PjeD8GUt8EfoCq8uxxaz4DFl6BTEOAHNe91NfddAIYFytaDRlm1QrAJO3eA0wdKh6bSxg7zF4BRF6aOg5KJTm6E3dUrLLHA0tCwtGu16BADTlzn8NW6Qe9n4FA4TH8TWvaFHo0g9xLotBUOO6DclRTNhEaDYXgH1/Wt2A+iNsGTH8Dc56HDjf4OeQne6QUna8JfC6FyQuDV7WkocT+8NQheawe1b3DCyOUfwoIL8Ooy+KBewj7bQpvK8Mt1tovfAUFfw5xuV4PDBx9J1MADqiS8FzyvsyNbJehQBQbPhi394a6Ej1uOPTBrI1ToC9WufAS7GdfAgDJ1oQwQFwUeBuSrBI0apb1pWtcg76Ow5znIlyi07t4dAu6Cjz+Hbd2gcsKGRh64pyGu+VJzkWaXZDMKek6B7iVdjyt/Ar9WhLlzYVidlD+1liwN1p9g+36gatrnJyIiN416Lt7RDEqXDlFPRREREcl+1jLQLPEK0H7w4L0Q+zesTN7LMD0MKJIoWHTaITYWclWDUlY4dAAcydrXeyAhWExQqhxY4+Hw9RK5rOSEM+fAEgRBqf1abkAuf7Dvh4U7k/YOs9gyN49d3nyu6xWSFywWyJ+wMEZIbjAvwIXEB/OA5s0SfXowoPGDYLsIC9fd+LEjl8LPJ+G+7lAaiIlJ+LJD02Zg7Iflh25wp3ZYuASM0tCx9tWnLaHQ6f7rXytLfnjp8dR7JKabFR7tAMZOmP3v1ad3z4FNwKPtrwZlN+UaZEJa18C7QKJg0YT4WIgBalYFxyE4bE9lw3SwlYfGxRLVUgRK+cCxw8m+bxMJCgHDCafPZfy4IiKSJRQu3pFcoeLu3T3Zs6eXQkURERHJftYCUCBZipG/EFji4EgKc9mlx8nlrrnriga75r3z9gb/6vBPPMTGJGtsQFBg0qdsNsCEuAxP/HgTWOHpIVA5Ep4PgwIVoFVnGDYBjmRmYkLA5uEK3DwS0i4Pj6vPE5+ss5kNQvMl3T6woCucPXoUko3OTtPJvRDhhF+fBl8f17ybV76q9Id40xW83hAHHD0O1iJQNNl7q1iJ63/ysZWCsmkMI0+vMo9ALQvMmZUwNNrhGiZNVWhf8Wq7m3INMiHNaxABMwZAg3Lg5wle3q5aO/4AZmzm5sk0Al1DuJPUY4O4uEzsVEREsouGRd9RDEqXDmb+/E6UKZPb3cWIiIjIncx0gMMkSXcyp8MVUt1oUAUQvQYeaAbHKkGfj6F2KfCzgfMQPPMkmCnsNCtXr80QC+TLDc6dcMEBpDL8tUBLWL8fFs+HFX/B0t9g8Hfw6Q+waj6UzWx3u5QuhJnsPphgTzYB4H/3MKOs8PiX0KtyyjUVqpSJfd8gwws8s+gNYSkJHepCnzmwcQjU2AWzt0CN4Sncq5xyDZww5SnoNh+avgzfNoHQQFdgu2IIvLUsY9+3Vw9+49+PF86BmfA9JCIibqVw8Y6gUFFERERuMY6DcMgBRRJ1Jzu4H5weUDjfte2tVsCZ+gIXa7+H7cAXv8BzBa8+HxsJ4U7Im8l6/5vbMFMJSvKdQvmKYFkIe48BpVJvassND3R2fWGH2d2h4zSYtg0GVcnCmlJjh32HgApXnzp5AKIMKFTo2mDImvAxw5nKDStQGvxNiPCCOnWzKOi1QtFQcBxxzReZP9FHnYMHMrZATIZYoF0HePtVmLUBvH+HbRbXIi2Js8Wbcg0SSwjssuIta56CyfOhaA/48X34b00YJ2xI3is4m+zfCw4fqFjSPccXEZH/aFj0bS3p8GcFiyIiInLLcByB75defew8DtOWglctaJBsuDIWCC0IjsOwN5UgIy7WFaIkWeDEATO+gBNZkCoFBN6c+d0qN4QQB/y9IZUGJly4mOw5G5Qr4/pNPqUemTeFHWZOc82x99/jGWDPBY1rXdu8YChYHbBrX8q7820IrfLDnx/DmhTm2Dx76NqVsNNkgyb3g7kXZqy9+rTzGHy/OGtz4bSEtoF7POHH6TBtNljvhnbFk7a5KdcgESMAAgw4dzrz527GQZzpWtQo8bdY5Dr4+q9M7jwj4l3fM5414W4/NxxfREQSU8/F25J6KoqIiMgtzhIEs58Cey+oEwgLx8K8SHixPxRL/vdvA5q2h+BfoXdXONIK/KxQ+n6om9BLsVZrCP0G3n4YzjwNRYC1M2HOSSiY6VU6oMQ9UMQJX74GBV+Awr5gCYF7ayfqxZUBfg2hRR5YMB8iOiRdYAaAeHizMvxTG9o0guIhcG4rjBsDntWhXaI5/MyLsGYzxJpAOJw3IeYYLFvq+q3fEgi174IMTS1oheNfQctw6BgGe+fCZ39B9YHQNoXfN4u1hDoD4cvnIfglCPWCwDBoWc0VThlBMPxTWPkkNKsF3bpA1Xxw5iD8sxR+i4KVayHsBu9dg97QYhp83B6iX4G7/OCPsfC3R+a6VRzfDLsvuP697SjghN2rYWkIYEDBKlAu0TzmlkLQsRE8OwE+j4QGnyftpQs37xpc4VEZ6ueGGR/AcF+okQ8MK1RrDAVu8GJYCkOrmvDWOHjUEx6pDJd3wcRvwFEcOJyosRO2rYQzTte/94e7htCvWwZnLYAFKtaHfJn4vrRvgT+OQr3XIVT9ZURE3E3h4m1FoaKIiIjkEB414Lv2MPR/MOUY5K4A/WbBgCYpDw8t8ATMOAS9x0DP2WA34Jn5V8PFoBbw69fQZxQMfwnMILi7A/z8P3ipXuYWmwDwqg/ffwR9PoVXOkK0HTwawd5F14ZGNyQAenSG7yfCggvQPvlCezZ4+Fk49iuMHQJnLoFvAajzJIwfClUSzdMYvxEebQrHE/fUnANN57j+6dkAdi6DYmSAD/xvGizuC6+PBWtBaPsefPhGyuGqtSxM+Q6e7wuDe0CMAyq8Dc2rXf0EEvoorA6F90bAzx/C2AgIKgjla0H/TlA8A9fVUgym/gFv94EfBsPEXND4WRgXB+0/zsiJA0748TXouSTp06MfgdEAFtd7cXyzRC8a0Koj+C2ACF/o+HDK4ebNuAb/CYT3v4PYd2B0D7gYC6YXTD8HHX1vcF9WeG0mxPaGr8bBgmgoVBmenQiVvodHE4eLsTC4GcxK1su4e+OEf3jD1NPQKSDjp7ZuGuwJhAGPaSyeiMgtwDDNtMdStGkznSZNStKzZ+3sqElugMUyGNNUqCi3n7CwLxgxogktW5Z1dykiIpKl4uG1svBlOTi8APK5fVUV93MegZZVIHIwLHnl1gtLfuoE7X6BOWegjZe7q5E7nXkBOleAf5+Bde+C3pIiIm6nnos53PvvN6V16/IKFUVERERyKksReO81aPAR/NEVHkw+56SI/Gfr5/CjF8x4XcGiiMgtQuFiDvf66/XdXYKIiIiIZFa1gRAx0N1ViNz6KveHyP7urkJERBK51QZdiIiIiIiIiIiISA6hcFFERLKH8zA09ALDSPTlDZMuXGcjOwwIS7aNBbrNy7ayRSSrecBHByDmN823mFO0+Q6c4ZpvUURERFKkYdEiIrer79rAk7+ksIKlmxiB8FRfuMcBOGDBGNgYn8ZGFmjYA8xTroc7ZsOcXTe7UhEREREREUknhYsiIpI9jEB4ekjCgzg4Nwk2nk9jIws0eRmaJDz8YafCRRERERERkVuIhkWLiIiIiIiIiIhIhihcFBHJqKj98HEvqF8egv3ALw+ENYDeY2B3+LXtnefg27egfjkI9AHfYKjUCAb9AOHmte13jgBPAyoPhDMb4LVWUDQEvP2hQlOYuBmSbBYPLxe9Ojfhk3MBJ3z9YNI5C73ugQPOa493ZAx4GVCyN8Rdhu/fglrFwNsDAvJDw06wOtl5Xd4BQzpDpVDw9YLAAlDvUfhmHTgyfmmzTMRuGPksVC8BAd4QkBfqPAITN0AKlwAA+yao7AGetWFnPPw9DppXgVxe4B0IVZrCN1uy9TRERERERERuVRoWLSKSEcd+gdadYWM4BBSFus0gyISDm+CzXnCiEExrd7W9eRJevB++2gFeBeGeFuB3EVathKHL4deNsHAEBKewuEHsJmj5KRwuBjUawMl/YONCeKY5BGyCR/MlNLRC89cg9yXXwy0/uIYQV+8ErUpd3Z+1aMrH+U8MjGoBg1ZBYFGoWAUuHYIVs+CfkVAvl6vZpRXQtCWsuwx5KkCz+hC1D1bMgWfnwervYXxb9/0Z69gv0LITbIqAApWhSW2wH4OVc+Hp32D9TBjTAlK9FCYsfQte/xicuaFMJXCcg52L4Lcd8HTl7DwbERERERGRW5LCRRGRG+XYC106wz8R0GIUTHoN8lgTXjRhxyxYlCfpNvPfgfE7IE8z+HMWVPV3PX9hNTzUHNaMhqEPwUf3Xnu8PfOg+cew+GXwA4iEoY1h8Fr4bDq065UQ4FmgxWvQImG77zbBnN1Q/UkYfAMLupydCR+GwJi/4dlaCT8pHLB1LoT7JTSKhfeeg/WXoe47MG8IhCSkiFs+gyavwrcvQMuG0DYk/cfOKo590LUzbI6DrlPhiyfAJ+G10wvhwYdh7HPQYhs8FJj6Pgbsgy5T4X+PQWDC+Z1eB6v041NERERERAQ0LFpE5MatHgNLL0H+x2Dy64mCRQADKrSHnolCQvMCTJgFTg94ZfTVYBEguB588CxY7PDdRIhK4Xge1eHDFxOCRQA/eK47eAL/roO4LD6/iHB4dQa8UCvRn6CsENYO6gW7HsYuhym7wVISRr1zNVgEqPwi9K4J5mmY8HOyodvZZNWnsOQSlHoePk8ULALkawLDOgLHYcK81OtzXoRq78JnT1wNFgHy1YK2d93E4kVERERERHIOhYsiIjfEDouWgMMCDz0Jua83vPjKJttgYyRYi0OTste+XqMp5LbAhQ2w237t6wXqQmlr0udCikCAAdHnISqL0zuPutA1jSG/+9fBWScE3QO1vJO9aIXGjcFqwoa/IT5ry0ubHRYuBocVWj4Kvik0qXU3eJiweQOkcMkBMPyh+xNgTeV1ERERERER0Z+jX3MAACAASURBVLBoEZEb44TDxwArlCmRzk3OuII4a0EokMLfdKwFXM+fPQNnUlhlJDAohXkBrQmhlyP1cCyjQspDwTT+9nTmlGtBlPyhKf8kKRDq+vPVhdOucNEzi2u8LgccOur678f3wMfXaXrhfOo9F61FoZx/Ki+KiIiIiIgIKFwUEcmEdPRazFHHSeDjl/5DZnNp6WaagBVavAK1AlJv51019Z6Jhi/43qonKCIiIiIicmtQuCgickMsUKQQcAH27AdSGOZ8zSZ5II8Fjp6Ek04olqxXoCPh+SvtcoI8+V09E08ec/WcTP7T5OQxV8/G3HnBI7uLs0LRUGA31HwKBlfN7gJERERERETuGAoXRURuiA3uvw+Gb4H538H5ZhCSRu82WyW4yxcOHYDFe6BOhaSvb1wI550QVAPKZeH/lr08wTAhNjbr9nlFyZqueSLPrIT1MdAg8byLDli8GBwG3FUnlXDRAD9f4ByEXwaC03dc34ReleGXr9PIBvc3ghE74Ne50L+qGwLO29ygQTB0KISGursSEREREUmvc+cgKAhOnHB3JXKbUbgoInKjGrwE93wLy6ZBlxowqVfS1ZIP/wELA6D73a7HRjB0bQtzJ8PHfaD1TKiUsMrIpbXw5njX4iOPd0158ZGMKlwcLCasXwUxrSH5uiuZ4d0QOpWG0XvgrREwbxAEJYSs27+C0evAyAvdWqcydNoGVcPA2A9zf4YXeqbvJ1KlquA5BVb9CKc6Qv5Ugt2GvaDBFFg+El6uAKPbJ722cWdgwVQw20Kb4jd06gJcugR16sDH15vQUkRERERuKWvWwNtvu7sKuQ0pXBQRuVHWsjB5ErR6Cn7tDSU/g/o1IciEw1tg7S5oNwu6X9nAgJYjoNsamDAfapWD++qD/0VYvhROxkHV12Bww6yts3p7qPApbBsNd++G+8qCp+FatbpPDwjOzHyCXtB/HCxpDauHQvmf4J6KELMfFq+FaE/o/Dm0y53K9gY83AtKz4fFr0Od3yEsNxgGNHgVnkllKHOJJ6DdhzBtJtQ6AveWdf0kK9AChne4On+itRxMmQStusC4jjBrINSrCrmAk3thw79w0YTBjaFNJi7DnaxuXdeXiIiIiOQcuVP7/Vwk43LI5F4iIreYIm1g1Ub48EWoYIWVP8OPC+F0ADz9PgxonLS9pSB8tQq+7gNVvWHFT/DzXxBUG/p/B8s+SHt49Y3yrAU/z4TH6sLJRfDp+zByJHzwnStYy6ygRrBkNQx4HEJOw6+zYOl+qNwGxi2FCY9e/6dMrvvh91nQtjLs+9MVBk6aBKuOpr6NUQDG/wGvNQf7Fpg22bXNnPWuOR4TK9L26j0q44Blc2H2b7A/Guo+AWNmQo/ymb8OIiIiNySaGe39KPTCQuJSfN3kzDfN8TYMDMPAVrI3q+Kzoy6TC5Na4Zdtx3MHOxsHhOHX7CtOpfKrkHlmEYMeLEuItxWLNS9P/5b8LsWyY2JXaoX642Gx4NVgNPuT/w5y20vrPRzLz50DsRgGhmEhsPPP3IRJekTkFqKeiyIiGeVXGnqPgd7pbG/JA93fd32lR/m+ENc35dc8H4CTjrT3UaIVfN8qfccr0hNie6av7RW5wmDodzD0xjb7T4nWMLv1jW3jVwlGz4PR6Wl7g/cIwFYNtty2n6pERCQrOHYzqv5dzG67kdVvlfuv43zWMMj79AJinja5MKk1hYdk6c5vgnj+eqMiTba9zaF53cmTxX8rTbd03RMLue96mCcDy+GT8k7YOf4t3j/SnDk7B1I32AMvP8+kTSLmM/yNX8g3eDVHOxXF28OXgBzYZcc8/y0ti7xL+T938GG9rJ6c2ovWUy7hnBLLvG6F6GTP4t2LyC1H4aKIiIiIiIjcASwUazeccam+7uDIwaNYwu6lUfHcKU5X7Tx3mMPRRWnSsBL5g7M2VhYRyaly4N9YRERERERE3MC+iYGVPTBs5Xjr7yjW9i2PzTAwLL50nJ0w8DN+CxOfb0mtUvkJ8PYhqFhN2g9ewJFkvbfMi2v48JEw8vr6kLt8C95ZcIx0jElItIPzrBnzNA3L5MHX248CYS15++eD3Ejf+9hd3/NSwxIE+fgTWucZJu2MSfK6Y/9s3nikHuUKBeHjnYtCVVrSZ8YuXK3iWPhCIayGJ/U+2EvUgqfJazEwDBtFX16aUIeTk3+8yxONKlE4xBdv//yUb/wCX/8Tzo1M0OI8tZjh7WtQJNAbL/+8lKjRmneXXnLtIz33BAfbh9fAM2Goufc1w6JjmfO4PxbDi2bjTxE541F8DAMj0bBox9Z3qe5pYC3+KiuiNjGoig3DMBINi45lzuMB5HvsPT7qXJdSeXORK/RuXpp1KNF9dXB84Xs8Xqc4wT7e5Cpcgw7/W8KpRMOqr3uuAESzfcpL3F8uL75evgSHVqTRs5PZnc43j/PIGO7zMrDk7sb8qH2Mru+JYRgY3k0YezzhKNn1Ho7YwuRezaiY3x9v3zyUbfwyU7dH3cgeROQWoXBRREREREQkPWzVGLolHtO+i5F1fKk9Yid208R0RvHDI16uNo5znPe8l97j57N+105WT+yMY2IHnvh0T6LgxeTMnPH83WAMK7evZ/Ijl/ny8W6MP5jeyfvs7PikHS0/PMODH/7Bll3/MPu1PMzt0p6Rm+Nx7P2Auz1dQdo1X173MeaIE+I38l7HZ/gpV09+2rSF3/rlZta4pUnmxjMvnMFZrQef/vQX23evZ9ZreZnfvS1D1sYDnjT58jgOM47VfUrj2/wbzjhNTNPO4c8a4ZFwnpfPRFPyiZHMXLaF3ZvnM6zKBl5v/Tq/R6T3okezcOBTjDrahLGr93Bg61Km9mtMvitXMz33BCsV39lAnBnPhv6VUhgy7UW7aRE4zVh+eyYf/o/NJsY0MR1n+OZB17Boa1h/NsaZOPZ/RAPfuxi2xY5pmsSu7E3J/z5Vm5yf9yPHu85l1+kTrHrFi6kvD+X3yIQz+XsQD3X4Dmvnr1i+bSdrJj1J/NhHeWr8wYSpo9M4V8C5/yteeGEeeXv/wtYDu1n7y8d0qeBNekceW4r0ZEmsifPcRFr4lqL3qjhM08SMWcjzhRLGtGfHe9h5lKldmvHWluoMmruRXVt+Y1jYGnq16ceyyHSejIjcMjQsWkREREREJKt4N+L1TxtdfVzsRfq0/4wHlv1NRO8yBAJgYqnek/d7NaKMFcoNHM5T05oxZc5BnutdMu0eIHEr+fyjf7n3f3vp2zoEAyjV/X36zC7B6Jlb6DuwC5PXNSEype6BlgAKF7AQv/57vttViZ7TXqVROSuUG8qQx6bT/LerTW01nufDGlcfl3jqbbqMvYtfVh3BWTsddWKlTKfhvJvomSL9X2DiV6NYtsPOg7XS8XHUjOLYkfP4V2pEw0pF8AcKFa9E/bS3dAuPe17gzfvzYzOgUse2VB3yLRsOOGgRFsGvH33J2fbT+KrnA/gClOzFiBemUeP7nznybC+KGWmfq+PkEY45C9OmaW1KFrJAocKUqZ7FJ5EN72HHtgl88Ftp+m4bTsfirtbF/jeAed/34PvVo2jY1DONPYjIreTOCRfffBPefx/8/NxdiYhcT79+rq8rYmMhd2731SOSU0RGQtWqsGmTuysREbmzOc+w4pM36T92PhsPnCUy3okJeDWOINKEQAPAIFeFShS70oXOszyVyhjM2L0fOyVJK1ZxntjMvycvsKJTbiydEr9iIU/BUzg976JUWDDOlMJFw4LVCpf37eW4dwXCSl4pwouKVcphSxQumuEb+aZvXz7+6W/2nL5MvMPExINqD0Wme1hz9K4fGPjGSH5YsYPjl2JxmCZYi1AqxeQzpXqDeaBbe97t0oGwbY1pUr8WdZo8ymPNyhHgrsVjUmUQUKhQwj0Gw8cPX6KJjDLBvo/NW8I5ur0Zfl8l3cpW7n5OOaGYLe1z9birI93vmsjbdaowv2kj6tRqQKvHHqFOwSxclCUb3sNRWzexO3oFr5aw8mqSV7xpdTIa0tyDiNxK7pxwMS4OmjWDjz92dyUicj158iR97OkJ69e7pxaRnGTqVFiwwN1ViIjc4UzOzniJdkOP0n3KMuY0LUtuLyfr3g6j0VonpglcLxBLb1hmAtYyvPHXNkbVvTZUcuz9gPoV32BNShMwejbis72LeMoArDasiY5ptVkTlRDF4r5teWXFg3y9YAptwvLjY+xn9L2VmWya6QsX7f8won1XZlf4iBlbnqRmqD+28Kk8XKgvTjO98aSF0PaT2FbvZRb+uYyVC2czuM0Ivh64gpX9qpHV6xxnlmEkv4lXrpUrmK37/g5W9imd6mrWaZ6rTy36Ld/LIyv+ZPGKZcz7qgejRs9j+obJtMuXFWlrdr2HTQjuyq/HJ/KQV9rNReTWdueEiwDly7u+RCTnMAx934qkR/nysHSpu6sQEbkzGFasVoiPTz7TnZ1dazcQVa8/bz5UntwGYF5g147jyRa6MAnfsZ3DjhaUtgLxu9i2B0o1L5XoA5qBh6cHxEQTkyyHsxSsTOXcR1m96hCOutcGVdaiaQ+L9ilVlsJR6zlw2gmFLYCDQ/sOYqeiq53jMOvWn6Vy59fpUDW/6xhRu9mxP/k5G1itVrDHXzPvn3lxI2v3FabduKepW9gVA9r3bGePHQonr8sezoljF3AEFKBwyLVpk3doTVp2rUnLri/TNrQK9/26iMN9q1HqyvjbVO/JLcJWmmph3nyxYjVnXy9N/uuEcGmeqzWYco06UK5RB55/sTati77Or+vjadcicW+/WC4cO0m4JYhCBQOvCWENixUr8cRfE0Bn7XvY09MT++Vo7EDiu+oTVpUyUTNYuTmOh2qrl6JITqcFXURERERERG6EJT8linuzb9Ev/HM6kpiYWOKdAFaKlSuFbdtSlp6wA3Ec/rk/o/5MvgKugXPjGN4Ys5zdB7cxf+g7TL5wL53bFkvyAc2nSg0qXPyDyTP+5cjJU5y5nJAEed3LS6/WZOvwJ3lt8kp2HtrP1tW/8FXfJxj0Rxx45qVM1WpUq5bCV5VS5PEAjxpP0Kn8Br7+ZAXnnRB3aAajv9t7NUCyFqRsGT/2rVjCgRjAfpplw4cx60zyxNJK4ZLFMP79nV92nicqJpY4u6uNEVCGsvlPsmbRNiJMcF7awCcDJ7I3hSWFHXu/4OEypag36K+kK147TzB3eD++nLeBvcdPcuTfeUxfdIzgihXJn/hipXpPbhWBPPRqD4osfItOA2exbu8h9m5ezpxPX+XpD/92nXM6ztW+fix9/vc9y7Yd5uSJvaz87ic2GeWoVDpZxBy/nmH3lKJMi0/YmdISzn7FKJH3DCvnreR4RAwxsfEJi8pk5XvYRsUaVbCs/I5v1h7kxMnTXEpYMcgW9jSvP3ieMd2f5YtF2zh4cAdrf/+WId3eYObpG1lLXERuBQoXRUREREREbog/D/UbRZvIMdxfOBe+vsE8+WMsYKFw1zF82WI/faoWomipqnSYVpRnupRN1rvQIG+7Z6i59HnqVahJ51kBvDRtAk8XS/rxzFqxJ2OGVmHtK7UoXiiUGv1WJQRvNir2/pHfhlVh23uPULNsJRq0f4upBwoTVjzlAbfX8KhG3+ljqb+2OxVDi1Kx3WxKNK+baKa7QB4eOYGnYz+kfpHClKzUnNHmUzxX55o+cBR8bAhD6u9lQM38+Pv6Ufq1Za46ve5hwLf9yPtDc0qElqD8vW9z+NEXeeBGhsEaXvg7dzLl9dbUKlWUMo1eZ22ld5k16kH8kzRM7Z4AkdN5xMfAMDyo8e42ov7oQQGLgWErzivLUxo7fnP43j2M3+a+QoHFb/FglbJUuf9JBv98gRKVQl3vj3Scq+HnzaXF79O1UUWKFatGh6/jeXzSJHqWTed9v8KjPq998DT+s9pRItAXn8DmfHXcJGvfwxZCnxrNR02P8G7DUoQWKs5zvybcE0sROk/5ky+anGFs57spX74OrV8ex6aACpT2u+Um0xSRNBimmfZkF23aTKdJk5L07Fk7O2q6OV5NmCZWcy6K5AhhYV8wYkQTWrYs6+5SRHKGqVNh7FhYufLmH0s/U0VERERynjVr4NFH4ehRd1citxn1XBQREREREREREZEMUbgokg3mdYOgzhDr7kKy2JlvwNtwrbliKwmrko8qiYfeJV2vGwY0/4b0rSwoIiIiIiIiIjmCwkURN4ncAX3bQrFg8MkF5RvBN1uz+CAOGFUX6oyElOZxzqy8T0OMCee/Tbr62388YPR+MOPgjTI3oQARERERERERcStb2k1EJKs5D8IT98HWu+GjeVDaBv/+DnuPAmHurk5EREREREREJH3Uc1FuK85TMLw9FAkEL38oUQPeXXp1KO7BT8CvIvR9FsoVhjyF4fFP4FLisboRMLkXVMwP3r5QtjFM3Z7odRPWjIGGZcDXGwqEwds/Q+IRwUd+hQfLga8fVOkI68OT1rloBPwWDFO/h3b1oEpteHIADH7waptL66BbAwjxgYBQaDcEjl3pfhgPvYpB84HwfEMoEAj5qsHX2xJet8PAymDY4K2/YW1fsBlgWKDj7MQXDD5tCFXfhqmvQrnc4B0A1fslnE88/NwPKhcEbx8o3Qi+2ZzBm3MdxxfC43Ug2Af+NzqFBmnVKSIiIiIiIiJuoXBRbisLB8KoozB2NRzYClP7Qb5kbew7YXVxWHcEDvwKp4ZC7/kJAaQTpnaBt7bAoLmwawsMC4NebWBZpGv7HZ9Ayw/hwQ9hyy6Y/RrM7QIjE0I35z7o0gmiO8D6rTC6Goz7JdFcg/Hw+0Io8hDU9En5PMyz8NLDsL4C/LYVVo+Dc5/CY58mHd68ZCY0mQQnTsOIktDnbThtAjYYugVMO4ysA7VHgN0E0wk/PHLt8Q5NgB/yw4L9cGbn/9k77/iYzz+Av29kb8RIIiSEIBFbCVHEqK01SxU1i1rtz65VarRVq1pU7b0patTee4+YJQkisveN3x+XcZdckrsYGZ7363Vt7hmf5/PNxfe+z+f5DBjvBxLg2izougy6LIc712GUCwxuA3sjcvLp6CfuLLTsBLIv4NhN6NM+87GZ6SkQCAQCgUAgEAgEAoEgdxDGRUHBQQ2BT8G6EjSoBE6lwfcz6PexrgFKYgfDvgFbCdhUgaEtYMtKiAaUN+GnfTD6L+j8EZQqA51/hFZhsPYUkAgL54DfNBjdBsqUAt/e8G0dWL8JFMD9LXC6CEybABXdwP876OuppYAC/gsGl1Igy+RSXu+BHYkw+WeoVQa8W8HsvnBhOdxQpI3z6QntS4PEDDp2AMUVuK3IRGgWJHrBb6PA3S7ZS7I5yBWwZiV4DobRzaB0WegzB5qEwV//GL9GZuyeA686wuLB4O0Ojm5G6vn2VBEIBAKBQCAQCAQCgUBgJMK4KCg4SKBpLzBfC151oM+3sGQfRKUrTyxzBjctj8HSZSDxATxTQuwNuBcHw9zSKhxLrGDVKwh+DqpguPYctnUDaUq/FL7aCy+CQQU8vAeUB0+T5AXkULmicR52T+6B0g0qWqW1VagMPISHWq6LxZ3TDJSmliCLg9gclGN2rQkl0t8N4iHgKVTwTltD4gDeLvAg4C0ViFHA1evwbDFYJf8+J082Uk+BQCAQCAQCgUAgEAgEuYbYpgsKFM4d4WYALOgPRZ7DpHbg/6NuXj61UtcwplRoQpbVJP/HAXbHg1qt+9r5RXK/DL47nbE/5E8wTZYpkWlyHKYg13avk4NrCXj25M0NdJL0Fku1Vvi1EZhnEp79PlADH81ODttWw8SJmY/NTT0FAoFAIBAIBG+Xe/fuERGhm28nNDSUhw8fZhiblJTEtWvXDJL78uVLnjx58sb6BQcHExgY+MZyBAKBoKAjjIuCAoe5M7TqCTNWw9ahcH03/KdK61c+hZthyW/UcPsmmLmDiwwsvMAjFk5kUrREWgK8C8Opk5kbBsuUB/6DJynhySp48FjL6GcCTRrD0z1wKV6/jFIeIH0Et2LS2m5fA7UbuGUWS60PCchkkJSTqifm4FESbl9Pu1Z1GFx/Cu5ldUO6TUyBeIjPzLIpAVNTiI9LZ/yUQxUvuHMcXuXEKioQCAQCgUAgyLd89NFHLFq0SKdt/PjxNG7cOMPY69ev4+PjY5Dc0aNHU6dOnTfWr0mTJvTp0+eN5QgEAkFBRxgXBQUHFeyYBov+hvtB8PQarD8EDhWhmPZfejzM/A7OPYSLa2H6P/BpD7AB5F4wsjks6A2/HYLHj+HcPzC5F2x6CZjBoGFwYxoMXwl3nsCNU7B4NEzcrxFfpgPUfQpzd2lyML7YD0vP6arqPwqahEK3brD9NFw/D+tnw48HNP2FWkBrE5j4LZx/CDf+hu+WQNXu4G1MkkEpuJWGB4fg8kuIj4ckVXaTkpFD125wZwHMPABP7sOyEXDAHno01R1qURkqhMPKjfD0OYREZZRVvQpc2gjHHsDzFxCXrEfLYVDyIHT7Hs7fh9cvjLg+gUAgEAgEAkG+JTo6GrVa94Q5MTGRxMTEDGMfPnyIra0tN2/ezFbu7du3MTc359atWznW7fXr1zx79oygoKAcyxAIBG8X5W2Y9gPcyInzTB4l8TFM6gSlHcDcBtyrQe9p8DTdvj2vX7swLgoKDhKwVsGqkVCzDHh8DOcqweZZYK01TF4RehSCzlXBbyR4T4dfWibnRJTCF6vgN3/4/Qvw9IQ2Q+CKDZRNzn9YcQTsmwo3p0ONclCvI6x+BF6lNf1SN1i+CoLHgLML+M8F/0a6ORdl7rDhX2ivgCHNoWYjmPQ3FCuRfCmO8Nt2qHYDmlSEj/qA3QDYMCLzIjCZ0XIstIuBRi5gaQndtxk+t8poTfXstd3BwwumPYZftkMrB91xsoqwYAqcGwqlnaD6WN1QdIA2P0B3BbQsDyVKwYrnmnbLOrBvBxT/F5pXhkUrjLxAgUAgEAgEAkG+4/nz55ibmxMaGqrTHh0dTUyMJnwnJiYm9XXr1i1KlCjBxYsXddrTv8LDw7l48SLdunVj1apVWY7N6rVy5Uo6derEnTt3CAsLIyEhITd+TQKBQAvFLZg2DW5kPH/Il6gjYERTmHMX+s6BDX/CoCZwbQMEpCvUmtevXaJOf1Skh3bt1uPv787gwbXeh07vhmHDNP//9dfc1UOQqzyeC5WWw5kL4G2slU7wXvHy+o0ZM/xp1apcbqsiEOQPVq+G33+HEyfe/VriO1Ug+KBJPAzuLWD0PRhcMrvB0NsJgmfCnq+MK3CXFeqX8Ikr/JNs76nzE5wYqd9zIuQUjP8edpyDWCuo0hi+nQhtPN6SMoIcceLECfr06UPVqlVZt25danuTJk34999/WbZsGQMGDEAm0zy0K5VK1Go1EokktU0farUapVKJTCZDqVQilxsT9pOGQqFIlSGTyahQoQJ79+7F0dExR/IEgjzBmTPQoQM8e5bbmuSIhC3g0B2WvYIuVtmPz+uErwfXnvDDHfimdFq7Kg4SLcBca2xev3bhuSgQCAQCgUAgEAgMRmoF5StCIZPc00FSBFbchUf34EunzMdFHoMmTWGfDCYshhWzoGoIzNr05oX1BG9GQEAA7u7uGcKOAwMDKVq0KEePHmX27NlER0cTHR1NXFwc8fHxxMXFpbbpe8XExBAfH5/6/6zGZvXSlpHizZjey1IgELwfzo8BEwmYd4C4eOhqrSluKjGH37VuIaoXMKMrlLIHc1uo+ins+S+dMCVMqQpe4+DQbKjlChZW4N4AziaH3ymewtiW4GgFRSrBtJXgawGDDmv61S+huQV8uVtL7B2oZQEjT2mtFQPrRkJlJzC3hHKNYc3ttO7XQZBgCs7pziykWoZFQ689u7VUT6GhBXSeAl2qgrUFlKoDi68Y/jlkRc6OcQQ5RwGr+8B32yHOHFY8gbZmyX1KmFUP7k6EP5vnqpZGsbINbPoMdn759k6jBQKBQCAQCAR5E3ktOHQxl5WQQrFSQBLYZrajUcK84RDgA+d2QSVTTXP77vDfU+FlkdsEBARQqVIltm3TzdkTFBREuXLlUkOjAR480DhcvW+kUuja9f2vKxAIdPH5H9zvDwl7wWc4zLoMrS0ACRQpljxIAb92gElBMPEPqCGH5ROgQzs4fhqqm+nKDNkIIyvBxE1QyRJOb0uTM6cz/Poapq2G8hEwawJcSYIqxiitghXdoc9x6DsJZpeB0wugTysocgma2UHxilAoFmaPh7JjwUePY7RB127AWinjtiyE6VthSUXYOwp6todSV7TG5BBhXHzPJJ2ByedgUxDUs0zXKYUmI6FGxbe4oBqWtYSd3WB7t3S6PILvvoIVp0FWCgbOg8lNC/aDVumhEDM0t7UQCAQCgUAgyH9ErYGi3SEewBTm388YFq2OgAWDYdYOiHCAbhMhQ6Y6NVxYDKPmwJnHYFMWev8Ik1tDijPk/W0waT4cuwYv48ClKgycDsP9DH9WVVyHDdehyZ9Q0VSrQwKursbpE3cNxk+Fv0/Bf6Fg6w6fDocf+4Cd1ul6StjawhNwbQysPgUJNtDxV1jSuWA/ZxtLQEAA7du3Z+HChaltMTExKBQKSpYsqWNcrFkTvL2hZHZh+G8ZmUwYFwWCvICpA5RygISiGq89R1conS40OOk8LDoL3XfAmE80bX7F4XxD+P0wLEnnwBWqgvVroGGynHLeyXJOw+KL0PNvGO6vaasUDZ7DjNM58SRM/hu6bYaFbTSOWE3rwANPmL8VmvYCyyawsA/0mgdV54OTNzT/DIZ9A162hl+7IWul4NkXRvhqjIEdp8Pa9fD7bmja7c2cxYRx8T2jCIIQFyhroadTAlU7vCdFVLC4DxwoD1d3QfxWaPYFVLwOXYu+Jx0EAoFAIBAIBPkG63Zw5xEknga/3noGqGHbYBixH0YugEZWsHg87I0AP61hN+eA/xioORTWNobQ/TCmC8iOwNSamjGPL4HlxzBjF2YqwAAAIABJREFUKBS3hHs7YXwbMDkP3xiYKzHyKtwHOlbJesNkiD7Rd+FJcfj2FyhdFMKuwA8joY81bOyaTr4CZvQB/8FwaAEk3oWjBSAGe+HChezfv5/o6Gjq1avH5MmT30je/fv3qVixImZmZoSHh2Nvb09gYCDOzs44OTnpVIU2MYHISE164dzCgFIFb8yNGzeYM2cOT548wcPDg8mTJ1O0qNicCQSGEHIFnsqhoW9am1kNqGMNVy6DsrlucdQijcFXT+7CkCvwVAb1a6e1OftCWSNrNgQchUBb6NAk7TtCYgf1fWDKBUjqBaYy+PR38PsatmyHQwdh0yRYtxF2HYNG9m9vLTmABCpXTzMESuyhqjusvASKbmkHajlBHJ69J9TB0KUceA6GqBNQyw1Kl4c9yUe5AQugbGkoZAFf7cs4/5++UGskfN8aPEpD8fKwNwZQw9Fp4F0CHApBqRqwPEAz5+Hv4OEGo47AgeFQujSUbQ33laAKhM3noPe34GoF5bpCJwfYdBDUAAoY6wV950KXWuDmDO5dIEgFqucwvikUsgWP5nAiTPtC4epSqO8G1jZQsQ0cDknrVj0CP0eY+QfUqwguxaDpXJHzRiAQGEbUP9D0YyhTCEad0z/mxHDwXwgqI+QmbIeiHSEuXXvkeZi/zzhZAoFAUFCRWEGp0lCquO4GLQV1MPyxFfwmwvQe0PQzWDYbbLVvohEw/UcoMQR2zIK2zaD3bPjBDxYvhBRfNf+psPh7+LwtNGoCA36BnkVg+wHD78mvQ0ApAcfCKQpCXAxER0NMXLIcA/Vx7Aib50OfzuDfEDoOhx/awz/b0sakooSSfWH+V1C5HNRoDSPb5e+Nl7u7Oz///DMBAQFERESwYsUKbGxsCA8Pz7HMgIAAPDw8cHZ2JjAwENCERDs5OeHs7ExsbGzqWFNTsLeHfXr2Se8LpfLd7lhmzJhBly5diIuLo3v37rx69Yrq1avz119/vdN1BYKCQlQEqM3BTjv8WQr2tsl96cYXdtR/X06RY6Pl8S61BRsjb+JhoaB8DZ85gLl58ssCBh+CiDBdfYpUhv7fw8ZjcG83uN6BGRsM/74zeC0JWGlH0ErAykL/78dYhOfie0JSAtbfg9gN4LQMzu+DYlpHnB6D4f7A5JyLmci4tQG67IJ7VSH2IYSbgvIu/G8+DDsLX7nCy+vwzEYz3n0ABPTXHxad9AAeyKGMc3KDTGO03HtXY+iTA6hg2xbYugfWF4HAe2Argd2jYbUjXA4B8yPQqDW499GIidwP7SfB0O1w2AeOjIaeI+HKCnBIvl51DGy4CTuvgosEAp7k74ctgUDw/rBpBvv9YZYfZJZS3WcYzDc37r5i2gD2VtKtyAYQeQ4W3IcBzcV9SiAQCLIj6RZcV0A/37R7pm09qGkKSSljrsCJSOjUAVL3N1LwrQdRG+G+AnzkkPQUZo+D1f/C09egUIEiCSqFaDZbBt+TtZ63lTfBtxpcTgJ5BTh9DXwM1IdY2DwNftkEt4MgXgEqBUgaQIQKrLUVMoHWLQrO94aXlxc2NjZUrVpVp/3ly5e4uroSGRlptMzg4GBsbW2xsrLCycmJoKAgKlWqpOO5qB0WDTBpkuZVrRrkhjOfSvXujhqnTp3KsWPHuHHjRmpbz549AahXrx5JSUn069fvna0vEBQEbOxAEg8R8UCKgVEF4ZHJfenGSzK5SVvbauREJabJUUVClPYtQJp8j9e2yCVBktZ7+0Igd4PVO8Er3Ymc1BZM0U+xxtCiJOx6oLHNGPJdYshaagAVvE7nHPY6Amxs37x+RkH5zvsgcGgNg6pqPnQrd3A2AaQgSYCAWxCaBEUrQ7Xi2ctSx0KcKZin/AVIwMIcYmN0/300HAR+RTQ/O5cD6yTYexDaD4RSZlDMH7r7pI0/tBIsvoRBNUBuAo0GgevBtKpLAMig93fgYgLIwaOMKAQj+PAIW6HxakjU0/d3L2i/BlDDrmHgURKcSkCZurDk6vvWNP+gfg5DmoBfPRi0Oe2k7/kfGq/uhpXA70toXxPKdYAnKkAJS76Ej+tDg7HJecQAYmBcU+g4F55tBv+Pwb9/8hw1XFwE9SuDT2Wo0R6OaVk6T38HHw2Er1tDIz+oORBy7tchEAgE+Qd1NEQBDtphXBbgoJUOSBUOYUnwawMt7wpzqDYZEiMgUg0kwKSWMOsWfLMETl2EyxehvwcoFIbrU8gRZCoIfa15L3OHZYdhYae0TZBB+qhh3zD4fCn4joMDZ+DyFVjcCSQKPRE4Ui1vyXzOH3/8gbW1dQbDIkDRokWpUaMGPj4+emZmTYrXImCQ5yJAmTIwf74m9+LMmTm4mDfkXXkuPnz4kI0bN3LgwAG9/UePHmXFihUkJSXp7RcIPihMNYayuPiMXY5VoKQCDmtVa46/AKejoUpV/R73+ijqA84KOKEVJRV0UhMBmoLECuxNITQ0zX4SfQcea43x8IMSz+GRHDw9dV/lnDQ2ENVL+C9d6JT6Ndx/BUWKptM5i2s3ZK0Uzh+FlLur6imceATeVd/c81B4LuYjnFwzfmAyD1g8FyZPBc/OUKwhzF8KDfVUGdJGYgkWiZCQsvtWa/5ILa20/vCkUNI53UQVhEZC9aJpY0oUTZPx/Dn8dxi8tqS1RUohOpE007wZlMzDqUMiIxOIisqQelzwFjE1leHoqCfBhUAXCXw0Ai7/ovGIePg7+A4F/3/BTRwNZUBSHOYf0IRFT0rXJ68Nu/uCb2f48TLsrAPHIuELe+i7Anpsh5JrtCZYwbT98GwhNL4PB+ek5SCJPQy9NsOa0+BtBfd+gU+nw+Wf08bcOAtzjkIdG0iIFV+2AoHgw0Bio4ly0bEJKSBW67FKag8OpjBoN3zpkm6+CbiagOI8bLkHA4/BgFrJnUnoiT/OGtvKUAa4ch3wAiyhii9EbwauG64PibBpG9QcAzO/TDNMXldmHkYmfY/f0/Hx8Tx+/PidyN60aRPm5un9+tNwdHTk+PHjqcZBQzl//nyqcTHFcxEgMDAQNzc3vZ6LAF5e8OIFjB4NFSrA8uVQu3aGYe8EQ4yLsbGxhIWFZTtOm1mzZuGqU2FIF5lMhlQqZcOGDdSoUcMo2SYmJpQpU8aoOQJBXkZeHjzVsHwOeHcFazkULwv2MjCpCQNqw7jBUPZHqGECy8fB00rQv6Hha5jUhr7VYMoQKDcdykfCzJ/SeeaZgV9t+N9SOOYPlaJg4k+6jiNm9eD7xjCkFUSOgY9LQ/h/cH4/xHaGeW0h6ThUGwltvoRGPmAeAbsXwt9SmP+p7ppZXbshawEggdAN0Kcc9K4A+2fAmaKwvfWbO3yJ/U4+Qq/brgQq94AtPUAZBj93hP8tgTNj06zcEgmkzz8scwf3JLgfiOapSwn3H0OZL3St4xnWlEIRewiPSH6vhrCUnyVQrBhUbwf/DsncLVYizbsus4mJSpo2XcWzZ8aHdwgMx87OjHXrOlC5crHcVuWtk3Qe2g+BZ/GaDUflfrDoa7AGbi+HHlMhvhDUKAUqh+RJStg2Av63G2xdwSMJSK5M5qj1rJmUBMpEULz7fOIFDociYOKgya1SRA6FbDQhEhiYJFmbm/vh6SMY0jK5IR5UnhClhkLJ38rl20Kt5BQVZpZ6xQgEAkGBw6QSVJbDlRtABU1b0g24lgjuyWPkPlDXBm48hXL++p8JkxIgQaLJsZdC4lU48lzPYAlYW0HYq4zh0nJv6FQJZi+B+x2hrJ6djyH6oIL4RLBz0Np8RcOBU6B21zfh/XLlyhXq1KmDldXbP7iVSCT4+/tn2m9hYYGNjQ3Vq1dHLjd8a6lSqdiXnEDRycmJ27dvAxrPRV9fX5ycnDJ4LmozYwb07Kl5VakCv/9u8NJvRGhoZklZNLRt25Zbt24hkRi+TQ8NDWX69OlZjqlZsyZ9+vQx6necYpx9H4VoBIL3hcwDfp4CX8+Buj9CkgkseggDnAA5DN8EicPgt77wQgUV/GHzr1DDLFvRacjh2w0Q1h+mdAVJaRg6GRIHaI2Rwpe/wMkv4JOyUNgHvhsCFftqKwu91oHFZJg1CX56CTZOUL0xDK6sGWJSC8a2gY3rYftsiJGDx0cwbwEMSPf9kuW1G7AWABLoMBFM1kL7a2DvA/O2wSc52BPp+bUJ8jOq/2DbfWhUH+xNwEQKFhZaDz4SKFIYHt7QFCpIiUqRusCnNWDxHOg8C+K2wYbX8IN/NhZrU2jpD+O3wYSaIL8LWy+n7c8bdYPvvoV1jaFLRUgIhP3nwa9t2qY7L5OUpOTGjZdER4/NbVUKNK1br+W//yIKpHFR7g6LDkJJayAKBtaEFa1hoASGj4Pex2GgKyxuA3uSjYsRO2DIWdh9A3yioUdVrfBc4MQE6P0nPDOFWdvBw8hKZQURY28nUima3ChSzVyJBHIc3aQG18/h4A+Zf4laWot0DwKBoOAR+hSilJD0HJRqCH2mCQGTmINLcZAVgwGfQbcf4e+a0NgSfh0HD5RpxkWJPYz5DvyGQ49g+Pwj4BXcOA1HrGHHVDDxhgYOsGYedJwJjs9hyjfwnylk8O+SQ7068NMamOsLvkWgcDnwKKTp++Zn2NQKmrWDkd2hWAJs2Afq5PAyg/QxhUb1YMRSONIMfC1g03ewNTzv3OudnZ159uzZW5fbvXt3Hj16hJ2dnd7+qKgoYmNjef36dY7XcHZ25uDBgwCpORft7OyyzXHo6QlnzsAff2hC2TduBFdX8PCAd2BnRSaTcf36dXx9ffX2L1iwAE9Pz0zDmzNj6tSpbN++neHDh2c65tixY5w8eZLq1asbLPfMmTN06NDBKF0EgjyPBHz/B1f/p79bWhzGrIcxWcmQwfeX4fsshshLwcx9kJKBQfUI9qcbY+EFqy7DKq22b7qnG2QFXWZpXnr1LQkj5sGIrPRNIZtrz26tFMwrwh9nYakhaxpBXnUg+7BIgjE1oHQZmHEZNn6pqezcdWX2FXvUcbBjNJQrArYlYV0xmNNH94NtNATctkMpJyjdIjlXgBQGLIWPr0GlQvDRFOi6AroaYOtpMQNaXYKa1aHhCCjumdZn3wI2j9AYThxsoLQfrLmTdx68BIJ3jSoeVn0N9evDx61h/0t49hySrsKV8tCqNCCHlq3SQmhvn4EiTcHLAiSO0Kaursx6U+FeIJweDivnwfMP/QBaCg628A72UBmwtILoENBOlFCpGcRugj2aCC4UoXD86ptXWBMIBII8TSKMqQlublDuc3ieAJPqJr/vDIEqQAJt5sEML+jvDYUrw2V/aOOgK6ryd3BwNrxaB11aQNehsOURNPNPjqCxg5/WQdlj4FUI3FtAQn8Y5KFfteY/wMjyMOVTqFsHxmjZduwbwYG98HE0TOoD3YbCo4qwdqPGy9IgfaTQ83cYaAMd3KFwRVjvCD99XvCfcTt16sTLly8z7X/w4AH16tV7ozW0w6JTci4CBnti9u8PERFw7Bj06qWJpHJyAj8/+OorjZfjli1w9Wq6kH0jkUqlXL9+PdP+mTNnMmrUKKPljhkzhnv37hESEqK3/969ewBGGRYFAoHgfSM8F98zlp0hvHO6RhP48QL8mMW8ZkugmZ52WXlYeU5PhxZWNWHnnYztpmVhwTFYoG+SHKbf0NcBkqIwdR9M1dsJVfvC0b76OkHqBscyfz4RCPI9O0fBgcqwbyVYKWFKLYhRazzlpDKQJe9C5PK0DYlEovte++dUJODTA4q5a/L/ddfvQPBhIIH238KqgVBpCrSdA9Mbwp3FMGgtvH4ATyyg0SaoMwaGZiEq6Rx0HAVhIRD+Epp9DPbNYctojfHXoTl0WAx1akNhb1ixGEp9DOuHwdDGMEoKKhm0mAK+PgV/kykQCD5gTGHxc1iczTCJHQxeCYO1G0enHwQ1+sK+TJ4XAYo0gK3X0jV+qf95WVoCfjyQ+bN08Qbw55GslM5eH1lJmLEPZqRr75nuvdlnEPtZFmvlM9q0acPevXvZtWtXhvDoa9euERsbm+p1mFO0C7qkeC6C4cZFADMz+OmntPfBwXD/PgQEaF7r1qW9t7fXeDeWLasxQuqrk/LllxrPSG1kMplONWdt1qxZQ4MGDXBxcdHbnxVyuZxNmzbRpEkT9u7dS4kSJVL77t69S4cOHdi0aZPRcgUCgeB9IoyLAoGRqFQqoqKiMg0PEXzAqDUn5yXLgxWQeAf23gU/NDmdqjyE02HwmQOcPg5JyfnRPetA6B8QpIKS8XD8AqhbAko4ewIq1gcbKQRsgUsO8K1FFjp8IBRuDEfv6bZ59oND/fSPTzmDOXBM8///HU9ucIPthzNfR1Ic5p7K2F59IJwYqH9OndlwXH+XQCAQCAT5jkWLFhEaGsru3bsBsLS0JDw8HBcXl1SvujchxXMxJCQEe3t7TExMUtfJKSVKaF7162fsCwrSGBnv34fXr/WnSTExydiWEhatj5kzZ7JmzRq9fYZQr1495s2bR4MGDUhMTKRly5bs3LkTCwsLdu/eTbly5XIsWyAQvDlSNzgel/24vIy0JBx+h9cgjIsCgZGEhoZy584datasmWX1PMEHiATaj4YtI6D1Wk1IrZObpkvqDD+Ng/4tYJUz2MRobvAAdq3hp0PQoTE4O0CSTfLNWQVHpkPn65CkBrkzDFsJfqaZKSAQCAQCgUDw9tm4cSNBQUFs376d0NBQWrZsSbVq1d6KbIlEQrFixbh27VpqSDS8mXExK5ycNK8GDYybJ5FIsLS05PHjx5QuXTq1fe/evbi4uODt7f1Gevn5+XHv3j127NjBqVOnWLJkCc2bN38jmQKBQPC+EMZFgcBIAgMDUavVBAcH4+bmltvqCPIYdr6w66z+voq94XhvPR0y+Gw+6IuiGvUPGJ+9RyAQCAQCgeDt4uTkxNdff/1OZDs7O3Pz5s3UkGjQDYv+9NN3U6TFWLy9vTl//ryOcXHGjBlMnao3YVSOaNu2LW3btn1r8gQCgeB9IAq6CARGoFAoiIqKQq1W8/z589xWRyAQCAoMj/fAD8shoiBUxlHA2IogkUHffWnNicfBTa6pQHhUT46vrFDehmk/wA0j5wkEAkF+wMnJiYCAgEw9F+fOBQcHfTPfL15eXpw/fz71/ZkzZ0hMTMTPzy8XtRIIBILcR3guvieePAknOjoxt9XIk9jYmOHqmj/yF2obFFUqFZGRkdja2uaiRoL3xYsX0bx69QYlBnOBcuUKY2Iiy201DCY+XsGDB69zW41coWRJO2xtzXJbjVzl8V6Ydg169AC7AlIZx8YG9u+ChOZgBlzcCRHWOSv8o7gF06ZBmeHgpScXmECQnzh69CjXrqWv1pI1dnZ29OjR4x1pJMhtnJ2defz4sU5FZEtLS4KDg7l582YuapaGQqHA29ubv/76K7UtpxWiBQJBwSUyMpLg4GCsra0pXLjwB5NKTRgX3wN3776ia9fNJCaqcluVPImpqYwNGzrg4VE4t1XJlqCgIFQqzeeoVCoJCgoSxsUPgIQEBS1briE+Xk/G7zxKTEwSfftWY+xYPZnM8yhjxhxk5867WFh8WJaTpCQVXl6ObNnSObdVEbxlnP3B6gCcS4T6Utj9DzRqArvPZT9XICiohISE0Lhx4xzNvXLlCr/88stb1kiQF3BycuLcuXO0bt06ta1Tp07069ePRYsW6Xg0phATE0NCQgISiQRTU1OjqksHBgZSokQJpFIpz549w9nZGYkk66OfKlWq0KxZs9TQ8Lt373L79m3atWtn8LoCgaBgoFAoOHnyJCdPniQgIIBHjx4RFBREUFAQMpkMf39/zp49S2hoKFKplCJFilC4cGEKFy6Mp6cnXl5eVK9enerVq2d778kvCOPie+DVq1gsLU25dElfsjVBnTpLCQ2Nw8MjtzXJmtjYWBIT07xP1Wo1L1++xNPTMxe1ErwPFAoVd+6EEh09NrdVMZgVK65w+PDj3FbDKO7ff83cuZ/QqtWHVRHx5s2XdO68ObfVyB1U8IsfjDyZ1lQq2dnWpApcvADeye/Dz8PIkbD9AiTYQv3P4dfpUF7rMFgdBE3KgPtqqL4PZm2GYDVU7AOHfwIbIOQYfP0N7L0HxX1hahPoPRFWhUMHM0jYDo5dYV4g9CykkRvyJ7iOhI0voHWKg2kMrPseflwH98LBtQ5MXADdKqTpI/OA5o9g12WoYw57k+AbH13jouoFzBoGi/bCCxVU8Idpv0ILV03/+TFQdwYoksd3tYauAGaw6CEMcDJMDgBKmFIDNraAufYwZj5cD4USNWDdQaj9Ydn1BblETEwMSqXSaC/ErVu3cvXq1XeklSC3cXJyIiQkRCfnYps2bejWrRu1atXixIkTGeacP3+eQYMGERkZyY4dOyhfvrzB6w0cOBAfHx+KFy/OihUr2LZtm8FzXV1duX37NrNnzxZeiwLBB8TOnTs5fPgwp06d4tKlS/j6+uLr60uLFi0oWrQoTk5OODk5ZTjoiI2N5dWrV4SGhhIaGsrTp085e/YsS5cu5eLFi1SpUoWWLVtSq1YtnQOW/IYwLgoEBvL8+fNUr8UUpFIpoaGhFC6c970uBQKBIM8hhT6b4dN4ODMRet6Ff9eCkxQkZuCUbFhUBUKvlnDWB+ZsAYcnMGU0tIiHywvBNt2B779j4eGnsOI4FIqCHRdApdbI6d0ertWFP2eC+ixMnAYJxuqtghXdoc9x6DsJZpeB0wugTysocgmapTxTyqFVM+i/G7pbQFRTqKZtwFPArx1gUhBM/ANqyGH5BOjQDo6fhupm4PM/uN8fEvaCz3CYdRlaWwASKFLMcDnahGyEkZVg4iaoZAmn0+2pr02G2pvh9GWokstPisrbMGMLtB2VdTh4jnVWwNjK8ONd6PM3LEkuzJp4HMo3hKfOcOg+NDDG8BoFK+dCoc+hlbsR8z4QUvLo7dq1y6h5iYmJuLuLX2hBxdnZmYiICB0PRTMzM8zMzHBxcdE7x8vLi+vXr2Nra2uUYRGga9euTJgwgeLFi9O1a1ej5tasWZN///2X3bt3s2zZMqPmfrAkQCd7UC2HzbkdqKGGo3/AzXIwoFEWRSjeUGflDahZDTzWwQZ9VRvfMQ9+Bq+FcPAu+IrDwxxz69YtlixZwuLFi+nXrx+lSpWia9eu1KpVy2AZlpaWuLq64uqaduLbq1ev1J8vX77MnTt3WLJkCW3atEl9tW7dmqJFi77V63mXCONiLqNWq4mPj8fCwiK3VRFkQ3BwMGq1bqUBpVJJYGCgMC4K9KDg/C8dGLLoBFceW9P/UABz/cQ3e14lMDCQuLg4ypYtm9uqfHDYFgdb4LGtxqDoUhpc0z3p318DexJh6Rr4IvkZyyMcfKbDzqnQXfsWrIbIqrB+OhRJNjpWrKP5/721sF8NK5ZD58JAU+A6dNttnM6JJ2Hy39BtMyxso8mh2LQOPPCE+Vuh6RdpY31aQ+LX8JMp+E8Ds4tpfUnnYdFZ6L4DxnyiafMrDucbwu+HNYYuUwco5QAJRUEiAUdXKJ0u8s8QOdqEqmD9GmiYLKect26/uSNULAvmeSBKx9Bck2+q89vMj6mOgpXToExtYVzMiswMRpnx4MED5HKxdSmoODk5ERsbq+O5CJpNeZEiRfTOsbCwwM7OjqpVqxq9np+fHwEBARw/fpwNGzYYNbdmzZosXbqU0aNHG73uB4sESlYEVV5Is6/SGBc3toJ+WRkX85LOgvfO8uXLWbJkCeHh4fTt25eQkBCdIlNvk6pVq1K1atXUg46dO3eyc+dOtmzZgqOjI2PGjMkX0ZKiWnQuExoayoULF4iPj89tVQRZEB4enmVfeo9GQf7i2LHHbyhByZ3NP7P1nnZORikl/Iaw4O9NDK8oNkN5nadPnxIUFJTbaggy4dpFwBvqa+0vyzQA1wS4dDvjeN82aYbFDHK8oE5KxVEJ+PoZf9IacBQCbaFDkzTjk8QO6vvAlQugXdDZpDo0CYO1T6B1XV05IVfgqRwa+qa1mdWAOtZw5TIYmuXVWDlFGoNvFqnJyn0NF7eBZ/6pB/XGOjv7g2NyfkwUafkx89GvIN+gVquRSCSp4WGGvlQqFQkJRvsZC/IJLi4uWFpaZvDSKVWqVJYHf56entSuXTtHa7Zp04a2bdsaPa9BgwYEBgYyYsSIHK37QWIKP1+EOc2zH5pnyI86C96YadOmYWJiwtGjR5k9ezY3b95k2LBh78ywqI82bdqwdOlS9uzZQ+PGjWnfvj3t27fn3Lm8nbRbGBdzmaCgINRqtU4VYkHeIywsDLVajVwuRy6XI5FIUn+WSqVERETktoqCN6Bx4xVYW09j69ZbOZSg4MGeP9jzUNe46FKjMTXcHTDJA94/gsyJiYlBoVCkpjkQ5DHUEBkFElvd8GeprcbjMSIq3XgJOOpzctGSY6Mlx8bO+IehsFBQvobPHMDcPPllAYMPQUQY6Pi4m0LXQdD6a/BL91waFQFqc7DTDluWgr1tcp+B+hgrp7Cj/mv+py/IJBoPSRNvuKLQ7Ve/hOYW8PkC+F8zKGIJhcrBlCPp1oiBdSOhshOYW0K5xrAmvRFYCVOqgtc4ODQbarmChRW4N4CzSZpckyYSMO8AcfGaXJMSCUjM4Xetc4DsdEYFB2ZC86pQ1AYsHaBmR/j7ie4wmQc0t9Hkx1Tc1OTHbOWTTlYS7BwHPk6az7v0R/DTMUg5XkzcB44ykDrDoXhY3DRZZyl03mK4nBSODAGLBnBiF7TzARsLKOoJv9/R8+HlI+Li4lCr1Xz33XdGvSwsLHjy5En2CwjyJYUKFdL7PH3u3DmGDRuW6bwjR44wadKkHK35+++/G5VrMQVvb29evnyZozU/NFSPoL5Z8r1QAh30OImeGA4WtWH1HKhZEiysodZXcCfdWcLzI9DDFwpbgo0LdP5Rk2NYm4QtYGkBf12E4U3B0RpsS8BXG0AVAW0tQCKHiVfg5g+a7xmJBFwZuz0WAAAgAElEQVSHpB0MGqJz3DUY2RE8ncHSHIpXhK+XQIShX9xahJ+Hr/w012VdHD4ZAXe1/I7Ur+G3QVDbA+wswM4ZWn0Ld+J05TzeAc09wdISKrWDo6+M1+VDZs+ePZQoUQIbGxvi4uL466+/qFu3bvYT3zE9evTg9u3bfPnllwwZMoS2bdty507efBAQ7jS5iEqlIjw8HLVaTXBwMKVLl85tlQSZUKpUKRwdHQFNzp+7d+/i7a2JI5NIJEZVpxPkPRQKNQpFEh06bKJECWuOHOmZL6qXC94OwcHBKJUaw3BQUJBIc5DXkGhCVtVBEKmGQsmGQVUkRAJ2Nnqm6DPop8gJhigtOVER6Yw6Uo3hTTsLRlKirvHMvhDI3WD1TvBK59omtQXTdEvX+Q70bV9t7EASDxHxaGJxAVQQHpncp2eOPoyVI8nEmtpgBjwcB7fnQvuDmSymhl0/w/jlcKccbP0GhvQF/5tQ15Ts81GmCy/LLP+jQbkmDdFZBVevQfXe0M8D7BRwaB50agNHz0ONlN9FdvkxgTPfQ6f50Hka/OQJZxbCuDZgfgEGlwXTBnDpIShewBd+UGopTKun0dnK0XA52igfwoDJ0G8GzHSH/47AywISLGGst5mpafp/WQKBIK8jLQmb7kF8AgyunPk4xQ2Yexf+PAfW16DLZzDSF3b31nyHRZ+E5i019+ZfN4LtE5gyDrpYwcFv0nmZK2BGH/AfDIcWQOJdOKoEbGHJHZirgHlt4O9GsGekZq7cFlJu+YboHH0XnhSHb3+B0kUh7Ar8MBL6WMPGroZ/fxuSU1oVClfCoPM48CwJkuewdBK0iIGrizTF6pKuQafPIbo9rJ0PobthwgJQOGanQcEhMTExR98TERERfPXVV8TFxXH58mWKFy/+DrR7c9q1a0e7du04duwY7du3p3Pnzjk+WHlXCONiLvLixQukUilKpRKlUklUVBQ2Nnp2SYJcRyqVYm1tDUBCQgISiST1vaDgoFarCQqKonz5BdSo4cS5c32znhC7iwFVh7AvAeJCg4j9uxwHLcCsxUKu/dYSs6xnC/IIL168SP05LCwMlUqFVCoc+983pqZAPMTrOfX3qQ78A8dfaR7iAR4chf/MoFqFjOMzo3JV4ACcCYdShQA1nDqeVokZQGoP9sCr10CynfnOTd0xHn5QYgY8kkMHfTUE0nvPZYJjFSipgMOnoFtyrsT4C3A6GhpUTbdZMtUYLePiAas3kJMF5oWhVGGIsM96XNle8G0DjdxeQ2FGEzj2COqWNyAfZS/dTVem+R8NyDVpkM5y+HaNbtPHHnCoKuy+DTUqpbVnlR+TGFj0J5T5BpYM1XwWTT6C++Xht2UwYDrILaBkKVCbaHI/WheDDOfGhsjRGq56AZ3+hm+SN7hG1qzIk5iamiKRSPDz8zNqnkQiST3oFQgE+QQ5FC8FJIClJKOHdipmMGomVLYDikO/evDdYUjoDeYqWDsF7laGSxuhQrIVsFwkVJsP5wZCHe3DICWU7Avzv0r20i8HNZK7ipbS9Nubgok9lCqtxyBigM6OHWFzR62GhmB+Bbptg5iuYOgu0ZCc0jIPWLxWd17NBHD9Hs7PhUamcGYZXHGEfUugkQXQCF6fgzEvMixZYFm1ahVr167l0KFDBs9ZsWIFQ4cO5c8//+Szz3Kh6k4O8PPz4/bt20yePBlPT0/WrVuXo7yz7wJhXMxFAgMDU71llEolQUFBRlc6EwhyyoULgSQkGJrRy3AsLEyoVq3EW5f7LpHLpSgUaY8OarWaa9eeI5dPoVs3b377raX+iZat+f1uayCBv3t7s63TDZY2F54V+YmwsDCd91KplBcvXlCiRP76Gy4IlPUC2SKYtxkG+ICJObiV1hhfyn4On8yGUd2BEWD/BKbOAJfu0LqQ4Wt4fA7+s2BUL5AOBtVZmLRfd4y8MtS1glXz4LMpwDmYvlXXc9GsHnzfGIa0gsgx8HFpCP8Pzu+H2M4wL5NbRnpMasKA2jBuMJT9EWqYwPJx8LQS9G+YTq/y4KmG5XPAuytYy6F4WbCXGSfnbVDBO81gKS2sscGGJv9Tyiof5ZQLkNRL17Mzu/yPb4OXJ2D8VPjnEryKBqUaFAqo8Vp3XEp+zN/iYWddQMu4qHwIVyOgbgMt/W2hYXXYcAnC1OBogKuKsXJkHtCyYo4vPU8il8tRq9VZhrrqY9myZTg4OOi03b17l1evso798/Lyws4uzWX2008/Ze/evUj0ujjrR6VSMWHCBMaNG2eUzgKBwDBkblAhxSKXnN4kPgxi1WAeD0fOQJXxUE7LiFjWF4pNhcsvoY52HSATaN3iHed/i4XN0+CXTXA7COIVoFKApAFEqMDawMUzzSk9UZNTuns9QA2Xl8PE3+DsPYhMBLUSEuWaAzpUcOUKmNaC2ik1YmXQoAHINr7Vq87TTJkyheDgYBwdHTl9+nS2RRoHDBiAo6NjlrUV8jITJ06kS5cuTJw4kdatW9OtW7fcVkkYF3OL+Pj4DEVcXr58KYyLgvfCtGnHuH//NQEBr7MfbCQuLrasX9/hjeUEBUWxdOklnj+PfgtaZU36KuBAquF1zZrrrF59DblcJE4siAQGBqJQpLmZKZVKnj17ZrRxccmSJSxcuBATk6wrgh88eFBnkytIo2hn+PkwTOsHi6JA5gMXL4C3DKQu8NffMHIkDG0P8TZQvxesnA52RvzTlLrCX1th4FDo2QaK14WpY+GriWljJPYwbRF0HwEVl0H5T2D8EDg5U0uQDHqtA4vJMGsS/PQSbJygeuOsw74yIIfhmyBxGPzWV5M7qoI/bP4VaqRzfZZ5wM9T4Os5UPdHSDKBRQ9hgJNxct4YCej8mUs0RsSUumba+Si1PxqVAswKG57/8W2hvAsdWkBIS5i7HcoVBskL6NVMY2DUITk/5tM4TX7MQG39IyEKTR7LVCRgZwfqJ5pQe0OMi8bKkRaGwgXUkdrYaB19xsDVq1dz+PDhLOf9+uuv1KhRI/X9zp07+eijj/Dw8DB47VOnTjFjxgxhXBQI3hESk7SwZEhOb6LSeA2qo+F1ApwfB1YTtAapIUkNYRGAtnFRCo7vMsONGvYNg893wNBZMK+65sDv7BQYEGh4MTZDc0oHrYFmA6DWOE2F62KWkLAPao8BpVIjJyoarMvp/g7tC304BTbCwsJ4+fIlSUlJvHr1imrVqjFlypRMD7Fq165N79696d+//3vW9O1Svnx51q9fT/fu3Xn06BHjx4/PVX2EcTGXeP78eYYKwymV80S+L8G7IiFBQdOmq6hfvxR//dUut9XJkpYtPXj8OJzNm3NaZMVwsir2rVSqkEggKUlNQEBoJrkYzWi57B66zkoKrv7oT5uFtwkPeY2qgxvby/Zl87GJ1BR33jyDXC7HzMws9X4slUqxtLQ0KjT6r7/+4ujRoyxdujTbsSI/axZYQv+VkNljnkMtWHYclmUhQuIEB+OyGAAU/Ri2XE17H7Um4xi3jnCyo25bxzHpBllBl1malz6m34LpetrLj4L4UWnvpcVhzHpILz4DEvD9H1z9n/5ug+TI4PvL8H12a70BxuajzCz/49viyd9wzgq2/QmfJBfUUSbqD7+HzPNjSm00ea3CI7Ua1RARARIb3SJBWWG0HEnB3Rwae9Ci7548depUo9eVyWRcunSJa9euGTwnISEBW1vb7AcKBIK3jsQaHEyhwQRY2Dp9Jzi6ZZzzTrPbJMGmbVBzDMz8Mu0efV1peCE2wLCc0mo4tAlim8OKCVA4eUzQYa21JJqxcbG6IdyxMUbqk485duwY5ubmqc5bUVFRTJo0id27d3PwYFpC5gcPHuDp6cnJkyepVatWbqn71lm9ejUTJkxg4cKFDBo0KNf0EFvcXOLVq1fIZJqnbqVSiUwmQ61WExISIoyLgnfCrl136dhxE/v3f4GfX6ncVidbVq369L2tZWIyBYUi49evnZ05pqYy5sxpRt++u2jbdj23bhl6w5bjM+YIT7K1GAhyE09PT0DjwRgXF5dtCEV6nj9/ztixYwkODn4X6gkE+Y5s81EaSxa5Jg0hIR4kVmCn5c7x5F+4qwBjyonIyoCPHZw8AonNko2kkfDvRXDrDQ7aRkFtnd9ETgFn3759Ro2Pj4/PcDCfE+RyOa6urkZ5qN+9e1cUlClAJB4G9xYw+h4MLpnb2giyxRwa1IYfbkHxb8H+LdwnzUwhPi6HxjcVxCeCnbaHfjQcOAVqd+NEGZJTOiEBTIuBVcpiajh8IK26NVKoUhUS/oV7Sqgs04y5eskIL8p8zqFDhzJUm4+IiODIkSNYWFhw9OhRXFxc+OKLL4iLi0MuL3hmsKlTp9K3b1+mTZuWa172Be+3mk/w9vYmNjYWhULBvXv3qFhRk1BHFHQRvAuGDNnDkycRxMfnrqt0XkWl0n20MDGRYW4uZ+bMxvTvX5OYmET6999Nx44VmTLlKN9/3+CN1vvnn/scPfqY06efIZVKeP06DhcXW+rUKUmnTpUoW9aIJHKCXOWTTz5h7969ua2GQPDmJEJQMCSqISgc1EkQ9EST09HUHpyyKfKSQrb5KNsap1ZWuSYN0dn9Yyg5BRasg0pdIOoUDJgLMmM3p1Yw4CvYMB/6lYDunnBmAWyIg5966T5QS+ygkgusWQwHXKCkJdg6g5O1cXIKKrGxsQA0a9bMqHnnz5/n/v37b0UHc3Nzo565s0t5IchfSK2gfEUoJD7Wd05MCITEAIma/InKEHj8GJBAUVdNwZRskUK37+G35vCJGQxvD4US4f5V2HMVpq0Db2NunjKoWAH+2wEr2oBvUTB1gDLFDNTZFBrVgxFL4Ugz8LWATd/B1nD9VaKfnYbN6ayY5m7QoroBOaUl4NsQEn6BRedhUGW48idMO6y7Vu3eUGUJTFgEy/rA610w8wConYz4veRj/vnnH71prlIK5zZp0gQggwGyoLFkyRLq1q1Lo0aNqFOnzntf/0N4hsmTmJmZYWZmRmJiIlKpNEOCaoHgbfDffxE0abKSIUNqM39+i9xWJ8+ia1yU0KVLJVauzOg5OXlyQ8qXn0+XLl6UK2e8h/GZM8+YNOkwIOGrr6rStGlZ3NzsCQuL59mzSC5dCuaTT1bz8celWbKkTc4vSPBeGDt2LJ06daJKlSq5rYrgDbDpBnG5nwM711Fc11QtvqWVh7BlsiNvpfFwZaqBVaffVj7KFHFZ5Jo0RGezOrB+DvQfA0X7g3M1GDEXlJ2N16XOFNgggQk/wrowKO4DU3fCoPSp+0xgxDy4MQLa1oR4FXTcBBs+M1JOAcfYgi5z5szh4cOH9OzZ843WTUpK4vXr13o3opkRExNj1HhB3kZeCw5dzH6c4M3Z0Q+6bddqGAJuQwBzWPcKuhjokW5TH/bvgbETYfCnEGUKbl7Qshe4GPTlpEvzCdC3N/yvKYQngssgeDBfk7PQEJ17/g4BfaGDOyQ6wMc94afPYeCdjGud+hlOpWtz7APPloCpATmlKwyFxU9gvL8m9Uml5vDLNPh0ZJo8uRdsWAP/Z++842u6/z/+vPdm7xAJQoi9iiD2iBY/ITahiqpVo4rqlxotVauo0la/Zo3Qqr0qvkaR2KtojdgRghCRve695/dHJE1k3ZvckSuf5+ORh5xzPuN9cq/zOed13uPj/0C5z6FsMxgxDGbu1/5vY2okJSVx7969PNvExMRgb29PgwYNuHDhgsapj0yR/fv34+npma1opSEQ4qJA8JayevUlvvnmOIcODSqQEFb8kNGqVXmCgobk2Wrz5t7067eNS5e0SwA8Z04Q+/bd4tChQdjZZQ2tqlAB6tcvjZ9fNb76qg27dt3A1XUhf/75IXXquGp9JgL9c+LECYKDgwkODja2KQKBTjBrCNdS82nkCgfeyGmpqAHn3sxzmU8+yrSOGuZ/zCPXpEY2y6DBKDg/KuvuTzLZrGl+TMyh29y0n/wo4wuBvrkc1HAcnx8hnxSixQ61Wl1ozxNJkvjyyy8ZNmyYxn2GDx/O1q1bCzWvIBdSYc9M+God3IgER3do3AOWLYAKckAJX3nBtibQ4xms/BNUZWDgHFjQFzLXrDo2FnyvwqHPYdF0OHILrCvArF0wskZajl3XAZAEYAE/3nkjLFoFc5vAL03gCzXM3QxPzcFvOvzyKaQXM5ZiYfknMGcHxJSAgd9A9GcQ+S3sH5qz91pxpf9O6J9Pm5bfZ7/WdQ3Ivq90G/jlWN5jWfaChF7522VeGZYdh2U5HNPEZkV5mH8A5r+xf3DmNnXgUkr+tuSbU9oKPvg57SczCaOzblfoCgfe8E2YzNtPUFAQ9vb2+YppsbGxXL58GTMzM/bv30/Hjh0NZKFhcXJy4ueff6Z///78+uuvBp1biIsCwVuIv/9WHB0tCQ2dYGxTTILJk5szdWprHBys8m3r5VWGDh0q8+23J5g8uaVG47/77nqaNy/P6dOaPch0716TFi08ePfd9cyb1w4/v2oa9RMYDl9fX5FnUSAQCAqAhYUFMplM61BjuVxOnTp1qFRJy6RmObB161Zu3szBxSgXzp07l2O1akHhebAKPvgR3l8AS2rCy7twMBheqF+Li68J2QB3lsH1X+HRb9D9I7D3hNlv1GRQ3YORX8OI+fBtJXh4DCJep+q06w4370PKaWidx7vkRxvhzwUQ9A2EroZuk2FZB5hcA5Bg/wQYtx/G/gAdnWDtTNgbA5rdFQoEAl1y9OhRYmJi8m8IGR7o/fv3x9/fn+XLl+vTNKPx/vvvExgYSEBAAAMHDjTYvEJcFAjeIs6de0yHDgGsWtWFPn1qG9sck2H+/A5atm9HxYpL6NevDhUq5J2IzN9/K4MG1WXwYC+t5ihVypa//x5Nt26/IZfL6NSpmMXLFWH8/f355ZdfsLOzy7+xQCAQCLJgZmaGJEn5hrG9SdOmTXFzc6NcuXKFml8mkyFJklbFYSRJEimM9MT1C5DaEL4aAeXkQBvomYPwZ94Uvh0KpeRpIaXjN8CC1TC9MWR+Nax+Bv5/wKev0zBUz1RYSmYLFWwh5X7eaR5k3rBwOLjLodyn4LsAjp+CSTWACPh5M7SYDws/SqsU3NwGanQu9J9CIBAUgMDAQFQq7UrXREVFERAQwKFDhzh8+DCenjmUHDdxNmzYgIuLC506dTJYwWAhLgr0SlRUIg8fRqNQyEV4p56ZPTuIvXtDCA0dj6Nj/h54gsKRHh6dlzfiihUXKFHCWmthMTPbt/fF2no2qan5Bg8KDMDatWuxs7OjT58+xjZFYEQSEhJ48eJFxo9CoaBs2bKULVsWR0dHY5snEJgEJUpoV7xMLpdja2tL+fKFK+8rk8no1KkTAwYM0LjP8+fPOX36dKHmFeRM1Tog/w0mzIWP/aBxHXDI4Qm1tFea2AekVcetB1EXIFQF1TMphYqq0LlW4Wxyqw2u6XOZg4sT3IkENaC6BpdTYUTrNGERwLYZNLJ4HW4tEAgMypUrVwrULyEhgadPn7JhwwZmzJihY6uKBocOHWLAgAEGKz4pxEVBgUlNVfHwYTRhYTE8fBid44+FhQIPD0dGj/YW4qKeSE5W0qFDAK1bV+Ds2eHGNqfY0LRpOZo0KceAAdupWjX72yC5XMbXXx9HqSycKGhmJufHHzsxatQ+/vtfv0KNJSgcT58+ZerUqSIcupigUqm4dOlSxk98fDxBQUG8ePECmUyGi4tLxo9KpSI8PJzw8HBSU1MpW7YsrVq1olSpUrRs2ZIWLVpoLaQIBG87Vlbavwg1NzcvtNe4TCbTulq0hYVF/o0EBaLqJ/B7DMxfB34zQGUPnabAukngnCkS3cY2ay5Da1sgBmLfqLMjLwklC1mrwfyNj1sGpDu6SjEQAzg5ZGpgCQ5WQlwUCAxNcHAwzs7OBSpe4uTkxKhRo95aYRHAy8sLd3d31qxZw9ChQ/U+nxAXBbkSERGfIRKGhWUXDiMjE/HwcKR8eQc8PBzx8HDE27ssvXrVzNi2tRU3Y/pk794Q+vTZysGDA2nduoKxzSl2LFnSkQ0brnDvXvYFbefOm6xZo5uKzyNHNsLbeyUXLoTTqFFZnYwp0B5fX1+DvfkTGIfjx4+zd+9erly5wtGjR2nQoAENGjSgYcOGNGnShHnz5uHi4oK1tXWuYyQkJBAeHs6LFy8ICgpi1apVDB48GDc3N1q0aIGvry89e2avRq8NP/zwA9OmTSMkJISyZcU1QWCaaFuYRZIk4uLiCAsLK9S8kiTx+PFjrl27pnEfY1TdLDZYQJeZaT+J4bBtNoz5EpZ0hK/r/dvs1cs0z8F0oqNAsge7N1Nhyv71KNQHMntwAF5lTvGWDDFCWRQIDM6xY8eIj4/Xup+NjQ1r166le/fuerCqaPHtt99SvXp1IS4KDENCQiqnT4dx/nw458495vnzOM6ff4Kjo2WGSFi+fNq/zZqVz9hXurTIN2ZMxo7dT2hoNElJ041tSrFm0KB62faFhUWze/dNPvywft6dkx9y9s872DVpS+0SeSeK//rrtnz//Rk2bSqcKCEoGNOmTaNPnz7Ur5/PZyowObZt28bu3bvZs2cPXl5edOnShSFDhlCrVsHi6mxsbKhSpQpVqlShadOmTJqUVub4xo0bnDx5kuDgYAYPHsywYcMYPnw4NWvW1Gr81atXM2vWLFJTU1m/fj1TpkwpkJ0CgTGRyWSMGDFCqz4xMTHExsby6NGjQs0tSRLfffcdP/74o8Z9EhMTRcoDA2BdFj6YCmt/gbBwINMt1vOTadXhvcyBVAg+Dc5NoUJeyRP1gHkdqGcOQSdAXTdNyEw4BxdTQGQ7FwgMS2BgICkpGpTkfo1MJsPa2pqbN28WOsWGqVCyZEk++ugjFi1axOeff67XuYS4WEx5/jyeHTtusHPnTZKSlJiZyfH2LsvAgXWpV88Nd3cHLC3F16MoEhr6ig4dAhg7tgk//tjJ2OYIcuDQoXs0aFAm33ZS5H6m9ZpP7QO3Wdo676qZ7dpVokePzUJcNAInTpwgKCiI4OBgY5si0CErVqxg+vTpvPfee/j5+bFs2TIcHBzy71hAatasmSEkzpo1i9WrV9OrVy+cnZ0ZPnw4gwYNQi7P299m165dfPHFF0RGRgJpQqMQFwWmRkJCApIkUadOHa36HTlyhLCwMJ2IixMnTtTKY2X27NkcPXq0UPMKcmbXGNjsCN2ag7s1nF4Op23hozfSVZvdhxGfwIw+8Hgr/HgHRq+G3P3IsxMZBrEqSH0KKgkiH8EDFcisoFzpvIu8pCNzhVF9oOfXMM0ZOjvDL19BjIFFToFAABcuXNC4rZWVFdWqVStwjkZTZv78+bRu3VqIiwLdcujQXX744Sxnzz6mZ8+aTJjQlP/7vyrGNkugIatWXWTOnGAOHhxItWqGqfok0J7r1yPw86uef0MtsLBQMGBAPU6dekjz5h75tj958iGBgbdZvPg0n33WTKe2FDd8fX1FnsW3iA0bNjB9+nQ6derEjRs3cHFxMbgN9vb2TJgwgQkTJnDq1ClWrVrFN998w+jRo5k4cWKOfYKDgxk6dCgvX77M2Pf8+XNu3bpFtWrVDGW6Xnn27BlfffUVT548ISEhwdjmZGBra4u5uTktWrRgwoQJxjbnraFLly5atV+xYgXJyck8e/asUPNKksTly5eRyfKOGMhMaGgokiTl31CgNVW8Ie6/MPFneJEM5RvA7J3wQems7SoNgb7PYGhXSC4Dg9bCzKZaTJQCU7xhVaavz8zmMBOwaA23j0L+d1eADPyWwhIlzB0Oy0rCoNnQeRzEWWbNCykwPGIdKT5cuHABW1tbXr16lW9bR0dHunXrxvr16w1gWdFDoVDQuHFjlixZwvjx4/U2jxAXiwmrV1/i++9P4+7uwGefNWPvXiEomhr+/ltxcrLiwQP9XRAEuuHSpad07pzzw74y4RXRCUokQIqKI1VSkxTzghcv0jwXZRb2lHCwzPHmNCYmifDwOI1suHUrkpYtPTh+/AG7dt3ku+864O3tXsAzKr74+/vzyy+/FLqAgMD47N+/nwkTJtC0aVNOnjxZZMJhmjdvTvPmzVGr1UyaNInatWuzZs0amjb996n5+vXrdOnSJVuOuqSkJDZs2MDs2bMNbbbOuXTpEhMnTkShUCCXy/P14jQkycnJxMfHc+jQIa5evcratWuNbdJbQWJiolbtJUmiYsWK/Pzzz4Wat3r16ly9elUrD8hHjx6JsGg9UWcw7BucfzuZI4z/AfLyu/H5EXL9VlnAyqewMp95pl6AqZl3mMPie2/Y4gBjAmDM6231I2iXBF6V8hlcoFfEOlK8OH78OElJ+Sc7dXR0ZO7cuYwePdoAVhVdJk2aRMOGDYW4KCg4W7ZcY82aS3h4OLJ1qz+1apUytkkCLTl37jEdOgSwalUX+vQR2VxMgZQUJe7uOYVXpnJ+hjetFt1BlWlvUJeyGTe7lr5rePTHEFxyUBc9PBxZuvQ0//vfnXxtuHUrkvbtnVi/vgfBwaGMGbOf8uUd2b7dvyCnVCBevUrCyUn7aqBFhbVr12JnZ0efPn2MbYqgkEycOBGlUsnevXuLrJefXC5n0aJFDBkyhKFDh/LOO++wYsUKnj59SuPGjXNMWJ6amsq6deuKrLgoSRJPnjzJt+jMuXPn+OKLL3BycjKQZQXn0aNH9O/fn19//TXPdrGxsUiSpNdQe1PF0tISmUxG+/btteqnUqkoV64cHh4a+Zflilwux9XVFU9PT437REdHC89FQQaRh+Cnu+DjDc6p8MdcOFcDvvM2tmVvH8V5HYmJiUEmk2lV2b44sX///nzFRblczqFDh0hNLc3w4XsMZFkaNWq4MG5cU8zMiobIXaZMGdq1a0dAQAADBw7UyxxCXHxLefQohqFDd+PkZMWOHX1F1WYTZfbsIPbuDSE0dDyOjqYr0hQ3YmNTSEpS5nDEjFoj1vO//0tI88DSjuIAACAASURBVFyM3MfkDzdTcd46Rr+TdjmWu9TGMZeYmpiYZDw9S9CkSbl8bQgKCs34PTg4lIsXw+nUyXAey0eO3KdDhw3UqFGKP/8chJubaXn+PXv2jClTpvD06VNjmyIoBPHx8bRp04b+/fvz2WefGdscjahVqxanT59m1apVlCxZkpiYGFQqVa7tY2NjuXr1KnXr1jWglZqRkJBAtWrViIvL2+N64cKFODo65lmFu6hgbW1NTEwMf/zxB507d8613eLFi5EkiZkzZxrOOBNBoVAgSRJLlizRqt9XX32lE+FApVJx69YtHj58qHGfuLg4kxAtBIZBIYdzK+GnzyFGDjXbwq87XhebEeiU4ryOLFy4EEtLS6ZPF8U7c+Ls2bO5HjM3N6dUqVKEhoZiZmbG7duRGj0/6ZJvvjlO587VqFHD8Ol3cmPSpEm8//77QlwUaM7MmcdYs+YSa9Z0o0OHysY2x2Ds3n2Tbt1qGNsMnZCUpKRDhwDatKnA2bPDjW2OQEtKl7bj6dM46tZ1e+OIDMeqzXmvatqWFH6HEnIryjd8j3b5FHQBeP48gY8+qq/R93zjxis8fBhDqVILAFCpZmh7GoUiNDQKSUrLP1m69CJq1XI1KZHR19eXwMBAY5shKAT37t2jbt26HD9+nIYNGxrbHK0ZPnw4o0ePzlNYhLQHr3Xr1rF48WIDWaZ7Xrx4QYUKFYpUCFteREVFce7cuTwfCgX582aYf36o1eps+44fP86DBw/y7NehQwfKlPm3yJpSqcTFxUUrsTA1NZWYmBiN2wt0iBnM+htmGduOTDi9B39cMrYVgsyIdaR4ce3aNczMcpay7OzsaNasGQcPHszYV7VqSapWNWy9gu++O2XQ+TShTp06eHh4sH//fjp10n1hWCEuvmV07fobDRuWISzMNDw0dEmvXltQq9V0716DHTv6GducArN3bwj+/ls5eHAgrVpVMLY5ggLQqFFZXr7UfRJpW1sLPDw0C7Fr0cKDa9ee8/vvffD336pzW7TFlETGadOm0bt3b7y8vPJvLCiSnDlzhhkzZuTr6VCUcXJyQqnMyQM6K0qlkoCAAJMVF2/evImZmRk2NjbGNkVjLC0tiYiIMLYZJk9sbKxW7XMSF//55x/Onz+fsX3q1Ck8PT2ziIne3t5ZtiVJwszMDEtLS43nNjMzK1LFIQQCwb+IdaT4cfz48RzvkZycnBg1ahRz5841glWmwY4dO4iKitLL2EJc1ILbtyP5/vtT/PyzdtXtDMHTp3FUrryUv/76mGrVio7rrSFRq9VIEuzcGYJcPtMkRcaxY/cTGhpNYqJwfzdlGjQow2+//UO/fu/obMyIiHgOH77Lpk09NWpfrVpJxo1rSni4dg9v+uZfkbEUhw8PpEyZopWP7MSJEwQFBREcHKyT8aKjo/MtAnD3bhSPH8fQs+dmk7tmFUWOHDnCvHnzOHz4sLFNKTDlypXTSnhJTU3l7NmzNGnSRI9W6Qe5XI5KpTKJULZ0ZDIZKSkpxjbD5NmzR7v8V4mJidk8eceMGZNlu0uXLnz88cf4+fnlOo5cLsfCwgIrK83TzSgUCq3ESIFAYDjEOlL8OHDgQLZc1DY2Nqxdu5bu3bsbySrTwNLSktKlS+tlbCEuasEHH2znwoUnrFr1F+PGNWbRoo7GNgmAU6fC6NXrd54/n4SNjUj2AZLJiYyhoa/o0CGAsWOb8OOPundRFhiW996rxLJl5/JtJys7ksMJIzUaMzg4lIEDi15Otdxwd3fAxsac+Picb5xCQiIpX34J1auXLFIio6+vL0+ePNHJWAkJCfzzzz8olUpKlSpF2bJlcwzDCw19hYODJeXLO2FnN5dPP23M3LnttJ+wRQtwddWB5abLsWPHmD17NkePHjW2KQWmdu3aRERE5OillRuxsbGsXbvWJMXFdLQReoyNQqFAJsslOa4gX9I9AN95R7sXcPfu3ePu3buFnt/MzIwnT55o5bkRFxeHazG/vgoERR2xjhQfTpw4kfG7TCbD2tqakJAQypUzbF5FQVaEuKglkiShVEosXnyWJUvOMX68cUXG3377m59+OseTJ58bzYaii2mIjKtWXWTOnGAOHhxItWqGzQVhLLR4Zi7SqNUSQ4fu5unT7KGX4eFxzJhxlK+/bquTuUaM2Mvt25/qZCxD4ORkhbm5ItfjKlXal+D69eeULfs9tWq5UK5c3h5++ubTTz/ll19+wc5ONyHbmcWh58+fZzzIli5dmjJlymQJ35HJZCxd2pFvvmnLzJnHcHScx8yZPkyY0EzzCT09036KKSdOnGDt2rUmLSy2aNGCu3fvkpqaqlU/tVrNb7/9xvLly/Vkmf4xJY8ThSL3a5tAc1q3bq1Ve13lwZXL5Tg7O1OiRAmN+4SFhZlMLjeBoLgi1pHiwb179zJCoq2srKhevTqXL182slUCEOJigZEkCZXKuCLjX389ISDgCidPDjXovLpGqdS30pRVZOzRoxbbt/vreU7N6NNnC87O1jx4MN7YphiUu3ejGD/+AA0bli4yHmsFoWvX32jXrhJ9+2ZPRaBQyBg2bA9DhzbAw6NwotmkSYf44ouWlChRsJumyMgE7OwMm3tErVaTlJR3IYp/kbh+/TnXr79g7NjGQFoeucx5tPTNvn37gLRw1NOnT+tkTEmSkCQpYzv9RujRo0eEh4dTvXr1bJ4wDg6WLF78f8yc6UP37puZMeOoTsX4+PgUfH2rsn//B7obtIjQvn17veWQMQSdO3fm8uXLJCcnF6i/XC7n2LFj+Pj46NYwA2FKHidCZCoc5ubmyGQyrSu4p6Sk6KxadEREBC9fvtRqbnNzER0kEBRlxDpSPAgKCgLA0dGR7t27s27dOuMaJMggX3ExISGVFy8SCA19hVotIZcL993MZBYZly49x/jxTVm4sIPe5z1//jFjxuzn3DnTryT89Gkc77+/jU2betK8uYceZ0oTGXfsuI5c/jXdu9dkxw7jiIznzj2mffsNrFnTjd69axnFBmMSHZ2Ir29VKlX6AS+v0mzf7m9yImNAwBVKlLBm/PimubZZs6YbQ4bs4vDhDws8T0jIC/bsCeHmzU8K1L9mTRdu3ChY38Jw9epThg/fS0xM/kJJWjiDGTVq/CvSmpmZGazCb0REBCtXruTEiRN46tDzLz4+nuvXr2dsp99I2tnZ4e7ujotLzvlxAwKu8NVXR/HyKsPevR/g5marM5t++ukc9++brgCXGx9++CErVqwwqQeLzHTq1IkTJ04UqmBEdHQ0a9asMVlxUXicFB/Mzc2RJIkqVapo1e/27ds6CU1WqVR88skn+Pr6atxnyZIlnDx5stBzCwQC/SHWkeLB//73P5RKJQsXLsyWd1dgXPIUF5cuPcPXXx8nKiqRkycfEhh4h1WrutCsWXlD2ac7MlWJKyi2tha5HksPl/7++zMsXXqWceOa6FVkbN58zVtT9CMxMZWRI73p0WMLFSo48tNPnWjc2F3rcdKS+Wrm4iNJEjt3GkdknD07iL17QwgL+wwHh+KbHLxnz5r88ks3Fi06RaVKP9KyZXk2beqFq6vuhBR9kZqqYujQPaSkfJlnu3btKnHtWgRjx+4vUC7N+PgURo/+o8BeZk+fxuHqaptFtDMUERH5V+lNzxG7YEE7xoxpQpcuv2Y5bmGR+zVXl3Tt2pWNGzeiUCh0OmdKSgqSJGWMW7ZsWdzc3HL1fkkXFb293TlwYADVq2v5ub16BVFReYZG16jhwqNHMdqNW8T5448/iIyMZNCgQcY2pcBMnz6d1q1bY2lpWWDPRUmS2LZtGwEBATq2Tjv69OmT8btKpcLCwiLLPgcHB9asWZOtn6k/FO7atYtNmzZlbKfnBrx27VrGvkGDBtGlS9ErCmgstPEcBLIVcykMr1694tGjRxq3f7NwgEAg0A9qtZq+fftmbBfndeTOnTvI5XKuXLmSsU+sI1CqVCkCAwNp06aNsU0RvEGu4uL58+FMnHgwi1hz7VoEY8bs59Kljw1inE6ZPLnQQzRqVJZjxx7k2UalUqNSwXffnWLJkjOMH9+U7t1rFHruzLRuvZY///wQM7O3x53az68as2e/y7p1l/H330rbthWZOdOHChU0D3+xtTXXyEsqM2+KjAEB+qsulZSkpEOHANq0qcDZs6bvcaorPv+8OZ9/3pzvvjtF5cpL6dy5GkuXdsTNTTd57zShfv2fGTSoHp991kKj9v36bWPz5t4atR03rilTpx6hXbsNHD6sufixd28I77+/nb/++phKlZw17peZxYtPs26dcSqm3bnzktjYnIu5yGRgbW2eISoak2nTptG7d2/q1KlDYmKiTse2tbXF09MTZ2fnLPkV36RkSRvi4lL49tuTrFvXnTZtKhZswn37YPlyyJTkujjg7+/P8+fPjW1GoWjevDlKpZLx48ezcuVKUlJSCiSkWFpaEhgYqJVHlq7J/FAI0L9//yzbuVXcNSWv05zC2WrWrJnt3N+kevXq+jLJpEgX0LX11FWr1Tx+/LjQ85uZmbFv3z6t8rNGRUXpLB+vQCDIHZlMJtaRPBDrCPzwww/GNkGQC7mKi4sWnczRC+yvv54wfnwgLi5F37tI15w5o/kbTklKyyX43Xen+P77M3h6Fj5HDMAXXxymc+eqtGpVQSfjFTUGD67P4MH1Wbv2L5o1W4O7uz1du2p2EU1OLvgb7XSR0d7+BmZmug/937MnhL59t3Lw4MC39rMrLBMnNmfixOYsWnSSChW+p3Fjd4KChhhk7itXIvj888PMmhXMli196NChcq5tt269hkIhp2fPmhqPP3fuexw5cg+ZbCZHjw7Gx6dirm0jIxNYsuQMV648Iy5uqjanUeRJExUtWLiwPaNHexvbHE6cOEFQUBDBwcE6eWB9E5lMhrt7/l7Y9eq54exsxT//jNa5DYZk1aoLDB/eyKBzfvTRRyxbtixP8daUWLJkCdOnT2f48OEcPXqU6OhorfpHR0ezatUqo4qLvXtr9uLlTUzd46R69erF9qFv+fLl+Xrcjhs3LuP3dFFR27/XxYsXdXKtVigUeHt7U7duXY37HDhwgJiYrF7ff//9N3/++Wee/by9vWnevHmB7BQIiiMymUysIwKBiZKruJicrMy10/37r3j1qmBhO6ZMVFSS1n0kKc2bMTlZu8qPObF3703u3Ilk27a832i8DVSs6ES5cg5ERMRx755m+cHUain/RvkgSZJOxsnMJ5/sJyws+q0JY9c3np7OlCljT2Skbr3I8kOSJKKjk+jYMYAKFRw5c2Z4jt6TfftuQ6X6Suvx33uvEpI0k5Ej99Gjx2bGjWuClZU5Vao4ExmZSFhYDJcvP+XMmUfMnOnDnj3v6uK0igRFTVRMp1OnTnoRFQuCpaVp11d78SKBESP+4OOP99GjR022b9f/OhUYGMizZ88YPHiw3ucyJC4uLuzcuZMrV64wdOhQ7t69y6tXrzTuv2fPHj1apz9MyeNEoVDoNETX1AkNDdXK8zvd68je3l6reRQKBQ4OusnPbGlpqdX8OaWziI2N5f79+3n2q1w595eVAoFAt4h1RCAwLrk+zYwc2Yg9e25lqXQJUKmSMzt39iuWhV3+85+DXLsWoVUfX98qTJvWmsmTDxd6/o8+2kNIiOELMxiSP/+8z9dfH0OhkLNwYXutwgN37LhBamrBL9J16rjyxx/9qVXr5wKPkZnQ0Fd06BDAp5824aeftM+3V9zYvv06M2ceo3p1FzZu7EWLFobL7apQyFCp0q51kgQPH8bi7r6YDz6ow/r1PTPa9e+/nU2beiKTFfz6t3y5H/Pnt2Pv3hCuX3/O8eOhpKaqKV/egQkTmvLee5UKfT5FAQcHq0zhz+0ZM6axsU3KQt++fVm9erXWD7eCnFG/LmmdVjTrJnL5TL2LjP7+/jx58kRv4xubevXqceHCBQIDAxk+fDixsbHZPKdywtbWlp07d9KjRw8DWKk7TM3jRDwU/su8efO0am9paYlMJiM4OFirfqmpqZTRQQ51ABsbGxwdHTVub2FhkW3tb968ufBKFAiKEGIdEQiMS67iYseOVRk0qC4bNlzNEBgtLc349tv2piksrlqV9u/wgue6++ef/IVFhUKOWi3RsWNl9u8fAMDJkw8LPGc6q1dfokePGpQs+XaEfr3JhQuP+fTTQGJjk/nii5Z8+GF9rcdITCyYd2idOq4cPToYFxcb4uNzzhGnLatWXWTOnGAOHhxItWoldTLm28qOHTeYPv1PYmKSOXBgAHXqFL4SpLakPTD8+yIlXSjZuvUGGzd+TY8eNVGp1MTHp/D+++8Uej4nJysGDqxX6HGKMr1712LHjr5066bbnLO6YN26ddjY2ODvb5xq8W8/kt5FxhkzZrBw4cJikQPN19eXR48esXLlSsaNG4dMJsvTSywmJoYVK1aYlLgok8lMyuMkp1xZAs1RKBRIkkS7du206nf06FGtBMHcUKvVHD9+nKtXr2rc58mTJyb1HRUIihtiHREIjE+ecVjr1vVgyBAvBg7cRaVKjmzY0IPy5XWTO9DgZKrWV1AiI/NPPN2hQ6UMUVGXzJsXzKFDplsJMy+srMyZPTuYL79sVajiDkqlZpWi08ksKuqSPn224OxszYMH43U67tvGqVNhfPppIPXruzF6tDdjx+7Hx2edUWzJ7buTLlhv334dmQy2bdNGjFJyfnFvxv73BJcf2PHxkdssbZ1zleC3laIoLD579owvvviCp0+fGtuUYoB+REa1Ws3s2bOL3Rv/ESNGMGLECKZNm8bChQuBNE+unDh48CBqtdqkHl5MzeOkMB7spoQ+v0dRUZqlvUlHV//nlUolAwYMwM/PT+M+CxYsICgoSCfzCwQC/SDWEYHAuOSb5Kl164p4eZWmXbtKpiss6h0Zvr5V2L//A72MvmXLNRo1KlvgirFFHVdXG37+2Y+mTcvpeaa0C3idOqX0IiqePfuIDh0CWLOmG71719Lp2G8bdnbmrF37F8uWdaJnz1pERycZ4PPPnaZNV+dYwArAzEyOk5MV8fFJmJtnT76choqb25Zwve54elZLbyOnTOux/OQ3ju19hqNdTUyBvvD19SUwMNDYZhQzdCsyLlq0iKlT365iR9owZ84cpk2bxscff8zu3buJi4vLlsLGwsKCzZs3Z6uwOWHCBLZt24aVlRUxMTF4eXlx4MCBPOe7ffs23bp14969e0BaTitPT09KltSdV74kSSblcaJQKLh//77Wnnd58ffff6NUKnF0dCQuLo66dety+HDhU+oUhJiYGFq1asWtW7eQyWSYmZnh4eFB6dKldTJ+SkoKMpmMmjU1L4wGaX+j9O9hYalSpQotW7bUuP369etJSUnR6Wd+69YtEhMTcXR0JDExER8fHzZt2qSz8QWCosLhw4fp2bMnSUlJyOVy5HI5ZcuWpWLFijqbQ6wjadeUhIQEnJycSE5OpnPnzixfvlxn4xuDU6dO8cknn3D//n0kSaJy5cosX74cb++ik8Nd8C+mnUHe6OhXVExn3rxg1q7trtc5jIn+Cxn8KyoeOTIIV1fdh9HNnh3Evn23CAv7DAcHS52P/7ZRqZIzY8c2xc+vGgCOjlY0alTWaPbk9OLQ3t6CcuUcmDWrLb6+VXFzW5THCEru7l/BfruxWcTFco3eo5zyMnvEi8kiwfTp0+nVqxdeXl7GNqWYohuRccWKFRw6dEgP9pkONjY2BAQEcOfOHYYNG8aVK1eyFH1JTk5m2bJlWcTFwYMHExcXx/r162nWrBk3btzg4sWLeHp6EhISgoWFRbZ5Lly4QLNmzfDx8aFmzZooFApevXrFiRMnaNSoEeXLFz43bnJyMi9fvjQ5jxO5XE6pUqV0Mt7Jkyf58ssvadKkCXXr1uX06dOsW7cOHx8fjh07lmffy5cv8+uvv+Lq6sro0aMLXTn97t27VK1albZt21KpUiUsLCyIiorizJkz2NvbU6lS4fMCJyYmIkkSK1as0KrfgQMHUCpzLzipDWFhYVy5ckXj9i9fvgTAzc1NJ/NfuHCBUaNG0bZtW7y8vDh//jy7d+/mvffe48iRI1qNJUkSV69eJTExkXv37unkMxKYPklJSfTs2ZOnT5/Ss2dPduzYYRQ7NmzYwNChQ/Hx8cHBwSHLOmJjY8M77xQ+3ZBYR+D06dNMmjQpyzqyfv16+vTpw9atW3Uyh6E5cuQI/v7+bNq0iZo1a6JWqwkJCaFDhw7s3LkTHx8fY5soeAMhLhYIw4iKAAcO3KF0aTvq19fN2+Lihf5FxaQkJR06BNCmTQXOnBmm8/HfViwsital582waLlcxiefNGHu3PcAdJaLU2A8Tp48ybFjxzhx4oSxTXk7eOPhVaGQIZOlFXTJn4KLjJcuXcLJyUk8PL+mSpUqHDt2jKCgIIYNG8azZ88yir6cP3+e+Ph4bG1t6dmzJ1ZWVmzbti2jb4MGDWjQoAGlS5emRo0a2TzCIiIiaNasGR98kPVeJz1f6datW3F1daVq1aqFOodXr17x8uVLk/I4Sfe88fDwKPRYa9asYdGiRQwa9G/qGx8fH3x8fBg1alSeYtPIkSNZtWpVRp7gb775hsDAwEIVGalatSoDBw7MEq5nbW1Nz5492bVrF46OjoV+QRMfH49MJqNt27Za9YuKitKJeGBmZsaaNWuy/H/Ij6dPn2Z4cBaWTZs28dlnnzF+/L/pc1q2bEnLli2ZPn26VgLj3bt36devHxcuXADSrgkDBgxgw4YNhbZTYLqMGTOGn3/+t0Dlzp07MTMz05k4ryn37t1j6NChea4jdnZ2tGnTplDzFPd1ZP369cyfPz/HdWTkyJH07t076/XO3h4aF61Ci29y4cIF+vXrR2RkZJb9np6eREVF4ezszOHDh2nYsKGRLBTkRNF6wi/ifPttO2bMOE5Q0EcGm/OHH84yfXorvYwtxT3g4l+PUVqaI1OrkVmVpEK1SjhEXedqWDwSalKTVcgtzFHIQOFSnUZVnIh7dJ074dHEJSkoU68xVRyLmluW/kVFgD17QujbdysHDw6kVasKeplDYHh69aqleW7FhL2M9BrLgWRIjAwn4Y9qHLYGy07LuPpzZ4QPa9HB19eXx48fG9uMt4dPP82yaWVljpmZnNRUbXKiZRUZe/WqydateYuMW7dupU+fPgUw+O2mdevW3Lp1i19//ZUxY8aQmpqKTCbjt99+w9/fn4sXLxIaGppj3y5dunD48GG2bdtG7969M/bPmjWLFi1a5DlncHCw1gLRm5iZmRESEmKSHiflyhUuncfGjRtp2bJllgfCzPz3v/+ldevWRERE4OqatdjZlStXsgiLkBbOPHHiRE6fPl0ge7788kuaN2+eax6wNm3acOLECbp06VKg8dNJTExEJpMxYIB2OcqvX7+uE29ZhULBZ599lk3wyIvPP/+cffv2FfozP3nyJNWrV88iLGZm9uzZdOzYkVu3blGtWrV8x2vXrh0PHjzI2JYkiYCAANzd3bWu4i14e8gsLKajUqlo1qxZga8PBWHx4sUarSPa/F/MieK8jhw8eJBmzZrluo4sX76cli1bEhkZ+W86k9q1wUierJqycuVKAgICcj2+ceNGPv7444wXK4KigRAXtaBt20q0bWs4b4mQkBfcuxdFixb6E65kFm7U8K6CkyyVV3evcO1uBN7vvEMTd0Adyc0zD7GtX5/y1v/eaFo4lqVKSXdeXLtF0UunL9O7qAhw8OATLl68T2LidL3NITActrbmVKvmwqVLH2vX0aYLy0O6AMn8MeQddvr/w+qO2UMLBcalb9++rF69Gnt7e2ObUiTYvfsm48fnnWdPW1JTVahUGrkt5kCayLhtW5rIOGlSS+bPzzkH0ZYtW4p9SHRe9O/fn/79+zNv3jymTp3KDz/8gLm5Oba2tnn2c3NzY/HixZw6dSpj35YtW2jatGmufZycnIiMjCy02JMujpniQ2Fhzz0sLCxfjx2lUsmYMWOyzXXmzJkswmLm/R9//HG+n3lObN26lVq1cs8Z7eTkxMuXLwv9MBwXF4dMJssiZmvCN998U6h5M2NjY6NV5Wlzc3OdCAGPHj3KVzRMFz+rVKmS73iZhcXMbN26VYiLxZS4uLhcj507dy5XYVsf/P777zRr1izX405OTiQlJYl1pBA8evSI9u3b59lGrVYzcuRInbycMRS7du1iypQpuR6vVq1anjl4w8PDcy16ZyhSU1MJDw/H2jreqHaULVsWc3PDFBUV4mIRZvPmf+jXr46BZjPHsYQjipeJJElgkYczoqW9M5ZSHJFFzGFx5cqudO1aTa+iIkB4eCzff3+DqKjiW1DgbSM8fCIODqYTSiHQnHXr1mWE3wigfv3SjBuXu2BUFJCknIsrQVoIoCB/pkyZwpQpUzh9+jS3bt3S61zFudplcT33wp53en9tq1Dr+u+tzfzpcxfXz1wg0CfF+f9VcT53fSJJUrZid8XZDkMhxMUizObN/7BzZz/DTCal8PLFK1TWHlib6DVu2LAGBpvL3Fy7G2JB0abwwqIlnX+5Recs+5RcmdeOrstu8Or5S9S9PdlVZTjbgmbgLa68BuHZs2d88cUXPH361NimFBlatvSgZcvC5/d5k/j4FFatukQOjlQaIEMmk+jVq0a+YdEC7WjWrBm1a9dmxowZebZ79uwZn3/+OT179szYp1Qq+fvvvylRokSOfaKjoylZsiRhYWGFsvH58+dAWqisqaBSqVCr1YU+dw8PD27fvp1nG3Nzc5YtW5ZjWHSDBg2yeS82bdpU60Ip6djZ2fHnn3/mevzVq1eULFmSR48eFWj8dNILuvz+++9a9UtISCjUvJlJSkrKyE+qCSkpKajV6kKfu4eHR64pCtKRJImlS5dq5Lm4e/fuHL0XRfqI4oudXe5OFo0bN2bJkiUGs0WtVue7jlhbW4t1pBCUK1eOO3fuu8NyWAAAIABJREFU5NlGoVCwYsWKXD+HokhCQgIhISF4enrmePzWrVt5XiPd3d31ZZrGmJub4+7uTsWKLsY2xWCIR9wiypUrT7G0NKNGDf1+GaWUp9w4F4lMAnM7V6pXccUwTrMCwduOGfWmHCM0d49+gZ7p1KkT+/fvN7YZbyc//JD27+vci0lJqdkKI2mCTCYToqKecXBwwNvbm759++Yo5uzYsYM//viDpUuXZtk/c+ZMXF1dqVAh59Qsx48fx8/Pr9BiS3qV66SkpEKNY0jSHwoLe+4+Pj6sWbOGX375hSFDhmQ7PmLECCwsLLIJiwD16tVj+PDhWfIuOjg48N133xXYnlmzZjFnzhw8PT1RKBTZjh87dowWLVoU+rzj4+ORJIk1a9Zo3a+wD+KQJpzPnz8/x7x0uREREYFKpdKJuBgcHMzChQv5z3/+k+345MmTUSqVGgmLAIcPH85S0CU9l6UIiS7ejB49Otv328bGxqD5FiHt+1yhQoVc15Fjx47h7e0t1pFCULt2bdavX5/rOjJ8+HDKli2bVVi8dg2+/LJI510cNWoU7777braCLun079+f4OBgA1slyA8hLhZRDBUSLbMoTc3GVXAyUW9FgcCQmFLV6ORkw1YELGpMnz6dnj170qCB4TyaixVv5LlRqSQNK0WnkZZvrSZbtohwdUOwdetWhg8fTvfu3Rk9ejTNmjXjxo0bXLp0iUWLFnH9+vVsfUqUKMH58+fx9vamTZs2ODg4oFAoiI6O5sSJEzRr1gxzc3MePnxYKNuSk5MB0/I4UavVqNXqQp87QPv27Zk9ezaxsbE0btyYd955hzNnzrBhwwbCw8M5fPhwrn2XL1/OyJEj8fPzo1WrVqxZswYbG5tC2XPnzh0qV66Mj48PDg4OWFhYEBUVxZkzZ6hbty4lSpQo9Hmney7+9NNPWvXz8/PTyfdEqVTSvXt33n33XY37rFy5kpMnT+rkM2/VqhVr164lOTkZHx8fvLy8OH/+PHv27OHatWscPHhQ47EqV67MuXPnWLVqFVOmTOH8+fNUqmS4/PCCosmyZctYsmQJfn5+HD16lIULFzJu3DiD2+Hu7s7GjRsZMGBAjutIzZo1KV++vFhHCknbtm2ZO3dutnUkICCA1NTU7C8WY2Ph3LlCz6tP6tWrx/bt23F2dmbjxo3UqFEDtVrNrVu36N+/P/v27aNu3brGNlPwBkJcLKL89ts/HD8+2NhmCAQCwNLSjObNy+PmtsjYpmiMWi2xfLmfsc0wCidPnuTYsWOcOHHC2KYIsiBDJsNkRcX4+HhOnz7N2bNnuXXrFlFRUZQqVYrLly9jbm5OuXLlsLKywsrKCk9PT5o0aUKzZs0KVFhDH6xatYpJkyYxYsQILC0tiYmJoUGDBnmGU3l5eXH//n06duyYUezF0tKS2rVro1AoePbsmc7sM0WPE12df+XKlZk3bx5KpRJHR0fi4+Px8vLKU1hMp379+lSsWJHOnTsXWlgE8PT0JCkpiSZNmnDmzBlkMhnm5uZUqlQJGxsbnZxzepL9OXPmaNUvPj4eMzPdPLqUKlWKypUra9w+vSCYrj5zd3d3Vq9ezQ8//ICTkxOJiYm8++67/O9//9N6LJlMRt26dbG2thbCoiADc3Nzvv76a65du2YUYTGdfv364enpSfv27UlOTkYulyOXy/Hw8KBkyZJiHdHR+Xt6erJ48WISEhJwcnIiJSWFLl26aP0Spyjh4+PD4cOH+fjjj3nw4AFqtZoqVaoQHBwshMUiihAXiyBnzjyiTBk7KlRwMrYpOSAR9/Aq/4THo0xRwrWzvLAuQ+36FbAX3o/6RRXBtVM3iS39Do2rOiNXRXLz7D88d6pFi1ql0CwLpJrIkLM8dW5MbdfsIU8ZJD/ndshjYhLikJdriFc506m+pg/MzOQcPDjQ2GYINMTX15fHjx8b2wxBBmk5FXv3rsWWLaaXB2zTpk0EBARkeOu1bNmS9957D2dnZ1xdXfn5559JTU2lV69eJCUlkZSURFhYGN9++y0ymQwzMzPef/99BgwYYPTE7QsWLGDBggVa9SlfvjzXrl3Tk0VpeZNGjRplUh4nKpUKT09PVq1aZWxT9IKFhQV//fWX3saPiIjAzc2Nly9fatVPrVbrTDx7+PAhly5d0rh9ZGQkFhYWolq9QFAAmjRpolWOU20R68jbS8OGDTPSPgiKPkJcLIIYLCTariINm+TRQF6SGs1LvtkLO496NNV9PQCBJshtME98QbTaGYeoFyRb2aKXR1XLUlSt60LMvQvcy7+1QFBk6Nu3L6tXr87wMhEYlzRPRdMUFWfNmsWuXbuoVasWU6ZMoU2bNjm2O3DgAJIk0atXrxyPBwYG8ttvv/HTTz/RrVs3pk6dqk+zTRZT8jh5s4iKoGA4Oztr1T6nPJAFwdzcnCNHjnDx4kWN+zx58kSsKwJBEUesIwKBcRHiYhFk8+Z/uHJlpLHNEBRFZDa4OCTx4lUKqsgUnEpaExefdkid8Iw7tx4SrUxr51alGh6O5iAl8+LuDe5FpqKwssdakiD9fl6dQMTdO4RFpyAhw7JERap5lsRSeKEKihhqtRopn6R+AQEBWFtb4+9veiG3bxsymYw+fWrz+++9jW2K1ixbtoxx48Yxbdo0zpw5g4WFRaHG8/X1xdfXF7VazZdffomlpSVLly5l5EixzqcjSZLJeZzkdz0S5I5KpQLShHdt+0VHRxd6frlcjo+PD82bN9e4z6ZNm3j69Gmh5xYIBPpBrCOCf1Hz/PoZXrg2o6bLmw+1ah7+72eOlRjEQG8H/TjpFGOEuFjEOHr0PrVqlcLNzc7YpgiKJDJsXByJCbtPhNIJD+dYHsUDJPPszn2S3erTqIwVqld3+CvkIY7elbGNvMedWGfqeFfATvWCmxefk3ZbLxEXdpNHisrUa+SImZTCs+tXuB/pRA0X3XgHCAS6okSJEsTFxeXZpkePHmzdutVAFgkyI5fLSYv4NV1REaBbt260adOG5ORknXlJpSOXy5kzZw4zZsxgyZIlNG/enD179uDi4qLTeUwVU/I4SRfHBGlMnjyZhISEjO2kpCSsrKyytPnxxx8zfk8vvjB8+HCt5lm/fr3O8pMlJiZqJVSmpqZmEwJOnjzJ5s2bM7bTc6iZm5tn7Gvfvj1du3YtvMECgSBfxDoiSENNxLWThMibUDPbM62M0k370MnMTgiLekCIi0UMQ4VEC0wXmbULjomXiCzVEGtZbNpOdRzR8TaUrG6FDDBzLImjOpTYJAlZTBzmzuWxlQPyEpR0kBMBQDKvohJIUd3n2pW0y6taCeYpKUDxzrEoKHq8evXK2CYI8sDFxYbVq7swZIhpVucODQ2lSZMmrFy5Uu9CgIWFBZMmTaJVq1bUrFmT33//XauqtW8rpuZxIviXKlWqZAiGAJ999hnffvttFpEtMy4uLtjY2LBs2TKt5pHJZAwbNqxQtqaTmJhIbGysxu3Ti9BkxsnJierVq2dsHzt2jMjIyCwpEkqVKlU4QwUCgcaIdUSgfnySLYdv8TIiiYTnAaw7I8O+li89Grsii7vOgZ3nePjiKVYtRzPoteeiFBHE6s13sLOL54WlBxWkJ9yPKYfvR52pZpXCk4uBHDj/hGQk5CXe4f+6tqSCtZAmc0KIi0WMzZv/YeHCDsY2Q1CUkdngXqcRpc2skEVmPpC7a33mIgJZCwqYUaJSPao5iwukQCAoHEVdWJw1axbW1tb85z//ybJ/y5YtTJo0iStXruDm5mYwe5o1a8bz58/x8/MjJSWFjh07GmxuffL777/nedzS0pLu3btn229qD4VverbevHmTK1eu5Nmvfv36WcSot4U3PRD/85//MGrUqGzei+nY2dkRHx9vCNNyRKlUcubMmXw/r8xER0fj4OCQZV/t2rWpXbt2xrZKpeL+/ft88sknOrNVIChuSJLEli1b8mwj1pG3bx3RFXL3FvT7sAnXtn5PyDsD6Vkj09/Yrha+A2ukhUW/2dGqMu8O9ODCsiM4DhhKzZMruPFYjafZn+y6Xopew7rjaq4i8vRGfg+uyMgO5TUsplq8EOJiESIw8DYtWnjg4GBpbFMERRyFhRUKICMVsNwOR9sEXkQmUaasFapXL4iW2+NmJcPGwZ7UJzGkYIulOpboWDWUBLDEydmcR+HPSHQsjbUcVAnRJCgcsX/9FTQzU5CSlIIa69cX0FSiwkKJtnKnlPoJT1JLUN4+nrAXZpSp5Iat0CgFAkERZcGCBajVaiZPnsywYcOYPHkyBw4cICgoiAcPHhjNrn379uHr60tKSspbET65c+fOjN9VKhVHjhyhQ4d/X5o6ODjk+FBoSuFsarU620PhrVu3spz77du3AahatWrGPltbW/FQWARQqVQ0bdqUunXratznwIED3LsnStwZhBQYUhaefAv7hyJCF4sZkiSJdSTTtkKhoHLlyhn7xDqiH2TWNljLrbC2tsXWRo6VtZzkJCXPn90jJsqC/ZvS1nSUiUguMSRLIJwXsyPExSKECIkWFBxL3KpUIjbkb84/lkBuQ+nq1XGUASU9qfTqJteuRGJpZoakkL++UZNhV74mle7d4dqFMCSZBGaOlK/ugD0yQIaNW3mcr4Vw4YICa7fq1CmnIO7FEyIcXbBXPuVJohVu8kiePLOkRCU3bI36NxAIBIKcSU1NJTExMaM64y+//MKGDRsoUaIEmzZtMrJ1aYUtunXrRnJyMn36mF5l7cxkzkEXHx+Pm5tbln25YWoeJ2+G/Hbt2jWLOPz1118jSRIzZ840sHUCTbC1taVEiRIat7e0FC/+BQJDIJfLxTrymvQicNOnTze0ecUPGciQIZPJkMlAJksTupFkOL7jx6B3y2jtqShJEs+exWFvX7jCgIXFzc0OMzPD+FkKcbEI8dtv/7B6tel7LQj0hMKV2s1ds+ySl6pFi/R0PjZuVPPKIaRPZkmpKvXIMeuP3AbXKnVxzekYgGUpqjbI2rO8VyvKA9CcVgCUpVVZjc9CIBAIDE54eDg2NjYZRYFUKhUqlYonT57Qt29fAgMDadiwoVFt3L17N/7+/ri7u2tVxfZtwZQ8TkSuLNNGLpezd+9erapVp6SkaCVGCgQCwyPWEUEaMizM5SQmJCFhWwjvZzmlqniSuu88t739qG4vR534jEcx9pR3s8l33O7da/L++9uRy43r4nj8+GAqVzbM+iXExSLCjh036NKlGubmokqvQCAQGBpLS8s38pEK3ibCw8NzLC5hbm5OixYtjC4sprNlyxb8/PyYPn06TZs2NbY5BsWUPE7SPWAFpomZmRkuLi5aVWoPDQ3F2loUu9MHUjT89Aks2A3RzvDBDEh+o82dnTDzRwi6ChGJUM4LRs2FCa1BDjxYCrXXgL8zbPsb+n4HHhthwXn4v+/g9+FgpoSvvGBbE+jxDFb+CaoyMHAOLOgLGb6pElxYCZO/hzMPwL4KDJkHX3eBzKvIsbHgexUOfQ6LpsORW2BdAWbtgpE1DPGXE7yJWEcEacjxaNCI0/vWs/qyNU61O9GriSsvL+5i/9/RJEbF8MpsK+uvWVC+VV/etc99JPMK79K76QECNyzjsEyGJLOnatuelNcgRff8+e2YP7+d7k7LBBDiYhFBhEQLBAKB8dDmIVOgJVIEx1es5Fq1oYwsQFiJLnjy5EmON/KWlpZZ8hsVBfbt24ejoyNhYWHZCki8zQiPE4GhUKvVvHz5koSEBI37xMfHY2srkr/oHAl2fgKfHYSJP8G7trByOgRGQ+tMzR5cAhsfmD8OStvArT0wvSuYn4dPX6c1Vd4G+1/gm63w+Qjo8R2sqglDF8HFj6DJ67FCNsCdZXD9V3j0G3T/COw9YXbjtOPXvod2U8B7HPz6HkQehCn9QHEMvvHOar7qHoz8GkbMh28rwcNjECE0I6Mh1hFBGjIsPdowaHSbLHtdGvZgUI7vklszbEDab21H9Ev7pf1o/F8fLdOoG0Ma6cvWtwshLhYB1GqJ7duvs2WLaedZSkelUnHv3j1KliwpQkgEAoGguKN+xvEVc9ji14kRRhIXw8PDSUlJybLPwcGBw4cPG8Ga/Dl27Bg+Pj5cunTJ2KYYDFPyOFGpVGm5mAQmSWpqKs7Ozjg6OmrcR6lU8vLlSz1aVTyRnsCKHdB6IcwdlOaF2NQSqnfL2q7dN5DZ/+ddH7gTCLsOwSevxUWzqjCkD1SWYOph6D8c/K7AV+vgXiI0ee14at4Uvh0KpeRQahiM3wALVsP0xmAVDXPnQZmxsHsB2AC0B9V1mL4MvlhHlvzi6mfg/wd8+ro2kKizYVzEOiIQGBchLhYBDh16wvvvv2NsM3RGQkICz5494/nz56jVatzc3ChTpgx2dnbGNk0gEBRh7O0t+OGHM/z++z/GNsWgxMam4OgoigXok0ePHmXxaLCxsWHEiBF4e3vn0ct4eHl5MXbsWObOncvUqVONbY5ekSQJhUJhUh4nkiRhZWVlbDMEBUQul/Py5UtiY2M17pOcnIy9fR6xc4ICkXod/lbCiBZkvHhyaAneFpCauV0YLJwGG/+EsJegVIMyFWo/h3RHQZkd2MnBwg4s7cBeAXJbsAPiEoDX4mJpL3BPn0wO9etB1AUIVUGly3AiBvx7vxYWX7dp0RJit8AdJdTL9PSsqAqda+nnbyPQHLGOCARFAyEuFgEOH37KF1+0N7YZOkUmk5GamnZb8OTJEyIiIjAzM6NMmTKULl0aCwvjVk0SCARFj59+6sz+/beNbYZRaN26grFN0D3RG+lWeiB70u/1LzfEfDaAgvKfHObujz6YA4lXA5j+zQr+OHWNh5GpOFRqSs8JC5g3rEFaxXtSOTGhGu1Pj+LKyUlUUwAks2egK30jvyfsjyG45JMu8969e1k8BNzd3Vm4cKEeTlp3fPTRR8Y2wSBUr14dpVJJfHw8crkx/Fq1Jzk5WaRSMGH279/PvHnztO63Zs0aPVhTvJHiIBZwdsq00xqcrSEifTsZZnaGZRYwfxW0qAjmavipFxxTZuonfy1QykGe/rsMZEDmCFQbW7IUYrC2BWIgVgL1K4hKhSVt4MfMjdSgLAsxbziayUtCSdO4bL3ViHVEICgaCHHRCCQmJvL3338DkJKiwsnJHFfXV5w7d87IlukGtVqdJY+EJEkolUqUSiWhoaE8ePCAunXr4uTklMcoAoGguFGihDUDBtQ1thkCXeHQg1U377NUGcIPXbvxx7vb2T+xNgpkmDmUfp0YXyIu5BKhpf34fPEXVHS1IOryr8ye2IlhdpfZ8n7pQlT5+5eHDx9m/G5lZcXp06d1MKpAV7i4uBATE2MyXhwKhYLGjRsb2wxBAWnXrh3t2hWvJPtFFZk9OMggS/pLJSRkquiivArbb8GoIBiZ/t8uFYgv2JyvXv7r7QgQHQWSPdjJQO4EzhYwZh98WO4NW83B4826YDKMkupDkB2xjggExkeIi0bAysqKd95JC4NOTU1l6lQpY/ttID4+npCQEJTKf18nyuVyZDIZ1tbWuLu7F6sk9QKBQFAskdniWsEWVLE4Wcgw/3/27jssiqsL4PBvd2lSFVARFERUrGCPXbEiYkvExG40tlhiotGoscQSjSb5jCWx91hiN4o9RrErVhR7QYMNFJTOsvv9gSgoXWBBzvs8+8jO3Jl7Zt3d2TlzS8FiOJQs+dYPDwWFvf7HxsRDDrs1wOh8Cbpu8SG8sxdZMaDGw4cPgfhxFn/++WesrKyyYK8iq4wePZoRI0ZkaAw8XQkPD6dIkSK0bt1a16EIkefpVwQXPTjvB5SPXxbrBxdjoNSrMtpoiFZA4jYJMRfg30eZq/PpUbgcC1X1gVjwOQ6FaoODCvRcoa4Z+N2Hss0kcZiXyHlECN2T5KIOJCTZIP6uReLnH4LESUWVSoVKpcLW1hYbGxsMDWVcMSGEEIlEXGPj1O/5dcMR/ANDiVJr0KhjUDR6Sqgmfgyt9xUcHPy6lUDfvn3ff4ciS1WrVo1Zs2bx1VdfoVQqUalUug7pHXFxcRgYGODg4MCiRYt0HY4QHwRFURjwCXSdBjtrQlNjmDUWbsW9SS7qV4ZGheDP2eD1ExR+BJOGQoAB2GeiTr070G8wTPCC/zbAnJvw5eJXQzIWhNHfQsOvocdD6FIbCAK/4/CvKWybDG83XhS5g5xHhNA9uSEjspyhoSEGBgYUK1aMKlWqUKdOHRwcHCSx+AHKS7OyCSFyIW0ou4e1pMvip9Qbu4p9J3w5d/40CzsVQaFWE5f2HtIUExNDVFQUKpWKffv2ZcEeRXZwcXFh06ZNODs7Y2RkhEajyTUPY2NjrKys8PDwkAtCIbKSAtrOhumVoH9lsHKBc82gbaFEZSzg57VQ+jBUsoRSHhDdHwaVyVyVpXrDpyHQpy2M2g89lsHE2m/Wu3wL+2dC0Fr4zAM6fwWb7kDLZpD70lUiMTmPCKFb0nJRx/T19T+oLtEABgYGuXYGTpG1zp8/T1xcnMwILnQvfB2fWHfj1Od7uPF7U4zC/qanU3v+ariWZxs6kaVtw+OusrRPP37e7cv18HZsCFpDB0OAOK6vHsTA6d74B8egKFSVHjMWMtmzhJxsUxJ7jA1bHlFz9D/81LPUqzueYVyKiyDxuPkKpZIkC9ASG6PmrbH1kxUYGIhSqWTPnj1ZGLjIDpaWlvz++++6DkMIkYMUFjB4JQxOvPC7pGWsG8Hmi29t2BMSpuUp+RWEffXqiScEP3j1dyU4G/bqb/Wb+obNhhEpBgQ1+sLuNBq5N54Dcos995HziBC6Iy0XdUyhUEhCRuRZMTExxMXF8fDhQy5cuMDJkycJCAggJiZG16GJ/MioPEWub8EnUsvLA1sIKFEhe7ovKSyp3usnNnv/QP23KlAUcWP8Dn8ePAzk4tyy/P35N2x8lp4U2IfMAEMDiIqMejcZqIkmKkaBRSGLNxO3hB1l37HEyUUlhSwLwrOnPEsYhV99Hb9r6fueMTc3x9/fn8aNG7/fYQghhBBCCCGSJclFIcR7S5gRPCoqinv37nHq1CnOnj3L48ePdR2a+MCofcdSpf4MrscBxPLvkNK0XPAoPhGlKk/7unfYcugx+7Y+pnG70vFdmDQP2DjYjepVqlC1igs1PEax40EcoCXkn2FUrzOOk+FA3D2Wd6hEm0W3UKccAiiL4Nq4DmULG701k7GKMi0+pVFJE5QosapVl3Lqxzx6kc+Ti6riVChvRsC2P1hx+CL+V69x6/Gr9h4GNWlS35Cji2fxb2AkMc/9+HPYd2wO0Uv02qpwql8Pm4CNzF13heCQBxydNYEVt9L3ulpaWuLk5JQdRybEB0Xz+F8WLPYhKLmPVpw/P9auzoQLqX47ZpCW5yvaUqLvHtK+VaDlxemVzNkdkGSm35yVegzasBNsW3aQf+T+qhBCiHxIemrlAFNTA8LDY2jTZo2uQ8mVoqLiMDU10HUYKYqLi8Pf3//18+DgSJycTPDz89NhVLmXRhP/k/vly5fcuHGDq1evUrp0aezs7HQcmfjw6VGufT2Oz/yeNS/cGNf8BLMuAopC1Bu1kRNzrdAnjrtzWtB02iFazGtCwSbTWOjRgn7feTPHaRb/M5/Eni+c0B4ZQ80ea3ia5ArSgDqTDrOmh81bScXkxHHnzxX41uzMDPv8fh/PBPdxs+nbeywjW1QjJAaKD9rPrTmN0Vfa0Wv+am70HU7HUjOJKVSGxr0m8HOXrxl49c0eDBuOZcEIfwYOqUaJrx1p9MVkvm79DyNf6O6ohPjQaB4dZOFiQxp+3gDrtweXUznSa8kKNI66unTQ8uLUSubeLMUAd3sdtY5IPQaFcSUaehaghsz4kTvpwaRLMEnXcQghPmhhYWHcu3cPjUaDSqXC3Nyc4sWL6zqsHCHJxRzg6mrD/PmePH0aoetQcqUiRUyoVKmIrsNIkVKppFixYq+fW1vH8ssvsUmW5VfBwcEprlOpVGg0GooUKULBggVzMCqRn+k5t6f+jVrs+OwcpVQnXi3V8uTAZAYsP8Nz9FAEX+WJUyBRgAEFqP7dYnq1akCLQ13Z4dMBGwVQ/0dO3/4xk1FoCT06ke6/W/HTjn6Uyu+5RUDf6TPmHfqMecmsU5XwZPpuT6YnWdqRXomfKorSYuo+bk1NWmZIlkcqxIcgluPfuvJ1WGeqPTjE1dAXvKw4mn3zarJ/aHemHXmOBg0q21ZMXPgjnrZP2DC0O3NP3uTGdSU9m+7FWL8m326YQeuCCiL2f0/7KXu5eTGG7gfP8IPrq8sHbRD/Tu3D13/eIg4tBRuPZclvXdKILRr/5QPoMdmHKEtHajg8R/Nq8g5tyH7GdRrNjidqFFooVHcEf8zqirN6H2M7TOWfuxd5EDmEZucs0Hfuy5I/umL/Iuk290MVeMam/Qppny2nTcWtVB5gjO/hQMJCTeiwZBsjHP7NcAwOSjWnZ3Zk7h/H+e+pDT1jocmre+bal77M6z+QeeejUFCAakPmM39gVVIeEEnNmTHV6G+wmpMTXdBDy7O1naixzQvftZ/weEkvvph3kTAUaA1L8elPCxnTyDrtAxZCCJEtrl27xrZt2/Dz82PXrl1ERUXRunVrTp06haGhIZaWlpw5cwYPDw9cXFzo0aPHB9ujRpKLOeSjj/JHtvpDpFAosLKyev08OjoapVKZZJmIl5BQtLCwwM7ODmtr+cErsphCgeJ1lz0tmri35hPWK89XO/zoY+6A6u/4RXH+v9Fv2kvGHvqXtjZ6RGz8FPuVmtfd2rSht7n81JTCMVe5/EhNYwt9Yg+PpPpnK3nyVsvFetNOsvHzYqm2XAw/9yudvvSjx7p1dCohc0sKIXQhFr+Tkfzv0D7qmCmIjohAT6FNsRW319z9dLgwgY/6G7LiwBjKJ/rqMm42hb1uXfmxXjeiE9UQ7TOZvutKseTkVhoa3+EPz4YMW9kY0DDExZl9MUkhZKNwAAAgAElEQVS/KQ095nF+zH98PfYhvX38GWgfyMK2VfF+lVxUGLvQf6UPU2yMQPuUtZ1qMX6bJ+s7NWfq3qY8mNeCpjcnsv9/9d+Mp/vWNtXsSrL6ZDj9O6T9CmlfnOR6yZN4T7BHTxNJRIweCmUmYkCPmt9uZVBMZ36bcSVRDXFc/m0Av6hGc9LvY6yfbqD7RwOY0+gYoyukdG7Qo8pnH0OPDVz63oWqqmC8N5ylXo8lFFIoUbb6kZ2fl8BCBdHnxlPvizmM8f0h7YMVQgiRpXbt2sW0adOIjo6mcePGDB06lF9//fX19W/58uXZsmUL5cqVIyYmhoCAANasWUPLli2xsbGhZ8+e9OjRA0NDQx0fSdaR5KIQ4r0oFAqUSiWGhobY2tpiY2ODSiUJFZE9lIVtsHx8hfsxUFbvFqfOBqFxTVxCgYlNSUyAhLbimhchvLQsQ9nCeqANYu/2o0TSOn5lXACrB4zgXv9dnCg9G/fPp1Bj3w981HAGFwNnZDi+SL95fNbrAB4rN9Kv/IfzY0EIkdfo4dzuM2qZxSf4DI2NQRuWSivujIrj3onTqBtNpba5AiiJZ+syTD52AVAy5+I1jIyM3tkqemcvzjt7sqikPihL0NqzGpPOvVqpfcHp2YPpefgRGj0FL24/w6TuMzRYpNwN+q1tbofEYBcchoa0B5ZXFGhI54728RdDygIYGwHRmYghxdhCOXPiNrV6ulNECRRtRdsa/fnT9yVUSLlHh17FT+lo9Cl/nZtAFYcdbLjUmH7NzAEt6ntbGd13A1fClejFPebeg3rvTpQlhBAi26xfv55p06Zha2vL1KlTadCgQZrbGBgYULp0acaPH8/48eM5evQoK1asYMiQIa8f9vb2ORB99pLkohAi06ytrTE2NqZYsWLJXkQIkdWUxb34xrM9Qxt5UKGMI2amBdO84NOvMZBxlXrRq+VpHK0MKWLshDEA0fjN6sWPyrHsG+BMUeVP/H6oKX2H1+afP1phnVLzRE0Aiz5pxA8nQwgKjeGSUwnGfLyEC7MbsnPySHbfNuFc67LMBFA58eW2A4ypIqdbkT9ptVqOHj2q6zByXEBAACVKlNBhBAqMTU2StLJOqxV35miT+SuOAWUd2P1Wy0WjNgu52EGJUqWHShEfo55ewuRNWgJXDuEbfy8OHuiNo2EsBwc7M16TWnTvblPXsSChqW6TiKEJxknGR8xMDKnRotWSJPmnTU8mUFWWjh0t6LDhFAOdN+LfZChupkDsESb3XEah5f9wuF5BFIF/0KLG6UzGljvMnz9f1yGkqkyZMhn+fWtjY/PBdnnUlfx6Hnnw4IG8l3KRpUuXMmXKFGrVqsWKFStwdXVNe6MU1KtXj3r16rFw4UK2bNlCgwYNaN26NXPnzkWpzLvjKcnVjhAZpK+vT/ny5XUdRq5QsWJFXYcg8htFUVrPOp7Q7hBej+L3GZuCPktS1PjTjTz/NP7vzosO0znRut9e/Vtw+D+8ma7JlDpTT3IxrRiU9vTdcoe+yazquD6cjuk4DCHygwIFCtC3b19GjRql61ByXFRUFGPHjtV1GEmk2oobUBibUiAkkOA4IM0OCCocPqqJasU2joW60dj4Dn/vuE4VL1cOrlUx//q9ZJMymv8eU+X2IY4/788nhUI47nORWCMADeEhLzEu5YydIRB2kh0HHhH3xevoMDYpQNjTIKLhVZfkd7d5HBSdtBWmJoBtk2dyqfp3jPG0S+NmVGZiSIWiIDVrO/LDVm8ef9KRwk92ss23DHUmm70uog3+h18m7qP44Cl85pzwoqtw6uhFkVa/MfbMTVqMaxh/Q0wTSkiEDQ3KWKAkjgDvHfjGFn2n2gcPgnmkOcnemScpP3wCHUrmzgvV3r174+3tjZmZWdqFdSAqKgp9fX1sbW0ztF379u0ZMWJENkWV/+Tn84harWbChAm6DiPfCw0NxcPDg7p163LgwAEcHR2zdP8dOnSgQ4cO/PHHH5QrV47Zs2fj7u6epMyVK1eoUKFCltabHSS5KEQGKZVKLCwsdB2GEEIIkasplUpmzZql6zDEKym34o6nKvUx/Wt1om+tOlgVqsuoLT/TxvwRG4Z2Z57fCwL8b6D5oimHLCoxcMUcPm04jkWf9earmuWIQYl1k5ks7WGLSyozLSntuvPz2CP092jBKjtzzMItUZYAUOHUfQytu31Di/aO2BhZYOZokyjHqaCQez86LhxFnY9+xqpyf1Ys7P7ONmpjQ5KkNDVPOLl+Md705bs0k4uZi8EhMn6yl79u+vMoPJxvmjfGqsRnzFkxgIrD5jO83wAalh+PFhNqjlzAkETjLWpfXGTb4lW4fPxDouQiKO0/plPx0Qy+3Y9/6706IsOmfDN2Ff3bebCnpDlGRQtSOpkrueDgl9yMPcvGxeto3n1crk0u3rhxA09PT7p3767rUJJ19OhRjh07xo4dO3QdSr4m5xGhS9u3b6dHjx54e3tTt27dbK1r4MCBDBw4kFatWrF7925mzZpFSEgIzZs35+7duwQGBqKvn+ZtLZ2S5GIuoz41ior1ZnBd/fYafWpNv8SxUc6p3kzWPNrLhM+H8PuhB+g5teLbhYsZXqdgqpMPABBxnF97j2G5z2muBFXl56uHGOaYO3+MCCGEEEKIlOhTZ+YVfN5erFcqxVbcAKic6L7Sl6SpnmJ4zd2PV7L1WOM2bjsXxmUkNiMq9F6BT+9kVtl4MHO/R4pbKmza8NuxNqlu06ZNIP07FHuTRNSrwY9XIvnx7X1Z9mLHf73eqUOZmRhMmjN1b3OK/PYbd+7cSZoIMavBkLVnUpzZXuk4DJ/IYcmsKM6AfeEMSLKwAC5fruf4l4kWJZNzcXUtiSvf81nk9ykehxBCiNTNnTuXmzdvEhISkqP17tq1i99++41KlSpx8+ZNYmJiMDMzY+vWrXh5JX82zi0ke5TL6NWcyqWwSCIjw7k8vTamTedxLyKSyMiX+Iwom3ovFW0wm7/uyWrLCZwJesSBfhHM7PY9B8PTUbGiAA6N+/PzspHUzd0JcSGEEEIIIYQQQogst3PnTq5du6aTVrMhISGsWrWKu3fvEh0djVar5cWLF6xevTrHY8koabmY2yj0MDDUAzQY6ilApYehkRFGaTY9BMIOsnGvJV32dsLRWA/6fkW76X3YcOJXmjRNYx7AAlX4ZEAVtE8W82t66kok+tpqvuozjo1+IWiNi+Ladz7bf2iMacZ2kyvo6SlxcipEnTqLdR1KugUHRxAWFo2DQyFdh5JuUVFxFCliouswhBBCCCGEEEIIAObNm8ehQ4f466+/dFK/nZ0dkZGRaN+aAWzPnj06iScjJLn4AYm7f42bMaXxLH6NNeM2UaBXZ8o5huJ9PQhtU9u0u0ZnSgS7p3zD8bqbuXW4Pqbhtzl+SZ1n31iGhnr8/XcXAgNf6jqUdGvUaBkxMXGsW+eFgUHeeOVNTQ2oVKmIrsMQQgghhBBCCCE4cuQI69atw8fnnYFFckzbtm3ZsWMHYWFhSZYbGRlx8OBB3NzcdBRZ2vJGJkLE0z5jTefKDN0f/dYKfaqNP8KOuuFEKAtgFHmOtUtWULReF1wKQER4BFrIpuQiqFQKXgRc4VpgFaoXL0X97B3rNNvZ21tgb583Jmz5+eejxMZqAPjmm72cOdNPxxEJIYQQIr978uQJhoaGOV5vdHQ0ISEhPH78OMfrfvky79yYFkIIkVRUVBQ//PCDThOLAGvXrmXIkCGsWrWK0NDQ18tfvHjB+vXrJbkosoiiIO3nnaJhpPbtFRgULIoqwARjTSRRlt3YFNgNNLf5dQoYmxhnW2IRjGk1dTUDxs2kX+2R3FVVpNPkJczpUY6c/0mZ/4wbd/B1k2lf30CiotQYGcnHWgghRDaLPcHIik25NOou3n0KZ+PvjA+RlqdLPCjxxW6iAZXj1xy69iv1PpAxrzt06ECtWrV0UndMTAznzp1DpUp1lPJsoVarWbt2bY7XK0SeJeeR9/Bhn0d0oUePHvTrlzsa6syZM4cSJUowffp0nj9/DoBWq2Xz5s3Mnz9fx9GlTLIQeYk2hM0DqjF437stF6tPPM7ePs6UNljL1ZtqqKYHMTe5dteCMmWts/XLWmXXnFFLmzOKKO5tGULLvpPZ1fFP2htnY6WCn38+SnR0XJJl9esvldaLQggh3hWzl372rVj0OL61O4YeLAvcQS/LHL6ci7vOjHpV2dThLMdGOac+UV1m5ZZjTZGCwn12EdVHy/MVbSn+g67jyVpr1qzRdQgim8TExDBnzhzu37/P0KFDKVWqlK5D+iCdPHmSvXv30q5dO1xcXHQdzhu55btVziN86OeRnObt7U14eHiumo155MiRlChRgi+//PL1jNWhoaH4+flRqVIlHUeXPJktOi9RFOTj+Wfx8/N763GetV+URGXqxictglkzazMB0eFcXTqbbQbt8KqdaDIX9Xl+alaOj8b4EJtk51rUMdFERceiQUNsdBTR0Wo0aQYVxoWdWzkTGIEGFYaGeiiMjCkg76xsl7jVYoKE1otCCCFEEvp1GHfgLOfOnePkzy0w0nU82Sk/HasQOaRp06ZYW1szceJE1q1bR8WKFSlRooSuw/qg+Pn5Ub58eVq3bs3Nmzdp2LAhFStW5OHDh7oOLV5++m7NT8cq6NmzJytWrNB1GO/o3Lkzf//9N6am8VPlxsbG8r///U/HUaVMUkB5ihJjKzuKFy/+1sOOIqZ6oLDik/8tp8uTsVQpVISGvxsyfPVU3BJPyquNIjjgNneexo/D+FrsYb4pY4Kx/ZfsCzvGyPImGJcayr8xacWkIfjUXHrWtKOgmTUu39ymze/jaSbfwNkquVaLCerXX5rD0QghhMj1FGaUqOhKlSpVcC1ZMOM9GrRBHJ72CS5FTTC2dKb1pIM8TXwHUvuC47M/p3kVB6xNjTC2cqJej1/wSSikPs/4yvoo9JwZdTKCU9+VQ0+hQKE05tNNr3pkxF5i2QBPajoVxcyoAAUdauA1cRf3M3rPLMVjjePK1OqY1mjLJxWtKVT6E36a+zUfFTHBqupX7Ap6e9iZZF8Inixvg4XDYA4m7kgSvoPPbSzpuO4ZWjQ82juFLo0rUtzSGCPTopRrOpDF516QnhriRbO5sxlF++4h4aeY9sli3E2cGXUq4QV59xZw15mHeJz2nWHxAdm2bRs9e/bk0aNHeHp6cu/evSyvw8vLCz8/Pzp06MAnn3yCu7s7n376KRYWFhQvXjzL68uPzp8/T6dOndiyZQtBQUGsWLGCkJAQli9fjpubW4b/Xy9fvsysWbN49uwZM2fOfN3y6b3IeSR9cab9Quj2POL2KaNeX+PHEbj/Rzp/VJJCBYwwL16dTtMO5qvzSEREBAEBAVhbW+s6lGTVr1+fS5cuoVKp0Gq1HDp0SNchpUiSi7mWEqfhx3i5px9FM/DNrbRpyZTdN3gWEc4Tv018W/etL0P92sy4HsOTRS0xSLK8EbPvqdFqta8fcf/9ThMD0mBOkx/2c/m/57x4GcqTq3uY0bZE9jRPF68l12oxgbReFEIIkX7R7PzcCqVCgeKdhwrbgfuJQcuT9V/i9eNtGs09it+JJXheW8Lau4lvckXyNNSaNuNXsf/cNS4fnEOLwJ/o0O9PHmkBvSpMuhSLVn2Nnz4yptb0q6i1WrSaCNZ/8mqU5rhgnhk05JtF3py5dpVjy7oTt6wTXWbfIPnbaZkT97woXf7awuBCOxi3WJ/pPlvoEbuM33c+S8dFm4LCrTvSKHQHm4+9uSoM/3cTu2Ob4dWyEAq0vHwaSakuP7Hh0CWuX/Bmsosvw9sOZ09YKrvOoNh7u99dtqgzPRbdTUfPE/Eh6Nq1K+3bt+f69evExcWxc+dOypcvn6UJxr///puTJ0/SqlUrFIqkFyU1atTA3NycihUrZll9+ZFGo6Fly5bs2bOHcuXKJVlXs2ZN1q9fT/v27dO9vwULFlCjRg3Wr19PZGQkI0eOxNXVlSdPnmR16K/kt/NIGnGmKfecRyJPTqB1pz9RdV/I4ctXObGiG7HzO+ar84ixsTEFChTQdRipKlmyJBERERgbG/Pff//x6NEjXYeULBlzUYg8JrVWiwlk7EUhhBDpY0CDHw5x7it1Mok1BfrWTuhrg9i5yhtN+9X86FUFM6D/L1+zYfvwREWL0nbczETbOjDqK3dm9znE+djuuKd5sxIwaszw2Y0T7eJLRnjNocWhk4R9UwaLTB7h2/Rc3GhR8SMsalizMLYJ9Zwb8ryyin/vBaLBKs0bpAprD7waDWPc5mP87OaGIeH8u2k3sc1m07KgAlBRputUpiTapsT3A1m2cAaH/NW418yKn9+hXD50lCo9PJIsndKvFNXWbOd+36E4SBMCIL4bmb7+hznLQXLjW0ZGRjJo0CB27NiRJXVs2rQp1daJ5cqVY+fOnVlSV371008/UaZMmRS7mbu6uqJQKDh37hxVq1ZNc3/Dhw8nKioqybKAgAB69+6dZe+LpPLZeSQL4swt55Ed//uDIK+1LBzcAmOAUkOZPnAt1eU8kusYGBgQHh5O4cKFOXXqFG3bttV1SO+Q5KIQeUxqrRYTyMzRQgiRcT179uTUqVOplnn+/DmFChV6/TwoKAiA9evXv14WFhaGiYnJO618EmvevDmzZ89+z4izggKz4uWpZKtN9qJQoVSiiPPn+u04SjUsT8JcbUqbSlQsouTm67JqAnZN5dsfVnLgUgDPI9VotKAo0Inw9Pbh0jzF57eRfD/fm7N3ggiP1aAFDJuGEa4FiywaR19laIQBCgwNjSigMkKBAkNDfaKjotPX3UxhTSuvxgz9fjPHfnbDTX2IzbvVNJ/TgoKvYoy8tp7x3/7Eeh9/AkOjidNqQVUCp3S/GGlQ3yLwYRRV3lrsOs4XtUN9HmvI8xeF7dq14/r166mWefnyJWZmZimuj4uLIzo6GmPjlGcZ1Gg0DB8+PNfMEppebyePEtu9e3eWdVcOCwvDzc0txfXm5uYYGxvj6OiIkVH6x0UKCAjA2dk5K0LMNr6+vpQvXz7b6wkMDGT8+PGplmnUqBFNmzZN9b2cIDw8PNnlFy5cyFR8actv55EsiDOXnEcuXHrBgystMVmYdJWec5MP4jySFQ4dOsRnn33Gs2fPUi2nVqvR03tz7R0XF4erq2uqZd6m0WhYu3YtHTt2TLHM06dP0xl5zpPMgxB5SHpaLSaQ1otCCJF+bm5uzJw58/Wg2cnp0KEDGzZsoHDhwq+XhYeHo9VqX2/n5ubG2rVrsbGxSXE/1atXZ8KECVkXfAZptYBCSXzuMxrvPra0WZ5cl2AlxQbs4e6cgihQoNLTSzTUigo9vTfPNHfm0+vTPzAYs5bTe+pT0kKf2N19sPvkZTrHh9IS9NcgPp70gN6rDrG5eVmsDDWcHl2Jxqc0r2J+32N95dXfCkWifSpI88Zd4h1YtfKiydAxbD4+k1qRm9mlbsHc5q/axKjPMd2rF5vK/4+/LnWjhp0pei9W0872OzTpriO5g9Ekei21aJNpYxkZGZn5/eciZmZm+Pv7ExaWfP+/hIs2Pz+/FPcREhJCq1atOH78eIpl7ty5w6BBg+jZs+d7x5zTUkvkOTk5ZdnkBN9++y0hISFYWCTf5is6OpqXL1+m+jonp1u3blkRXraqUKEC8+bNy/Z6pk2bxuHDhxk+fHiKZc6ePcvkyZOpXr16mvurV68eGs27nVqzcky5/Hweef84IfecR/SpPdOfIyNKy7BmKWjUqBHVqlXj4sWLLFiwIMVys2bN4v79+/zyyy8plkm4iTBp0qQUy4wYMYKtW7eyevXqzAetI5JcFCIPSU+rxQTSelEIIdLHzc2NCRMmUKNGjRTLVK1albVr11Klytttxd4oUaIEp0+fTrXFkJmZGY8fP041iZm1NMTGgr5+QvMDLc+Dn6ExKIJFAQXp6s6miqKsk4pVt++hxgkDQPvyDrefvLnZFXvpJGf1WrL6azccDePr/c//Oi80xd7apQqVCmJj3x4bWM21U75E1P2eka3LYaUAtM+55h+Y7DhZkUEBPAk3xKp4UUxfXxGldawZowl7wv3gKIwL21P4rcZCCkt3vJoM4buNB2gatYu4FvNoZv6q1pCznLpVnI8X9KF28fjuuOobV7ihhqTvDAX6BvoQFUnUOy++AmPjAsRERL4e9yrucSCPEp7olcbO5sPs6mtmZsbDhw9T/IzExcVhaGiIWp3y+NLBwcHUr1+f58+fp1jm2rVrfP3119y+ffu9Y9YVGxubZMfemjFjBrVr186SOrp27crKlStTXB8UFIS1tfU7YwWmJbePcQbxMWb0uDJj+PDh9OnTJ9UyWq2Wfv36pauLv6enJ9u3b0+yTF9fn6lTp2YyQjmPJD6PpDtOcv95pEolI373OUbQ8NIZmuchv9m5cyc9e/bkm2++4erVq8mW8fDwwN3dncmTJ6d4s8XDw4M6deowd+5cvL29UyxTsWJFunXrlucSjNLQVYg8IiOtFhPIzNFCCJG6hMRi48aNUyxTtWpVli1blmpi0d7enmPHjqWZWEwtaZIttE9Z1bsZA39dx96Tl/A7vo4p84+h/1EDqhsAKDC3r4RrlSpUeefhSsXipigUVrTu6UncltmsvBEF2hBOzprHgYg31eiVcsYpypcDx5+hASKurWTMnFOo375YURbFsaQRtw78zbkn4URFRROrAVDh4OyE3uV/+fehGoghYPv3zNgXwbui2fd1ZRydu7L6caKrqTSPNUMvHMHre+LsWI7Bu6LfXa0oREuvpoRtHsXY7WpaejXFPGGVWRnKFn3EiQOXCdOCJtSX38Yv42Yyp/ACLtUpH7KXlX9d5P6jxzx9GftqjR4Va7ig9tnEjodxEPuA7bPXcvX1tbQFFRrVeWd/2+Z9S59fThL7zpq8IasSi87Ozq+HLEjO9evXadu2bYoXiXnFw4cP32kl3aVLF9q1a5dldQwYMIAbN24k20o0NDSUI0eO5NrJBfIKFxcXGjdujKenZ7LrE9ald+zQbdu2MW3atNctFWvWrMmmTZvw8PBIY8sUyHkkyXkk3XHm1vPI631Y0HpYf0rsH0XX8Rs5ffMeNy8cZvPsYXn6PJJdVqxYQa1atVIdKmH37t1YWFhQp8675+cEx48f5/nz56l+Hi9fvszZs2fp3r37e8Wc0yS5KEQekZFWiwlk5mghhEhZViYWjx49muJg/KCjxCKAwpwazVx49Nc4ejSvSbXmwzhYuC+L5/WmRLp/BSoo3HEu67/SY46bA3Yl6/Ddk3q4O7zpRKWqNIxFv1TFp3tZbEuWplZfH+oP7Ejhdy62TGk9Zgbtw+fSpLg5xsaF6LYlGlBSvNdc/vC4zQhXW+ydXOm01p4vepZNf1etLDnWdFdGwZZeNIvy56qiFV5NE437Z9iAccvHUHh9KxztHCnXcDQBHb+kheG7e1FVGMzcSS6c+qomJW3tqD7m6KsLOiUlesxgaq2zDChXjFI1enOo2sfUT5QkNSjpwd27dwkODub69etEREQwZedzHCva5cnubTmZWGzTpg3Xrl1775hzg4cPH6LVaomMjESr1fLnn39meR1Pnz7l+vXrHDlyhAsXLnDt2jWOHj2Kt7c3ly9fzvL68qOZM2dStWpVateuzZAhQ/jrr78YMGAA5cqVo2PHjowcOTJD+/vuu+/4+++/sbOz49SpU7Rp0ybzwcl5JMmxpj/OtF8TnZxHEuWojetMZve2r7D5ZxTuLmVxadKNidvz7nkku61cuZKaNWvmSILxypUr+Pr65qkEo0KbjmxF+/braNasFIMH18qJmLLHsGHx/86apds4hMiEn38+ysiR+zOcXASoXt1Wxl4UIj9YvRrmz4cjR7K/rg/gnJpViUUHBwd8fHywt7dPsYzOEovig1a9enUCAwMxNTUlMjKSIkWKULt2bX7//Xddh5ZhOZVYvHHjBq1bt05zohiRvG7dunHkyBFiY2OpWLEie/fuzfS+GjRogLOzc669cD569CjHjh3LptmVU7Z3714WLFjAs2fPKFKkCKNHj071HJSaEydO0LFjRx48eJDFUYo87cQJ6NgR5H2Rad27d8fX15crV66kWMbd3Z3Q0NBUx6OtU6cOhQoVSrGLNED58uWpWbNmqsNT5BYyGJsQeUBmWi0mkLEXhRAiKUksigRBJ2CtH7TvzetWKQ/PwP5LYFkVWlSB3DiyYbFixShdujQtW7ZMsnzr1q1YWloyZcoUHUWWcZJYzDvy2vhfeVGLFi1o0aKFrsMQQqRi1apVdO/enQoVKqSYYNy9ezfu7u7UqVMnxQTj8ePHqVOnDh4eHikmGP39/Slfvjw9evTI9QlG6RYtRC6XmbEW3yZjLwohRLysSiyWLFmSw4cPS2IxL9PC35Php5Ng+eoX8aMNULM2fN4P2taADotJdiIAXXJ1dcXR0REnJ6d31rVo0YL58+ezefNmHUSWcTmVWLx58yYeHh6SWBRCCJElVq1aRbVq1ahYsWKKZbKqi7S/vz+nTp2iZ8+e7xVzdpPkohC53Pu0WkwgYy8KIUTWJhYPHTqEg4NDimUksZgHxMKZi1DfHUwANLB+Lqi6QWAkHB8F//wCZ3PZ6dPPz49SpUqluL5kyZJMmzYtByPKnLQ+I1qtNs3EYlhYWLoSi61ateLGjRvvHbMQQgiRYPXq1VStWjVHEoxXr17l5MmTuTrBKMlFIXKx3btvEBOTfJsJhUKBsbE+BgYqVKr4v/X0Uv5IjxyZ+XFxhBAirzt48GCaicWNGzemmVgcO3YsZ8+eTTWx+P3330tiMS/QQlgEWBZ69TQUDp2HVt2giB5UdYciD+BeLkouent7Y2Njg55eykOdFC1alODg4ByMKuPS8xkZMGBAqolFgKFDh6aaWHz69CkrV66UxKIQQohssXr1ar788ksGDx6cYpmEBOO9e3ui4rQAACAASURBVPdSLJOQYHzx4kWKZa5evYqxsTHz589/r5iziwzCJkQu5u5ehqtXBxMZ+e6Pa6VSgbW1MUuXnsPH5x7LlrXnxYvoFFsoVqpUOLvDFUKIXKtixYoUKVIk1TJubm5YWVmlWmbq1Klp1jV+/HgMDAzSLCd0TA9KO8DGvRDmBk/WwT9qmPUqtxz3EiKNwTQX3Yr38PAgMDAw1TLBwcEYGxvnUESZk57PyIIFC9Lcz9KlqQ/7UrhwYSZNmpSh2IQQQoiMGDRoUJpldu/ezf3791Mtc/z4cUJCQlIt88cff2QotpwkyUUhcrkyZVK/0DU3N8TQUA8bG1NsbKSVjBBCJCetxCKQZmIxvSSxmEeooMcQmNsXSq2H2Adg3BE8Xr0NDm+HyBpQNZfN6FKqVCkeP35M0aJFk10fHBxMjx49cjiqjJHPiBBCiPymRIkSaZYpWLBgDkSSPSS5KIQQQggh8iWHz+GkA6z9B+KKQ5eeUEQRv67mOLhqAkUVuo3xbZcuXcLGxoYmTZq8cxFy/Phxihcvzrhx43QUnRBCCCHyI0kuCiGEEEKIfKtkExjd5N3lheygUM6HkyZjY2P8/f0pU6YMlpaW2NraEhoaSnR0NIULF+bgwYO6DlGIdPHz82Pjxo26DiNZd+7c4d69e/z2228Z2s7FxQU3N7dsikoIIXIvSS4KIYQQQgiRh9jZ2REREcHEiRNZsGABzs7OfPHFF3Tr1k3XoQmRLlu2bKF58+YcO3ZM16GkqEaNGty5cydD29ja2mZTNEIIkbtJclEIIYQQQuQPalg0DE5GpbO8PvT7DWrl0iECJ06ciK+vL/3798fT01PX4QiRbtbW1pw7d07XYQghhMgiklwUQgghhBD5gxYe3YKbkW8W3fOFe1FgWxYcrEAbDneuweMoKNsAumh0F64QQgghRF6Qv5KLUVHxDyE+BAoFGBomXRYbC3FxuolHCKFbUVGgkSyIEKnSh3G7IGG6k5MTwAvY/yc0sXtTTBsB276D72OhumFyOxJCCCGEEAnyV3JxwYL4hxAfAhsbePgw6bLevWH1at3EI4TQPQcHXUcgRN4RA0sXQZOFSROLAApjaDcRllSCI7OgtSQYhRBCCCFSlH+Si5MmwXff6ToKIbKOUvnusrlzYebMnI9FCJE76OvrOgIh8g4FGOqD31VQe777ozjyGtxRgL5CJ9EJIYQQQuQZ+Se5aG4e/xDiQ2ZhEf8QQgghROr0ocfnsGQsNL4MnRqDvWV8l+g752D1ElB9AfVz6WQuQgghhBC5Rf5JLgohhBBCCJFIjfGwvzCMnwsjV0K0BhRKsCwDn4yDSYPAWNdBCiGEEELkcpJcFEIIIYQQ+ZMS6gyCfYNAHQ7BL0HfDCxNdB1YyoKCgggMDHz9uHPnDtu3byc8PBxbW9vXjwIFCug6VCGEEELkE5JcFEIIIYQQ+Z7KEAyjQT+XdYM+ePAgW7duJSAggJ07d2Jubo6trS02NjbY2trSuXNnHj9+zMaNG3n48OHrh6GhIfXq1aN58+a0a9eOkiVL6vpQhBBCCPGBkuSiEEIIIYTIt54eg+/HwcYj8CwGFPpQuh4MngSDGoBKBzGtXr2anTt34u3tTdWqVfH09GTw4MEsX74c/XRO3BQaGsrly5fZunUrjRs3xsLCgvbt29O+fXuqVq2azUcghBBCiPwkmelmhRBCCCGE+PC9PAxNW4BvcfhxKpQ2gb6ToXYMfNsChu0FbQ7G87///Y+GDRuydOlSDh8+zPXr1/H29ubLL7/Ezs4u3YlFAAsLC+rWrcuMGTO4cuUKCxcuRKPR0L9/fxo0aMDJkyez8UhEXqE+NQrnArWYfjUuczvQPufv3iXQUxjRZsXzpJ+XyKus+aopZa1NMC5Uigb9FnH+ZcY+UbHHhlNaT4G+ywTOqxOWRrO5symG9X/ltiZzYee4sD30szeh3i83yOQrnX4x3rx4+iS7axFCiCQkuSiEEEIIIfIfDfw5GV52hQPL4QtPKKQP7sNgpQ+s6wRLxsP1bM8ExLdUtLW15fbt2+zcuZMdO3ZQpEgRbt26lWV1VK5cmdGjR/Pvv/8yfvx4hgwZwscff8zt27ezrA6R/0Sdnsn3O8Ixe+eqMoyD37Xl8xUvafbjGtb/7xMUWwbRdujfBGciY6++spY/T8dkRcg6oCHwr9n8FdmaoT1L66Q1tBBCZDdJLgohhBBCiPxHDWcuQqM2YKF4a50SWvcES3+4ok526yxx4MABXF1d2blzJz4+Pvz000+oVPGph86dO7N27dpsqbdevXr8+++/eHl50axZM/r3709cXA5kUcWHJe4mC79bjf2Q/lR+a7At7dPNzFp2j0ojljK7Xzva9PqJFePqErT+f6wJyGBzQ2VhnEoGs2GVD5FZF33OUV9m8dx/KNxtCO2s3/6yEUKID4MkF4UQQgghRL6U2mX+05vwwgIKZdOv5YkTJ7JmzRoWLlzIkiVLKFasWJL1Xbp0Yc2aNdlT+Svt2rXDz8+PSpUqUadOHfz9/bO1PqF7kVdWMbBhKQoam1KsWjfmnQ3LZNd/LU82j+Pn0N5M7GL7Tmu86JP/cCTKiZbu5V4N8q/E3t0Dl7jT/HP0RcaqUpjRvFs7NFtXcyAsM7FquPtbQ0xcOvJ5IzvMLF34YtlfTGpaHFPz0nyy6BoZuocQe4/tY9tRxc4cQyMzijjVwHPEZu6lkDMNOzCXxdeq0n9gXYyS7oh/h9hToNGvHPl7PO1dbTErYEqRch2YfzUOiOPmlrF0a1IZe2sTjEysKV2/J78cfkLiqrShp5jTvRYlzI0xd6jHwNXXc3Q4ByGEAEkuCiGEEEKI/EgPXCvA2dO8SSxo4OphWDEFWo2E8v2gTvqHOUy3jh07olarmTNnDpUrV062jKWlJdWrV2ffvn1ZH8Bb+vTpw8GDB/n444/566+/sr0+oSPhhxjT4QvWRroz46+tLOitz7JxK7j/OlMVR0RIMEFBQck+gp+Hv/mshPswbfwxmkz4iioGb6fpNTy6dZswZUlKl1RBbDhhMVpUJZwoaRDDnZv3MzjuoALjRt3paLKDVd7PM504U9+4g9mABUxuHMzyft9yqd18FvUwZdfPS/FNd3ZRw91Ffeg65z61xv3Jnj2bmT/2Y4oHBxCUXHJR+5ANc/4i0mMovcok3yE67vZ8BvxwhybTd3Dm/BH+/LoWZhqAOO6evYxx40FMX7IF762LGFH1BtPafsrcG69eQW0QWwZ34Ju9pnSdu4mNv7bj6cyJROeVsSiFEB8MmS1aCCGEEELkP0po0wOW/w234qA0QCSMaQnmjtBpCkz7EgyzsEq1Wk3FihUZP348HTp0SLN8QuvF5s2bZ2EUyVMoFPj6+tK9e3f8/PyYNGlSttcpctbLvQtZebc8X5+eTT8XPaAhRQKO02DWqwLqS0xvUJPJfsln2lT2QzhwczaN9NVcmfcdq4sO53jrQigC3y6p5WXoS7TKYpgb+TOz0UdMeDmMQycaYG4CL0JeoCGDM7Eb1qbrp0VpvmobT7w6Z/TQAdAr05reXp44aWsxZn8BuvT1xPPCIcYvv8HtSPjILD17UXPlzHliq//A+H5tKK4EGjXn494plL68mDkHrOi2tz0p9YjWPDal086lDHWJv5Ph7Fzl1RoVzSZvpVmisk0aF+XmrmZs3feIwWXsUDzczILNz2k4cwU/9iiBklbUNvQnOn0viRBCZBlJLgohhBBCiHzJ4XM48/mrJ06w+RoozMHGKoOJj3QIDQ3F2tqaM2fOUKZMmXRt06lTJ/r06cOSJUtQKnOmw9GqVauYNm0avXv3ZunSpTlSp8gJam6eu0hY4QY0KJdwCWhAVbd6FPztUvxTVWl6LdpNw7Dk2wYqCtjjqgea/9Yw5pdgum34gtIqSLWRnMIAs4JmmOpZYPQquZa5UQf1qNKlM6XmrGbTg07YZGIPClNzTJVgYGqKoakJZipQmphhSjhhEVowS09kKspUKody7Ry+/tGC/p4NqVXJHvNkr6rD+GfuIq5VHcq6ukbJFYjfY5lWtK6QfBPp2Pu7mTl2Oqv/ucT9ZxGoNRrUsVoqPg1Ggx2aK2e5pC5Dv3rFXndJNK/fhJC8OveNECLPkm7RQgghhBAi39MqwNQCCppnfWIxKCiIBg0aEBoamu7EYoLsnNglJaNHj8bR0ZFBgwblaL0iO2kJexEGFpYUTHQFqCyY6LmiADblqlClSgqPCnaYKiI4NP0HfKp/w5dVNYSFhREWHk0coI4OJzwyFi0KzCzMUGhe8iLSiQHegTw5PILKipe8CAezguaZughVletMN9fTrF5/K4PdqhMOVhlfr1KJMuFvhRIFcaR/PiMVZQavYv2oqgQu/wrP6iWxsnam3U9Hef5WTlb7cANz1kfQakgvUugRHR+WVRGskntBok8xsXUHZlxxZugib475nuOc71/0L6NErY5vXaoNe8lLLCiU+D+1QCEUMm+MECKHSXJRCCGEEELkW0+PQf+mYG0ChazAzATKusFsHzKXwEhGuXLl8Pb2ztS2ukguAgwfPhxra2u+//77HK9bZAcF5hZmKCLDiUiUBNNGhL15rr7E9AY2FC5cONlH0SqjORrzkhvX/+PZrgGUNTfDzMwMi/Ij8ImJZnf/EljWnYZfnBIbp1KYau5y8+6bT1Hc/VvcjTHA0alE5hL4ypJ4davNlT/XcjkbZ3FPk4EjbSau5ejNIJ7fP8HSLqYcHDeQWRcTB6Xm8pK57LfqxtD21qm31lQokr0oV1/czKbrJRn4+1wGtPqIyuXLUa6sOYS/+Q9UmFlgrogkIvF/qjoCmdFFCJHTJLkohBBCCCHypZeHoWkL8C0OP06F0ibQdzLUjoFvW8Cwve9/jd6oUSP+/PNPLC0tM7W9m5sbV65c4fHjx+8ZScaNGjWKq1evsn79+hyvW2Q1PZyqV8Hs0UUuPk7oyBxHwLnzPE14+qpb9L59+5J97FkzGFd9S9r9+g8+Pj6vH4c3DaOqvgF1x3pzcNnnOKnA8CM36hndYs/uq68mgdFwf7c3F1U1aVLfPJPHoMS2Q3caB6xljW9y/X7juHtwBUuWbuJM8Pt8ctO7HwUFbGvRdUxvaigDuR+YqIN4+EHmLrpK1f4DqVcgc1Foo6OJVphTMFGrxJgL+/n30Zt69CtWx0XvJuf93kyjHevnS6wkF4UQOUzGXBRCCCGEEPmPBv6cDC+7wvn5YHoNlkwF92HQ4Vvo8Dl0HQ+Dm4JzJvtJDxo0iPbt29OgQYP3CjWh9eKwYcPeYy9aQi7uYLtvUAotMpUUcm1Du2qWSVpZrVy5kurVq+Pi4kL58uXfo36ha6bN+tHToQX/+34dTX77mCJ3V/Ld7DOoqRpfQGFKqdpNKZXWjirWpWiip5r757FQKDAtU5u6VQrFv38Kf8LXn0/FfWYvBluNwd3gCL9MOob1pxvpYp/59i2Kwp50b/k1ndbGomf79lo1ZxcOou9GB0a7tqOGVWYvdVPbTxRbBzVjncVntKtbAbsCwRyfP4vjJg34vGrCuIlaHm6YzfrwVvzeq2ymh1nQr+xGo0IL+HP2Trx+akXhR7uZNHQZAQYK7F+VURRtz4BPJtB12kR21pxCU+MLzBq7lM//HJ7JWoUQInOk5aIQQgghhMh/1HDmIjRqAxZv91lUQuueYOkPVzLZ/XLx4sVs2bIFR0fH9w41Ydbo9xXzLIAbN29yM+Fx4yoXT+5n+6a/OXzhOveeRSXbUvP06dN89tlnxKV/YDqRGxnXZ/LmBTS/M5baRQtR9rNtlO3XFaesHmQUAFPcpm1jSQ9zDoztSufhW9B2mMf22W2weq/xAAvi3r0dRXV2FatH6ZqVCDswh+HdWtPMcwALA+swZctCutq8OjD1FZbOPYBl1yG0L/weB2vRhp/XjqP04S+oZFmQUh6/Ed1/FoMSD+CosKLt7C1Mr3SU/pWtsHL5knPNBmIoV/lCiBym0Gq1aTaabt9+Hc2alWLw4Fo5EZMQIgPmzj3F/v232br1M12HIoTILxJaT82apds4hHgfMdC3BMQugeWeEHcV6tSB0Y+ggyH8txDKT4Htt6Bx8hO5pig6OhoLCwuePXtGhw4dcHR05Ndff32vcFetWkWrVq2wtrZ+r/28K44Qv3XMXBJK+x8GUtM8+WTIihUrOHPmDEuWLMni+oX4sITvG0iF9ucZdPYIIzPb7DkLnDhxgo4dO/LgwQOdxSByoRMnoGNHkPeFyGJyT0MIIYQQQuQ/euBaAc6ehteNEzVw9TCsmAKtRkL5flAng4lFgBEjRjB16lQAtmzZgrOzMxUqVODq1auZDrd79+7ZkFgEUFGwUic+LXuObT7PUhxjsmfPnhw5coRr165lQwxCfDhMmv/BvfDjOk0sCiFETpPkohBCCCGEyH+U0KYHGFyCWwm9fSNhTEsYugw+mgI7x4BhBnf74MEDtmzZwsCBA18v69+/P7t27aJr167MypUtfpUUMDYg7GVYqhPYTJ06lREjRuRYVEIIIYTIGyS5KIQQQggh8iWHz+HM5vgJW1ROsPkaPHgKz27BosFgnYlfyolbLSapy8EBX19fnj59iru7O+Hh4VlwBFlE/ZArt7U4OlinenHg4eHB8+fP8fHxybHQhBBCCJH7SXJRCCGEEELkexotmJiDuSmZnt313LlzXLt2DS8vrxTLTJ06lbFjx+Lo6MimTZsyWVMW0ytOux9+56s6JmkW/fHHHxk+XGaiFUIIIcQbklwUQgghhBD5kxbOLYe21cDcGCytwcIYilaCwfMhSJOx3c2bN49vvvkmzXINGjTgyZMnbNu2jb59+2Yu9vcQFxVOeEyaczomq0aNGlhZWXHkyJEsjkoIIYQQeZUkF4UQQgghRL50fjo0/gri6sK0hbBuHSybBz0rw4ah0GIiRGZgf+vWrcPd3T3d5VeuXImbmxv29vZER0dnOP4MUz/k4KxBdPb6lE+9uvPtsrOEaEH7/DzbV+/jRlT6dtOwYUO2bduWvbEKIYQQIs+Q5KIQQgghhMh/YmH5YuixFXbOhSG94dNPoecAmLEWfKbB9UVwJCZ9u9u/fz8fffQRJiZpdy1OrEuXLpw7d46goKBMHETGRJxazdLrZeg9+VdmjmqBat8fbPBXozA3I/TYSnZeSt/Btm7dmq1bt2ZztEIIIYTIKyS5KIQQQggh8h8tRMRClUrJry7pChYxEJXO3sNbtmzB09MzU6FYWVlhZ2eXqW3TT8PzwKc4tOpKyyplKV+3M53rx3H96hO0KnucS2u4d/cJ6ekJXrp0afT09PD398/mmIUQQgiRF0hyUQghhBBC5D/68ElrWPAjBLzVHTguGGb/ApY9oZFB+na3bdu2TCcXc4aSgkWtCH8ajBoAFQUtLYgKj0QDKJUK0KZ/HEZpvSiEEEKIBJJcFEIIIYQQ+Y8azt2Du3OgtA241oMWLaBhTShWHEYeBhM/6NQK3N3BvS0cSmFMwrNnz2Jvb58DrQ/fj3GNdtS6uYjZf58j4Fk4sXFatHFRhNzay+5zepQpWzTdFwft2rVj165d2RqvEEIIIfIGPV0HIIQQQgghRI5TQEF78Oj21nJbKFUxmfL6YKRIfle+vr6UK1cuqyNMVVhYGGfPniUgIABjY2NKlSpFlSpVUtlCw/3tv7Puwi3UF77nn/kJy0fSY2MBHFoOZ6BrOptpAi4uLpw4ceJ9DkEIIYQQHwhJLgohhBBCiPxHDwbMhwFZsKv//vuPYsWKZcGe0ueff/5h3759FCxYkMqVK/Pw4UO8vb1Zs2YNP/zwAwUKFEhmKyU2TYcxvVJkonEVFShUBpgWtqO4VYEMdWnS/z979x0WxdUFcPi3u3REigJS1CCKYsNesBcsAcUaSzSWmMTYTRQTNbEnMfYeo8mnMbGLDXvB3ruiqCAWBLuIIG3L9wd2UXoRzvs8+8jO3Ln3zMouM2dv0dcnf/78PHjwgIIFC6b7nIQQQgjx8ZLkohBCCCGEEOkQHh5O2bLvWRkmg50+fRp/f39+/fXXd/YFBAQwZswYRo0alWSC0aBgMVwLAuhIiHrMo6cJqPJZUsDMgPd0yvwge3t7wsLCJLkohBBC5HEy56IQQgghhMiTbi8Bt/Iw78qb2yNPQLcaYGkK1sWh+3R48IFllMPDwylUqFDmBgtcu3aNv//+m3HjxhEXF8c///zDoEGD+Omnnzhx4gRlypShe/fujBw58j01aHl0ZgW/9u9Cu45d6dmrJ906tadTn3H8e/ze84VeUq5QoUKEhYWl97SEEEII8ZGTnotCCCGEECLv0YHfErjpDG1LvLb9KQxrB8u08M0PUDAcFv4A7ZWwcwCokqgqLCwsS4ZFr1mzhl69eqHVahk+fDiBgYEv9506dYoRI0bg7u5O4cKFOXbsGNWqVXvjeO1NXyZM3I2VV3dG9v6EgiZK4p6EEXhoPat+HY9y8lQ6F0v57YGdnZ0kF4UQQgghyUUhcgN//xD8/K4kX1BkKj09Jc2aFc/uMIQQQqREApy5ANVGg/VrY4IjNsOyUOi2EWY1T9z2qQXUmQun+kDVJK6eb9++ze3bt4mLi0tx8/r6+lSpUiVVIZ88eRJzc3MmTZrE48eP39nv6+uLu7s7NjY2XL169a3koo77p06Q8KkPwz53fu0mwJlSbhUwf/QVG07coWMxxxQPbZLkohBCCCFAkotCfPQKFDAmNlbNDz/szO5Q8rRbt54QGRmHTjc6u0MRQgiREjp4FgPmlrwx3+CRnRBdANrUf7XNrTbkmwk31UknF/Ply8e0adNQKlM+45C5uTlr1qxJtlx0dDT79u1jx44dPH36lPXr17+37IuEY+HChbly5d0vHQ1NTFBFKZKcX1GhUJEvv0mq5l60t7cnMjIyFUcIIYQQIjeS5KIQH7lOncrRqVO57A4jzwsMfECVKn9mdxhCCCFSSgVFHGDFYYhpD8YAkbB6K5jUhupGr4pGP4RYM8j/ntyhUqlk/vz5lChRIukCqaTVajl58iS7du3iyJEjJCQkpOi4F4vKnD17Fmdn57f2KjB1q4PDmGlMMWhHk4qfYG2qIj7iNpcOrGVteC26usQSHhYGKNA3s8ba7MO3CleuXMmwcxZCCCHEx0uSi0IIIYQQIu/Rg/YdYco48AbalYLA1fDPHfiqD1i96MKng02+oKwKFfSTrsrOzo47d+6kO9F2/fp1du7cib+/PxEREak61tnZmR49egAQERGBm5vbWyW0hO9Zy/4b11Av/p29i9+u4TwT+296/rOKoh2nMaurc5JzTL4QHh5OvXr1UhWnEEIIIXIfSS4KIYQQQog8qbwP/PsEflwIvZ+AiQN0nQsTG71WKBYsPWFRZSj4njHD9vb2hIeHpymGJ0+e4O/vz65du7h27doHy5qamqLRaGjWrBnNmjUjX758XLx4kfz58+Pq6oqenh6///47ZcqUwd7e/q2jldh7jWZB/QR0yUalQD+f1QcTi5CYXHy3HSGEEELkNZJcFEIIIYQQeZMBtJmU+IiPA31D3p1z0Bg8e324mhc9F1NKrVZz9OhRdu3axYkTJ9BoNEmWMzQ0xNXVlQoVKuDm5kbx4sVRKBR0796dYsWKUaZMGWrVqoVGoyEkJITFixdTv359GjVq9GZFumgiIg2xMLfCxjTFYSZLkotCCCGEAEkuCiGEEEIIgb4KnjwCfTMwfc/w5/ext7fn5s2byZa7cuUKO3fuZO/evURFRb2zX6VS4eLiQvny5alQoQKurq7o678bzOLFi1myZAlLly7F3NycoKAgKlSoQOvWralUqdK7DavPsaD3fB64e9OubTOq2BunauGW95HkohBCCCFAkotCCCGEECIPu38IRv4Eqw/Ao3hQ6EPxWtBvLPStQ7JDgwGcnJy4fft2kvsePHiAv78/O3fuJDQ09I19CoWCokWLvuyZWK5cOYyNjVMUd9euXenatStPnjzB3Nz8w4X1q/Dlz09Zt8qXSX1WYFPdi7btvKhTwiLNNwMRERHUr18fQ0PDNNYghBBCiNxCkotCCCGEECJPeroPGn0KBm3hlwkweTQ0/AliNsDQJnB1PcxsksRQ6bd4eHjQvXt3xo8f/3LbtWvX+Ouvvzh79iw63atZDgsVKoSbmxtubm5UqFAh+cRgMlJ2vD5Wrk3o+bMHHW4cYdOa1fzts45/yzSmdbvWeFSwJbUpws2bN2NjY5OWkIUQQgiRy0hyUQghhBBC5D1a+G8cPP0czvwB+S7DXxOg2SBoPRRa94DPf4Z+jaBkMt0XzczMqFKlCnv37qVevXocOHCAqVOnEhcXh4WFxcueieXLl6dQoUJZc35JUmBatCaffVeTVl3OsWPdKtaN/4ZlhWvTom1bPN2dMFOmrCY/Pz+++OKLzA1XCCGEEB8FSS4KIYQQQoi8Rw0nzkG9gWCugDeWVFGCZzewag0X1cknFwFatWrFxo0bqVevHtWrV2fhwoXEx8enOJkYExOT4iHRGcHApjyeX5enWcdgDm5czeq5g1nzTwWatmlPq4ZlKGjw4eP9/PxYs2ZN1gQrhBBCiBwthd9NCiGEEEIIkbt8aLjz/SCINAfLFF4tt27dmo0bNwKgr6+PlZVVihOLPj4+REREpKyhDKbK70zdz4cx4695/OhpTfCKUYxeeY2k169OtHXrVpo2bYpKlZIZKYUQQgiR20lyUQghhBBC5D164FYaTh0H9YttWgjcB4vHQ3MfcP0aaqZw5ejChQtjbW3NmTNnUhxCUFAQbm5uFC1aFDs7u1SfQkZSGNtRybsvvy5YyHAP2w/eJPj5+dGqVassi00IIYQQOZskF4UQQgghRN6jhBZfgMF5CH7RTS8GhjeFAf+D6uNh03BStdDJl19+yf79+1NUdvbs2bRt25Y1a9bQt2/fVIefafQssLc1/WCvzrCwMNq1a5dlIQkhhBAiZ5M5Cu3VAgAAIABJREFUF4UQQgghRJ5UtAec6PH8iTP4XgZFfihUANIy4Ldv375YWVnRtWtXLCwskiwTHx9PmzZtKFOmDGfPnk1z7Nll0qRJVK5cGUtLy+wORQghhBA5hCQXhRBCCCGE0AdHp/RXM3HiREaMGMGcOXPe2bdhwwa6deuGr68vDRo0SH9jqaR7FsjWVRex8WpN5QIK0EZwee9uTj8wpFiNhlQtbPzBHosJCQlMmDCB+Pj4LItZCCGEEDmfJBeFEEIIIUTeo4ZFw+BE3AfK6EOPiVA5mZWTX/fVV18xadIkrl69SokSJV5u79OnD48fP+bx48dpjzmdEi5u47+D+Rj5uQLQErbxN0YsuYOtjZZVa47y1YwxNLN9f3pxxIgR/P7771kXsBBCCCE+CpJcFEIIIYQQeY8Orp2GE8/e2hwPt4MgXANlKoO3NvVVT5o0iZEjR7JixQrOnDlDmzZtGDVqFN26dcuY2NNEx6NboWhc2lBMD9CGc2jvNcp89Qejm8C2n3uz59gDmrawTrL34u3bt1m3bh2hoaFZHbgQQgghcjhJLgohhBBCiLxHH8buhrFJ7YuB9cNgtiPUNUp91d7e3ixbtoyxY8eybds2Dh8+jK2tbbrCLVSoEOHh4SgUHxq4nDydRocO0EVe5EJoUSq4WaJQaLC3z0d0ZBRarJOcb3LmzJlMnz49XW0LIYQQIneS5KIQQgghhBCvM4aWP8LcmrB/EDROxbDoF5YuXYqenh5RUVHpDmflypU0b948nYlFBQVLumC2Yg1L/FUUObeWs2YV+aygAnRR3LkbjaWzJcokjlywYAFqtVpWiBZCCCFEkpK6fhBCCCGEECJPiwyAa5EQnYZh0QBKpZLTp09Ts2bNdMeydOlSOnfunO569Fw/o09zffbOGMecIwY06dUaVz0g9jZRls1oUtH8nSHRhw8fZuXKlcybNy/d7QvxMQleCz8thpjnz6OvwNxfYcoSCEvI1tCEECLHkZ6LQgghhBAi70mAWV/Bwdh3d8Xch2OHwKAD1DJMexNubm4MHTqUL7/8kr/++itNdTx69IiTJ0/i4eGR9kBeUJhTsdtvLOmqQatUveplYFyGNgPLvFM8KiqK1q1bExkZmf62hfiYaGH9FDj9JRgBRML3TWG1AVg9gAWn4OQ0MM3uOIUQIoeQnotCCCGEECJPio2GqKg3H9HPwKgI9J0Hh/+Egumb4pAuXbpQpEgRxo0bl6bjM6rX4hteTyx+QLVq1Th37lzGti3Ex0ANAdegVg1QAM/2wToDWH8Wzq4FzSo4HJ/dQQohRM4hPReFEEIIIUTeow9DV8HQLGhq4sSJzJgxg3HjxvHTTz+l6thly5YxZ86cTIrs/erVq8eBAwdwdHTM8raFyBF0oNYk/nh2DyhrQ2UjMCwORaLgcRqnTBBCiNxIei4KIYQQQgiRyQYOHEhCQgJff/11io+5fPkyMTExVKhQIRMje1NwcDAFChRgwYIFklgUeZc+1KwAi8bB2tUwegm41QRDQH0dQq3BPqll1YUQIo+S5KIQQgghhMiTHhyBWQvh1ms9kMJPwJL/waYzkNFrNkyePBkPDw/c3d1TVD5ThkR/wIYNG2jdujWPHz/O0oSmEDmOArpOgeoXoH1HCKoG4zolDpEOvQV1+kEl/ewOUgghcg4ZFi2EEEIIIfIeHWwcBxPtoWevxE13VkHVTnBHATodNP8D1veCjOyg1K1bN8qXL4+5uTn79++nfPny7y27fPlydu3alYGtv9+8efM4cOAAQUFBWdKeEDmdYWlYGgD/qEHvtbtmpw6wMPvCEkKIHEl6LgohhBBCiLwnAU6cg9rNnq/4qoUVs0HVBcJi4PAw2D0FTqkzvumKFSsSExPDtGnT6NKlCzdu3HinzP79+3Fycsr0ockrV67ExcUFjUbD2rVrM7UtIT5GetIdRwghkiUflUIIIYQQIu/RQdQzsLJ8/vQJ7D0DzX8CGz2wbAY2M+GGGqpmwhWznp4eK1asYPXq1TRv3pwmTZowYcIETE1NgcSFXDp16pTxDT/n7+/PiBEjcHV15ciRIzK/ohAJMKkz7I1JQVkD8FkKdY0yPSohhPgoSM9FIYQQQgiR9+hB8aJwcDtE6SBkOexWQ43nUw1qnkKMCeTL5Kvldu3acf36dSpUqICTkxNz584lMDCQ5cuX07Fjxwxvb8eOHXh7ezNt2jT+97//sWzZMkksCgGggELFoHjxxIdzQTi7E849AEsHcCoKZglwfCfc1Mv8zwYhhPiYyEeiyHzx0NMOJr9nCp9/WkKLxaDL2qiEEEIIkZep4Iv+cGcyFCsGlQeASUv4tEDi7n0bIKYKVMyiRRv69OlDVFQUKpWKtm3bYmZmxtixYzly5Ei66o2KimLFihV06dIFCwsL/vrrL4YOHcrOnTupWLFiBkUvRC6gB10nwvTpMH0qVIkE14lw5QgsmQ+z5sCybXBlJ5hGgLmMARRCiJfkI1EIIYQQQuRJRXvA0aKwbDdoHKFzN7BRJO6r+hMEmoKtImtjGjx4MIMHD+bq1ausXbuWkSNHEhQURK9eiavO2NnZvfEoVKgQz549Izw8/J1HSEgI/v7+tGzZks6dO7NixQr09WWJWyGSpQb/Q9DwF3h75LN5Nah4Hc4lgLNhdgQnhBA5jyQXhRBCCCFEnvVJQ/ix4bvbLR3AMuvDealEiRL4+Pjg4+PD/fv32blzJ1euXOHChQts376dsLAwwsPDUanK8vBhAPb2xtjb22Nvb4+DgwNFihTB29ubDRs2ZONZCPGRUoGTPSz/A7r+Dg4Gz7frIHApbDOELzNyGfkMNmzYMFatWkVkZCTu7u507NiRAQMGZHdYQohcTJKLIm3UsPBLmLwdwqLBuiKMmgdflE7c/eQw9PgSdoaDWxfIp4Xnu9DegZ+/gLlHoIA7NIjOtrMQQgghhMjxrK2t37u4i5fXf/TuXRUvL5csjkqIXEwF/abC5jZQ7B9wdUkcBv0gBK5GQ/8VUCkH3knHxsZia2tLpUqVKFOmDObm5ty/f585c+awY8cONm7cmN0hCiFyKZlzUaSZcQVYfhoeP4YldWDgNxCkBeJgfA+I7QN3HsAkK9gX8eo4vx/gX2s4fR8ODIaDR7PtFIQQQgiRx4VsgV7NwKkgGOqDaQFw84BfNsKz7A4uBRSKLB63LUQeYVkf9l2GVb+BV22oWAO6/AxHLsOUppAT33nW1tZUr16dokWLUqBAAfT09LCzs6NmzZpcuHCBli1bZneIQohcKgd+3yI+Cnrw+eBXT6t3AZe/IUgNn1yCbQ9hbA8wUUH1vlBn6vOC8bBlJ7ReDkUNgcbQxQ0OZcc5CCGEECJPu/kv1OoByirQujcUsYSECLiwB8a3hsPzYd2XkINHPwohMpG+NbTsBbVuQyRQyAGMc2j3nIEDB76cGiEp9erVw9fXl6ioKPLly5fF0QkhcjtJLoq0UcPmCTBhOYTGgEID92IgQQfaR/DEEmyez02iMAdbk+fHaeFhJFS2ef5cCXY2STUgRBaLv0hDi5X4x7zaZNtrIGELLKWLtxBC5EZq+HsS5O8Nh2eC5evdkHRwwAc8JsHJblBNrpiFyHt0cHA6DPgNTt8DHWBQEFoPhZlDwCaHXSAePnyY/Pnzf7CMSqViw4YNdO7cOYuiEkLkFTnsI1F8LCJ8obsvjN4NN65D8DYo/fzCW1kALKMgUvu8cCxExD7/WQkFLSDiyfPnOnj8BJEG6pMH+azhP/T+Nyq7Q8lY8cEM91xEkyFXiM/KdvWKMnp2EyZO9GCct5l8OAohRG6ngeu3oY7XW4lFAAVU9wTrMLilzpbohBDZLHgetBgLZYcmrhz9qQV8Nxli50PbqZCQ3QG+RavVotPpki2jUklfbCFExpP7Z5Em8U9BbQulbQEdHP0HAp5ffOu5QlNLWLMr8Ru+W2vhYNzzAw3AszFsXZs4j1H8ZfA9nT3n8LFTn7vIev9rrNoajTb54h+P+FBWb7nOjlU3iE2+dMZRmlK3pzs+PrX4rpGpfDgKIURup4IidnBoBzxNYveZnfCgEDjIfbgQeY8alvwJtabBoiFQrxKYq8CtHSydD7f/hOM5LLtYp04doqLe3+lAp9Oh0+nw9PTMwqiEEHmFDPIQaWLdHkZuggblwc4anGu86rmIAQz/G3p+CxXHQkEXKPXatB6f/gZHvoCqlcHCBuxLkbVJJCGEEEIIPegxCP74BiqegbYNoYgFJDyBgL2wYifUmQVV9LM7UCFEltNASBjUcX934RYjFyh8H8I1QA76fJg2bRp//fUXoaGhODo6vrN/7969NG7cWOZbFEJkCkkuijRR5IfvfOG71zf++upH8+qw5tR7jrWBcVthXGYGmGPE4j98Gd1n3SI0SotWocDQsgCe4zqwoo/1qzfgvS042B7lTmkPngTU4sWf/PhdSynQ+Aqa+p/xyL80RknMC/jov3mo/nvxzIj2R3xYWT2t/e7UnJmzlm7jrnDxfgJqrQKVkRFOtasyd1VDPCxSeV7qUNoWXIhvXGFGjTBg0cQQbkZpQaWPQ7Mm7NlQFWclQALT3X5l8LnX+mDePIi54uDLpw4DfQidbvJqf3wwngWWsFnjxCJfB/766hiHb8ej1inQM7Himx19me2uBLSE+27Gu+9ZTt9NQK1ToDI2oXynZqxfUI7CWdJFMYpNQ1bR589QQp9qEl8vK2va/N6Bf3sWeKuXZAILqv3G18cN6LjFC/ORm/nnTDQxGlDqG1JpRG+Ojno+D2SKXwMhhBBJcfoSDljB2OmwaALcjwGlERSrBAOXwrD2crEsRJ6kBEszuHMfcHlzV7g/BBaGYjnww+HBgwfY2Njw7NkzrKysMDc35/79+1y6dIkqVarg6+ub3SEKIXKpHPiRKERuoeX0oHl4zHiC1tiCOu0/oWjsXbZuDce373zqKgdxqHcqvzk0KMr4+c059lCH+ugRflgegWHlWozvYpb4raoqH3Vc05pM0nCo3yzqzXmCxsCU8o1LUslBwf1Lt/D3P86Cy/XxqK5M23nFhTLhVwta/dCSSU5PWTliD6s3bebTCSW5/FN+QEXryV4oA+LRxgXxy49B3Ldw4refS2IIgAKnZkZJh60OZ1DLG+Dqwjc9HbCPf8T25SGE3tECSmK3+1Ku3QUeKgwp1bgc1W1iOLEpmNN/+1L+gT631pcic7+/fca/zWbxxbY49AoWoqmXHTZxD9mz5RbLes3njv5gdnc1TuK4BLZ2XEO0gR1t+lejYoE4zvqd5/StGLS8tchMMq+BEEKI93NpDf+2TvxZowal3rs9lYQQeYw+1K4Gw9fAL7XACCABJnvBwBPguRjccuCdtIGBARERETRo0IC9e/eiUqnQ09OjR48eTJo0KbvDE0LkYjnwI1GIXOLZGb6d9wSNyooRZ/sxvkRikid210rsPC5yeOQ2jvdqS9VUvQtNce9aHXcg9n/nGbE8AqNS5Rk4yDbdKSTt1Z10mvcEtaEd0y5/xaCir2pUh9zhorky7eelU1F9/res6pK4hHjbao+xL3mKoP/OEPlTXfKjpKhHJQZ4AFFxzP0xiPtm9nw7qAYfXvMOSIhF59WJ0I0lXyYJh7/sRRvFxP4BPNSpqDJ3AMd7myZujjhHXXtf9m/cwugbLkwumnkJuPjNa/l2Wxwq5zqcudKI0s+b0t7YS+ni/uzx2cmFz1tQ9p0Q1EQaV+TgDW9qPF95nZFNkm7kg6+BEEKIlFLJlbEQ4jnPCWB4DWJ0YKSCBt2gkCXUmwUtyubsr2/9/f0JCAigQ4cOXLhwIbvDEULkATn5M1GIj1r8ngAuxIOqZGV8Srx6qxk1aIB3AeDRDZbczb743hY+N4BbWijQ3psBbyXb9JwKUd4q8ec0nZeqAO3aGLx8qnS0w0EPtA8fEpbe1WgUZnSZWSLp3ofPLrHhmg6MHPmuu+mr7RZl+KGuAegi2bIiM5cB1bBz5g2iUFFxSHXsI2OJiEh8RJq70dJRge5uCGueJXWsgpIDmr5KLH7Ih14DIYQQQgiRasbFoEXj56vJ68FXM2HqGPDO4YlFIYTIDvL9rBCZJP7SU2IBY6dCvDGgV2lOOVsFPIglJFCTQ5ah1HAmIAYdSj6p/fYcgG9K03npG2L7RqUq9BSARkN0ekfuGlhQ3e49FcQ+4p4asCpAtTeSdCpqlDaCbfE8vBqNFoNMukjUcPxaAqDj+LeTsfw2qTJxhD2EdzODBpSsk5LMIh9+DYQQQiRNC4fXwo0PrfiqAvc2UCQn/KkWQmQPLTy8DZFAIQcwlksuIYR4hyQXc5nYWDXDh+8kISG93cFypxo1HPn88/LZHUbKaXTZHUEGUWTeN7xKPUxz/EWeAbUmNKW7TRKzeKnMqGuX1DFKjE2T2p5U0Y/hNRBCiBwmAWZ1h2VRHyhjBMs+hSIp/TzOZJGRsfTps4lLlx683Hb79lOuXt3GqFH+L7f161eVHj0qZUeIQuQeOjg4HQb8BqfvgQ4wKAith8LMIWAj115CCPGSJBdzmfnzT3Du3D1atSqV3aHkSD17rqdt29IYGWX+r76BqxlG3CMm5A6xOPOyD5r2Cefv6kBhiFOp510hDFToAbqEN4foqkOiiOM9b1Tli0RVRiQgVVQoY4xiRyTXDzxC+83753BM1XmlkSKjZtI3ssJGD0IjH3IsHpxfdrXUcORiLKCgQAnTd89VX4EC0GrTm6RXUdVJD65qUBcqT6+e+umsTwghRIYxhKVPYenr23QQdQ+Ob4TxC6HDQuiYQxKLAPnzG+HrG8iPP9bG0jKpxcBg3bpAFi48LclFIdIpeB60GAstRsDUWvD7p1B+MlwaC22VsHsIyJWdEEIkkuRiLlS2rA39+lXL7jBypKFDt2dZWwb1y1DWIJijl0/y+9WarxY+8fdnw0PA8hM+t31RuCC2+nAz9DrbY+vRxgggir/m3yOBpN+oSmtD9IGY8AjUFCKFA2jfy+7b0jjOPMKt1euZ80sv+hd+lXLT3r7PFVNrSlmk8rzSQmlCPiUQFck1LVRIz7fCJq60cNrMqauhTF0UTaeXC7oE8Nu+eFCY07zDu6+ugWt+jAjnycVbxFIAkzQHoKLxgKKYbg/i+M9bOdS5Be6vjyXXRnPo0DOq1baWD2MhhMgJFJDPFhr0gtJGULEvNPIH5xzUQ6lz57JcuvSApUvbvrMvIUHDwIFb0Wh+zobIhMhF1LDkT6g1DRZ1B0UczFeBWzv4yQHK9oHjA8FdsotCCAFIclGIzGNSgXnf7KXqrEf84jaLAy0+oWjcXbZsDuOxTo8aE5pS/cU70KQ03cv6cfx0CJ1L/M2ntfMRcSqYgzcVvK8PoEHtUrjoB3N6z3rqdbtFsxKGqFT5afxtBWpYpD5cpYsHy7+5RL15YQwsPoW/GzhRyUHJg8Bb7DkWR9MDQ1hZXZm680oLExeaFN7MqZAAPJsY0K2eOSYKJSVautOhfGrv7vLxw+zSzG4WwIm+Mym91oUaNrGc8AvifIwC8xbNGZ3EStF6NavR0Pwy649uwu3T6zQqqodewU8YPKZsqm8wDTzb8EfTGXyx7SR1rK/h3rgIJfLFcePKfc6fe8QDG3cibngkvyq2EEKILFWwGhTpB2fe6Pme/RYu9MbRcSo3bz6hSBHzN/aNHLmbJk2csykyIXIRDYSEQR13eHtAjZELFL4P4Rqk66IQQjwnyUUhMo2SijO/ZZvpMnrMvsW+lafRKRQYWhakzbgOrOj9+goeRvRe3xL/uptYe+Mma1coMStWimlzEhj25VU0SVWfvzJr/gjBY/Bljv1zkCPP6znXsHxiEjDVVLjP7c9x17V8Mf4KF7Zf4IxOgcrQkKJ1qtCr5Is6U3NeaWHOuHWNOeG5lz27T/LrrsStDg8q0WF66vsQGjVpy/mVRrTsf47TO85zSQcqI1Mq9GjGuoWlkl5h2cCZpZvr0ND7EMe3nCEIwPAu1UeUTcMNpgldtg7EZvgq+sy7yeH1ZzmgU6DS18PSqQhdBpZLR89IIYQQmSUuBG6bgFkO6rUYG6vm+vUI+vatys8/+7NoUauX+xISNEyZchi1WnotCpFuSrA0gzv3AZc3d4X7Q2BhKJbD76QTEhJQq9XJFxRCiAyg0Ol0yU7Y1qrVcho3LiZDbT8CM2YcISQkgunTm2V3KDmSsfF4Hj/+IUvmXBR5S2DgA6pU+ZOoqOHZHYoQmW/QoMR/p0/P3jiEyETBW2DjU+j1GUl/EZUNjhwJpWbNhZiaGqBQQEBA35e9F0eM2MXZs3fx8+uczVEKkTus7gTD7eDcVDCKg842cKUS3DoBnothYRsyb8HCVNiwYQMnT57k5s2bhIWFERYWRnh4OE+fPsXV1ZXz589jZ2eHvb099vb2ODg4ULJkSWrXrk2lSjI3a55z5Ai0awehodkdichlJMMiPkx3n21jejNuxX5OXnlK03/use5zs+yOSgghhBAiUzk3h0HZHUQSHBzyExr6Hf/732lGj97D3397k5CgYdKkQ8TH/5Td4QmRa3hOAMNrEKMDIxU06AaFLKHeLGhRNvsSi48ePWL9+vWsW7eODRs24OXlRdWqValRowZ2dnYvH1ZWVkDiAoXh4eFvPJ49e0avXr24d+8e3t7etGrVCg8Pj2w6IyFEbiDJxRxq377rODtb4eCQdTOxxV/05c8QN771dH5tnj8lZi7NGTy7MwcGdycky6IRQgghhBDv06NHRYYP38XNm0+YN+84ffpUze6QhMhVjItBi2KAGu6FQaPvoYM95M+meRb9/PxYsGAB27dvx8PDgy5durBs2bJkj1MqlTg4OODg4PDG9gEDBnD79m38/PyYOHEi3t7e9OnTh0GDBuHo6JhZpyGEyKUkuZhDtWixjMjIOFxdrdmxo2uWJBnjTi/hl52GfPV6clFRAPfOvUBzicsGSHLxY/HsJF4ld3M8PvmiyoKl+Pd0Cxqld7npPEHL0cF/0mrpU7Svbd23r8cbpdasuUifPlso92Mfdg4yztoQhRBC5BmeniXw8dnBqlUXZYVoITJaFCz+Acb+AyFPQQcoTcD9c5g+CSqbJ1tDhjh+/Djff/89ZmZm+Pj40KRJE06ePImXl1e663ZwcOCbb77hm2++ISYmhl27dlGjRg3atGnD5MmTMTCQGwQhRMpIcjGH0mgSUxeXLt3H0XFqliYZRS5gUhm/W5WzO4pcSEn1ab0Jn/bunsDABy9/btu2NG3bls7CuITIBjNmwPXr2R2FEHnHokVvPt+4kYUP/of57mp8WjgGWrVK8jAhRFrkY+PpafwYfYJhpQ5T3TQSI50poZFu/L2sJZ6bZ3G+ykGsMzGCG8+eMSQ0lBB9fX6ZNInatWsDULZsWYYOHcrs2bMztD1jY2O8vLzw8vJi7ty5mJma8rObGyOkF2Pucvo03L6d3VGIXEiSix+JTEsyxm+jr2sXVjzRQXwUj+N347BRH1RO9PE7zNiq8isihBDiLW3bQvHi2R2FEHnL2z2IihSBxo150hggP+CQxEFCiDTRFGHDwSdM8Qmmk4kNYANABe7R9NYFKs1uyeH6xrTMpFul3/ftY87x40yYOJE2bdq8sc/Y2JgmTZqwfv16vL29M6X9Pn360KdPH0b//DOVNm5kYevWVJIkY+7QuDGYmmZ3FCIXkszRR+ZFkrFUqYJs396FwoUt0lehQT3G7z/Dj1odUWu/ov7+Thya2hADhR5m1vLrIYQQIgl16iQ+hBBZ7NGrH93cEh9CiIyXABaLQfFVP7B8a98pUPqCVd+SkAnzL3bo0IGy5cpx6e3eyq/p1KkT//33X6YlF18YPXYsQ3x8aNasGQMGDKB79+6Z2p4Q4uOVXYtciXQKDHxAkSIzcHWdza1bEemoyQhLewccHR1xsDJCaVoAB0dHHB0KYS5TbAghhBBCCCHyGj1o1QLGtIP5G+FsIFwJgF3L4IseYP81WN+AoCAIugZRuvQ3qdVqKV26NJ6ennz//fcfLNuiRQt2795NdHR0+htORr58+Thw4AC7du1KNi4hRN4lycUcqnRpmxSU0nH58sMMSjK+nzYhjrjYONQ60CbEEhsXjzoD/oCKtAkMvJ/dIQghhBBCCJF7xcOcqRC4G3q3hAquULIsNO4My8/BVh8oVQJKlIASZcDvWfqaCwoKQl9fn3///Zd27dql6JhOnTqlaLXojDJ//nysra1p0qRJlrUphPh4pGjca3R0PKtXX6RQoXyZHY947tGjmBSV0+kSs3yBgYlJRltbE9q0KZmmNs0+X0vY529vjWPdFwVotzwaHUAPG4y/KsfPJ04xxk2GTWeHli2X8/RpPMOG1WLQoBrZHY4QQgghhBC5iyHMDIBftCkoqwAbk7Q3FRoaSvfu3Xn69GmqjuvYsSM//fQTvXr1SnvjqTRgwACcnZ3p0qUL//77b5a1K4TI+VKUHSpd2pp16wKZPPlQZscjnrtzJyqVR+gABXfvRrN7d0gGRmJIm2VRaLPuSzGRjAcPnjFjRjNmzjzKlCmH+P57d0kyCiGEEEIIkYEKFoGCmdzG48ePKV++PKGhoak+tmbNmoSHh3P9+nU++eSTjA/uPTw9PQFo0qQJ27dvz7J2hRA5W4qSizNmNGfGjOaZHYt4TbVqCzh+PKVLxCsAHdWr29OpUzmWLj3P+PH7GDmybmaGKLJR1aoOHD/+NXv3XmfIkO2SZBRCCCGEECIr6CBBA/oZMIirbNmyHDt2LM3Hd+zYkeXLl/PDDz+kP5hU8PT0JDg4mO+//54pU6ZkadtCiJxJ5lzMoe7eTb7nokqV+N9Xvbo9Ot1ojhz5CoCaNQuzYcPlVCQnxceqXr1POH78a/79tw3//XeOwoWnMn36kewOSwghhBBCiI/amfFQ2AMua15tu70eqtmCoTGU9Ib9D9Nef7NmzZg7dy729vZpruNFcjE7DBgwgHv37rHoA6ui2ppCAAAgAElEQVRaCyHyDpk0L4d6+DD5WYGrVLF7mVB827ZtXXB2nsmjR8MyOrQPun49ggMHbnDrViTh4VHExiYQF6fBzs4Me3sznJ0t8fR0ydKY8oIXSUbpySiEEEIIIUQ6aWDrBijZA0qonm97CiO/BU1bWN0QNoyFzj4Q8BfkT2X1HTt2xNHREQ8Pj3SFWaJECczNzTlx4gRVqlRJe0WaG+xb5k9wwntW7dT7hPqdGuD0VvZg/vz51K5dm/Lly1OpUqW0ty+E+OhJz8WPjoIaNRzf6KmYFEtLY+bO9aRTp9WZHtGtWxGMHr2HChX+oEGDRZw8eYenT+MpUcKKli1L0ahRMSwtjQgOfsT27cEoFKNp3Xo5S5eey/TY8hrpySiEEEIIIUQ6aeDKDaha5dUN87N9sEUBE6ZAm/bwx3RQboWj8amreseOHQBcvXqVH3/8Md2h9u7dm507d6avEl004cFXCQoKevm4HHCK/VvWsnb7US4FhfP0PYvbbNmyhS+//DJ97QshPnrSc/GjoaBGDQcOH075amAdO5Zl69YgFi8+Q7duFTI8othYNT4+Ozh+/DbNmhVn8eJWuLkVSva4GTOas25dIAcP3sTHZyeTJnnQqVO5DI8vL5OejEIIIYQQQqSP9rWOfBf2QVxNqPl8ZWh9e7CJgicpWVH6NUOGDOHPP/+kXLlyzJw5k4oVK+Lr64uTk1OaYuzUqVOajnuDXmk6jJpAh7e3x93Gf85kdjvXorRB0oeamZnRuHFjfvnlF4YPH57+WIQQHyXpuZjjveipOCpVicUXFi1qxQ8/7EzD6tMftnDhSSwtf6NECSsOH+7FqFH1U5RYfKFVq1JMmtSEo0d7sXHjFVq2XMaTJ7EZGqOQnoxCCCGEEEKkmh6ULQ5+yyBCB7oIWOQLVT3A7HmR+Otw2xYcVB+q6E1LliyhTJkylCuX2LFiwIABrFixghYtWjBv3rwMP410M3SgfrfGaDds5qL6/cXGjBnDqFGjUKs/UEgIkatJcjGHql27MOXLF0pzUvF127Z1pWnTJRkUGfTrt5mQkAhiYkbSv3/1dNXl4JCfpUvb8uuvjShadDoHD97MoCjF6yTJKIQQQgghRAop4fMhED0HnJ3BuTgsMoAfO726gd7jBxZNwU0/5dX6+PgwYcKEN7a5uLhw4cIFgoOD8fb2RqPRvOfo7KEwNsE4OpKoZHpoTpgwgSFDhmRNUEKIHEeSiznU1q1fcPZs7wypq3x5W7p0KY+Pz4501/XFF2txdS3IhAmNMiCyV8qUsSEi4geGDdtJQMC9DK1bvPJ2ktHRUZKMQgghhBBCvM22NRw7AuN7w7cT4OgBaPDayi3N58DFWWCSwvqmTJnCZ599hq2tbZL7J0+eTP/+/bG0tGTTpk3pP4EMoSMq4BL3ijljl0wPzX79+rFy5UrCwsKyJjQhRI4iycU8YujQWpw8Gcbu3SFprsPLayk1azrSt2+1DIzsTQcO9KRfv834+V3JtDbEqyTjf/+9SjJOm3You8MSQgghhBAix7CpBN8OgZ6fQr4oiEnl/Iqv8/Pz45dffvlgmcaNGxMZGcnixYvp379/2htLK10Cz6JjUL+ca1JBvqp9mPlLO5xSMPx76tSpTJs2LTMjFELkUJJczEPSMzz6+++30bChE99+WzWDo3qXv393Bg3aSnDwo0xvK697Pcm4bFkAjo5TJMkohBBCCCGEDg5Og8p2YF0EihUBC1vo+DvcS2WS0c/PDxMTExQKRYrKr1y5kooVK1KiRAlu3syKaaN0RAUsZ0T39nzW4TM69v6NrTfigQSu71nG6mP30CVbBzRq1Chnzh0phMh0klzMQ/T0lKxb1xEvr6WpOm7ZsnMYGKj47ruamRTZuy5d6kuPHuvR6VLyZ0ykV716n3Ds2FcsXdpOkoxCCCGEECJLxP77F0aK0Vh1uE1OWwokeB60GAtlh4L/IfjUAr6bDLHzoe1USEhFXWvXrsXLyytV7ffs2ZO9e/fyxx9/pC7wtNDexG/BZmjiw+9Tx9GzxDX+95c/j3R6FOAaq1ccIDwFt2WmpqZUq1aNXbt2ZX7MQogcRS+7AxBZy9PThW3bgunbdxOlS1un6JghQ7bz+PEPmRzZm/T1VbRuXYrvv9/O1KlNs7TtvKxu3aIcO/YV+/bdYMiQ7UyZcpjvv6/J4MHu2R2aEEIIIT5qsazqv5J5t4oyfnU93HP0XYiWkAUb6LVcQ6tZrelfWvpj5DlqWPIn1JoGi7qDIg7mq8CtHfzkAGX7wPGB4J7CxVzWr1/PmDFjUh2Gvb19skOpM4TmLuGxNWjfwZ3SeuDaw5sDAy8SrGlKZZdSOIRd45Ya7FNwvp6enqxbt45GjTJ2jn4hRM4mfynzoJkzm+PqWpCLFx9w6dKHH4sWncHHpxZGRll/BTh4cE2WL79AePjTLG87r3uRZJSejEIIIYTIGLHsXHUN/02XOBGf3bEk7/rGi+zeHcj6KzKKJk/SQEgY1HGHtwcyG7lA4fsQnsJFnQ8ePIiLiwtWVlYZHmaGUVpjY/qQ+1GJv++K/FaYq58RowGFQoFCR4qGRQN4eXmxfv36zItVCJEj5ejvDEXm6deverJlHj2KoW3bFYwZ0yALIkranDmfMmnSIem9mE2kJ6MQQgghhMhzlGBpBnfuAy5v7gr3h8DCUCyFd9Lr1q2jRYsWGR5ihlIVwaOFMb9NWYxh1+ZUtEtAh5aEqDuc3LSXW06NcUrh+RYuXBgrKyvOnDlDhQoVMjduIUSOIclF8V7Llp2nTBmbbI2hdWtX2rRZIcnFbCZJRiGEECIv0BLuuxnvvmc5fTcBtU6BytiE8p2asX5BOQq/GPOkDqVtwYX4xhVl+eMedDB6vv3ZKapbbOBYvrKcuNeOynoQOXQq5pMjX2vjDgNNRzPw+TNlaQ+eBNQiX2rCvOWHXZETPC1VGKuQUG7FK7Fv24Tvnu7jx+3RqPVM+XT+t/j1eFWr9uopPm+9k3WBz4jVgELPAIdqVViwvgnNCj4vc3oN1pXO8/qSgrtaj3vVc83orfMlFv/hy+g+6xahUVq0CgWGlgXwHNeBFX2s37rRSmBBtd/4+rgBHbd4YT5yM/+ciSZGA0p9QyqN6M3RUZapHlamvXqKzq12sv7y8/NSKjE0N8d9cDu2/eTwPIYE5lb6lb6nDWk82IGrf17jZrQWVPo41KnNqk31qGHyZr3x547xeec9+AXGEKvRodAzwNG9Bks2NqRe/jciIGSpH58NOc+ZOwmodaAyzkfF7l74zS6F7WsnpA0P4Ktmfvx3IYY4rQIj28IM6p6O5Zczkz7UrgbD18AvtcAIIAEme8HAE+C5GNxSeCcdEhJCly5dMjPaJMXFxXHnzh2KFi2afOGEYyyavYfLMTomnlr1cvP+L46iZ1WBbqM8sE3ZWjQAtG/fngMHDkhyUYg8RJKL4r3WrQtk2LDa2R0G3t6lWL8+EG/vUtkdSp4nSUYhhBAi94rd7ku5dhd4qDCkVONyVLeJ4cSmYE7/7Uv5B/rcWl8qdUlAIN9Xnswu/JgEbQwrf97L4WgzWv9ai7oGiftNS5fE5MNVvFd00GOqdSqNxdoAzq/egk9+W9p1sWbv0utsHu7PlW4tcFECj87QqOIG9kQrsXIrQbsKhtw+eIU9hw7h6RbHwRstqKEHyhLu/DHTgdsaLUELdzMnQIdLz0Z8Wy4xQ6YsYE99gxetazk9aB4eM56gNbagTvtPKBp7l61bw/HtO5+6ykEc6p3Uq5XA1o5riDawo03/alQsEMdZv/OcvhWDllQmF9U36ea+gRUPVBSqXoqmFUyIv/2Q8yfCOLIxjPiXycUXYtg54wZlejTFt40pl/7awShff+rXMSTkZA3sXlR7ejulqx8iWKOPk7srdV1U3DsRxI59+2hULo7jwc2pqJf4GoRMWUiZIWHEGppRtYUrZczjCNgRxLF5KyjzqAuhy50TE3Pqm/SquJr/3QXzsiVoX9mAkF2X+X2SBh2k+XcgM3lOAMNrEKMDIxU06AaFLKHeLGhRNuXzi+3Zs4fp06dnaqyvO3nyJOvXr+fChQtUq1aNo0eP0rBhQ77++msMDQ2TPkivLJ3H/46n5tXgZ4VCiZ6RBXZF7DBLZdbA0NCQq1evpuMshBAfG0kuiiRFR8dz+HAojRsXS3Md8Tu+oWizBcR/sZGw/3nynj9lyWrVqhTr1mVMclGjyaHfjn5kJMkohBBC5DZRTOwfwEOdiipzB3C8t2ni5ohz1LX3Zf/GLYy+4cLkoqnrW6d0KUlfF4AILv22l8MxptTvV4MBGZBN0q/YEL9/KvHw2xsU+SMKx6++YMVkA6ad+ZXvAsPwjwUXEy0Xhu1kbzSYNe/Ajc0lExOk2if8Wm4Gwy+epvdcD84MMIJ8drTvbwdo8d+9hzkBOgq3qM6gVqp3G392hm/nPUGjsmLE2X6ML5H4usTuWomdx0UOj9zG8V5tqfrO3ZaaSOOKHLzhTY0XicqRTdJ0/tpbZ9nxAJQu9bh0pC4Wr+2Lj9VgkMQxpo3bc2KhC0ZAq0+dUJWdwrBTexl0pBoraiiBJ4z57DDBCYY0XTOYrW1edNNUs917Ek03nKDPksYc7qEPkafpMDyMGCN7Zgf1oq/D898N9R2+KTyfP1dtZuKM/oyyhYjZm1hyV4dhFS+CjlehIIA6jF6OC/jrbppOP9MZF4MWL26F9OCrmamvIz4+nqdPn2bZfIv79u1j+/bt9OvXj0KFCr2M4cqVK3Ts2JHFixeTP3/+dw9UmOFYqjSOAJoYIh49IVZnSH4rS0zSkDGws7PjyJEj6ToXIcTHRRZ0EUk6evQ2DRp8kt1hAODu7sj58/cypC6VSomFxa+0a7cyQ+rL62ThFyGEECKXeHaJDdd0YOTId91NX223KMMPdQ1AF8mWFersiy8JhrYW6AGW9oYoUGJZxABQ4GilBHUc4WqAWJbuikaHEU1HlXjV81JpzsD+tuij5fKqq8Smsu34PQFciAdVycr4lHh1S2XUoAHeBYBHN1iSZNJMQckBTV8lFtNBaWqEsQK0oYEsPB33xj4DoyQSouhRsVsxXo7qxpRercxREMOBf58voHjvBP8F68C2NL/Vh4iI2OcPNRW6OWCKhgDfW6iBZ0tPcDoezBo2oINp/KuyUeb0bmwM2gg2b1IDajavfogaFRX7VaDgy3DsGdPR7J0FU3KEBJjRFdq1e8+jMxyMS76a8PDwl0m+zLZ9+3b27dvH+PHjKViwIMePH2fLli2EhoZStmxZ1q5dyxdffEF8/HtWVIq5zq55w/myw2d06f4lX/boymefdcdn1laColO3sJGdnR1hYWEZcFZCiI+F9FwUSQoLe4qFhVHyBbOArW0+goIeJV8wBdRqLbdufceECfsxM/uFvn2r8dtvjTOk7qxiZpYBV6MZ7PWejCNG7GLx4rMMH16Xzz4rk92hCSGEECIlYh9xTw1YFaDaG5caKmqUNoJt8Ty8Go0WgxzTO0Glr5cYi4ECBaBnCKDAQF8BaIkDUEdwLUIHChPKuL4ZuUFlK/IRTsSdh8QDqbnyjb/0lFjA2KnQm8cpzSlnq4AHsYQEasDh7SSfASXrZNC1nE0dfm99hk6+YQyt9Cs/mhhTqHABqrSqzfTxpSj6zp2ePo5vvQYmxUzQ5zFPrt0jHnOUAXd5oAPunqZigdNJNmtwPwI1cP/0U9TA083/YW2ZVEkFj29pAR2X72gAI4pXfrN9y7L50CMyqYOzlwLMCkDB17POOnh6G/z3QrE2YJiCrGhYWBh2dnbJF0ynqKgoDhw4wNixY4mJiWHYsGEEBwe/3N+5c2c+//xzxo0bx59//km/fv3erEAXxdE/RrMovBrtBn1GSTtzDDTRPLh+hu2rFzBqtilzfepgnsJMsCQXhch7JLkokhQW9hR7e7PsDgMAc3MjEhI0PHuWgImJfrrrs7AwYtas5owb14BRo/yxsprI6NH1GTAg+RW0c4KMeA0yS926Rdm/vyf79t1g9Og9zJ59jNGj69OwoVN2hyaEEEKITKcjdf2bMseL9FVOiOVdSoxNky+VMka0X/M9DY6c5vfZF9l9JJyAq6Gsm7iczVs9uHKqFm+OYteheavTmlbz/P/srZmDVEXLM3PkJ0kOrTYv6/LG9oJen/KrdxK3lUoVzo30gISc2TvxQ/Sg53TomcSuJ/ug1R9QJAWX5FnVc/HSpUsoFAqOHTvG33//za1bt97Yv3TpUtzd3SlevDhjxox5N7mouczRgJL0mvYt9cxe/W8VcylLpWJaBow8SqC6DtVTeBtiZ2dHeHh4ek9LCPERkeSiSFJcXAIlSxbI7jBecnOzpXz5uejrJzXEI20sLIyYMaM5o0fXp2tXX37+eTdmZmmdGTLrREW9ZyhDDlK3blF27+7G/v03+PzzNTRuXIy//26V3WEJIYQQ4n2MrLDRg9DIhxyLB+eX3fE0HLkYCygoUMI0MXGn1MNQBWjVRL9eR+wTHr535LQCRXZkmPQsKGahgMfPCLikheqvsm3xJx8RBRgWKvBOEk2pUPChZKmBqxlG3CMm5A6xOL86XvuE83d1oDDEqVTGXbe+n5KCNSrze43KiU/vXsCjxGp2njvKjPu1mGr7etl4gk5q3ngNHp5L7H1YwKlg4jmUsaWg4gohsfo07lkpcUGc97B2M0OPKOIU1nTv5fSBG0sVrvYqCI4n6KQWyr7efhQ5a7B98sxrgHMPOBIPLZO5dYiIiOD48eNUrFgxVW189913dO3aNUVlQ0JCWL16NcHBwZw4ceK95S5fvoyTkxOVKlXi5s2bFClS5LW9JpiavOc9qlCgNMtPvlS8fw0MDKhXrx7379/H2to65QcKIT5aklwUSdLpFNy48STF5eP9+1Ks8VxuJ7VeyiIvjBa9vkGBVffULfISGPiALVu6YG6evqHa5crNfeO5v38IP/20m4QEHdOnN6VkyZz/x69LF9/sDiFFZsw4wujRe2jatDhDhshCL0IIIUSOZuJKC6fNnLoaytRF0XR6uaBLAL/9v707j7Ox7v84/jpnFmPf94QsIcxElrRoUVSEJOFu153qrrvuNiTLr6i7u0X7XnebopKKJFulO8qatRCy7yLMPuf3h2RpMI6ZOcO8no+Hx6Nznet8r8+5SF3v+Xy/329SIFCci7r88egQLEGtkgHYsoVxczO4vkkQyGDRI3NZftB2wThKFQTSE1n5O7m4PXAc3c4vzCOv7mDswMXs2GdDl2eeWU8qQep1qvWXKdHlS0YBqWxakQ78NSSMPecU6sf+wvc/z+DRxafv3dBl0iQ+3QyUrEb38n/5WPbasY1fdxWlarl9EsDyVYgvGWD8jsw6NzOY+/z3rL7lTCoDpK1l4Ac7CBFHi+7Fd59SpjHdTvqWQb/M4drXzuHbG4vuNw0+adEK5hY9gSYVgxTq1piEO0cx/YvRDPrpFvrXCe53rZXfrSGt+QlUD0ZzUecyRE9ex6znZrPpmr0bugwc/nse7TCF3zdD8gHFZSTC7PdgbBp0z0LYFhcXR0JCAoMGDTqiax8ukNu2bRsTJ05kwoQJLFu2LEtjli69u3Fk6tSp3Hffffu/GXUipzfdzFODX2Vn+zOoU7kEsek72bh8JmM/+IZSbW6j+IY1rAEIFqRk+ZIUPMz3nzBhwp/XlHT8M1xUpipWLMK0aVlfJyMQXZBixYuzY99wMS2R33elEoopRLGC+/5RC1CsYEyWp0ekpKSzc2cqzZqdkOV6Duerr5bTv/9XQIiBA8/j/POPnWm70dF5ZaWjzD399Pf07/8VXbuewuLFt1OmTK49PUiSpLAVodez9Xi2zXym3/o09T6uTfNySUwftYS5iQGKt7uIAX/OsY3l2s4leOiRrQw791nWX1SJYmtW8uX0ncQEIfN9LmLodGYhHlm2jWfPGEpS18qULxCgSPwp3N6udA6u4xik/r9b0fK9kXw1ZhjVTq3JxafGsvrbRUxanEGwYiOe/8eB0WKQkzpWpPCbvzC372t0WV6HBqWiiCpzAtf+/SQqBoFCCbxw09c0eWYLg+Of4dt21aiavJ4xn69hayia5oNa0yyHn7TSZo4h/pzFRNWoRItm5ahSOIUlkxcxYUWIqBoNufkv+VSAjIUTqFt3GZc2K8jKST8xeX2I2IZnMaTFH78DwRIMGHY675/+HVNuGkKl56pxTqOihNZt4af561mwMoOWI3oxvgNQohHDB83klHvXMKDBfxh2VnWanhhk8/LNLJi7gWXbyzJkW09uLwTFbr6Yqwe9wevTRlOr4c+0bRTLrxN/5n8byZtTppPhpmrw3o6/vhVTBq5/Hs7OwtKZFStWZOfOndSuXfuoS0pLS+P7779nwoQJTJ8+nfT09Cx/9uSTT6ZRo0asXr2axo0bExV1QGCeNodRIxeyKnEBz/448q8DLOvNTa//8c+xLbjvvfs5+xA9H+vXr6dcuXIEg3n7uUVS9jFcVKYqVSrKmjW/Z/n8mLMeY8GWx/Y7ljLuJqq2eYWUbsOOqEvxQNm5/mMoBC1avMbGjTu5554W3H5782wZNzdt3Lgr0iVk6qmnptKnz0Tq1y/LzJl/p3r1TFf2liRJeVTchZ2YOzyOS2+bw6xxc1kYgqi4wiRc14aRr9bZu9MyQao/2I1Hp71F30lbmPThVmJLluOqN5oy59pxTMt09CCNX+zCvYuG8/T0RTz70KLdR+tF0aPdGfuMnQNKJTBuZgZ/6ziOkXMW8fZsCETHUun0Frz66YW0yOSJKLZ9J97p8V9ueHsDHzy5nuEAcVU56dqT6BK3+/uc+vTNjC38Htc9u5Jvhs8iFAhQoGQZLnuwC8N65ug3AiBYoy6XNlzDZz+v5vNfVpIRgmBMASqf1YJXR7bKZEpzQdo9XIvFg+cy9M0MiIqh4plnM2zMGVTZ59zoxheyYHZpru8+iZHzljLsxxCBYJACRYtQ/5J47jx9TxwYpPrdPfi56hi63DWHGV8vYGEGBKKiKFK2NOffdAaX7Amgok/klRmdCLUZzbvzF/PO3ABx5atw373pPPHI6hy/V0csFh7+Du7dJ78LBCC6EFSpDsWy+BRdqVKlo157cNGiRYwfP56vv/6aHTsySTv3ERMTQ3x8PNWqVWPlypUkJiZyyimncPnllxMVFcUzzzxDt27dMvlgI3q+8DrXZGShjzQQR4nDPNitXbs2VzaykZR3BEKhUF7tRFcYnnpqKsuW/caQIW2Oapyff97EXXd9yahRmfzHJ4v+DBevPrIp0Af6+uvl/Pe/s3njjaNfs69YscE88MDZ3HPPmUc9VqSUKvVvvvvuBurUKRPpUoD9Q8X3378834aKP/20idNOe5kdO/pEuhRJ0nFq6tRVXH75cFat+lekS9ExJZXnGz3MrbPiuHr+3bxZz26y3LJ9+3aqVKlyxAHj5s2bmThxIuPHj2fVqlUHPS86Opo6deqQkJBAfHw8H3/8MQkJCVxyySV/OXfAgAG0adOG5s1zvrlizJgxvPHGG4waNSrHryUpb7BzUZk6+eQyLFu2lQULNlKvXmTXIRw2bD5Nm1bOlrFSUzO47bZjr1sxL9o3VJw37+Z8GypKkiRJmSlWrBjp6ens3LmTwoUPvU14cnIyU6ZMYfz48cyePZvMeoACgQA1atQgPj6eU089lXr16lGgwN4Wjnr16vHMM88wYMAAChcuTK1atZgxYwYZGRm0atUq02AxedtvZBQrcdg1FI/E2rVrqVSpUvYNKCnPM1zUQXXsWJePP14Y8XDx448X0q9fy4jWoL0MFSVJknS8++Vj+O926HMNFAR2LoI3P4LEE6DrlVApJmvjVK9enQ0bNlC9+l/XeA+FQsyfP58JEyYwefJkEhMT/3JO5cqVSUhIICEhgYYNG1KkyKGn3N92222sWLGCpUuXsm3bNjp27Ei9evWIi8tskcQM1n8xkN5fl+HCTp1p37I2JbIhIdi4cSNVqlQ5+oEkHTMMF3VQHTuezFNPfR/RGmbNWkurVidRoULOr1ujQzNUlCRJOSLjNwa3fI2nFmUc/txgCW4YdwOD6x9nU3u9B3lLBnzyOMy6gd07iW+Hu1rDh7FQahO8MhNmPAmH7kXcrWHDhvzwww/7hYsbN25k3LhxTJgwgXXr1u13fpkyZYiPj/9zqnM4Oy6feOKJnHjiiVk4M0iVtv/i9qgRfPjmfXz6bl3O73A5HS88lYpx4bcyTp06lTvvvDPsz0s69hgu5lPz529g3bpDLwgMsHTpVj76aCGdOtU94mvEXvASa9NfCqe8P9177zjuu+/YXR/xeGCoKEmSclSwBH0m30W+XrU4R+9BDLfM7MctOTL2cSoN5i+FM5rv3s161zcwMhY++REa/QANu8GUf0OrLOwY3bFjR4YOHUqXLl0A+O6773jiiSf+7FIsUqQI8fHxfwaKlStnz3JQWRUoXIVml/+TZpd2Y97ET/hwxMPc/H5FWrS9nE5tz6BGsajDD7KPlJQUvvrqK8aOHZtDFUvKiwwX86Hx45fy8MOTCQQO/9OoUAjuuefLsMLFozVu3C8EAgFatTop168tQ0VJkiTlYyFI+2O36B+/guCZ0DgOCtSEE3fA1iw0mQK0b9/+zx2aExMTWb9+PRdffDHFixcnISGBk046KUvPZTkutiz12/Sg/oVdWPbdaD768CXuGvE2DS/sSOeOrWhQNgtJKjBq1CguvfTSHC5WUl5juJjPbN2ayBVXfMCWLfdl+TN9+05k6NA5dOvWMAcr+6vXX5/Fo49ekKvXlKGiJEmS8rkYOD0BHn4Q6neGF9+G+EFQAEhbDqvKQqUsNvTFxMTQqlUrxo4dS+vWrenYseMRlTJy5Eg6dOhwxF8hbMGiVD/zSu4+syNXzf6SER98yIC/v0e1s9pxeadLaF61MIeKQkeNGpW79UrKE1yoI59p3fodxo792xF95vPvbJgAACAASURBVKGHzuPRR7/jxx/XHf7kbHLTTZ9x7rnVSUiokGvXzO+eemoqhQsPZujQucybdzPff3+jwaIkSZLynwBc9Tg0mwedr4QlTeHBrrunSK9aCWf9AxplcUMX2D01+rPPPjuiErZs2cI555xDamrqkdWebQpQPqEdNw96mdcevZ6E5G946q6nmJx06E+NHj2a9u3b506JkvIMOxfzkQcemMill55MkyZHvo7H7Nk9CQYHkp7eL8fb9gcN+oaYmCj+/vfGOXod7TZkyBTuv38i9euXs1NRkiRJAgrUg6Hz4a00iN7nqbl6F3j1CMdq27Ytr7zySpbPHzp0KPfddx8jRoygSZMmR3i17BZNiVrnclXvc7h87VqSDjE7esqUKVx00UWH3dFa0vHHzsV84ttvV/DVV8vp2/fssMfYtq0XDRq8wNq1v2djZfvbEyw+++zFOXYN7TZkyBQKFx7E++/PZ8GCW+1UlCRJOeKDD+ZFugQpbNHRkJ4Cu5LDH6NixYqccsopvP3224c996qrrmLSpEmsXLkyDwSL+wpQsGIlSh4iQXjkkUfo0aNH7pUkKc8wXMyjhg+fx7Bh2fc/Ym3avMMXXxzZdOgDFS1agG+/vZ7GjV/mm2+WZ09h+7juupFs3pzIvfeeke1ja68DQ8WpU3tQtWqJSJclSZKOQxdf/A49e46mVq2nDRl1bEmFMQ/C6dWgYBwULgjFq8IVA2F5ypEP99hjj9Gnz8H3A588eTJly5alY8eOR9TlmD0yWDvlfd6e8At7vlrS6mmMHv4+IyYuZEva4UeYNGkSoVCICy+8MEcrlZQ3GS7mUddeO5KuXT+kVKl/8+GHC45qrE6dhvHWWx0pXDhrO3wdSokScaxZcxcvvzyDbt0+Ys2ao+9i/PDDBZx//pu0bFmNJ55ofdTjKXOGipIkKbclJqZx223N+M9/LqR374mGjDpmTHkAOj0DdXvAu5/CF5/BEz1h9YvQphfsPMLxSpcuzY033sjjjz/+l/d69+7NoEGD+PXXX7nsssuy5wscidB6po74mF8yShMDsGsmrz4wiLfH/48xL/eh9+tzOcxSi/Tp0yfT7yYpfzBczKOCwQCh0J7dnYeHHTK+/PIMypQpxGWX1c3W+t55pxPt2tWmSZOX6ddvIvPmbTjiMcaN+4XmzV9l2LB5vPLKpVx7bUK21qjdDBUlSVKkdehQhyVLbjdk1LEhFYYNh+5vwet9oXNbaH0J3NAbvhwKacNhShjdi4888ggDBw4kPT0dgGXLlnHqqadSsWJFvvjiCwoVKpTNXySL0tewYl0l6tUpRgBInvcVU6Lb0u/ZZ3iu70VkfPs1Px2ie3HYsGHUr1+f+Pj4XCtZUt7ihi7HgH1DxhIlCvLyy+24/PJ6h/3cr7/+xuDBk1m+/I4cqatr1wZ07dqA556bRteuH7JrVyrt29fhwgtrULp0QSpXLkalSkXZtSuV1au3s3r172zcuJOhQ+fy6ac/c+21p/LUU21o1uyEHKkvv9uzUUuDBuVZsOBWA0VJkhRxHTrUoUOHOowc+RN33/0lffpMZPDg8+jcuX6kS5P2CsG2XVAjk8eUuCpQbhf8nhHe0I8++ij3338/J554Is8//zwjRoygdu3aYZe6cOFCZs6cSffu3cMeA4BQOukZAGksm7uQ4Ck3UTMWYipVpmzSHHYc4vv26dOHmTNnHt31dWxJWcB5JYYzKXHvofI9/smaV0pGvIMt6Z3XKHHVSgpdcSMbhlXOl6FXJO5BfrzPx6z9Q8Y4Xnqp7SH/Ryw71lnMiltvbcKttzZh6dKtfPLJTwwbNo/58zeyevV2SpSIY/ny36hcuRiVKxelWbMTuOaaBD76qAvBYM7uOp1fGSpKkqS8zpBReVo0NK0Pjw2Cts9BQqndh9N/g3f/D+bVh4Zhrjj1r3/9i9NPP50NGzYwb97Rd+8+9NBDdO7c+egGiapOnZPWMfy9T6l2ZiKfT9xK9atPIgZIX7+OTcXLUOogidHgwYPp1asXFStWPLoalPNSfqFPx8lMr9uCUY/V5qgWTYuuyoBnL6TNphAp302l/yc5t+mrjg2Gi3lUTEwUkJrpe7tDxiS6dh1Bz56jePHFv4aMd9zxBT17nkadOmVyodrdTjqpJHfeefp+x9LTM4iKivTPLvIHQ0VJknSsMWRUnhSEax+Hz9tBowpQ/gQoCqxfBUnl4JFPocZRPOKMHj2aihUr8uKLLxIbG37Ek5iYyNixY3n33XfDLwYgUIrzetzAjw+/xuD/pVPutKvo1bIUAUJs3gintD2LmpkkB0OHDmXFihU89NBDR3d95Y6UVXw4ZjmL51Um6WjDxWBhzr6+BWcDu56Zy0DDxXzPcDGPqlWrNNOmrT7kOenpGWzZkkSXLh9x002jeOmltgAsX/4bKSnpDBnSJjdKPSSDxZxnqChJko51hozKawrGw6cLYcpY+GER7ADK14ILWkO1Ikc3dqlSpZg7dy5NmzZl9uzZYY/z/vvvc+WVVx5dMX+IObE1975wIXelQ1TUnhlmAcqffQP/zOT8H3/8keeee45Zs2Zly/UlHduyFC5+8slPLF68Jadr0T7WrduR5XNDoRBbt+4OGWNjg6SkpJORMSDnilOeYKgoSZKON4aMyksChaHFZdAiB8auXbs2gwcPpnv37mF3Hr733nv0798/G6sKEBV1+LPS0tI4++yzSU3NfKadjkYSk/q8x7XPrGTVjgwyAgEKlCzNJQ92YdgtZfcGOGmr6FTmVUYkV+X9rdfRJe6P47tm0qzEp/xQpD7TN1xO4+hUhsQ/zJ1z9lk0c8X/KB74358vK//zXlYNyenNhDJYO+Jz2t/6I7PWp5IWChBVsBANu7bhk1caUCW497zZT3/E359cyrzVSSSlhggFAsSVKs1F/Trz/u3l9+u4zFg7nxvbjOLdeYkkZwSIK1+FO64Nc0HUfcddPJNuHcbzyc+7SEqHQDBIgeLFaXHn5Yx9YM8ahqk83+hhbp1VgFZ3Vmbxy0tZsTMDomKofNaZfDC6Jc0PuK0pc36ge7evGPVTIknpIQLRsZzQojlvf3YeLYvtf7+WDR3FFXfPZfa6VNJCEFWwCKde25ZRz9ah/D49XDl1D45UlsLF//znO/73vxV06nT4TUSUPXbsCGP7MUIkJ2dw9dUNs6+Q0EbGDuzJg8MmM2PR77R+awMjuxfNvvF1xDIyQpx66ovEx1cwVJQkScclQ0blB5dffjnbtm2jZ8+evPjii0f02ZUrV7JixQrOOOOMHKru4C6++GJ++eWXXL/u8S+DWXe8wAVPbSOjYAnO6lyNqknr+eKLtYy49SXODt7Bdz2PtG02io6PtSU4P4WM5CUM7r2EjSWq80i/kykAQIDqbeIOM8bRS/pyBA0un8fmQAHqtGpAs3KJTB/9C7NeH0HDTTGs/KQOu79ZGl++tJDpa+KolVCNuieXoOj2jXz15So+/ufLtOAOpt/+Rx6RtoIep37IG+uheP1adG4cy7IJP/Pof9IJAWHHpWkruKbFpwzbFEWFZnVonVCIlNWbmTt9DVM/W0PKAwdukJLI+Kd+5ZTrWjPissIsfG0c/UdM4pyzCrBsRnP2rEaaNutL6jX7jl/SY6jeoi5n145iw/QljPvmG85vkMy0Xy7i1GiADJY9/iqn3L2GpAJFadKuLqcUT2b+uCX88MIwTtnyN1a9X4O4nLwHYchSuFimTCGeeeZi/vGPpjldj/7QtOkrh50WvUcgABDgqqviadSoAsuW/ZaNlQQpWvsi7ny2G9/eeS3LsnFkheeFFy6hRYsqhoqSJOm4Z8io490NN9xAKBSiW7duDB06NMufy84p0Vm1dOlSmjZtyrJlyyhfvnyuXjtf2DWbm1/YRnpUKe7/8R88VGt3e1rShOFUvGABU/qOZVqPTjQ5osXtglS9oBG3XwDsSOb53kvYWLQSN9/RnGKH/Wx22cG/b5vP5lAUpz1/O9N6Ft59+Lc5nF1pBJM/G8OAX2vzWNUgEE3n16/nqsYnUHGf75kx+xMqNprFzMensPb2C6kI/PbsaN5eH6LAaW1ZMu00ygCkraHHCa/w2vrwq81Y+SPjNkGwdksWTj2bfZ+6U5LSM12rsnCrzkx/tTZxQIeLqxNV/3Hum/k1d0xtyrDmQWAbA6+Ywi+pBWj90Z18cdmeQDeNL9v/h9afTueWt1sx5boY2D6LLn3WkBhXiWeX9ODWyn+0Kaat46YqL/HyB5/z76duo3/5nLsH4XBBvDxq9erthz0nJiZIMBjkqqsSyMjoz5tvdsj+QgKladGtB53OqUfZo1rxVdmla9cGBouSJClf6dChDkuW3M5//nMhvXtPpFatp/ngg6PfaVfKVBq83x969TrIrwfgx3Ammh1Ejx49uOqqq4iPjyc5OTlLnxk6dCjdunXLviIO47PPPqN9+/Zs3rzZYDGHpHw1n3kpEHVyY+6ttTeqiTv3XNqXBrb8ytu5HBhli10L+XRpCOJO4F/XFt57vMQp9Do7FkLbGTMs7Y+DQao32ydYTEtjx/Zktlc6iXpxENqykXkpAGl8/uFm0oji1H8k8Oc2ttGVGHhlUQKEL1g4joIByFj1E6/O2v/fx9i4zNYNiObUa05ib/9nYXp0KE6ARL5954+NbjZM591fQlC+Ho+cA7/9lvTHrzQSrqlMYdKZP2IlacCuodOZlQJFzzuXLoVT9p67ozg9WxWEjN/4fHRajt6DcLihSx61bVvSQd8L7G5VpGvXhjkTKEqSJEl50IGdjL17T+Thh+1kVDYLwdKZMD1x76H0RFg+H1bFQPMm0DqblzTr1KkTDRs2pGLFinz99dc0aNDgoOfOmjWLwoULU7t27ewt4iAeeeQR5syZ41ToHJay8HeSgILVK7DfROVgcRqUD8CmJJb9lA6Vs7AwZl6StIUNaUCp0jTdr2Epiub14mBsCpsX7ySDWIJAypzv6drta8b8lEhiemj/sQqmsROAdH5elw7EUbPx/j1zJesXIZrDN2sdVLmzeLTjbLqOWMM9jR6md6GCVKhSmtM6nMmQh+pQ9S8pWgwn1N2/hkInFSKGrWxbuoEUihOcv55NIWD9LE4tnfkmSLEbfyMN2Djrd9KA3z9/l7IlMzszwNaVGUAo5+5BGAwXjyF7QsW//a0Bb711WYSrkSRJkiLDkFE5Kgb6fAZ9Djy+C969Gd5qBGfmwDJ1tWrVIikpiTZt2lCzZk0GDRpETEzMX85777336Nq1a/YXcIAZM2bw9NNPU7duXUaOHJnj11N2CBE6/El515aZnNNsDFOSY6h5walceUFFTiwRRSB9PUP++T3zgT25fs515sXR+aO7OHfqLB59dgETp65l/uJVjPz3+3z+xQUsmnkGVffL8kKkH9DJnJH+x+/DAT+EiKrakKf7Vst0anXx+rX3O16m7cU83D6TyC4YRY3zo4HUXO9OPBTDxWNAzoeKITa+djFVenxBMgEKX/khm9+77I8FXiVJkqS8yZBRuaoQdB0M/z0bvr0Fzv1r7pctvvjiC4YMGULZsmXp27cvd999937vv/fee/z44485c3F2bxZz//338+uvv/LYY4/RsmXLHLuW9oqtW5Q4NpC4bB1J1NgbNGVsY+76EAQKUL3OH12LwWgKRAEZezr5/pC0jc1pHFQgJ9KomAABICPjIO28caUoFw2rtm/mhxSo8Wcwn87UBUlAgNK1ChMEdr3zA9OSoPTfbuDntyvsXcdv+/8YcivsvSlR1K0UBb+ksGRGBtTfm/ZtnrODQ9yCLApSpnljHm3eePfL9fO4oNaHjJ/zPU9tPIMn9lsZIIUlM9Kh2b417O4+LF29zO6STylPmcAiliXF0Or6RtQ+xAKFZeOLEs0OkgNlubZH9UOEdjl9D46May7maQECgQB/+1sDMjL652C3YoCyN4whKRQiFMpgh8GiJEmSjiF71mR87LHdazLWrOmajMoZwaJQZBtsTc/Z69xxxx2kpKSQmJjICSecwJtvvgnAl19+yWmnnUapUqWy/ZopKSncddddXHDBBXTu3Jlp06YZLOai2HNOoX4spP88g0cX7w3qkiZN4tPNQMlqdN8TagVLUKtkAFK2MG7unnMzWPTIXJYfrHUxWIgiQWDHdpZm47T+2LrFiAO2LVhJpou7FapLu+oBSFrFE//dJwr9bT6PfJMCgWJc1GV3hJaRmLa72W+/FDSdafdOZeF+/85Fc1HnMkSTzqznZrNpz+G0NQwc/vvRdW/u2MavGw64QeWrEF9yd01/HTuDuc9/z5/b8aatZeAHOwgRR4vuxXcfK9OYbicFYP0crn3t9wMbGklatIJpa3cfLdStMQmx8PsXoxn004FnZrDyu1Usy4AcvQdhsHMxj7ryygZs2bKTESNyvt39cDJSk0lNSSYtBBmpSSQlFyA6NpbovNSDK0mSpHzPTkbltK2TYUU81MylJ+mHH36Ye++9l7vvvpuXX36Z7du3065du2wbf926dYwaNYpRo0aRnp5Ohw4deOGFF7JtfB2BQgm8cNPXNHlmC4Pjn+HbdtWomryeMZ+vYWsomuaDWtPszz93sVzbuQQPPbKVYec+y/qLKlFszUq+nL6TmCBkui1QodpcWOVzZi6bzyUXxnJNy+IUCgSpdWkLujQMv+8s+vSmnFf8Zz75fjTxFy/n/KrRRJepxp0D61MjCFCEXs/W49k285l+69PU+7g2zcslMX3UEuYmBije7iIG/DHPuNCV9al5/1cseuc16q6rw7knwYopixk3P5XYKPYLL4vdfDFXD3qD16eNplbDn2nbKJZfJ/7M/zYe3ZTptJljiD9nMVE1KtGiWTmqFE5hyeRFTFgRIqpGQ24ue+AnAmQsnEDdusu4tFlBVk76icnrQ8Q2PIshLf64r8ESDBh2Ou+f/h1TbhpCpeeqcU6jooTWbeGn+etZsDKDliN6Mb4DUKIRwwfN5JR71zCgwX8YdlZ1mp4YZPPyzSyYu4Fl28syZFtPbi+Uc/cgHIaLedSrr14a6RL+kMzIq0tz+fs7dyff15Wj4I0N6Dd9JgPj/eMjSZKkvMeQUTml5CUw45JcvmbJkrz22mts2LCBDz/8kDFjxlC0aFHatWtH27ZtadKkCRUqVKBo0aKHHWvDhg1s3ryZ0aNH89lnn7Fq1Srat2/PXXfdRevWrXPh2+jggpz69M2MLfwe1z27km+GzyIUCFCgZBkue7ALw3oW2e/c6g9249Fpb9F30hYmfbiV2JLluOqNpsy5dhzTMh2/OA+ObMX0S77mq4kzeHjC7qOVNzWiy5BC4ZcdW4Ohn5/Fee2/Y9qY2SwBKLCeZvfX/3MKdNyFnZg7PI5Lb5vDrHFzWRiCqLjCJFzXhpGv1mHPNwtWPZtv3t/OhT1/ZN64OSwiQGzJslz13zNYd/PHjNm3ezH6RF6Z0YlQm9G8O38x78wNEFe+Cvfdm84Tj6wmXMEadbm04Ro++3k1n/+ykowQBGMKUPmsFrw6slUmU5oL0u7hWiwePJehb2ZAVAwVzzybYWPOoMo+50Y3vpAFs0tzffdJjJy3lGE/hggEgxQoWoT6l8Rz5+l74sAg1e/uwc9Vx9DlrjnM+HoBCzMgEBVFkbKlOf+mM7hkz9TyHLoH4QiEQqHDdkt26PA+rVqdxD/+0TQ3atJReOqpqSxb9htDhrSJdCl5UsGCD7F1ay/i4gxGlb1++mkTp532Mjt2/GXpb0mSssXUqau4/PLhrFr1r0iXkmXnnvtfWrasxoAB50S0jj0hI2DIqMNLg/cfhNmZtn/tIwa6PgDxme3OkMMyMjIYOXIkI0eOZPbs2fz666+kpaVRsWJFKlSoQPnyFahatTaLFs1h7dq1rFu3jnXr1lG2bFlatmxJjRo16NChA02b+owvhSeV5xs9zK2z4rh6/t28WS9/rzpowiJJkiTpuGYno45IOnz6BHxRAkodajH6AnBmH4jPtcL2CgaDXHbZZVx22d51+Xft2sWaNWtYu3YtP/ywjCefXMXzz/+dSpUqUbFiRSpWrEgwmL8DEEk5w3BRkiRJUr5gyKgsi4IbP4J/H0ONfYUKFaJmzZrUrFmTUqVO5o03PuTSS/PKcluSjmeGi5IkSZJyRJMmlSJdQqb2DRn79ZvE66/PZuDAc2natHKkS5Ok3LdrBm1Pnsi0lMOfGixTh3dmteP8CCwHcMQyfmNwy9d4alEWtscOluCGcTcwuL7dveEwXDwO7dyZwurV2yNdhiRJkrLZmjW/89NPmyJdRpYlJqZRqFDefQLdN2Ts0eNTKlYswsCB59K8+QmRLk2Sck+hxoxa2TjSVWS/YAn6TL6LnFkVP4ZbZvbjlhwZ+9hjuHicadXqJJ56aipjxiyJdCl5Utu2tYmJ8ScRkiTp2BMVFSAUCnHaaS9HupQsS01Np3fvsyJdxmF16FCHiy6qSefOH9C+/fusX393pEuSJOmYYbh4nDnllHIsXXpHpMuQJElSNmvSpDKh0IBIl3FEBg78ilAo0lUcWnJyGgMGfMWTT05lwIBz+PTTrpEuSZEWhJqnQfkikS5Eko4NtnBJkiRJyhHr1++IdAkHlZycRq9e4yhW7GFSUtJJSupLr15nRros5QUx8H/j4dZ6kS5Eko4Ndi5KkiRJyhELF26iXLm81f6VnJxG374TGTJkKq1b1yQ5+YFIl6Q8Lj0FkkNQqECkK5GkvMnORUmSJEnHveTkNO6550uKFBnMwoWbSE3tx6hR3SJdlvKqVBjzIJxeDQrGQeGCULwqXDEQlmdhR10pt6WkpHHZZcNYsGBjpEtRPmTnoiRJkqTj1oGdiqmp/SJdko4BUx6ATq/DlbfDvxKgWABWzYHXn4Y222DGE1A40kVK+5g7dz3jxi1lwoSl1KpVmrfe6ki9emUjXZbyCcNFSZIkSccdQ0WFLRWGDYfub8ErbfY5fglc2Rzir4Ipj0Cr2IhVKGUqJibIli338fzzP3D66a8aMirXOC1akiRJ0nHD6c86aiHYtguqnvDXt+KqQLld8HtG7pclZdUttzRl27beXH99Aqef/iqnnfay06WVo+xclCRJknTMs1NR2SYamtaHxwZB2+cgodTuw+m/wbv/B/PqQ8M81rW4bt0Onn566p+vN23ayYYNO+jTZ/yfx8qXL8I//9k8EuUpQm65pSm33NLUTkblOMNFSZIkSccsQ0VluyBc+zh83g4aVYDyJ0BRYP0qSCoHj3wKNfLYHMCmTV8mMTGdwoVj/jxWqFAsQ4fO+/P1jh0ppKRkcM89LSJRoiLIkFE5zXBRkiRJ0jHHUFE5qWA8fLoQpoyFHxbBDqB8LbigNVQrEunq/urTT6+kefPX2bjxnkzfHzNmMddcM9JgMZ8zZFROyWM/b5EkSZKkg3NNReWWQEGofx7ceh/07QU3dsqbwSJAQkIlSpYswGOPfZfp+3fdNZZLLz05l6tSXuWajMpuhouSJEmS8jxDReWmrd/CBVWhRCkoXRde/mN28dyh8OgoyIv7uYwZ052+fSdmcnwxmzYl8uqrl0agKuVlhozKLoaLkiRJkvIsQ0XlunR47k7gBpg8FR49DXrdA2tCUBl4dDAszYPp4p7uxSeemLLf8T59Jti1qEMyZNTRMlyUJEmSlOcYKipi0uCXndCrD5zRFP7+bzh1NsxKheJNoNZiWJAa6SIzN2ZMd/r3/2qf14uJiYmya1FZcmDI2LixIaOyxnBRkiRJUp5hqKiIi4KqJWDF1t0vg2WgXCr8ngaBIARDEIpshQeVkFCJ666L5/HHd6+9OGDAV/TufVaEq9KxZk/IeMMNu0PGRo1eYt689ZEuS3mY4aIkSZKkiDNUVJ4RDdf9A166Gob9AJt37F5jMXkrjH0eFjaE+JhIF3lwDz10HgMGfMWYMYspXboQHTvWiXRJOkbtCRlvvLERZ5zxhiGjDio60gVIkiRJyr+Sk9Po23ciQ4ZMpXXrmqSm9ot0ScrvkqH3TfD9Drjyy72Hh58AMRVh8GdQLQ+36RQrFkf79nW45pqRBvTKFjff3ISbb27CCy9M44wz3qBGjZK89VYH6tcvH+nSlEcYLkqSJEnKdYaKyrNiof+XcEv63kOBAMQUhhr1oHRs5ErLqu7d6/Pll7/QtGnlSJei44ghow7GcFGSJElSrjFUVJ4XgJNPh5MB0mDDGtgRgjKVoFgeng69r5IlCxEbGxXpMnScMmTUgfJwM7ckSZKk44VrKuqYsgPe/AfUKAUVqkKNalCyBJz1d5ixLdLFSXnDzTc3Ydu2Xq7JKMNFSZIkSTknPT3DUFHHlhB8dhv0/hFufw2+mwmzfoBPnoGyX8MlN8HGvLpdtBQBhoxyWrQkSZKkHFG3bhkGD57MRRfVcvqzjh2p8OlkePwH6Fpq7+GEJtA6HhpdCFNS4NICkStRyoucLp1/2bkoSZIkKUc8/3xb0tP726moY0sAShTbvYlLZu8FS0GpPP4knZiYSnp6BunpGZEuRfmQnYz5Tx7/K1GSJEmSpFwUDR3awcDL4aXP4MefYNF8mPAeXH0dVPo7lP0VliyBJUt3b/aSV/z2WxI33PAJF1zwNuvW7aBSpcfp23dCpMtSLggEDhKIR9C+IeOZZ77Baae9xPz5hozHI6dFS5IkSZK0Rwo89wT8tAN6Tszk/Xuhzr1//HMcvLcJriycmwUeXJUqT7BjR8qfrzds2Mngwd8SDAb5v/87N4KVKaeVL1+UggXz5nbme6ZLv/jidM4//206dqxD//7nUKFCkUiXpmxiuChJkiRJ0h4F4On5MDgrM4oDUK5QjleUZfsGi3uEQiGeeGIKtWuXjkBFyi1btyaSlpa3p8H37HkaPXuexgsvTKNBg+dJSKjARx9dQbFicZEuTUfJcFGSJEmSpH2UORHKRLqII5SWlgYEgL/O005MTOXFF6fnek3KPSkpaXk+XNzj+utPZcmSZjQXWwAABnRJREFULQwZ8j1btyYaLh4HDBclSZIkSTrGRUdHEwhAKJM1IBs3rsS3316f+0Up16xevZ1mzV6NdBmHlJycxoABX/Hkk1MZMOAc0tP7RbokZRM3dJEkSZIk6TgwYMA5lC27/wKQ9eqVZfz4qyNUkXLL778nk5KSHukyMpWcnMZ9942jaNGH2bIlkaSkvvTqdWaky1I2MlyUJEmSJOk40K9fS+bOvYU77zydokUL8NFHXZg9+2aKFSsQ6dKUw3buTMlz06KTk9O4554vKVJkMPPnbyQl5QFeeqldpMtSDjBclCRJkiTpOFG+fGGuuOIUihUrwGWX1SUmxsd+5a59Q8WFCzeRmtqPUaO6Rbos5SDXXJQkSZIkSdJRSU5Oo2/fiQwZMpXWrWuSmuqaivmF4aIkSZIkSZLCYqgow0VJkiRJkiQdEUNF7WG4KEmSJEmSpCwxVNSBDBclSZIkSZJ0SIaKOhjDRUmSJEmSJGUqJSWdvn0n8uSTUwwVlSnDRUmSJEmSJO1nT6j4xBPfGSrqkAwXJUmSJEmSBPw1VExL6x/pkpTHGS5KkiRJkiTlc4aKCpfhoiRJkiRJUj5lqKijZbgoSZIkSZKUzxgqKrsYLkqSJEmSJOUThorKboaLkiRJkiRJxzlDReUUw0VJkiRJkqTjlKGicprhoiRJkiRJ0nHGUFG5xXBRkiRJkiTpOGGoqNxmuChJkiRJknQcuPfecYaKynWGi5IkSZIkScewChWKEhMTYP78DYaKynWGi5IkSZIkScewypWLsX79vZEuQ/lUMNIFSJIkSZIkSTo2GS5KkiRJkiRJCovhoiRJkiRJkqSwGC5KkiRJkiRJCovhoiRJkiRJkqSwGC5KkiRJkiRJCovhoiRJkiRJkqSwGC5KkiRJkiRJCovhoiRJkiRJkqSwGC5KkiRJkiRJCovhoiRJkiRJkqSwGC5KkiRJkiRJCovhoiRJkiRJkqSwGC5KkiRJkiRJCovhoiRJkiRJkqSwGC5KkiRJkiRJCovhoiRJkiRJkqSwGC5KkiRJkiRJCovhoiRJkiRJkqSwGC5KkiRJkiRJCovhoiRJkiRJkqSwGC5KkiRJkiRJCovhoiRJkiRJkqSwGC5KkiRJkiRJCovhoiRJkiRJkqSwGC5KkiRJkiRJCovhoiRJkiRJkqSwGC5KkiRJkiRJCovhoiRJkiRJkqSwGC5KkiRJkiRJCovhoiRJkiRJkqSwGC5KkiRJkiRJCovhoiRJkiRJkqSwGC5KkiRJkiRJCovhoiRJkiRJkqSwGC5KkiRJkiRJCovhoiRJkiRJkqSwGC5KkiRJkiRJCovhoiRJkiRJkqSwGC5KkiRJkiRJCovhoiRJkiRJkqSwGC5KkiRJkiRJCovhoiRJkiRJkqSwGC5KkiRJkiRJCovhoiQdpW++Wc4VVwxn164ULrjgLX799bdIlyRJkqR86pNPfuaaaz5m3bodtG37Lr/+ujXSJUk6zhkuStJR+Prr5bRu/Q5z524gFILx45fSrNmrrF37e6RLkyRJUj7Tr98kOnR4n0WLNpOensHo0YupVetZFizYEOnSJB3HDBcl6SgMHjyZpKS0/Y6tX7+DZ575IUIVSZIkKb964okpQGi/Y6mp6Zx77puRKUhSvhAIhUKhw5105pmv87//raBy5WK5UZMkHTPWrv2djIy//jVaoEA0ZcoUikBFkiRJyq9Wr/6dA8NFgKioIGlp/XK/IEn5QpbCxUWLNrNlS2Ju1CNJx5Tu3T9i6dK/rmNz0UW16NevZQQqkiRJUn51xhmvZfqD74IFY9i16/4IVCQpP4jOykm1a5fO6Tok6Zh0zz1ncvPNn+13LCYmiv79W9Ks2QkRqkqSJEn5UevWNRkzZvEBRwP06nVmROqRlD+45qIkHYWePRvzt781JDp691+nBQvG8NBD5xksSpIkKdd9/nl3KlQo8serABCgW7cGzqiRlKOyNC1aknR4aWkZf4aMkiRJUiQlJaURF5elyYqSdFQMFyVJkiRJkiSFxRYbSZIkSZIkSWExXJQkSZIkSZIUFsNFSZIkSZIkSWExXJQkSZIkSZIUFsNFSZIkSZIkSWExXJQkSZIkSZIUFsNFSZIkSZIkSWExXJQkSZIkSZIUFsNFSZIkSZIkSWExXJQkSZIkSZIUFsNFSZIkSZIkSWExXJQkSZIkSZIUFsNFSZIkSZIkSWH5fyoTdpHUIBdMAAAAAElFTkSuQmCC;" vertex="1" parent="1">
          <mxGeometry width="1303" height="728" as="geometry" />
        </mxCell>
        <mxCell id="o0hQOcRbF2GJ9zcyyPmL-3" value="" style="rounded=1;whiteSpace=wrap;html=1;glass=0;fillColor=none;strokeWidth=5;strokeColor=#FF0000;" vertex="1" parent="1">
          <mxGeometry x="870" y="310" width="160" height="180" as="geometry" />
        </mxCell>
        <mxCell id="o0hQOcRbF2GJ9zcyyPmL-5" value="&lt;font style=&quot;color: rgb(255, 0, 0); font-size: 26px;&quot;&gt;$$\pm 5 \%$$&lt;/font&gt;" style="text;html=1;align=center;verticalAlign=middle;whiteSpace=wrap;rounded=0;" vertex="1" parent="1">
          <mxGeometry x="875" y="496" width="60" height="30" as="geometry" />
        </mxCell>
        <mxCell id="o0hQOcRbF2GJ9zcyyPmL-6" value="" style="rounded=1;whiteSpace=wrap;html=1;glass=0;fillColor=none;strokeWidth=5;strokeColor=#FF0000;" vertex="1" parent="1">
          <mxGeometry x="1160" y="300" width="160" height="180" as="geometry" />
        </mxCell>
        <mxCell id="o0hQOcRbF2GJ9zcyyPmL-7" value="&lt;font style=&quot;color: rgb(255, 0, 0); font-size: 26px;&quot;&gt;$$\pm 25 \%$$&lt;/font&gt;" style="text;html=1;align=center;verticalAlign=middle;whiteSpace=wrap;rounded=0;" vertex="1" parent="1">
          <mxGeometry x="1180" y="490" width="60" height="30" as="geometry" />
        </mxCell>
        <mxCell id="o0hQOcRbF2GJ9zcyyPmL-9" value="" style="shape=image;verticalLabelPosition=bottom;labelBackgroundColor=default;verticalAlign=top;aspect=fixed;imageAspect=0;image=data:image/png,iVBORw0KGgoAAAANSUhEUgAAAr0AAAIECAIAAACbgwEyAAAQAElEQVR4AezdPYxc2ZkefnH/wS4WGH5s4mjQTQkLOFKTkGAHC6tJYAWHbAZrG3DApgFLIZuRlJENOFjBC5A04EBKyDZs2FjBJtuZIQFkT7QwtOBwAieGxG4ocWCIbI5tLAzb8/8Nj1TTrO6uvlV1b9X9eIh3ak7dez7e89zzvu9z3lNd9Xtf5F8QCAJBIAgEgSAQBKoh8Htfa/2/t2/fvnjx4smTJ/fv39/c3Lz2/t/q6uq5Y/9cfH/zmmoqa6Kh5q2fYhQMAkEgCASBIDAbAotu1VLeIN4L/BsbG6jApUuXrl+/fvv27e3t7Z2dnb33/w4ODo5D5eL7m3uqbW9va6Kh5jrRlQ51e7xVrgSBIBAEgkAQCAIVEWgRb9jf33/48KEAL48g3gv8u7u7B+/5wdra2o0bN+7du/fgwYPn7/+9fPnyeELl/Z0vX1RTWZO1tTVA6ERX29vbutW5IQxkOLciQSAIBIEgEATqRKDvfS2fNzhHEMWvXLly+fLlu3fvCvAwX1lZuXXr1uPHjws/+PTTT589eyZhsLW1VU4i1FdtTMotr6qprImG6IVOMAkdrqysaGIIAxlOJ4Z++/ati5EgEAQWhoDMH2GkRdjsiVLuMlKV2fLC1MtAQSAITEBgmbyBL7D1v3Tpkij+6tUrWsoQCPCvX7+WDHjy5Mnm5qbQ7vqcohNMQof7+/s6N4SB9GlQQ1PAQJRxJRIEgkDtCKDmSDwSgBw4NJTzk/kjUoBF9k75V+4yUpWvXr2qIVve2NjQVQy29sfU4w4ztXoRWA5vEMK5D77A1t981tfXpRbevHnDuQjwbrnYkOjcEAYynEHLQcbOzg5l3KJYQ+Om2yAwKAQKV8DImRVqfvPmTSQAPXBoCAeZP1Z/584d54nk6dOnX54vfvgf83SL3Lp1S2VNNMT1OQ1dMVg0AhGRjUgqAjKRILAwBBbNGwRmfuT27dvcx4ULFzgOCQBbB/7l4sWLC5u2gQxnUB6HAhwTZahEMepRUoVIEAgC0yKALjAfKYHCFTByZqUTgZ+xowIODR0dyvyxeiFf5oCojwGMCfN0i+hQZU00RC3kCxlsoRGIiGyEVASztR9gzsaKtB6BKNhtBBbHGxg/2xaY+RE2z/g5Ao7DxeVCSAG6UebevXtH2YOcxHIVy+hBoEMIMCLhH11g41ICNF9bW8MVRHrxXuBn7KiAgwa3ZhbcAj8wFoPF+BERHKKY7aNHjwqBMBD6MvMQaRgEgsBkBBbBG2wCWDtvgjGwcKbO5hm/Hf9k5RZ5lzJ2NhQbsQeZVWpTfpFqZKwg0C0EmAzDYT4MfEQX7AoEdbYjhDOihmaE8SMiOASW4KRjRCBkIMotujU0dN+6zXyCwDQINMsb2DN+YBMgnYgxCMksmalPo+FC63J/nCAlqUphalPelYUqkcGCQBcQYCZs+fLly9vb24eHh5KIrKbQBVYvci9yElIdCASVbEvkOejjiIRuNHRxkZpkrCDQewQa5A0yk3KSkodAvHHjhs2HACwwe9tyoSRVKUxtqnKLJuKtciQIBAGRWDwWlcVmaKyvr9vuu8hqFkwXjH5UWC7FmKrDkRs3brhFQ3q6SD1vuyLRMwi0GYGmeAMPcv36dQcTdiF8yrNnz5brUGZ4BhSmNuUlHl69epXEwwwYpknPEBB9xeDLly+Lx6bmaODly5cvXryw3fe2PeJw5NmzZ5IfNKQVbenMKcmAehsJAkFgHgTq5w0sk9Hao1ML5cf92+ZTKFZdKM9XmogmJmVqJqgcCQKDQsCyF3cl3sRgExePRWVHA654205B/Wko9yAjQkP2S1ssR3lKSfUgEAS+QqBm3oAlsNW9vT17dAeNKL/M4VejdbNkCiZiOiZlalyPaXZzKtE6CMyCgFhr2Yu7h4eHYrBILB6z9Fn6WngbXJ/+EodynzKg8qA2A2jQwhXJgEGgJwjUyRu4EibKs6ytrTFU+cyegPR+GqZjUsX1mCYm8f5yXoJAnxEQX0VZsVbEtfhFX1Zg/S95ztMPbxbo/p07dzTd3d1Fg0xEORIEgsC0CNTGG5CG27dvIw1S+gySWU6rSvvrmxTXY79lmjdv3jTl9uscDYPAzAgwZEkFUVYPIq7FL/oqd1QkDh8+fChZggChQciQk5eOziVqB4ElIlAPb7AXRxpMw6mnjTj7VO6lmBpnappmZ8rckEIkCPQPga2tLZEVRRZlxVpL3eI/bZodui5ZggAVE3byggnJqXRI/6gaBJaOQA28YXNzs3xU6sGDBwPZgpum7ZeHd/fuXdNXiASB3iAgjkqtlb+gts5FWbG2N7MzEQSICZdPLMmmmJ05uh4JAkGgCgLz8gZRs5AGRmiDUmXIftSx/TJlczH9QU3clCOtR2B2BUXQ1dXVV69eXbhw4enTp9a5KDt7dy1uyXfJHZqmyYY6tPhBRbXWITAXb3A6KGqakwjKCBUGJaZs4qZsZ2b7ohAJAp1GwDK+evWqs4ny0WY5/E5P50zlpVX29/dN1pRRBzTizCapEASCwOy8gYtxOghBsVMEVRigmPi9e/dM/Pbt2wBRiASBExDowiWpBcuYpj3+aLPZjYlsCrpQPux8/fr1WPEYPnkbBI4jMCNvYGnFxdy5c0fsPN7vcK5IupTPWAFEjnc4E89M+4QAK757964ZWcz9/mizOY5JoQ4m7jorDnWAQyQITEBgFt4gOpYEJkuzR5nQ+0BucTS2aCYr1SntqRBpOQJR7ygCSMPowNFiPnprOGUT59DMd2tri4tTiASBIHAiAlPzhrdv3/IyjgMdCrK0Ezsd4EVQAAQshVENEIFMuaMIMOcRaVDu6CxqUZsVow6s2AYg1KEWSNNJLxGYmjcg46/ef9baUUUvEZltUhcvXpTdLZ/N3tramq2TAbfK1JeDAKIQ0nAUegnUsgFAHeyRjt5KOQgEgYLAdLxBaCxeRkGkLF3ktSCwurpqv6L86NEj+ChEgkCbERAjizkP+aPNYw+IW7MjCnUYgyVvg8BRBKbgDU7u7U40vnfvHjKuEBlDwCHFnfdfgA+obm9WxiaWt71DAMctH4QMaRh7tqgDcJI7HIMlb4PACIEpeINY6OQPE79///6ofQpjCNjDgQhQ4Bq7lbdBoCUIOLy/ffs2ZRznZ6HCYUyuXLlSUobyMTjE2N28DQIDR6Aqb2BFe3t7wIoVAWGyFIh2d3clPCfXrH43NYNAXQjIhJV84Y0bN8paravnPvUDIolVM9ra2kKzFCJBIAgUBCrxBo6mbEoYEiZeWub1NARANDqtOK1OrgeBZSEgIsqHyYqFNEx+BBKr5fugivebXDl3g8BwEKjEG+TeOZqVlRWGNBxoJs70jJuAAtfBwYHCGVVzOwgsEAG75/L3UEjDxYsXFzhyJ4eSZy0fdIghd/L5RelmEDibN+zv729vbxudo/EaqYIAj1wcDcolW1OlSeoEgaYRePHixaNHj4zClmXFFCKTEWDIsFKHD+QJFSJBIAiczRtK/JOvk95sL17t00xuE2jyNHZ47dMuGg0Ogbdv31qTpu0QbWNjQyFSBQFYMWQ1Nzc3vUaCQBA4gzeg2Ds7O2C6f/++18hUCBTQAAjGqRqmchCoHQGr8eDgwPGZQu2d97tDKQenFXt7e44t+j3TzC4IVEHgDN5QXAy6fe3atSrdjeqkAAGggU6hwKgQCQJLQeDoCYXc+1J06O6gq6urJWtYXrs7kWgeBGpBYBJvsEu2VzZMwh4QZpMCnW2KLPFsPaRVEJgfgRLwbt26hcvO39sAewCgVI2EzcOHDwc4/Ux5mAicNutJvEF2TjM75vgaOMwmoFtbWzs8PIy7mQ3AtJofAYb86v1vymQRzgzmxYsXyx7Aa/YAM8OYhv1AYBJvKF4G0e7HVJc1iwIg370sBTLukBEQ5MoKFPAEvyFDMefcNzc3pRzsAWLLcyKZ5rMi0JZ2p/IGtsFC2MnGxkZblO2mHpubmxcuXJDhdFrRzRlE6w4jgP0XQy7socMzaYHquBctQOo1EgQGi8CpvKEEOTFvsNDUOPECY4G0xm7TVRCYjIBkQwlyJeBNrpy7ZyLAkG2l7AFsq86snAr9R2CoMzyZN3A3u7u7MGEnXiNzIlC2ejs7O4Cds6s0DwLVERDeSrIhhlwdtMk1C5KAnVwtd4NAjxE4mTcUq1hbW1tdXe3x5Bc2NTAC03BJOQAhsjAEkmyoHeqyB9jb28uPXdWO7fwdpofFIHAyb3jx4oXhC7NWiMyPQAEzvGF+JNNDRQSwfxl1efWy9iq2SrXJCFy8ePHWrVvqgNdrJAgMEIETeINcejmkyCcia1wQ165d01shZAqRINA0AiWwhTTUjnNxjAXe2jvvV4eZTT8ROIE3lNgmry673s9JL2NWV65csfNz2FzgXYYKGXNACOzv78ulm3B4AxDqFbyh2HLSh/UCm966gsCpvKHsj7syjU7oWSANb+jEw+q6kiWk3bhxI+y/iUeJOui2gKzQGYmiQaAOBMIb6kCxWh/F14Q3VEMrteZCoHwisiy5uTpK45MQKMDGlk/CJtf6j8AJvOHVq1fmXTbHCpG6EHBUoauSPVaIBIGGEHBIcXBwoPMcUgChCeEey5e5zflXFU3olj6DQNMIjPOGwqDX1tYuXrzY9NhD61/G2LGoWcfXACHSHAIlf+6Qorkh0jPqAITiMBUiQWA4CIzzhhLSys54OCgsbKYF2ALywgbNQENDoPCGkksf2tznm+8UrcMbpgArVfuFwMm8wc64X9Nsy2wKb5BGbotC0aOPCJSzsBLY+ji/VsypwJt8QyseRpRYLALjvKGEtGISi9VkEKMV3hBfM4iHvaRJltXlRKwP7H9JGFYZttjy4eFh8ZlVmqROEOgHAuO8oaTQ8+GGhp5uAfbt27cN9Z9u+4TAkydPyonDVJMqJhzqPxVos1VeX1/XsACuEAkCA0FgnDegz2ZeqLRCpF4Eijcvf7FSb8/prX8IyBzcvHnTmpkqMmkFioZMWM+REQIF5KmezqhtCkGguwh8wBtKwu3ChQvdnU80DwK9QaDY497e3tWrV7e2tiqmqUqrEtJ6A0U7J1JOgsIb2vl0olVzCJzAG+JxmoNbz2tra17LplAhEgSqIPDo0SNRysnFh5VPeFeyWbIUJ9zLpVoRKK6yIp+rdeR0FgSWicAHvGGZigxm7PIRh8FMNxOtDQFniLdv3xarJpDOkmxIyrA20Cd2hMm5LyHkNRIEhoNAeMNwnnVm2jwCzY8gnXD9+vXNzc0Tt7mFN+AWzSuSEb5WeEOACAJDQ+AD3lCcztAgyHyDQOcQ2NnZEbTu378/pvmJZGKsTt7WiEBJ7cRz1ghpumo/AifwhpyMtv+xRcOKCPS4mmOL7e1t7OHosUX5jF5MeGHPvaR2whsWBngGagMCH/CGNig0EB22trY492nF/rJREYEalYE83EVO8+DgwLHFxsZGQtciYc9YQWDICIQ3LOfpO6XeP+7oKAAAEABJREFUm/7fdsP/RKBG5dy5c43+m5aHTVu/UdKm8zHSVv3QYXd39/Lly3r4m7/5m+Us6IwaBILAYBD4gDeUnBvnNZjpL22iDx48eD7lv6dPn95r8t+dO3fWm/xX/gC1UcT3Gv7XMG3bvv7hP+RyKrio9y//5b+cqkkqB4EgEASmReAD3nDx4sVp26f+bAigaNNuduWibShrliPdPXz4EGVsThy9f9Hkvzdv3kzJxKarvnjeNoM9futb35ptQabVPAj8j//xP+ZpnrZBoFsIfMAbuqV6tA0CRxEQZaelYlPVXzxvmypDc+vWrdevX5vRUUxSbhqB//N//o8h/tE/+kdosUIkCAwBgfCGRT/l8vk1Qe7EgXMxCEyLgMMlmZMnT56srq5O2zb150Sg8Ib/+T//59WrV2Xs5uwtzYNAJxD4gDdInlN6b2/Pa6QhBA4ODvRcoFaIBIGZEVhZWXn8+LGjpaQZZsZwzoZ/8Ad/oIc/+ZM/8Xr37l1JqeqfZtUkEgS6iMAHvCGb4GOPsOYL8Sk1AzrU7i5cuHDv3j258c3NzaFi0KJ5/7N/9s8ePHhAod3dXVsCz0U5EgT6isAHvMEk7WC8Zt0DoQkpwE51bt2EGumz0wjcunXLQrp///5xoi9omZoMhNfIAhAYHTtubW29fPny448/llD8zne+49hoAaNniCCwFATGeUM5Ii3GsBSFzhi047cLsMfdfcenFfUXhMCZH2XI0lrQk/jdMFiCYqFrXj/77DPP6PPPP799+7ZU0Nu3b92NBIGeITDOGyx9M7Sb8RqpHYHCG65du1Z7z+mw3whIBD59+lQiYfLiKbw/9ruYxXCcFuBtnpEjJArs7Ox4WMXkvY0Egd4gMM4bpvU7vQFiMRPhUwxUQFaIBIEzESgfZRB+NjY2zqxcltbh4eGZNVNhfgQKPzt+7OgI6fnz5+fPn3/16pW7z549m3+s9BAE2oPAOG9IvqHRZ1McTQG50YHSeT8QuHXrFsYgDlWfjkClcmGoCpHmEPBodC7H4HVMZBocYXgW7969u3nz5tbW1liFvA0C7UFgWk3GeYPlrgsrvpiEcqQuBEBqI2j7GN5QF6T97sc+9cmTJyeGpQkTLymHwlAnVMut+RFg0TopPlNhTDw4T+HOnTuuP3r0iNUfP9dwKxIEOofAOG8wgfX1da9WvNdIjQiULSD3UWOf6arHCAg8M8yuLLDY7wzQTdukWHQhaqe1ffjw4dOnT8uZxcrKSmlyWuVcDwLvEWj7ywm8odBne5226941/YrLKPB2Tffo2xkEygILb1jAAysgF6I2YbiNjY29vb1yZnH9+vWpTp0mdJtbQWBZCJzKG0qQW5ZavRy3UDFOpJezy6RagkDhDa9evSpZ9JZo1T81wHv4/vOnZ/IGc1eHR71165by9va2Z5QzC1B0RqLohwiczBucwR8cHBQ2/WH9vJsRAWAeHh4ClgeZsYs0CwLVEChHjQJVteqpNQsCBd4CdZX2Tp2ePHny+PHjjz76aG9v75vf/CafUKVh6gSBtiFwAm+gIjrstRiGQmR+BLgMnSTZAIRI0wiUZVbyW02PNdj+i3ssrrI6CJubm5988snKysqvf/3r/BRWddzGaubtchE4mTcUv1NC3XL1683oxYkXYHszqUyknQiUYFYCWzs17IFWBd4C9VTTkXGUabhx44ZW+SksIEQ6h8Ak3uCI1Pru3JRaqDAYnfs4pAhvaOHT6Z9KIpMdrXOxwlb7N8Glz2hk0TPwBso7s/BoRj+FpRMdut5ZieLDQuBk3mBZl4/wJOVQy3J4+PChfkIagBBZDAJlscV+G0Jb1NezeO91Ztl6/1NY5U8081NYM8OYhotH4GTeQA/ncF7jd4Awp7x9+7Z4GW5izq7SPAhURKAstt3dXcuvYpNUq45AsehCzqq3Ol5TZkgmcn19veafwjo+Uq4EgfoQOJU3oNIl1RnqMCfaAJQxXltb4yPm7CrNg0BFBFZXV0UjlS0/r5EaEXCm4AxXh/PzBp1I7r548SI/hQWKSFcQOJU3mEDZsuRbSkAxj5RDigLmPP2kbRCYCoGSMizLb6qGqTwZgULFnOQK+ZNrju6eWeBm81NYZ6KUCi1BYBJv4HcuXLggjYYOt0TdzqnBxQAQjMDsnPJRuNMIWHIWnuVnEXZ6Im1TvuBZS7Lh6NSkeKUxJCbzU1hHYUm5hQhM4g3YdNkl48ItVL0TKhXoCoydUDhK9gmBsvCScjj2TGe/gDQ4dnSGWztvoJPTJYcg+SksUETajMAk3kBvfseWZW9vLykHaEwrXIzdHgDBOG3b1A8C8yNg4Vl+drGx3/nBLD0UEiaXU9428WqI/BRWE8Cmz7oQOIM3jFIOjdpJXZNpWz+jZAMY26Zb9BkCAhYe6mCmbbdfKnZB0C8kDBUrqDansmTG3l5+Cqs5gNPzXAicwRv0zULYiX0zFuxtpCICSAPQQAfAik1SLQjUjoDlZxFairJftXc+tA4ZtSkjYQiZQqNy5coVNOVWfgqrUZTT+UwInM0bWEixFq/5W/CKIAOq0CyvAKzYKtWCQO0IWH6og269WpYKVSR1jiMgissBuA5JrwsQzw7by09hLQDqDDEVAmfzBt2xk7W1tcPDQwVvI2cisLm5Ca719XWFMyunQhBoFAGMf2VlxYJUaHSgfnde0JMAWF1dXeRM+ZD8FNYiAc9YZyJQiTfoxb7Z687ODtKtEJmAwLNnz3Z3d1UooClEgsB8CMzb2rZVF48ePfr0008VItMiAEDJBic+SzFqZxYe3OinsDCJpI6mfYKpXyMCVXnDtWvXyl8HZclORp89g0ide/fusXaFSBBoAwJ/5+/8HWqUxakQqY4Aoy7JBgnXixcvVm9YY03jPnv2rPwUlv0bh4xJ1Nh/ugoC1RGoyhv0yHJkOw8ODuJ6oHGaAEdC2LEOF3NanVzvPAItnsD+/r6kIGu1AkUXSfVz585dv379P//n//z7v//7r169cqvF6rdRNYgdHBzwfgrL1c8zffnyZfkpLMegsiDL1SejDxOBKXgDwluWqSR8KQwTsgmzlsMEjgrwAZdCJAg0igCKYLGJZxsbG/JbKMLly5exhO3tbacSUusC3kiBf/Ev/oWyW1opRKogYFsPSTXh7HXp4il7pkjDu3fvbt++baOydJWiwNAQmII3gMb2RfpdYWtrizkpREYIAOTu3bvePnjwgG0rRBaGwHAGQhGECpZ48eLFc+fOoQi3b99GBRBWuYQJODgd/973vnfr/d/1IRly7xMq59YIAWgrQw/mCm0Qjx7zK67YmQVvI8nUBsWiw0AQmI43AIXbQnWl4uN6oDESXri4Ff4FqRpdTyEI1I6AUCGRwAan6rnEPykxh2jaluU6VQ8DrMyWsbELFy60JNlw9BFwxfkprKOApLwwBKbmDTR79uyZoz65Mq5HvHRl4AIEUPDFPHIL/csynk7GbAoB0QI3nbZ3kQ/R18pW1RL1VjgsTMLFyIkIcHSjEwq4nVhnuRe5Hc+R23FmcfPmTSxnufpk9IEgMAtvYEIsqrierFQLhf9lvQABC3BciQSB5hAQ+IWKqfq3REf1pbX14K28RSkoR8YQkPkvoN25c6dQrrEKLXm7urrqhJSS9MFyMAnbGOVIEGgOgVl4A224HjFSgesp1qU8TDF9R8tIgxNHNtxSEKJWjxDATcV7S676nLa2to5WFggfPHjgyu3bt3WlEDmKgNALopJBdLJz9FY7y5R8/Pjx+fPnHWBJBvNF7dQzWvUDgRl5g8kjtlaqwpCpA9Jg+kBgt7iUQiQILAABi616vF9fXz/OaDGJ8hlJ1KHsARagdleGAM4og9gVnfkipEEiypnF9evXnWd1RfPo2TkEZucNpmqlDpk6mH4hDUBQBkh1Sc0gMCcCNsTlE/Vn9nPa4sQ8CnVQQa77zH4GUgEaxa7t2o/zrTaDgE3SuTzT7e1tK0TipM0KR7eOIjAXbzBnNiZqKrA0ZYUhCGs0WVM2WdNXVogEgQUjYE955mckHWeIH6cphjrIRkjISx+GOkBJ4nBk18KwK92ScobFKVHb+ek3v/nNPFZQROpFYF7eQBtRsyxT9sb7iKkudk2m0NcETdNktTFx01eIBIGlIPCHf/iHk8dFGsSSCXUcUkhuow5Xr15FIybU7P0t0y9fwdJ1u+aUXr58ubKy8utf/9pjRYZ6/+wywUUiUANvoK5l+vTpUzsbB2xiao8Zrqmh8OXs8+XLlyZu+pEgsHgE8Fcb4n/7b/+toX//93/f64niqP7E66OLWIVVXZLbtwf8MUmkwfTBAooe2LW14bGWdBQyZEYWjNlFgsD8CNTDG+hhW+NoDXUQU1EHmxgXZ5dWtjQpU0PhafdP/+k/ZZkKkSCweASEBLtJtnb+/HmU/d/9u393og4SCRVXqagpXupE7DyTaqjWM3HiY+ImBQRQKPRAMEIuq/zhjPwo32XZ9GBemcLSEaiNN5gJD7W/v89VyXn270tIOFOTMrW/9bf+lsn+xV/8BQqvEAkCC0ZAYJN8fvfuHVuT4UPZyYmfkbRoq+um29HXAOhwONtThry9vQ0oGAJBoU9iDYy+VnJ9fb1/E+zTw+rKXKryhorzwXBR2pH3wSS8rdi2tdVMwUQePXpEQ1P7b//tvzn+VEbheZzhuFdTjiwdAUuu7IyloGX4rMyikh2zK6U8ehX+R+UqBQfhZW3v7u7q2cqv0qq7dRivXThDNgUTh6FC/8QcDw4OkAZc0+KxhPo3x8xokQjUzBuK6ryP3Gk5s7Ax6rQ1Ut4UJIRNx6RMzRwZHi+jwOOwSd5HORIEGkXAMhPLLTmj2BlLQaPpyiOxlZSBGL2Vch+rMLo1oWBtv3z50iGISGNtlwU/oX53b2FFJihhw7SZs4l3dy5nam4lYJmWjZqWkIUkN6wcGRQCdU22Ed5AORsdZonhKssBWqZWrXKHhMKrq6uUp7OdHDMzKeUivAz36nQZpbh27Zq75Xpeg0ATCLAmsdxis+TwV3T2+ChiA+ogCpZblmgpTPvKWg3HeJ3K3b1717JHWabtpOX1AcVs4QlVlj4zVi2f5ph6lo3FYwmZOIqJeo5VyNsgUAWBpniDsVdXVxkkIs+RWabXr1/ngDoRXynJp1DYlovyLI2BccomdVS4V5uVkRFytUfvphwE6kJAkJP0kmTm6y05dnRaz9akyu4Kh9awwmxitTPe8pE6ZxZsuXQ7W2+taoUDAVC6HivCjZgt0FqlYaPKmDtvbCFZTjdv3tza2mp0uHQ+EYGu3myQNxRIEHlh+M6dO95yQJcvXy5XvG2hUJV6lOSdqUdtV1ia8onC4+AWxQj5IK72xGq5GARmRsCCFOQ0l/SywCw55QliuUpH1xIPdCKpZnkLsXRARJjDhKHbf8sGAAfiiKgKJXhiSMqDEghgS5ybWT969MhjxaWUI0GgIgKN8wZ6sEynpK9fvxZZvXW6JjDzhs+2qewAABAASURBVK3yQQyJShSjHiX5aApTm/LeThAVeB++FX+XoujNtmzClHNrMQjw5lhCWZCCnJhnsVUZWjpayK9S88w6FGAaRpd4Q6YZiJ4pdmbDtlXgbTAqO2wcSDIGH4JS25RcpD6cm2SwdKnHChBObJGjt3SsqFUNgUXwhqIJkmtpPn/+/Ch7QHWXHmgpQA154OKgqUdJPprCRfMzX3lzvvXWrVtq2pYxSIVIEJgHASuKN5dS5tmdlC03yBmdPkzDjOxQmYYrXWEP9KQtAjRKM5iLt+YycLFTQhpGe544roGvh+rTXxxvKDqJ0IU9lChr1Qq04q5NDGMudRbzihkwG0NTgBoGpZJdCPUo6e20gn/oQau7d+/qWSESBGZDwFpCZGWw+HSL00Z5tn5qbIUrMA2UGpuxZd/e3nZFPBaVaxyl9q4giSLQls54DwOnM6uvfaCOdggcj3XkuKy0Vj3QjqLae7UXzRsKoAIze3YQIP9Z3JBNDEfJE4m4InpDa1e3OjcExyFjKcHAm1CAGm/evKESKyoazvaqB6k/bfVsFMMpR4LAVAhYObisJg7L+PQ516R+ahSWK+FvkbMatiMes1mR2MUaR5m/K6Zn90w3SB4cHNCWzm0Dc/5p1tIDZzhyXFIy38xPYdUCa687WQ5vKJCy6uJxpGERXgeoLFzEFdEvXbrEXUpCWNBz5iE014mudKhbnRuCyzOcQe2fuDxqMJ6i1ZyvnD4PpROjcLL8l3IkCFRBwGqxSq0clXFZHLeuZanDGsUiZzXWuXjMlLCHy+8/70zhGkeZrSuKMXa+RdqPP6EhPV2k82wdDqQVfCRjwPXr9z+FxWeeNPFcCwJfIrBM3vDl+O//kxyzTDlNUfzOnTtysy472ZWEsF2Qhzh37hx/KgzzCGK8nYStw4nilgqqqayJhprrRFc61K3ODcFCDGdQ1VysV4oFOpY2ov75rHr7T2+9RADB5bWtGSsHk7aMWz5N69zapqr8P1XRHaRcwGZ95uLKImVkzhgMY8dmgBnGMNUj4DA9OFkurfhMzxeqypEgMIZAK3jDSCdRVuC3dp0a8Ee2XFySxIAK/KmDXh7B5sZO4vop/9xSQTWVNdGQ+9CJrpAS3ercECzEreZE/xQQAOiAqRi0ubHScw8QQGER3FZ9oKEiqkg/Bu/MER1nqrb4rM9cCoFoOgOBuICODpcuXRLqGB21RT7G7pbI522fpe65yW95ZOV7OxBBDjm+q26M+9Bfu3jDCFHLly+w5eKScN4vvviCIyhMAgNwvoAKnChuqUBU1kRD7kMnumIDuh0N0XQBdeBDkQbBgKqssekR039HERDexDzKC3jWqpWj3C3BEtBxpsru2OCIQMhAyPkxPQbIBBjj/PMSyXAFoBlUdgF0TuV1y9YEPAzGQEZ0JTIbAjJGnGfZ9vBd0J6tn7TqKwIt5Q3H4eYICpPggKxj7vVEcUsForImx/tZ5BU0hZLcGerAgdJtkaNnrPYjINBiCTZ2VEV2BTxrRrm7wu6sc/NCIGQgLH5zkQaQBWQCwrwJMkxRn5GaLwMh6qs2Ji66RXSosiYaYiGSGbgC0PByTQS2QhfwCQEPmXBxWdKbcUENXtjyXdAGbG+mlonMj0BneMP8U11KD7wkd2YHZnTmx/0pRIIABCwMh2hOsmzsRNmerQ0EQgbCHCUAzA6HEITM+vDwEI0Q9QuTKOeNThkQgjFxsdxlOCproqEeJDN0hWbZE0soIhaiWugCZOoVvgu2HpxunT0huLWki/QW6ToC4Q2LeII2TIU6cH+2TYsYMmO0GwFLwr7ZZs6OXDgUZdut7+zaiehmh0MIQsI8GiHei/pE+C9yWu/lruMblSUVNNS85CHQLHvi0xr+7nr+Py8CHhzah9oiuNaqFNG8PaZ99xEIb1jQMxQnHj9+bDDbJm6U71OODBMB3NEe2txFRNHUTk55IIJGiPeiPjH3IvjEiVLuilUqSypoqPlAgGrPNPmrQhrQXIdNnkV7dIsmS0EgvGFxsIsWhTrs7u7ygKEOi4O+NSN56FgC7kgje2gRUTZYeSiSeXYTAXTNkdMoaRr31c3HWJvW4Q21QVmlI9Th5cuXJenH9philVap0w8EPO4ef6ChH88os5iAQEmacl9O1qxk2aAJlXOrxwiENyz64dpusjq2J/Xn+FYsWbQGGW8ZCPC5LfxAwzKQyJgdRsDOh/taW1tzZnH9+vWHDx92eDJRfVYEwhtmRW6OdqjDwcFBsT3UQbJ6js7StAMI8LaD/UBDBx5PVJwGAe5LpqGcWdy9e3djY8Pp2zQdpG7nEQhvWM4jdKrN9pAGtP3mzZs2o8vRI6M2jACXeuXKlcofaGhYm3QfBOpAgPvish48eKCz3d1dKzx5U1AMR8Iblvas2R7qUGi7zWg+pby0J9HYwJypY2AHUo6lnj59mkfcGNLpeAkIbG1tvXz58uOPP5Y9dQaHSSxBiQy5DATCG5aB+pExGVv5ZpV8tcMRVFpTnEMRT5YzlU9yIOVIWDp3js7SNAi0EQGZhs8+++zGjRuUs/lxHifBphzpNwLhDct/vg8fPix/nymbLbrE8Jb/SObWgAPlRnXDpcoqca/KkSDQPwTkTZ89e3bv3j1T48GuXbsmzaYc6TEC4Q2teLjCDOrw0UcfOSxkeKEOpz2V9l/37K5cyQca2v+gomGdCDiDe/78ufM4p3Lr6+uSbXX2nr5ahkB4Q1seCOrwySefFMO7du1aOHtbHsw0enhq+UDDNIClbn8Q4LUODg6QBmdzkm1bW1v9mVtm8iEC4Q0f4rHUd1euXHEQ/vHHHxfOLggtVZ0qg6fOVwjYY+UDDV/BkdLwEHBm4VSufGArP4XV4+cf3tCuh4s6fPbZZ2vvv1YFc3dw2C79os0pCGxubtpjuZkPNAAhMmQEHj58+PTp05I65crixPq3GMIbWvdMC2dHGqT7pv5qh9bNpv8K5QMN/X/GmeGUCGxsbEiaIg3Fid2/f3/KDlK91QiEN7Tx8RTqkK92aOOz+VAnZ0n5QMOHkORdEPgSgfwU1pco9PS/8IZmH+w8vTsvLyeF+WqHeWBsrq0HlA80NAdveu4BAmzk8ePHziz29vYwbDy7B5PKFMIbWr0GnBSyOiru7OxI/UmJK0fagMDmZj7Q0IbnEB3ajsDm5ibSUM4s8Gw+7Wv513EEhsYbuve4WB3qkK92aM+Tw96uXMk3NLTngUSTtiPAXl68eFEOXvNTWG1/WhX0C2+oANKyq6AO+WqHZT+E344v0Srd+urVK6nXp0+f5gNfv8Ul/wsCExG4ePGiM4v8FNZEkDpzc9m8oTNALVlRhF2uL1/tsNzHwPFJtL57907S1eNwcrRcfTJ6EOgWAltHfgrrO9/5DoPqlv7RtiAQ3lBw6MAr6nD0qx1icgt+ZrI++YaGBWOe4fqHQPFj6+vrn3/+OYNiVg7++jfNfs9onDf0e7Zdn51cn2NCJmfLy+RCHRbzQPk1zm5nZ8dw9+7de/bsmQehHAkCQWAGBJgPP8aUtGVW165d+/TTT5UjXUEgvKErT+q3ehaTK58wQh3k/X57I/9rBgEeLR9oaAba9DpoBO7fv3/0p7DQ8a7DwVfgQw8fPjQ14hwTJRoTHtstYr4q25M0Meum+wxvaBrhRvqXaShf7fDo0SOJvkbGSKdf+xqc84GGLIQg0BACYurBwcHa+6/Vv3nzppja0EBNdCvkC/wYAH6wurp67tw5vuL69et3797dfv9vd3d379g/Hvv9ze2bN2+qfOnSJQ3hYO68DebRhKq19xneUDukC+oQq338+LHBSqLPIlaO1IjA5ma+oaFGONNVEDgBAQlUwXK0C7py5cr+/v4J9VpzCVcQ4+kp5Av8SAB+gP1QUGLSIbJksCMYwj9LqLyX3748ffrU9SJqEq0IdoFPyB9jHgBBRHCINuMQ3uCpdVU2NzctzfPnz1t2GGuoQ10PEpL8AkKmQ0Yuo8iYlSNBIAg0gYBdkJjKlb169Ur6QWyuPgprJdXrz1aTE+Bv+QFcQYynp36oivFwwnjBF198IdLTXMiXhCDqc8tHBSFwvYiaRKvXr19rzs+gERcuXDg8PEREcIjLly/zQpDRrbFaJeENrXocUytjaSINxd6++c1vYu5Td5EGHyIAQ/sGfgGqfBkj//B+3gWBIFA/AmIqoxOJ3717JzZXtDuMQWAW1KdTqHJtMZsmjiEcK9hICOqcg4wCz/DmzRu+QlznhOlQucvxijrX3ChohOm8fPnywYMHOIR6AHHqgUAAp7k5GmhaCW+YFrHW1cdJUQf29utf/9pqs5Rbp2J3FLJXkCrkueAJVebaHd2jaRDoNgIiqNgpKpuG/L9oKo4qTxBHBoKr4D2hzmy3aML8xWyaOIaQCZBaENQxCV7CLbmH2Xqe3Io/Nymj4yUyGVy6+jIQiAt80IszMVG/aQlvaBrhRfRvqVlnQp2Al29TmRlx+wbpQc1v3LgBT6gqR4JAEGgagVH/grGoLF5+9NFHiLvN/YSNkJpyANqiDgxWoRbRFcoi5yFa61Dkll0QrbGTRfoEUPBIlHGQ4RQDFOgLEtMG9hDeYGH0QSwyK0zAK9+mwqL6MKtFzYFT4BGKD2KiUoLwXNTgGScIBIEPEBAvP/nkk7IRkv8TsD+4/f4NPmFf/r745UstHo8LLYwBZdGpzIeY7aLsgrfLkkIU5DnQKezBWcnS2UN4w7IWQ/3jCnUCnrWua/vmo0blSuQ0BDigb37zm7Ys+UDDaRDl+sAQWP508XgB20aIKs74RW7kXrmIMm4hgpa3XpF+FxVmE1FZh3IMhTHYPGAMuIiYPVuHTbSiIT2fP38uBWLu2AOUKNnEWJP7DG+YjE/37lpGFj29Hz3KVzuA4QwBl5OdX//61zY3e3t73NMZDXI7CASBhSBQNkIPHjww2u7urhiJ4isTERTRVzgqJ6YljlY4rayhzjEPFey7MIb79++3ijFQbCQyIhhVyT04ubBFdGV/f39UYQGF8IYFgLzoISx6q8qoLMGSmoeG66THIiXD6pzs2NYwRb6jx5PN1DqMwIBVZ6QvX778+OOPxUgUH9EX5tGI45C4dfzi5CuICKuXz7B9t4k3kE5ayxiOzgVzwhVsES9cuGDDc/nyZW7/aIVGy+ENjcK7tM6tqqdPn0q8W1KhDscfAy4FFikZt9ie8x2bG+VIEAgCbUNAaP/ss8/EdRQf0RfmT9QQsWDIJ9468SL+wQnIWwi9shpd3DngCqgPZEzQsYXpIBPKTUt4Q9MIL61/KXekAXVgGM7vLa+lqdKygUEBkAIOdsX2WqZg1Gk7AtFvwQig9eL6D37wg8njogKTK5S7tg3cI/5R0gwcgqxGudW5V9kRyOA92A+fhmNNRZ5mm294w2y4daOVNWQlObl3fo+TMo9u6N2klvKQsp0AAQtwuI8mR0vfQSAI1IbAX/3VX03ui0WfueHmBu3Ly0mHcCsEFq1vAAAQAElEQVToCr2Tu23/XbzHvPg0TOhm87/0Ed7Q/iUxl4aoA8OwnvLVDnBkXfKcsp35QAM0eiSZSv8RkBdEC86c5+SUg7040iAFu7Ky8vLlSw7hzA67UgH7QR3u3LlDYSewdkTSKspNSHhDE6i2q8+S4hMpxUtR04a7XfotRBsmxF8wJ6PlAw1AiASBDiFg8+P8vorC/BtjP7GmW/biduT2UUKsPdWJ1Tp9EW0qH4qXUOHxToNizjmGN8wJYDeaow6I9q1bt6iLOvSJZZvRmcJH5AMNZ6JUZ4X0FQTqQ0Dws3uu2B9awNcdryygcn2uc4McApeo3EvZ3NyUSrlw4YK0CupgsrVPM7yhdkjb2yG6batNP9tua0thCGLW+UDDEB505thXBAQ/bKD67FCEscrc3d27d12UxucQFPotUikyNM5iGqIO4Q39Xj/js3NGWLJYA/lqB5kVmwwHNI5pGBJzGkdkGO8zyyDQUQSYsOA3lfLqM/ZRE6SBu/OW6ztOKVzvpfB1Mg1OZFAuxEu5xmmGN9QIZje6YkVPn/b/qx3kNlmLzIqnIssiddnjzKQ5RoJA/xBgtsWEp53aKKmAKIxIA9c3bT+drs/j4U8j6sAl1jWd8Ia6kOxSPw4L9/b2ylc7yGXVS0XbAIQZtfsDDW0AKToEgbYjINQh/evr64LfVLriCtpiD+V4QqZhaKShwNUQdQhvKPAO7lUWC3Vgje/evWOWAm1vIOAs8oGG3jzNTGTICAj2jlZtmjmoL7744s2bN8+fP5cuRSZu3brFcdn2nIaPAw5nlO6qqR+FYQrqIG0z+phkLSCEN9QCYyc7QR0YZKEOV69eFW47OY0PlS7OYuoPNHzYSd4FgSDQQgSEQIeP0qXIBH/Ffe3v7+MTr1+/xicePHhw7969Gzdu4BN/+Id/+K/+1b8yBaRBTYUhy+rqKqwKdaiFQoU3DHk5fY0dWk8sDQq4eacNTFqSTymnodwHim125hUJAkGg3wiIi2zfngGfYPjkj//4j7/44gubok77tBqfml1igcIJTinM03l4wzzo9aGt4MrMsHKTQR1qYaO6mlOmbS6NmQ80TAta6geBXiLAib169cr22qaolxOcbVLyNDZU2vLzHKbCzBLeMDN0vWqIgZYlhY2yum7NjfL5QEO3Hlm0DQINIcAb7O7u6hxpsClSiIwQkI8p2WUcQoJ2dH3aQnjDtIj1tr4l9fjxY9NDHSS1PlxVLrdUJCfR53ygoaWPJ2oFgQUisL+/zyEY0C6IE1OIjCGAV8nEHBwccPhjt6q/DW+ojlX/a8o0PH3/1Q6yfM4LW04dqEfJfKCh/+syMwwC1RDgwQ4PD9fX1+cJitWG6motORgH07TnOaVkFGaQ8IYZQGtBk8ZUkL/a68JXOzifywcaGlsF6TgIdA+Bhw8f8l0200+ePOme9gvU2HbrzvufzUSz7L5mGDm8YQbQet5Efk++YW1trbVf7cAv5AMNPV+FmV4QmAYB8a/kGLyurq5O03SIdaG0srLitALZmmH+4Q0zgHZCk55dYngvXrwo1KFtX+3g/DIfaOjZest0gsCcCHALTii4LIU5uxpCc6cVhTFsb2/v7+9PO+XwhmkRG0p9Cwt1GP19pi3+0mduSyHD5liOJvfu3XNKR0nlSBAIAkNGwKnlzs4OBEosVIiciYAj6fX1ddVmYFp95Q3QiMyLgKiMLoyog8OweXucoz3XkA80zIFfmgaB3iJQIh9PZV/R20k2MDHuXa+7u7u2iArVJbyhOlYDrWltPXjwwOQx+mVRBzrkAw0eQSQIBIExBMS8vb09F53Ze41UR8B5NLKl/rTQLYo3UC3SWQTQ+SV+tYPR84GGzq6dKB4EmkWgxDzxTxRsdqQ+9l7QQ7zQr+rzC2+ojtWga8o0PH/+/Pz5869evZIMfPv27QLgMIqxygca7ty5kw80LADzDBEEOoSA40sxj8Il/ilEpkIA2UK5NKn00RD13kt4w3sY8lIBASGciRbqsLKywmIrNJq9iv5HH2iQ7ZhqWc8+aloGgSDQHQSKWxD5xL/uaN0uTQvl2t3drf6HFeEN7XqELddmYV/t8OTJk/KBBgQFWZHtaDkyUS8IBIEFIyAfubPz5Z9ROMpc8NAtGa4WNVCu8qMVhYRV6TO8oQpKqfMVAhaZk7C1998K1dBXO/AC5QMN6+vrsg7IylfDpxQEgkAQeI+A3YX/8xJxEXCYR7hczQueCmdKeMOZEKXCOAIXL15EHeQG3RDgq6829SeLDYTTkNEHGoxirMlNcjcIBIFhIlD2x21KRnb1OfC6MruHh4cVnXl4Q1ef9HL1Fs6tsBF1qMV0pRbygYblPtaMHgS6ggB3cXBwcOHChY2Nja7o3GY9Nzc3qffs2TOvZ0p4w5kQpcKpCKAOdX21g67ygYZTgc6NIBAEPkSAx3ABabCHUThZcrUyAoU37O7uSvqe2Si84UyIUmESAg7GHj9+rMbOzo5TxiprTuUx0Ynzjs8//9xRpW2EfsYq5G0QCAJB4CgCZWeMNxy9mPLMCKyurq6trWlegFWYIOENE8DJrUoIIKpHv9qh+h/z6B3PuHbtWj7QAIpIEOg9AnVN0O4ihxR1gTnqhydXDm8AQmQRCIj9e3t75asdkFZWXWVU1fKBhipApU4QCAJHEXjx4oW33I7XSF0IFDwLtpP7TL5hMj65WxUBhwuvXr1CGt69e+e44czF53gyH2ioCm7qBYFGEOhqp2VPnEOKep8fH17+quJM7x3eUC/yg+7NCZkFV6jD9evXMYPT4MgHGk5DJteDQBA4EwHZTXXK/lghUhcCBVJufHKH4Q2T8cnd6RC4ePGiNTf6+8zyB9ZHu8gHGo6ikXIQ+ACBvKmAAA+jlp2xjYpCpEYEwhtqBDNdTYEA6iDTUKjD3bt3y2dtSvt8oKHgkNcgEARmRoAb0VZS3WukXgQKqgXhCT0n3zABnNyaHQHU4ehXO0gzuJIPNMwOaFouA4GM2UIESlQrEa6F6nVapYLq4eHh5D+LC2/o9FNutfJbW1ujr3b44z/+43xDQ6ufVpQLAh1BoIS0klHviMpdUnN9fZ26BWSFEyW84URYcrEeBBxSfPLJJ//f//f//ff//t/1iDo4m3SQoRwJAtMjkBZB4GvlQ5H5cENDS6GkHDjqCf2HN0wAJ7fmRUBG8R//43/8f//v/z137py+/v2///euKESCQBAIAjMg4MSztApvKDjU/lr2dSOcT+w/vOFEWHKxBgTGPtBQ/j5TEmwyk61h4HSxMAQyUBBYLAJl48GZLHbYAY1WDoAKzqdNO7zhNGRyfS4Etra2nEqMfnLi7/29v4cusPZ3795N/mqHuUZN4yAQBAaAQNkTD2CiLZ1ieENLH0x31ZLgwliP/+QEU8dhy99nohTHv9qhu1Nuj+bRJAj0GwHbDxPMIQUQGpLy+YbyIZLThghvOA2ZXJ8FAcxg8k9OOLwo1GHsqx1mGSxtgkAQGCQC4Q3NPXYbvDM7D284E6JUqIoATlDlGxpUG/195ubmpvxE1QG6Vy8aB4EgEAT6hkB4Q9+e6LLmM/aBhpLsOk0ZdGFEHRxqhDqcBlSuB4EgEATahkB4Q9ueSPf0EfXF/uMfaJg8E9Th5cuX5ae3NZ/8NSOTu5ribqoGgSAQBIJABQQ49tNqhTechkyuV0LgzA80TOhFTmJvb69Qh7W1NV1NqJxbQSAIBIEgsAAEeGOjTHDI4Q3wicyIwJMnT6p8oGFC76jDwcGBZfru3bt8tcMEoHIrCASBILAYBEr2d8KHT8MbFvMgejjKVB9omDD/ixcvvnjxolCHfLXDBKByKwgEgSCwAAQODw+NEt4AhEgVBCrVce517dq1aT/QMKFr1EFOrPx9Zr7aYQJQuRUEgkAQWDoCyTcs/RF0TAEBfvI3NMw8H6cehTrkqx1mxjANg0AQCAJNIxDe0DTC8/XfstZC+5wfaJg8If2P/j5zY2NDYmNy/dwNAkEgCASBBSMQ3rBgwDs8XF0faJgMwebmZqEOu7u7TkNCHSbDlbtBYFAIXLlyxXxfvHjhNdIEAgXbtbW1CZ2HN0wA54Rbw7wkeAvhNX6gYTKMqMPRr3ZwMjK5fu4GgSAwEAQuXrw4kJkud5qTcQ5vWO7T6cDownZDH2iYMHm7itFXO6yvr9NhQuXcCgJBYCAIrK6ummkcAhAakoJtwfm0IbrOG06bV67Xg8CTub+hYWY9UIeDI1/t8OzZs5m7SsMgEAT6gUCJZ+UPBfsxo7bNQnaZSgVnhRMlvOFEWHLxSwQW84GGL0c65T+5ModtTtrevXt38+ZNJOaUirkcBILAUBDgEEyVZ/AaqR2BAqxt24Se6+YNE4bKre4ggHIu8gMNE4BBHeTNyt9n3r59+/79+xMq51YQCAK9R6BshbmF3s90KRM888siaRXeAITIBwgwyMV/oOEDDY69kWm4c+eOy9vb25ubmwqRIBAEholA2QqX8DZMBJqbtR2j0+Gvfe1rBeTTBgpvOA2ZgV4XoRv9hoaZYX348GH5+8ydnZ18tcPMMKZhEOg6AteuXTOFkk5XiNSIQEF1fX19cp/hDZPxGdbdpX+gYTLcMg2ow0cffZSvdpgMVO4GgR4jULbCr169sjnu8TSPTm1h5cIbCsITBg1vmADOgG6xQCx+Yd/QMDOyqMMnn3xy/vx5XoPCjlRm7ioNg0AQ6CICFy9ezEcjG3pwhTdwrZP7D2+YjM8g7oq+bftAwwTcceG9vb2PP/4YdZBPo/yEyrkVBIJA/xAoga0EuWXMrp9j2j1yquZW4FU4TcIbTkNmKNdb+4GGCQ8Adfjss8/sOd69e4c65KsdJmCVW0GgfwiUwBbDr/fJFjz5VRmdyT2HN0zGp+d3W/6BhgnoW9l2G0gD6pCvdpgAVG4Fgf4hsLGxceHChYODg9+mG/s3w2XMqPAGZ8FnDh7ecCZE/awgJYWzt/8DDRPQL9QhX+0wAaLcCgJ9RQB1MDXpUq+R+REQEXZ3d/VTgFWYIOENE8Dp7S0kvUMfaJj8GDiOfLXDZIhyNwgsGIEFDFfCW9kiL2C43g9RkHRIUb5Wa/J8wxsm49PDuwJtO7+hYWas89UOM0OXhkGgowjgDeWownllR6fQKrXFBfpUOaRQLbwBCAOS7n6gYfJDstzz1Q6TIcrdASPQz6mjDiZWAp5CZGYE9vf39/b2NC+QKkyW8IbJ+PTnruOrrn+gYfLDQB3y1Q6TIcrdINAnBOyCTGdnZ4dzU4jMjICUrbY3btyockihZngDEPovffpAw4SndeXKFaw5X+0wAaLcagUCUaIOBNj7+vtvRC5hr44uh9gH1lVyNoWHVYEgvKEKSt2uY0307AMNE54HV5KvdpiAT24FgT4hsLm5aTp4g+CnEJkBAegdHh6urKxcu3atYvPwhopAdbUaCnn79u3PP/8cMZd1EFa7OpPKepe/zzTffLVDZcyGXjHz7ygCrtpgtAAAEABJREFUeIOAJ+wJfh2dwtLVtrGkw/37971WlPCGikB1rxoCjj8+evSI6nfu3Hnx4oWAqjwEMVPzHX21A/I0hFlnjkFggAiUgIc38HgDnP6cU4bewcEB7oWBVe8qvKE6Vl2qKbXQm29omBl3PBph0hx5msoqNIksFYEMHgSqIsC0hb2kHKridaQepoVvuYA9eK0u4Q3VsepMTfFyOB9omPxUWMXjx4/V2dnZkX1hJ8qRIBAE+oRACXuMPQY+1WOFGL6FdeFeUzUMb5gKrg5UlpMf2gcaJj8VJoE6fPTRR3t7e6EOk7E69W5uBIEWI8DG19fXhUDer8Vqtku1/f397e1tOtlnep1KwhumgqvVlXFtcVFOnpby8y9evHDMrxzhVkZf7eD4xiFOMAkCQaBPCJSUg7Qiv9eneTU3F15R5/iWqKEwlYQ3TAVXeyuLhSKiLfX58+dtryWg2qvrMjS7cuXLr3aQkfv1r3/NVMC1DC1qGzMdBYEgcBQBwa98Dnpzc/Po9ZRPRODZs2eChVszJBu0Cm8AQufFs88HGs58iqgDurC2tvbu3TtwAe3MJqkQBIJAVxCwWSq/WJHTismPTGa6sKt79+5V/ILIsQ7DG8YA6d5bRpIPNFR8bA5upDHlGz7//HOg1UcdKo6fakEgCDSFAOsuFu2slpk3NUz3+93Y2Dg8PLSDKoc7M0wovGEG0NrSBG28du0aI6FQPtAAhCrCufApJaWJOmBdVVqlThAIAu1HQEQspq3APbZf4cVrKCvjhEJipnCs2RQIb5gNt+W3knK/cuXLM/uPPvooH2gYfx5nvWczcnRqYV2bm5sKkSAQBHqAgLhoJ20/jTr0YDr1TsGW6e7du/qUaRA+FGaT8IbZcFtyK2FPsv3g4ODjjz/+5JNPEvlmeB4sB9/ScGdn59q1a9mdgCISBDqEAJsVCAmuwJzlDhkyuvBf/+t/PXfunF21Kx2aTtOq7u/vA8coUjJzIhPeAMaOiUcuwf7u3TvU4bPPPpuHNi5s5u0cCN96+vTp+fPnuRgehxtqp57RKggMFgG0gNgpYQaEnZLV1VXM4NKlS9ff/7OH3t7eljtkyOR//a//9U/+yT+BmCsaKkQ4N6RBGkYyBs2aE5DwhjkBXGhzz57NMAaj5gMNQJhf2BJHgzq8evXqm9/8ptOf+ftMD0EgCMyPgB0RcvCeGFy3U8IMCGslUq0T+nd4/xd/8Rc8pDoaoh0KAxd7JC4OMs+ePbt48eKcaIQ3zAng4pp/+umnDInN1PGBhsWp3f6RCqpoeL7aof0PKxoOBwERTpybYb4yskKjXbWEvOb2BpynwmAFadjd3QUmCiVVMz8O4Q3zY7iIHmTbnEpg2flAQxNwow4sCnVw+pOvdmgC4fQZBKZFQITj96Ztpb4w6ZWgDoxacl6adrDUARo7OzsFDY5OYX4Jb5gfwzp6mNgH+izbJqShDvlAw0SoZr9pg4I63LhxI1/tMDuIaRkEakVAqqDkDKr3qj7CUeoXox4ydRiRhsePHysXWOZ/DW+YH8MGe8gHGhoE91jXvIzUKL/jDqKGrilEgkAQWCICJWdQXYExs2XU9gPDpA6IQsk01EsaPIvwBiCcIG24JLEmrbS3t5cPNCzycUiN5qsdFgl4xgoCExAQ+JnkhApHb8nI8plHryjr4Sh1qN6bth2VsuFsiDTAJLwBCG0Ui5sN5AMNS3k29+/fx9ANzfCcjDJC5UgQCAJLQQAVePDgQZWhWe6J1Qp1cAp5eHgolSiHcWK1flzc39/ntWw4L1y48PTpU1mH2ufVFd5Q+8Rb3aFUm8WdDzQs8SExNiZ3Pl/tsMRnkKGDwO8Q4BL/7t/9u797d/L/V1ZWxMuT733ta6jD6BTy7t27DLyX+wGZFTSr/Mml8sbGxmmAzHM9vGEe9Opvaylb+vmGhvqRnb5HJoezow6MMF/tMD1+aREEakNA/vW//Jf/Mrm7+/fvT67grn5K6qKkEp0Fu9gbgcD169flVNbW1kwNgWhoarPyhobUGXa35UmLVflAQ0sWAsPzOBhhvtqhJU8kagwNAVspDF7+9fPPP2eJp01fTn5zc/O0u0evS108f/5cffuBa9eu9ePMopxNbG9vm+mtW7dkGkZ/VOJK7RLeUDukM3aICOcDDTNi12Qz1IERcliOjfLVDk0inb6DwDgCZSu1u7vrxr1797y9c+eO8nHBBo5fPO0KuiDQ8re25s4sytvTKrf/OurDTdnhIEOPHz8WShzKVFJ71krhDbMiV2s7ix6hFpks5XxDQ63Q1tAZI0QdbuSrHWrAMl0EgaoIyLpfvXq1fDb85cuX3mopRiLxCmPChY5dmfy2GLUzC7FWxBV3S/+TW7XtLiKF9KA+CJDY4W3FpMucEwlvmBPAeZvLwnnw+UDDvDg23J6XGX2oCsNbjHE2PKd0HwRaioBkAK9Ysu74+thWyn5asD+qusw8Cz16pWIZ2xBrRVxx13By+3YIFds2Ua16nwIH5fEqpAcaCBDN6V+9h3lqhjfMg968bS1ZPNeDzwca5oVyIe05LMlSQ+3s7IQ6wCESBGpHAEGXUeAVz58/L+vu7Rgn4DNlHY6OO0+qQKwVcQ0k+h4cHFy/fh1lceVo/60qYwzmS+2y28SrxBEcYpFKhjcsEu0PxhKE8FwrNT858QEu7X7DYrkYOqIO/BcbVo4EgSAwPwKsSfy7efOmE1vU4dWrV6exc9fFyzKigiBayjO/6lCSo+wKUJbr1wt7eDFzh000hM/9+/dNdnt7W4IERM+fP8erXGliuAl9hjdMAKfBW8xDupt5oA5jWbgGR03XdSDAxZSvduDXbE0Ycx29po8gMGgEbJpZU9lD37lzx9vJ4dC+a2VlBWR8qdf5RVZDVH79+rVTD70V9kAHAy3dxqHB7VCmMAYTt3txEWJUXbyENywac0vQwx6Zh4SY9bpoJTLefAhsbGxwK/KoqAMbZsDz9ZfWQWDQCDh3cFTPmtiUPbS3J8Nx5Cq3KaLbc3OnRy7PW1xdXdUt9oC7lJMLGzwXhW2+et7ep2wvWIBCXhM4EpxyDPaZGMP+/j59puyszurhDXWieWZfAoxFIOTkAw1nYtXyCuU5clslaeTJtlzhqBcEWoiA0IiF3717l25OHJzbVucBajYUyxEFAVt4fvDggY2BgC1sX79+3XUB29EAbZsT4xrd7C5dugQZdMpYsiAYlflSwNvlSnjD4vBHY7FFhpEPNCwO9CZHQh2YcaEOV69e9XybHC19B4HWITCnQsxHVC5fzyBCi8eyCFP1OW39aTt3CCKKv3z5Utgu6QcE4ubNm+fOnRPXnWuYAuozVbcnVrbx4EBwAtTk8uXL6ILtpZrciwTDmzdv3DWiK22Q8IYFPQXr7/bt22Vvmg80LAj05ofhtjgOPsVQni/bVogEgSBwJgJc4vXr17lEoVFg9vbMJsuqYIfAtPGDp0+fOr/AdWgirm9vb5vCpUuXBHtBHY0gHALBNtQ5UdwlOlQZUdDw3LlzNh4cCFJiY6mV1Asi5bgEn1CHn3GxPRLe0PizsNqsjHygoXGglzQAk+YCRtSBkS9JkQwbBLqBgJgqEh91id52QnVHKk4Q6C+iSwOweqSH5oL93t4eGkEwCSJngA2cKO4SLEFlREFDPUhmyEbfu3fv+fPnX3zxhdQLIoWOuNVCCW9o9qFgi0zCysgHGpoFetm9ow72B7TgCEId4BAJAiciwFLEWmf258+ft30XhjHvE2u2+aKIzszNhYcX5uVLzEXUxyTW3//DA07T3/TfV1lXn9NAFLAQ20tJCBkIm8zTGrbnenhDg8/CqrI+UNF8oKFBlFvTtf2BLQh1UAdkkSNQjgwagUz+CAIswn7dPtvZBMeIOnh75H6Hi+zdXER9Pl/4JyaLT5woqIYKRH1OA1HAQro1+fCGpp6XBTGykHygoSmUW9avLYjdg40Un8gd8B0tUzDqBIHlICBYCq7lI5D22aJm54LlcoBr5ajhDfU/FtFCzDh6etfFRFz9uAyjR4/esVShDisrK9zlMObdjVlGy6UgYGN99erVknlFrL1dihoZtC4EwhvqQvK3/YgTaLXIkQ80/BaR4f3PApBvcIpZ8rGWxPAwyIyDwJcI7O/vY9Lb29ve3LhxQ+bVW+VIpxEIb6jz8Tnccm5XaPUnn3wia11n7+mrOwjIwcrEFupgp2VhdEf3RWqasfqMwLNnz5iATZT02+PHj71N5rUfzzu8obbnmA801AZlLzriIlGHW7dumc3t27dDHeAQGQgCzmr5w5u/+4Uq1CGbqD49+vCGGp4mI5F8ywcaaoCyX12gDujCiDp0wHX2C//MZikIOJg76g+9dXK3FE0yaEMIhDfMC2yxCoQ6H2iYF8qetkcdHjx4YHI7OzuhDnCI9BiBhw8fOph79eqVs4nnz5972+PJDnZq4Q1zPXohIR9omAvBYTSWs3W+a66og73X27dvlatI6gSBriBgVW9sbNx9/wtVxSvKOnRF+eg5FQLhDVPB9UFlwcC5dfnM/GeffSYefHA7b4LAEQRkGmy/bMJsxfhTTvbIzRSDQLcRePHixcrKSvl6Btk1bx3SdXtK0f50BMIbTsfm9DucPtefDzScjlBf78w1L2vGeVahDpysE665ukvjINAOBOygrnfkF6raAVjntQhvmPoRcvdSCwJAPtAwNXaDb2DlyDesra2VNJVt2eAhCQAdRmB/f9+SLjuoW7duWc/edng+Ub0aAm3nDYK0tfjkyZP7E/89fPhQNVJt1rPXevLkSTm6y09OzA5ijS072NXRr3awS7OiOjiJqBwEvmbpYsB4sBTa06dPvc3ZxECWRbt4A/b67NkzDEFGl3s9d+7c1atX+dbbt29vT/x39+5d1Ygm1q7mUmdPnjxBO2p8kPq8fft22SnmAw01Aju0rixRHNf+zMStKKxXIRIEuoKAg9qNjQ1LtzhD1MHbrigfPedHYPm8wRLEFTY3NxGFy5cv37x5E0NwCnBwcGB6joHt72/cuHFv4r9bt26phvxqcnh4qLnUmWWNdvDR1jQOgZS4O5tQ8tq1a/rU/M6dO5y+bpUjYwjkbUUErB9r0rpVH+u1/hUiQaD9CNiMOYwoH4G8d+8eZ8h1t1/taFgjAkvjDSIxvymiX7p0CVfY2dk5eE8UhH+B+fHjxy9fvvziiy8Ee+sSsZCEmCC6Us2C1kTDp0+fWtC6unDhAhphieMQSInlbm+nz6kQ1K2GuEg+0DAVbql8JgLW7YMHD1Sz/lEHRqHce2GqI2GPI7seXVToPQgdnaCHZTPGVzuoff78ubcdnUjUngeBJfAGJKDQBbFcRKe9PAGuYBWK+lwGV8KHCtVuzSAa6t+C1hVHjEZwzTiEruTT7O0QCMkDLttdFyeLatoWO+ngT05MnlzuLh8Bh19YMj1QB8uyyppUuSuCc7N3xsgkzc4xInGeOBL2KL9YZHRRQTXClrXSXLXXDpwAABAASURBVCfT0v2uQNQVPeHvWXhSFJYAdlDrrXJkgAgsjjdwiAiBjJbswoguiOivX7/mXNxqaBVyPVwzDvHmzRsO2or3mCUPsBbKuMUeXDlR3FWtnOGxE12dWC0Xg8A8CGDJSPP58+fxWlYwYUHOM8rC2jJnkd5EnMXYm7J3wYbJM7qiQzl8RMeJDYPUIFHwtoiNRKkJEK001wm6r0P8g68wRKmQ18UggLd5KJ6FVcqLeutZLGbojNJCBBbBGzAGfkSQtrewcXd2wEcUuiAwu74YXCx0DtqKRyDwFc7LEcajR4/4I9fHnDWdOT536UZbtENz5Xkl7YPASQhYbMUpi5QcdOfiInuRmWNHzARXEOlNh30xdlQALRBscCOmJ6fI1hhUESSAcyAK5YpX01dNZU001FwnutIh/sGNGILf4D2Y80lw5lptCHiycMbbbJ+sTI/VU66t93TUTQSa5Q3WHI/AwvkRNi9U8wIu8hEuLgsxro0lcF5Pnz7lj6ghRXyUPXBbUgssJB9oAE5kMQhYcoU0cNCWpfC5mHHnHEXklgO4dOmSzBw7YuYC/K1bt1j669evGbuJcAKCDW7E9KoPp7ImGmquE12VM0cpQ0PYgaD14hlPUsy5es+pWREBntAjgLP6tk/eWqXKkYEj0CBv4FAssqOMQajmBdqD+MbGBn9kT8NN04rXozAn6C2v9PHHH+cDDWCJLAwBIdCCtKtDHZzx28EvbOhpB2LLorXQLnLLAWhObYkBoV2ApzlLNx3XaxTmaVCOxRBIP3YyIhB4vwjnVo3DDbwruzt5HVzW2QQn6e3AAcn0Rwg0whv4FDbMoYi+Kysrdh6u8COjUVtVoCpnzTDQBbslTpDX5gTzgYZWPaaBKCMS29WJiOZrB99CZ81YcGtx2jaUvTBwO1GpBWpLDAjtNF+A0AE7KQRCBsKIEoR8DrLiureRmRGAKnidB+mBV+TGOUnlSBAoCNTPG/gOPoUN2wrYf/Am0zCGotUSXhkGh4jiSDMYHss2EfajHAkCC0ZA5CvUge9uj/kwEGYiEYJbA0S0tum3JUBuRGtXliIinDQD4sLb8DmCHL5FHxguRZ+uD+op44LlET948MBbXLbrk4r+9SJQJ2/gQbgVBxNUxFIxBqG3W2uOj5ZmsH8yBdspmydmoxwJAgtGQNjDYg3q+MyyXC6FZQVMG2OwH6ASTiNOi9ZitrdtEESBt+GCjrKH2O+0j8YxkKdcEq6OnLydtofUHwICZ/GGyhhwIqyUW0H5C0tlyZVbt6giomP/5NgC6bZ3YUX8UYv0iyqDQQBdGFEHYbsKdVCn3lguElODFTBtwBfGgNO007oZL2ulc2EPsoY0BwhYKB+ZgADQOHCbJXU8ZUzRW+VIEDiOQD28AS11suiwc21tTZrB2+MjdesKN20i7IfaMijexvWAIrJgBMRs277z1b7awRK1UGWYLd1a9BSDBQ8JD72xBTmG1jIGGo5kxB5K4hAgWI7NwKhCCmMIeKxcN5plpTl78haGY3XytsMI1K36vLyBq0LnC0tlpRwWE61byeX0x3LYjw2fDIrNFo9sdstRJaMOGAGR2/Lj0Ll1zn3CIsTX1QGVdet1HjGKcTFmmwFnjriLPrtl2uwXV6A50Mzi7t27TJi/mgeW/rUFCAd++3c/12f9eNu/aWZG9SIwF2+w5pgiOi+yiq+stF7l2tCbDZ+UnTMLFmWy/GkbtIoOg0JACHdkJv45eBbFLcjj07dQS2LALYeGXmcWaYbyB3jFrg1HgZl7W25DmrNZxxbUQL9QH9NRjkAAMvDhwJVBBBn4KEeaRqDr/c/OG8qaE005FwuO2+o6Fqfpz7RMlte2a0EdbLxOq5nrQaAhBOyeWZlFiDo4sx9bhCj7iDRQAMmwYhWmFa2sdmkGDW/cuOHMux92jQmNEg/Q89YEBy5AwA4tlY8//vh5fqFq4KthyunPyBv4FxHUmuPIuDO+ZspxO1a9eG2eFHWQ0xvz2h2bTNTtJgIWIbu7desW9S1CXEGBWI2S8ApHxcWjb6uUNWHUZSfgkFvSwohVGnaiDh/FUxX0ECPZeOnSTmheu5LooAcNBD3zaZ999pm3ygOWTH06BGbhDZyXdSaCDoQ0FET5UJ60+B1em5Mt1/MaBBaJgIVXFiGuIBkgFlqNxxWwVo9fnHBla2tLP4zaOQgDF1YnVO7oLSYMPSeq9Jec58QGSB0sDH7bkc358+dB4S1YABIJAtURmJo38CnsjX+x+Pisoa05fqd4bU6WyVUHOjWDQF0IWIQ8vt6cTfz9v//3FY6LXCBTPX79+BWxk0WPPtrMqPt9yI1sObNwuiqzYuIVUTqOW+eueNDY4c2bNx118d6oAyhaOouo1W4EpuMNVp6lNljSUB4lr12oAyiG43TK3PPaEgSsvX/+z/85Zf73//7fXk8UC/XE60cvsmixUwgRR3GR0dnH0Tr9K5czi0F92Jmn8qBH7NBbIPTvyWZGi0FgCt5QXAySzt5sSoaWaTj6PHhk6Vz8iSmywKO3Ug4CC0CAMf7rf/2vJw90Zj7M0pVaYNFIA4vGRSZ32Ke7oqbp23YPwYrRwe985zsetLOJ58+fezvto0z9IHAUgSl4gxyXlcfF8EdDJg0FPiAUp8PbcuLlYl6DwGIQQFgZ4+SxJh9ViJo6ETUtY2VxdHJv/bvLiWFLpg8EUAChf3PkmjY2Nu7evfv555/b6lgSZtq/aWZGC0agKm9AUR2mUk68HKCLMfExKU4Hi+K+UYexu3kbBJpDwHqz6qr0LzF2YjUxUvwQL0VNsVPW4cRqvb9YrBgIoBBfRdmOTLmSmp6s3PDu7q7a5bv/zVc5EgTmRKASb7D+MFYjWXzcjUIEAowQMgosE69SiASBphFAGgqDrzIQln+82hhpsIyP1xnOFdNnxahD2Yv3hjrcv3//+vXr5SOQL1++lC0ezjPNTJtG4GzewJC4KnrcunUriw8OR0XqBZdyBa/ijhUiQaA5BOQPqpMGaoiFY8uy/O2+7bVI+eLFC1FTtYELEAA7V+6wTQh6xPxS+XoGTttT9rZNCkaXziNwNm9AGngf+a5sqU982rjUjRs33OpfntOkIu1BQGy7ffv2tPpoNWpiD2CVhjSMABkVRFbx1Vu5Qzt1hY6Kx40ROsY6f/7806dPvcWKOjqXqN1aBM7gDfKcDIn2Cll/cDhRGCdehV112uOcOLVcbAkCNpEzkAbKs1yvRRwyiig21mJkv825zHeqV9Th8ePHmtipw0ehW4IU2uNZJM4m1tfXPWgcsVtTiLZdQWASbygL0Uzu3bvHqBQiJyLABaMObj169KiLHofmkZYjsLq6+sUXXzx//pwxym/hqRUVRmfLUYWgIpaENEzADUQS+yqIuLyfQlfEI+aid3Z2KGyF8EIWjHIkCDSBwCTeYPcspclDKTQxdp/6tJMrHsexRZ/mlbm0CgHLjDFKIUg/vHnzpiKNUB+vLUFFQYBZ+KQ6MyB85Pn5PdShK0pbEvmFqq48rH7oeSpvQGDtnk2SIXmNnInAw4cPbeZs6RTOrJwKQWBOBGS5xmiE82x7TTlq6/Bo5//m3/ybQmfd7VA4PDqFRZZ5PADu7e2135AlRawBByvwkYXKL1TBIbIABE7lDcXR2ENblwvQowdD8OPF0aD/7LkHM8oUOoSA5YcTWHty1Jbf69evC434kz/5k1/96leHh4f4hLu/nVH+dzoC8jEFKK/yOqdXXPIdaSTJYPzmfH6hasmPYnDDn8wbuB7LEelmOYODZI4JOx9lyXx0IRBz9JSmQWAuBBxvFxrx7W9/+//9v//HloWZuXocUmO7JjSLISu0cN54IcXyC1UtfDQDUelk3mBRmr9X3kchUh0BSU6V8Qa2rRAJAlUQaKiODcDotFFCoqFRetktEzav3d1dGCq0R5wgywGXx3rnzh1vJUjao140GQICJ/AG+xKH9DYoeMMQIKh3jky67FSK36m38/QWBKZCQAJMfaeNcg8KkeoICMaisvoFQ4U2CK+SX6hqw4MYuA4n8AZLEyhIQzYocJhByuEOGJNymAG9djTpgxbW4cHBgQ2ApdiH+Sx8DgCEHgxLEnHh438wIGeC/N3NL1R9gEreLAeBcd4gKbe3t0cXvMFrZAYEpBzKn3LFX8+AXprUgsD+/n5Zfl6zAZgNUrihDtqWV4VlCbe8srLi0IQCDx488JZuypEgsBQExnlDYdYSm1mX8zyPwroKmPP0k7a/RSD/mxIBoe7w/d9QtCrNPuUkll+dIQvYy005eJTX8wtVy18L0eArBD7gDVJh5cthrNSvqqQ0PQKcdclwPnv2bPrWaREE5kJAsiGGPBeCRxoXZ1hej1xeRNFzvHLlyvb2tsHs5aQZvFWOBIHlIvABbyj7Yzn2/BnF/E8FddBJgVShZ5LptBmBEuREGkdmbdazE7ox5KWkHLgOrvjVq1fn8wtVnVgoQ1LyBN4gNTckBJqaa4HRkaQsTlNjpN8gcAwBm9QkG46hMtcF1EF7gdzrAoTHMGJ+oWoBUGeI2RD4ijdwN7itXjY2NrxG5kRAzsZ2QScLOaowTiQIfInAKNlgBX75Pv/NjUDZA+zt7X366adzd3ZGB4ZwGFGY371795xN5DmeAVluLxyBr3hDCW83btzIJyLregqbm5u6KsAqRIJA0wjYqpaQU9Ze08MNpH8u0aGPyT58+NBrc4Lz5ReqmoM3PdeFwFe8oWThkmyoB9n3vRQwc1TxHoy8LAKBYsXr6+vXrl1bxHiDGaPwsOb2AAifR1Y+Amnzll+oGszK6uREf8sbrNocUtT+ACUYy1GFZGPtnafDIHAcgbIhLkHu+N1cmRkBQX1lZeXw8LAJ6qBPnTsH+eijjx4/fuytDMfMqqZhEGgagd/yhhLYBLm+rtemcTytf+7GrQKvQiQINIeAo/GD918QGd7QBMglfSio19i5DdvW1tboF6o++eSTPLsa4U1XDSHwAW8ohtHQSMPsNrxhmM99KbMuhxSx4obALxG9Rt6A5/EP+YWqhp5Xum0OgQ94g0Xc3Egf9jyUdwVSZ0A2FkOZc+a5JARKSAtvaAj+K1euXLhwwVGFeD//EE6U8gtV88OYHpaCwG95g8BmeIbhNVIjAs59nP7osBZfo59IEDgRAQusHFKEN5yITy0XC7aFn83coS2EfvILVTMDmIZLR+BL3vDl6fvXvia8CXJLV6h/ChQ2VkDu3+wyo5YgUIKZgNQSfXqpRkkfzmPL2q6s5Beqerk6BjSpL3mDnYoZr66ueo3UjkDhDQXk2jtPh0GgICAgKZTAphBpAoEC797el78YPEP/9+/fzy9UzYBbmlRFYFH1vuQN8maGK+FNIVIvAgXYAnK9Pae3IDBCoASz5BtGgDRRsLmSLdDzixcvvFaX/f19fmA7v1BVHbLUbDECX/KGYgOWdYv17LBqBdji1js8jajeYgSKCQtpOWps+ikVc54qffjPrAahAAAQAElEQVTkyROnwK/yC1VNP5v29d9Xjb7kDWUrHI/T0DMOsA0Bm25HCJQwVrLoo4spNIFA4Q3yB1U651o3NzfzC1VVsEqdDiHwJW9AhGlc7EEhUjsCdhv6LJtChUgQqBeBwhtiwvWiemJvhZwVwE+sMLqojidSfi4kv1A1gmWphQxeDwJf8obSU7bFBYcmXoNtE6imzxECZfsrSo2upNAQAsWWcYLJ/d+/fz+/UDUZotztLgK/J5PWXe27pXmg7tbzWoq2klKFBEw1evn0THjDVKDNVrmAfHh4eFpzZi4nUT4CmV+oOg2l317P/7qJwO8V4ry+vt5N/buhNT9C0QK1QiQInIYA3iAy2a0KP6fVOe162QqfdjfX60LgwoULujrRnJ89e7aysoLG5ReqQBTpKwJfnVP0dYaZVxDoFgL2snar2IMgVEVzVEO18hkahUjTCHg0hhgjdt724BeqzCsSBM5EILzhTIhSIQgsAYGDg4ObN2/KVFU8tkiyYQkP6XdDyj14UvmFqt/hkf/3HIHwhp4/4Eyv0wjIeF++fNlG1na20xPpk/KFouEKZVJN/kJVGSGvQaBdCIQ3tOt5RJsgcBwBG9nV1dUnT54cv+XKixcvvJbkuUKkaQQK1Jgc2djYyC9UNQ14+m8bAuENbXsi0ScInIDA4eHh7du3JcMLSzheo2yCj1/PlToRONKX86OV/ELVEUBSHA4C4Q3DedaZaecRcGxx/fr1zc1NO93OT6bjE9jZ2Xn37h3q8PLlSwdJHZ9N1A8CUyDwexcvXlQdd/YaaQiBAu9f/dVf3Z/4z1ayUWlodul2wQiIWI4tHKsveNwWDrcUlf7mb/6mjHvr1q1PP/20HFuUK3kNAkNA4PfKoj84OBjCbJc1x8Ib/tN/+k/bE//ZSjYq5xr+J4veqEwkXfPeFIYbJW0CTI3Lz7GFY3Xsgc41dpuuqiDwB3/wB6r9w3/4D588eVL2Xd5GgsBwEMg5xeKetd3JvdP/3blzZ73Jfwv4+35Z9EZlIuma96Yw3Chpu3r1ahXaZhrVVyS6T+f/+B//oyaFmyosVQY0+N/+2397QLPNVIPAEQS+5A0Tvv7sSM0UZ0eg7DUn74gXsN/9osl/b968ed7kv6dPn55Oumq4c+vWrSZp27qD8NkX0MSWhTGU14kVc7MeBIo5S/bU0116CQJdQ+BL3nDlyhVqv3371mukCQRklXW7urrqta8iYdvoIcXGxsZk4jXn3SdPnsj5NyfiehXadu/eveorBONX/z/8h/9wapPcaACB4ir7bc4NwJYu+4PAl7yhGEAh0f2ZWWtmUoBtbrvZmolGkRoQKKulSkcOtnCR+/fvY2zqK3uNBIEgEASaRuAr3hC/0xDWBdhCzhoaIt12BYEz9Xz79u2ZdZynvH792sFWYQwlX3iQjzafCVxNFQq3i0XXBGe66R4CX/KG4neKMXRvBq3XuABbQG69slGw1QjIWj1//txhyljQcmBB78JQFSKNIjCEY8dGAUznXUfgK96wt7fX9cm0U39enmLhDUBon3RGI8zgwYMHmMG1a9eOK11Wl7vHb+VKvQiUbYDHUW+36S0IdAiBL3mDvUsxg2ISHdK+E6oWVItn74TCUbJtCJSPMkz4UsKyugpDbZvyPdOnkLMCeM+mlukEgYoIfMkbVC2bmBLhvI3UhQBIZTXRsjiaSpCm0ocI3Lhx4+hHGT68+dW7srostq8updQMAgXkAngzI6TXINB2BD7gDdmv1P64CqSFltXeeTrsMQJra2vPnz9/9uyZdOCZ0yxh7MWLF2fWTIU5EQhvmBPANO8BAh/wBk6qB1Nq1RSKK+8ub2gVmANRRnbq8ePH4lP1ZYM3aCWzVbLoAwFqKdP0XIwLcK+RIDBMBH7LG5hB8TvFKoaJRROzDm9oAtUe97m1tSX2b25ufm3Kf9euXdMi1B8IzYlHU/7elcNsbpT0HARajsBveQMtNzY2vD558sRrpBYEOHFbwJWVlfq8TC16pZP2IsAMy7cyTKti4Q0vXryYtmHqV0egwLu+vl69SWoGgf4hMM4bhLr+TXJZMypgigTLUiDjDgeBssx2d3erfHPUcGCpd6aFNxSKVm/P6S0IdAiBD3iDowpZuBxVTPH8JlYtvGFzc3NirdwMAjUgsLq6ura2pqOy6hQitSNQsC0UrfbO02EQ6AoCX/EGGhd7ePjwoXJkTgSc+OSQYk4M03wqBApDLbFtqoapXAUBGyoWbXOVY8cqcKVOjxH4gDeM/E53U53teVR4A2UKpAqRINA0AoX356iiIZyLRReQGxoi3QaBTiDwAW+4du3aysoKTp0ty5wPb39/v3xvd3jDnEimeXUEHFWUj+yVCFe9YWpWQaB4xfCGKlilTr8R+IA3mOrW1pbX+/fve61DBtpHAfDGjRtc+UAhyLSXgUDhqTlqrB17pOHg4MAhRXhD7dimw84hMM4b+B22wULKJ4c7N582KOyUh5ehSSFhCpEgsBgERvablEO9gBeLBm+93aa3INAFBMZ1HOcNFy9eLNGu7JjHq+d9BQTs9pz1yBg796lQPVWCQJ0IFPsNb6gRU8eOOzs7OizYKkSCwJARGOcNsCicem9vLykHaEwrkg14g1YhXkCILB4BsU3KcG8v9lsb9oWE2Qnk2LE2TNPRPAgsu+0JvIFt3Llzh2KJfECYVoCWZMO0oKV+jQgkZVgjmLoa7QTKhsqVSBAYOAIn8AaICH5ly1KItiuRKgjIZz569EhNAHqNBIGlIDBKOcR+58f/2bNndgIrKyvhDfOD2dcehjavk3nD0S0Luj00UGaeL3+trXxmPtkAh8iyEDhqv8vSoR/j8n5lD1Be+zGpzCIIzInAybxBp+wExT44OFDwNnImAvYlu7u7qmWTB4TIchFAYWO/8z+Chw8f8oGQTLJhfjAX2EOGahaBU3mDYUv8k3j/9NNPvY1MQMC+hKdW4d69e6urqwqRILBEBKQcxDwKbG9vOz5TiEyLAKMuGGbvNC10qd9vBCbxBsn2GzdumH+4NhAmC89S9iWFPUyunLtBYAEIbGxsODIzUOwXCDMIoz48PFxbWwuAM6D3QZO86RcCk3iDmUo5XLhw4dWrVwmH0DhNnFDIyrgLLvs8hUgQaAMCFiT73dvbK/vmNqjUFR0kWYtRB7quPLLouTAEzuANoiDXQxsmlK9zgMNxkcws25E7d+7I0ByvkCtBYFkIODKzaTb63bt3BUKFSEUEilFLuPbSqCuCkGpB4EQEzuAN2sh2ioilkINSOIwJt3L4PpmZfckYMnnbBgRkCkenFThuG1Rqvw7IliSrVE3ZNbVf4WgYBBaJwNm8gTasyCGf6IhDxPUAZCQ2JfEvIzRSaCcCztGEQAsVh2inhq3SSmJme3ubSkiDhKtC85IRgkCXEKjEGxhPXM/xp8qt7OzsuK5w5coVhUgQaCECxX4pZrkmKwaHCWJfZDOgghMK2ySFSBAIAmMIVOIN2qyurqIOClxPdi1wgMbt27cV7t27t7GxoRAJAq1FwGnagwcPqHf37l1LVyFyIgKcm8TMhQsXbAZOrJCLQSAIVOUNkOJ6Hj9+rPDo0aOBG5VM5ubmJihu3brlEEchEgRajoCIaLlS0tK1gBUiYwhIxtgXuYhaSdIoRIJAEDiOwBS8QWMex/ZawVZ7sNSBz7127drh4eH6+vpgQbAGIp1DwHK1aC1dC9gy7pD+C1D1xYsXkjEGkpiBj0IkCASBExGYjjfowva67FqGSR14Wz6F511bW7MpAUgkCHQIAYvW0rWALWOLuUOaN6oqKMppI+cmMdPoWOk8CHQdgal5gwnbtbAuhaFRB86Ft+VzeV67k2QyrYFItxCwaC1dC9gytpgt6Zn071Wj/f19UAAELI4qejW3TCYINIDALLyBGkepg8MLV3ovpnz16tXiXHhe/rf3U84Ee4mApWsBi5EWs3g5cOrw9u1bmQZQAAQswOnlQ8+kgkCNCMzIG2ggjjoIVNjZ2UEdmJ9yX+Xhw4eSK2Yn0fLixYs4F1BEWoTAlKpYwJaxSCleDpk68FqmX/6AAiBgmRLIVA8CQ0Rgdt4ALQeB5S8sUAfmJ93nYs+EZ8GK7t69a15IA7YU5wKKSNcRsIxFyhF1sLC7PqNp9eeveK2QhmlxS/0gMBdvAJ+Y+vLly/JtdFeuXHn27JmLvREpXJ4FKzIjDGmAvtXEIzMg0IkmhTqUv7CQTrt//34n1K5FSabNXyENKysr+JNyLd2mkyAwBATm5Q0wYnKMsGxcbt68KQlhj+5618XZBNLAs2BFz58/x5C6PqPoHwTGECjUQSLN9e3tbSf9/TBe05kgtjdM2xkNr8V38WATKudWEAgCYwjUwBv0uLq6yvzKz189evSIHaLwrndUSgLT2cTh+y9pKG87Opeo/R6BvExCQCJNOk2N3d1dxsuWlfsq9gO2N0wbaeCmMKe+zjTzCgINIVAPbyjKMUj7crvzg4OD69evb21tdXHvYhZc597enok8ePAgnqU83Lz2GwHpNAeOkvaM9+rVq708s+COJFTsBzxKKRb0KKQBFJEgMC0CdfIGY8v+2Z2zSWWJB3kIWxnlTgiKQGFuxV7EoS+3gvp0QvPuKRmN24cAumzN37hxg2rb29vFlpX7IaZmghIqpmM/0CG/ROFIEGgVAjXzBnND4dmkxIO9iwB8+/ZtwdgVt1orGAMvKUdisyXNIGfrCrVbq3AUCwJNIMB4nf0Lq6xgb2/v8uXL/Ug8mIUkCuvmlKRVsh9oYvGkz+EgUD9vKNgJwxIPxQEx19ayB/yAqtevX+claX7nzh1qy9kqD0oy2SAwQkBYtTuXcnNF4gGBZibKXRSa098sKC+VYl6yDsqRIBAEZkagKd5QFOKAhOF79+7ZvozYw8OHDx00lgpLfJUCOcoYnK28fv2abrZcS9QqQweBNiAg1oq4T58+LZaLWDMWV9qgW0UdeB4bAJrzPGZhLs+ePYt1V0Qv1YLABASa5Q0GZqiShGx4xB7u3r176dIlJs2MVViwfPrpp9gMraRASo6hMAY0gq9csDKnD5c7QWD5CGxsbBTLpQpjEYOZrSvetllsS/gceYXyzSsliWgubdY5ugWBDiHQOG8oWIjTLJk9P378eG1tzUUmffPmTdd5omfPnrnSqBS6gBk45nz06NHh4aGTTlTmzZs3YQyNIp/OO40AC2W5UnHotYkw28uXL7c298DD0JaZO5hg445aXr58mSSiBxcJAjUisCDeMNIYSxDCGbNNgMjNtnkiBOLcuXOcEZuXC2X8o/rzFHTFZdhn8H2FLpSMJQ8oaWnbZDi3Kg2RSkFgwAiIxOj1iD2U3IMNvYt1Weuc6DJnvoWehTHwLc+fP+cBKDlnz2keBILAGAKL5g1leMYsojP1EYFwnTNi83KhTjHYv3gvrnNMjB/VUGGC6Eo1eQtNuA/9IyK6ciayu7uLnfAjhS5wc/rU+YTe64zG3AAAEABJREFUcisIBIHjCLBKtlPYw4ULF169euWwz0UWx/qO11/AlWLOthyyIHYgLF06U1KTQ3BxAQpkiCAwQASWwxtGQAvwhUBwRqxdaGf27koMiPdoBMck/MsW4AEjuXjxIm81eqvAa6gmb6EJ98Gj6QRXuHHjxoMHD7ATfoTLC10ASyQIzIMA02NKDIplMTGhmsWxPte3trZw93k6r9gWXTAQvmJQLsKWQ0PGLsdgj+G6t5EgEAQaQmDJvGE0K/bP2vkjZv/FF1+wfzTi3r17fIFDSu5pVFOBq0IsFEZy4cIF1Ygm3Jnmb9684do4F77sypUro5opBIEgMD8CDvhYFhNDytF9BsgkHz16hLvj8Qi6/UDtSQgdSihKJEhJGghf4QpWVlaYvI0HY3dr/qmlhyAQBCYjUBdvmDzK1HfZPxrBR/AFnAX3hEyMhI/grUZvFew/VCOacGea82tTj5oGQSAITIkAUo7uM8CnT5/euXNHFNeBZKEjQkkIHIIxFltmnnYF7lYUVq8J/lEsWlc6lFAs2QWJScPxA6qpsLq6WrHbVAsCQWBOBFrKGybPio/grSbXyd0gEAQWiUDJMYjiaL1koSRE4RDCvMSAeC/qjw4ckYkJgiKQcviIf0hj6MRcdKhbnRsCBUEp4gfAEgkCNSFQtZtO8oaqk0u9IBAEFo4AWi/BIAmBQ7x588ahodND8d4xosBf1MEDJkip4+xDEw0114mudKhbnRui1MlrEAgCi0cgvGHxmGfEIDAUBBwXyis4PRTvHToI/E4VMQA8YIK8fv1aNWcfmmiouU50NRTUMs8gUBBo62t4Q1ufTPQKAj1FAAPAAyZI0gk9ffKZVk8QCG/oyYPMNIJAEAgCQaBRBNJ5QSC8oeCQ1yAQBIJAEAgCQeBsBMIbzsYoNYJAEAgCQaB9CESj5SAQ3rAc3DNqEAgCQSAIBIEuIhDe0MWnFp2DQBAIAu1DIBoNA4HwhmE858wyCASBIBAEgkAdCIQ31IFi+ggCQSAItA+BaBQEmkAgvKEJVNNnEAgCQSAIBIF+IhDe0M/nmlkFgSDQPgSiURDoAwLhDX14iplDEAgCQSAIBIHFIBDesBicM0oQCALtQyAaBYEgMD0C4Q3TY5YWQSAIBIEgEASGikB4w1CffOYdBNqHQDQKAkGg/QiEN7T/GUXDIBAEgkAQCAJtQSC8oS1PInoEgfYhEI2CQBAIAuMIhDeMI5L3QSAIBIEgEASCwGkIhDechkyuB4H2IRCNgkAQCALLRiC8YdlPIOMHgSAQBIJAEOgOAuEN3XlW0bR9CESjIBAEgsDQEAhvGNoTz3yDQBAIAkEgCMyOQHjD7NilZfsQiEZBIAgEgSDQLALhDc3im96DQBAIAkEgCPQJgfCGPj3N9s0lGgWBIBAEgkC/EAhv6NfzzGyCQBAIAkEgCDSJQHhDk+i2r+9oFASCQBAIAkFgHgTCG+ZBL22DQBAIAkEgCAwLgfCG5T7vjB4EgkAQCAJBoEsIhDd06WlF1yAQBIJAEAgCy0UgvOFD/PMuCASBIBAEgkAQOB2B8IbTscmdIBAEgkAQCAJB4EME2s4bPtQ274JAEAgCQSAIBIFlIhDesEz0M3YQCAJBIAgEgW4hMC1v6Nbsom0QCAJBIAgEgSBQJwLhDXWimb6CQBAIAkEgCLQbgXm1C2+YF8G0DwJBIAgEgSAwHATCG4bzrDPTIBAEgkAQaB8CXdMovKFrTyz6BoEgEASCQBBYHgJz8Yaf//zn597/+9GPfjQ2BVfe3/ny5bvf/e7Y3bG33/jGN9Qbqzbq3K3j8kd/9EeG+Ou//uuxrrwdNVTw9jT51a9+Vbr9yU9+oo7X8rbiq9G1igSBIBAEgkDbEOCfBZSRM58QL0aaixel/s9//vPRxeOFWgLHaKwy4tjrBG1HDRWO6za6UouSo96OF+biDce7O/GKGf70pz898dbMF9+8efPDH/7w29/+tteZO0nDINBjBNhd8UcKk6fJyZaaY9U0LNdVOHprdL3cHXu1DVBfnaNNxsrujrU6+rZKDyPPeLThaWW7gqIAxUZ1xJVy8bRXaqh8ZrXTmuf6UhAQa8RdccEaGykwihf/4B/8g9HF1hZG2ppFO5VsnDdcunTJzOeZ/89+9rMvjv378z//829961t65gjm6VwPRb73ve8dG+SLP/3TP3X361//+vFbP/jBD9yKBIEgMIaAiM4khVuiPHa3ylut5uyhyijiihhTpWbqLBuBquMjiJiBuMtpixEjv/2LX/yCh9eLJ263qYJyLaLb0SijQvXA0dHo1jhv8PA8Ho5AgFeoS4RtS6E8Hj1zAXX1nH6CQBCoiMBxr/eb3/yGyRdOzyr56BMPE0f9N9HDyH2PCpz7aMRSmH8/U/rJa3sQsN6+//3v0+fP/uzPfvnLX4oRykUsyB//+McWm7cWZKmm3E6hecujW+O8gcV6Zh6P6F4jy9Mh+cu//Mti/1aMt5EgEASWiwB7LF4Pe6AJk5826zB/D8Y9U4p6te9nzhy3JxVaOY3CBoQbceFEBe0zyy1ZB5mJE+u05yJV2QJ9WhjdGucNpl1MlAdBHbytUcCKl+iwhcjSKhIEBosA9jAyfKnjGXCYv4cJg/IbAowKnBLXpBDpNAJ4ABZoCsKt19NEKgJ7cNdz99pmaXN0WwRv8Jw8LU/IoyqPVrkuAa6uau9Wn5EgEATmQUDgZ/t6kBnm1hWmlfl7mDDiiNbwSxOqdeJWlCwLTKD5+te/PhkNi0oFIcOyVGiztDa6LYI3eDDFRBV++MMfeq1dsmOoHdJ0GATmR6D4aP0Ut64wrczfw2kj4jTCjLt4gyiiEOkoAvx/IQElhzR5Fp57icdOKybXbMlds2uJJiM1FsQbcMBi/x5VvWcKxeD1P5pSCkEgCLQEAT662Ca3TmbQav4eJgza2H5mwpi5VT8Co5hitVTpvdCLEjuq1F9WnaJhsaBl6XDiuAviDcbGGwrLqzHlgIghIjqvuFzUjASBILBIBEa2OXLu044+fw+njcgj80vuciMzq6d5ZLkIlPhKh0IIFCaL567CbERWw8VIm6Pb4ngD0lBM1NOaOWk59sBQEOC6+L3vfc9rJAgEgbYhUHw0rYqpKkwr8/fwtdOH5JS4Jvc5E6+R7iJQnmMV/cuKmnlBVhli/joWZNGwhdFtcbwBjky0PDAHigURF2cTPXz7298u/EOysSLNnG2stAoCnUbgu9/97rmJ/3io5iY48uajTeG0Y03uYcLsyh/mTR5O5/ySOjXuZ/QWWTwCHuVUg84Zg6Yaa6rK7Y9uC+UNsPvxj3/slQcpIV/5TDnRL/B07FxbpKGYvXIkCASB1iJw1E3PpuT8PZw4LgdS137mxP5zcTEITLs8puUZTcyio9Ft0bzBUSXxAFAq7EFhNmHnGMPYl4LN1lVaBYF+I/Czn53wTe2j71JUYEoLQGB+N31iDxNmV3YpVaZWavJI1fczVbpNncUgUBZGdd5QapZWi9FwqlHaH90WzRvAV0zUk0MdvD1TTvQLhTHA98zmqRAEgsBZCDR4n6WX3md20/P3UBSY8GozQ1TglLAHhUiHEBgtrZKEPlPzUq0Np9sdjW5L4A2CffmgB2rfxGeYR2vozNWTCkEgCDSNwCgMM/zZxpq/hyrjTrufqdJn6iwGgcL5jFUxoBTeMLYgOxE4WqLkEniDpysvWuaP3Xtbr5Se9TlyN8rHZXR3bPUcr5krQWDRCPRovJErHzn3aSc3fw9VRuQHGt3PVNEhdWZDgM8vyYNCCCZ3YjmVDFb51q9RZZ2U8ig0lLdjr6O7FszYrQW8bYmSy+ENJv+DH/wAyh6hrINCjeJx6l+HowesfFxGK6wsuOMVciUIBIE5EWDgxQxZ5WyGNn8P1afQ6H6muhqpOQMChfP99Kc/LettQg9ls2o1kqPVLNH2B46WKLkc3uBp4Q0gUChPUaFGKTubyYzECjOipVPWinIkCJyGQK7PhsDIutn7snqoPi5XUPREViZ7j+p9puZiEMAbSkCZ/CNq3L6HS6XyoBWOSicCRxuUXBpv8LSwe6/oIVGoUawhvUlG/fCUn8Pgzkq+odRUORIEgkC9CLCy4qOx89kMbf4epp2RcFLCj6GnbZv6y0Wg/BImx34adbAayy0nFOS4tmWVtjxwtEHJZfIGT65Qp+PPb84rutW5Thi/hWK5KBdRdqXwiZndWekqr8tDICO3HQGmV6zMJr449Gk1nr+HaUcs9Zvbz5T+89oQAvx5+XCrpMI3vvEN62c0EDLx/e9//7vf/a4ro2rKY9KJwNEGJZfJGzyzYqIKtQtXVaiDNWS5jL4uT9kVw0H/Zz/7mUIkCASBGhHgr7/97W8X0mDvzsq8TtX//D1MNdxYZX6Dcxi7mLedQMBenOdHVeWwrcCR27cgy8GTCr/4xS9UOG06mlsA7goTgsWoB2VXXLc2LGmFJcrSlVwyb0D9PMiGHgBwPeDj1MSVcmvC6mlIpd52m4kNEgHOdORYRwX+2vYOHkybj2bjyqdJQz2MlCkFo5ymwInXuYgTr+di+xEQ9X/zm994ggL8SFuu3hWrsSQkRtdPLJTooP7YXVfKLb2N3Vr826IJlcaGdqXcalTJuXiDB/PF+38OBce0d+X9nS/Grh9/60GWmmL80bujzhWOXp+qrO1IkzKKV1esrSr9UEn9X/7yl1Uqp04QCAIQYFycF9/NtGdzXvP3QI15BNdBeubpIW2XiwAnX7w3B06sRlc81opaNR049E8rolBRpePVtDUpnRwVV5jP8crHrxR8Zotuc/GG46rkSksQiBpBgFspDkVhMhp8Tak5Vk3Dcl2Fo7dG18vdsVfbHfUnM4b5e3D2MTbuhLdcZNGfYqVaeTvhFekpNUdtJ1TOrSAwKATCGwb1uDPZIBAEgkAQCAJzIRDeMBd8lRunYhAIAkEgCASBPiAQ3tCHp5g5BIEgEASCQBBYDAJD5Q2LQTejBIEgEASCQBDoFwLhDf16nplNEAgCQSAIBIEmEWgLb2hyjuk7CASBIBAEgkAQqAeB8IZ6cEwvQSAIBIEgEASGgMBpvGEIc88cg0AQCAJBIAgEgekQCG+YDq/UDgJBIAgEgSDQBQSa0jG8oSlk028QCAJBIAgEgf4hEN7Qv2eaGQWBIBAEgkD7EOiLRuENfXmSmUcQCAJBIAgEgeYRCG9oHuOMEASCQBAIAu1DIBrNhkB4w2y4pVUQCAJBIAgEgSEiEN4wxKeeOQeBIBAE2odANOoGArPzhp///Ofn3v9TmGGuP/zhD9+3/vLlzZs3R3v40Y9+9OXVc+e+//3vH71+YtnoRyv/6le/Km+rvP7kJz8pfY46Oa3Vd7/7XVqN6Vna5jUIBIEgEAS6iMDI8ytMq/+EEKYr8aJEk2mj2GwhzIimUEY87bXGKDY7b6DoPPLTn/501HwUv8uVH/zgB9/61reUXYeFwgTx8Nz9+te//ud//hPZY8EAAAgGSURBVOcKDQk1DPRHf/RHVkNDQ6TbILAUBKzt4mgUZlCAXZTmXseINWNxkUzrOqkxm/c0BcNNkBpdJyX7L5nh6QhMCGEa9TuKLYc3/PVf/zW/ANxLly55Ze1ej8qPf/zj8pbrKYUTXxELXbnlIZWulIv87Gc/++Ksf9/73vdK5dHrL3/5y+ONfvOb3yAlqIlqvORkldSJBIHhIDDBe7LKbACGsxIGNVNxZ3IIg8acUWy2EGbcBUSx5fCG4mv4lD/90z81T7xhbKfiVgnqbiEH6hwXTUoI10mpfLxOLVcwEh7wF7/4Ba10iDqUFaMcCQJDRuBM7zmn64TtbN5zAa6TbouXjNgSBM4MYfQUL0pg6l8UWyZv+LP3/+BLjpMDW3wB2y3kAEVQGBNNSvwe+aaxCvW+pcxf/uVflj7LoinlvAaBwSJQDIF/xN2BwD+OmapbfXWd5hsZLAJl5b+PYH9WQBCPSuHoa1+j2BJ4w2iPwtcQ8RjQPI7Xo+I60F1BDo4/Ehft+92VCSgnCMpNi4H4QaMY3WskCAwcgSrekxWzZUD1cQNgWpHBIVAxhMHFyrf+FYSMPkWxJfCG4msEYAJW1AGseMPYTsVFOxV1FFAEuCuMhA9SFsjxBoWFCYWNNaaMK5EgMDQEKnpPJtNL1zm0x535jhCoHsI06WUUWxpvKHQBrKPCcTrm7ugMohAFVwiSUSojDbySKwuTQm4WPOjCZpeBgkB1BKp7z8W5zsraFxPOBqAyYKn4FQJl5Y8i16hQotJX9X5X6l8UWzRvGO1RnAwVVEcFt8qVo6/yDZyOKx4JuqBApB+8elrllvJihJcpStJqMSNmlCDQWgSm8p79c52tfS5RrFEEhACBwBCjyDUquOX6cREvSqjqTRRbNG8ovsb5AigLvoh/wd2tspsv10evkpzqeFvoAujL4xl5IrcWI6M/Qy8KL2bQjBIEWogAG6ziPUeas/eeuc7R1FIYFALilPlOFcLU71kUWw5vGIu7fApkSXkkCkcFaQC6K1yV0wqi7ITCk1M4Tb773e+e9vUvo/B/Wtux69iMQb/xjW+UhMeZQ481z9sg0D8EiqmywZHxstNi124xmeNTZsXquJ4NABAiHUXA8qZ5WeoKRUZWUO6Wi0dfrXzr35XqUazGEGZcJlljFFsobwBZ2aM4YjCTkZSNiLclMCuMiQrlwfA4euCtBO+xOrW8RQ6Os40/+qM/KuMagibl8StHgkDXEKhN3+Ifp/KeM7hO6tboPet1nXSLDA2BmUMYoMSO3kSxhfKG4mu4jzHeMLqiAtsG8XE5eiqBNGhyvM7RKxO+LuZoV0ebnFnW58xtz+w8FYJAVxCY2Xv2yXV25WFFzxoREKH0JvrMEMI0PBo+zoxiws3xLy8uV472o9upRLfzNC9jLYE3jO1Rih6jx1AeTLl49BVTK3UkG3ifo7dqLJ/4NXMecBniNE5T7uY1CEyNQDcbFCOdzXse9VksSyeTMeDmiq88/nq0q8mdjN3V58xtx7rK20EhUFb+bCEMUL2JYovjDaM9yk9+8pPjZwEOAsBKTjuqcGtZMqIpZdEsS42MGwRagkAxhNm8Z29cZ0ueRdRYGALdDWEgqjeKLY43FF9jApNFtbZt60cZjhbqNhnM3J0WgdQ/E4Hues96XeeZQKVCzxDg/6vMSLW2hTBq1xvFFs0bZCaP5xvLlVHmsM0pB8kSzyASBAaLALdYZe6qtc171us6q4CQOn1CwJI2nY6GMJqPePP8UWxBvGG0R5GlNIETZZT2LI/nxDrLukjt8umKFuq2LEwWMm4GaR0CxQQ66j1rdJ2tezBRqEkEuh7CYFNjFFsQbyi+5tKlSyNyYBpj4m6JzfINbdupUJWj9Gr1EIVIEBggAhb/r371KxPng7yeKCMbL1Z/Yp1lXaR2cTIt1G1ZmGTcKgiUBSNIjZb38VbultXVzhBG4bqi2EJ5Q8GU9qdJqYA0wP20Osu6Tjd5TqOXBaQwRMmch41AWfz8Y3e9Z12uc9gLYXCzLytfFJg881KhnSGM5tSrJYotgjeM9iiUpvoEGWURy0OaUHMpt4rHmf9waCnKZ9AgMD8CxTDPNORSoZ3ek261uM75wUwPXUGgNyEM4LVEsRp4w4QvdCt/b/mjH/2IumTCHsVdYh8jkagg38DpKMwsZ2pFN3Wm6h+toSHFivecqm1DldNtEFgYAr3xnrW4zoXBnoEWgIBYICKcJt/+9reLDl0PYWZRSxSrgTdQZbKUKIvmC7qTa7pbHkxrY3M8jmcU6SUCk10nl5oNQC+feyZVEYF+hDCTnT+Kzc4bgFj+frLi689+9jManymmVDpEi8Yq68GtX/7yl2PXj76VgVSnouiwtB3NRfNy5bTXot6o4bFquRAEeotANgC9fbRDndjI81cJGRXdfokROjwewsCsE7cmRDExSIWKojd9FhnNRQ/lymmvRcOjbU+redr12XnDaT3mehAIAh1CYORuZnBVE6ZZfJM+j3tPDsv1Ca5Tt3yfOhVFh5qQ0Vw093aCFPVGDSfUzK0gEATGEOg7bxibbt4GgSAQBIJAEAgCcyAQ3jAHeGkaBIJAEAgCQWBgCCyaNwwM3kw3CASBIBAEgkCvEAhv6NXjzGSCQBAIAkEgCDSKQHhDo/Cm8yAQBIJAEAgCvUIgvKFXjzOTCQJBIAgEgYEhsOjphjcsGvGMFwSCQBAIAkGguwiEN3T32UXzIBAEgkAQaB8Cfdfo/wcAAP//2oRLjgAAAAZJREFUAwCZh8rcLCBpfgAAAABJRU5ErkJggg==;clipPath=inset(0% 0% 20.14% 0%);" vertex="1" parent="1">
          <mxGeometry x="-255" y="210" width="220.96" height="130" as="geometry" />
        </mxCell>
        <mxCell id="o0hQOcRbF2GJ9zcyyPmL-10" value="" style="rounded=1;whiteSpace=wrap;html=1;glass=0;fillColor=none;strokeWidth=5;strokeColor=#FF0000;" vertex="1" parent="1">
          <mxGeometry x="-270" y="140" width="240" height="210" as="geometry" />
        </mxCell>
        <mxCell id="o0hQOcRbF2GJ9zcyyPmL-11" value="&lt;font style=&quot;font-size: 26px; color: rgb(255, 0, 0);&quot;&gt;Reinforcement Learning Agent&lt;/font&gt;" style="text;html=1;align=center;verticalAlign=middle;whiteSpace=wrap;rounded=0;" vertex="1" parent="1">
          <mxGeometry x="-255" y="158" width="210" height="30" as="geometry" />
        </mxCell>
        <mxCell id="o0hQOcRbF2GJ9zcyyPmL-13" value="" style="endArrow=classic;html=1;rounded=0;strokeColor=#FF0000;strokeWidth=6;" edge="1" parent="1">
          <mxGeometry width="50" height="50" relative="1" as="geometry">
            <mxPoint x="-40" y="277" as="sourcePoint" />
            <mxPoint x="112.95999999999998" y="276.71" as="targetPoint" />
          </mxGeometry>
        </mxCell>
        <mxCell id="o0hQOcRbF2GJ9zcyyPmL-14" value="" style="endArrow=classic;html=1;rounded=0;strokeColor=#FF0000;strokeWidth=6;edgeStyle=orthogonalEdgeStyle;" edge="1" parent="1">
          <mxGeometry width="50" height="50" relative="1" as="geometry">
            <mxPoint x="1190" y="761" as="sourcePoint" />
            <mxPoint x="-237" y="272" as="targetPoint" />
            <Array as="points">
              <mxPoint x="303" y="761" />
              <mxPoint x="-320" y="761" />
              <mxPoint x="-320" y="272" />
            </Array>
          </mxGeometry>
        </mxCell>
        <mxCell id="o0hQOcRbF2GJ9zcyyPmL-15" value="" style="endArrow=none;html=1;rounded=0;strokeWidth=6;strokeColor=#FF0000;" edge="1" parent="1">
          <mxGeometry width="50" height="50" relative="1" as="geometry">
            <mxPoint x="280" y="760" as="sourcePoint" />
            <mxPoint x="280" y="580" as="targetPoint" />
          </mxGeometry>
        </mxCell>
        <mxCell id="o0hQOcRbF2GJ9zcyyPmL-16" value="" style="endArrow=none;html=1;rounded=0;strokeWidth=6;strokeColor=#FF0000;" edge="1" parent="1">
          <mxGeometry width="50" height="50" relative="1" as="geometry">
            <mxPoint x="840" y="760" as="sourcePoint" />
            <mxPoint x="840" y="610" as="targetPoint" />
          </mxGeometry>
        </mxCell>
        <mxCell id="o0hQOcRbF2GJ9zcyyPmL-17" value="" style="endArrow=none;html=1;rounded=0;strokeWidth=6;strokeColor=#FF0000;" edge="1" parent="1">
          <mxGeometry width="50" height="50" relative="1" as="geometry">
            <mxPoint x="1190" y="760" as="sourcePoint" />
            <mxPoint x="1190" y="636" as="targetPoint" />
          </mxGeometry>
        </mxCell>
      </root>
    </mxGraphModel>
  </diagram>
</mxfile>
